solid Extension3Prov
facet normal -1.5294014066351788e-16 7.760806367365494e-17 -1.0
  outer loop
    vertex 115.31726116710757 133.04690084698476 0.0
    vertex 113.3187287600383 80.50219612460046 0.0
    vertex 111.1436225867997 133.99302126477528 0.0
  endloop
endfacet
facet normal -1.5294014066351788e-16 7.760806367365494e-17 -1.0
  outer loop
    vertex 113.3187287600383 80.50219612460046 0.0
    vertex 115.31726116710757 133.04690084698476 0.0
    vertex 115.97592378086489 81.17592742496778 0.0
  endloop
endfacet
facet normal -1.5294014066351788e-16 7.760806367365494e-17 -1.0
  outer loop
    vertex 115.97592378086489 81.17592742496778 0.0
    vertex 115.31726116710757 133.04690084698476 0.0
    vertex 119.29150948931499 131.45952782295234 0.0
  endloop
endfacet
facet normal -1.5294014066351788e-16 7.760806367365494e-17 -1.0
  outer loop
    vertex 115.97592378086489 81.17592742496778 0.0
    vertex 119.29150948931499 131.45952782295234 0.0
    vertex 119.90858394918297 82.86370313415398 0.0
  endloop
endfacet
facet normal -1.5294014066351788e-16 7.760806367365494e-17 -1.0
  outer loop
    vertex 119.90858394918297 82.86370313415398 0.0
    vertex 119.29150948931499 131.45952782295234 0.0
    vertex 122.96850836995529 129.26998858471867 0.0
  endloop
endfacet
facet normal -1.5294014066351788e-16 7.760806367365494e-17 -1.0
  outer loop
    vertex 119.90858394918297 82.86370313415398 0.0
    vertex 122.96850836995529 129.26998858471867 0.0
    vertex 123.5288002547792 85.14590311327274 0.0
  endloop
endfacet
facet normal -1.5294014066351788e-16 7.760806367365494e-17 -1.0
  outer loop
    vertex 123.5288002547792 85.14590311327274 0.0
    vertex 122.96850836995529 129.26998858471867 0.0
    vertex 126.25771789332737 126.53219685499326 0.0
  endloop
endfacet
facet normal -1.5294014066351788e-16 7.760806367365494e-17 -1.0
  outer loop
    vertex 123.5288002547792 85.14590311327274 0.0
    vertex 126.25771789332737 126.53219685499326 0.0
    vertex 126.74743095740075 87.96633202465068 0.0
  endloop
endfacet
facet normal -1.5294014066351788e-16 7.760806367365494e-17 -1.0
  outer loop
    vertex 126.74743095740075 87.96633202465068 0.0
    vertex 126.25771789332737 126.53219685499326 0.0
    vertex 129.07814680470528 123.31356615237169 0.0
  endloop
endfacet
facet normal -1.5294014066351788e-16 7.760806367365494e-17 -1.0
  outer loop
    vertex 126.74743095740075 87.96633202465068 0.0
    vertex 129.07814680470528 123.31356615237169 0.0
    vertex 129.48522268712614 91.25554154802278 0.0
  endloop
endfacet
facet normal -1.5294014066351788e-16 7.760806367365494e-17 -1.0
  outer loop
    vertex 129.48522268712614 91.25554154802278 0.0
    vertex 129.07814680470528 123.31356615237169 0.0
    vertex 131.36034678382407 119.69334984677546 0.0
  endloop
endfacet
facet normal -1.5294014066351788e-16 7.760806367365494e-17 -1.0
  outer loop
    vertex 129.48522268712614 91.25554154802278 0.0
    vertex 131.36034678382407 119.69334984677546 0.0
    vertex 131.67476192535983 94.93254042866303 0.0
  endloop
endfacet
facet normal -1.5294014066351788e-16 7.760806367365494e-17 -1.0
  outer loop
    vertex 131.67476192535983 94.93254042866303 0.0
    vertex 131.36034678382407 119.69334984677546 0.0
    vertex 133.04812249301028 115.7606896784574 0.0
  endloop
endfacet
facet normal -1.5294014066351788e-16 7.760806367365494e-17 -1.0
  outer loop
    vertex 131.67476192535983 94.93254042866303 0.0
    vertex 133.04812249301028 115.7606896784574 0.0
    vertex 133.26213494939225 98.90678875087048 0.0
  endloop
endfacet
facet normal -1.5294014066351788e-16 7.760806367365494e-17 -1.0
  outer loop
    vertex 133.26213494939225 98.90678875087048 0.0
    vertex 133.04812249301028 115.7606896784574 0.0
    vertex 134.0999152928973 111.61242079251227 0.0
  endloop
endfacet
facet normal -1.5294014066351788e-16 7.760806367365494e-17 -1.0
  outer loop
    vertex 133.26213494939225 98.90678875087048 0.0
    vertex 134.0999152928973 111.61242079251227 0.0
    vertex 134.2082553671828 103.08042733117836 0.0
  endloop
endfacet
facet normal -1.5294014066351788e-16 7.760806367365494e-17 -1.0
  outer loop
    vertex 134.2082553671828 103.08042733117836 0.0
    vertex 134.0999152928973 111.61242079251227 0.0
    vertex 134.48982655405177 107.35068733622718 0.0
  endloop
endfacet
facet normal -1.5294014066351788e-16 7.760806367365494e-17 -1.0
  outer loop
    vertex 58.61655050410827 137.50424575987827 2.255973186038318e-14
    vertex 58.61655050410827 127.5800344734801 2.0103190209592846e-14
    vertex 56.6517670352635 131.58813536697593 2.255973186038318e-14
  endloop
endfacet
facet normal -1.5294014066351788e-16 7.760806367365494e-17 -1.0
  outer loop
    vertex 58.61655050410827 127.5800344734801 2.0103190209592846e-14
    vertex 58.61655050410827 137.50424575987827 2.255973186038318e-14
    vertex 61.806628985350876 139.0705353203928 2.0846825163998286e-14
  endloop
endfacet
facet normal -1.5294014066351788e-16 7.760806367365494e-17 -1.0
  outer loop
    vertex 58.61655050410827 127.5800344734801 2.0103190209592846e-14
    vertex 61.806628985350876 139.0705353203928 2.0846825163998286e-14
    vertex 82.76452209502574 119.07627538690751 0.0
  endloop
endfacet
facet normal -1.5294014066351788e-16 7.760806367365494e-17 -1.0
  outer loop
    vertex 82.76452209502574 119.07627538690751 0.0
    vertex 61.806628985350876 139.0705353203928 2.0846825163998286e-14
    vertex 90.91048376560634 128.86291270229782 0.0
  endloop
endfacet
facet normal -1.5294014066351788e-16 7.760806367365494e-17 -1.0
  outer loop
    vertex 82.76452209502574 119.07627538690751 0.0
    vertex 90.91048376560634 128.86291270229782 0.0
    vertex 83.07893723656149 94.31546596879508 0.0
  endloop
endfacet
facet normal -1.5294014066351788e-16 7.760806367365494e-17 -1.0
  outer loop
    vertex 83.07893723656149 94.31546596879508 0.0
    vertex 90.91048376560634 128.86291270229782 0.0
    vertex 85.36113721568023 90.69524966319885 0.0
  endloop
endfacet
facet normal -1.5294014066351788e-16 7.760806367365494e-17 -1.0
  outer loop
    vertex 85.36113721568023 90.69524966319885 0.0
    vertex 90.91048376560634 128.86291270229782 0.0
    vertex 88.18156612705818 87.4766189605773 0.0
  endloop
endfacet
facet normal -1.5294014066351788e-16 7.760806367365494e-17 -1.0
  outer loop
    vertex 88.18156612705818 87.4766189605773 0.0
    vertex 90.91048376560634 128.86291270229782 0.0
    vertex 91.47077565043027 84.73882723085187 0.0
  endloop
endfacet
facet normal -1.5294014066351788e-16 7.760806367365494e-17 -1.0
  outer loop
    vertex 91.47077565043027 84.73882723085187 0.0
    vertex 90.91048376560634 128.86291270229782 0.0
    vertex 94.53070007120257 131.14511268141658 0.0
  endloop
endfacet
facet normal -1.5294014066351788e-16 7.760806367365494e-17 -1.0
  outer loop
    vertex 91.47077565043027 84.73882723085187 0.0
    vertex 94.53070007120257 131.14511268141658 0.0
    vertex 95.14777453107054 82.54928799261823 0.0
  endloop
endfacet
facet normal -1.5294014066351788e-16 7.760806367365494e-17 -1.0
  outer loop
    vertex 95.14777453107054 82.54928799261823 0.0
    vertex 94.53070007120257 131.14511268141658 0.0
    vertex 98.46336023952065 132.8328883906028 0.0
  endloop
endfacet
facet normal -1.5294014066351788e-16 7.760806367365494e-17 -1.0
  outer loop
    vertex 95.14777453107054 82.54928799261823 0.0
    vertex 98.46336023952065 132.8328883906028 0.0
    vertex 99.12202285327797 80.96191496858579 0.0
  endloop
endfacet
facet normal -1.5294014066351788e-16 7.760806367365494e-17 -1.0
  outer loop
    vertex 99.12202285327797 80.96191496858579 0.0
    vertex 98.46336023952065 132.8328883906028 0.0
    vertex 102.61162912546577 133.8846811904898 0.0
  endloop
endfacet
facet normal -1.5294014066351788e-16 7.760806367365494e-17 -1.0
  outer loop
    vertex 99.12202285327797 80.96191496858579 0.0
    vertex 102.61162912546577 133.8846811904898 0.0
    vertex 101.20884214343191 80.48885475969053 0.0
  endloop
endfacet
facet normal -1.5294014066351788e-16 7.760806367365494e-17 -1.0
  outer loop
    vertex 101.20884214343191 80.48885475969053 0.0
    vertex 102.61162912546577 133.8846811904898 0.0
    vertex 101.20884214343191 70.55331873543506 0.0
  endloop
endfacet
facet normal -1.5294014066351788e-16 7.760806367365494e-17 -1.0
  outer loop
    vertex 101.20884214343191 70.55331873543506 0.0
    vertex 102.61162912546577 133.8846811904898 0.0
    vertex 103.63725511917643 68.12490575969053 0.0
  endloop
endfacet
facet normal -1.5294014066351788e-16 7.760806367365494e-17 -1.0
  outer loop
    vertex 103.63725511917643 68.12490575969053 0.0
    vertex 102.61162912546577 133.8846811904898 0.0
    vertex 106.87336258175087 134.27459245164425 0.0
  endloop
endfacet
facet normal -1.5294014066351788e-16 7.760806367365494e-17 -1.0
  outer loop
    vertex 103.63725511917643 68.12490575969053 0.0
    vertex 106.87336258175087 134.27459245164425 0.0
    vertex 110.94565858794529 68.12490575969053 0.0
  endloop
endfacet
facet normal -1.5294014066351788e-16 7.760806367365494e-17 -1.0
  outer loop
    vertex 110.94565858794529 68.12490575969053 0.0
    vertex 106.87336258175087 134.27459245164425 0.0
    vertex 111.1436225867997 133.99302126477528 0.0
  endloop
endfacet
facet normal -1.5294014066351788e-16 7.760806367365494e-17 -1.0
  outer loop
    vertex 110.94565858794529 68.12490575969053 0.0
    vertex 111.1436225867997 133.99302126477528 0.0
    vertex 113.3187287600383 70.49797593178354 0.0
  endloop
endfacet
facet normal -1.5294014066351788e-16 7.760806367365494e-17 -1.0
  outer loop
    vertex 113.3187287600383 70.49797593178354 0.0
    vertex 111.1436225867997 133.99302126477528 0.0
    vertex 113.3187287600383 80.50219612460046 0.0
  endloop
endfacet
facet normal -1.5294014066351788e-16 7.760806367365494e-17 -1.0
  outer loop
    vertex 80.23102865320274 110.9283884843922 0.0
    vertex 80.33936872748824 102.39639502305828 0.0
    vertex 79.94945746633375 106.65812847934335 0.0
  endloop
endfacet
facet normal -1.5294014066351788e-16 7.760806367365494e-17 -1.0
  outer loop
    vertex 80.33936872748824 102.39639502305828 0.0
    vertex 80.23102865320274 110.9283884843922 0.0
    vertex 81.17714907099328 115.10202706470007 0.0
  endloop
endfacet
facet normal -1.5294014066351788e-16 7.760806367365494e-17 -1.0
  outer loop
    vertex 80.33936872748824 102.39639502305828 0.0
    vertex 81.17714907099328 115.10202706470007 0.0
    vertex 81.39116152737529 98.24812613711316 0.0
  endloop
endfacet
facet normal -1.5294014066351788e-16 7.760806367365494e-17 -1.0
  outer loop
    vertex 81.39116152737529 98.24812613711316 0.0
    vertex 81.17714907099328 115.10202706470007 0.0
    vertex 82.76452209502574 119.07627538690751 0.0
  endloop
endfacet
facet normal -1.5294014066351788e-16 7.760806367365494e-17 -1.0
  outer loop
    vertex 81.39116152737529 98.24812613711316 0.0
    vertex 82.76452209502574 119.07627538690751 0.0
    vertex 83.07893723656149 94.31546596879508 0.0
  endloop
endfacet
facet normal 1.5294014066351788e-16 -7.760806367365494e-17 1.0
  outer loop
    vertex 80.33936872748824 102.39639502305828 4.522581
    vertex 80.23102865320274 110.9283884843922 4.522581
    vertex 79.94945746633375 106.65812847934335 4.522581
  endloop
endfacet
facet normal 1.5294014066351788e-16 -7.760806367365494e-17 1.0
  outer loop
    vertex 80.23102865320274 110.9283884843922 4.522581
    vertex 80.33936872748824 102.39639502305828 4.522581
    vertex 81.17714907099328 115.10202706470007 4.522581
  endloop
endfacet
facet normal 1.5294014066351788e-16 -7.760806367365494e-17 1.0
  outer loop
    vertex 81.17714907099328 115.10202706470007 4.522581
    vertex 80.33936872748824 102.39639502305828 4.522581
    vertex 81.39116152737529 98.24812613711316 4.522581
  endloop
endfacet
facet normal 1.5294014066351788e-16 -7.760806367365494e-17 1.0
  outer loop
    vertex 81.17714907099328 115.10202706470007 4.522581
    vertex 81.39116152737529 98.24812613711316 4.522581
    vertex 82.76452209502574 119.07627538690751 4.522581
  endloop
endfacet
facet normal 1.5294014066351788e-16 -7.760806367365494e-17 1.0
  outer loop
    vertex 82.76452209502574 119.07627538690751 4.522581
    vertex 81.39116152737529 98.24812613711316 4.522581
    vertex 83.07893723656149 94.31546596879508 4.522581
  endloop
endfacet
facet normal 1.5294014066351788e-16 -7.760806367365494e-17 1.0
  outer loop
    vertex 103.63725511917643 68.12490575969053 4.522581
    vertex 101.20884214343191 80.48885475969053 4.522581
    vertex 101.20884214343191 70.55331873543506 4.522581
  endloop
endfacet
facet normal 1.5294014066351788e-16 -7.760806367365494e-17 1.0
  outer loop
    vertex 95.14777453107054 82.54928799261823 4.522581
    vertex 93.61216889495617 93.77472098421688 4.522580999999962
    vertex 91.47077565043027 84.73882723085187 4.522581
  endloop
endfacet
facet normal 1.5294014066351788e-16 -7.760806367365494e-17 1.0
  outer loop
    vertex 93.61216889495617 93.77472098421688 4.522580999999962
    vertex 95.14777453107054 82.54928799261823 4.522581
    vertex 121.11636089495622 93.77472098421683 4.522580999999962
  endloop
endfacet
facet normal 1.5294014066351788e-16 -7.760806367365494e-17 1.0
  outer loop
    vertex 121.11636089495622 93.77472098421683 4.522580999999962
    vertex 95.14777453107054 82.54928799261823 4.522581
    vertex 99.12202285327797 80.96191496858579 4.522581
  endloop
endfacet
facet normal 1.5294014066351788e-16 -7.760806367365494e-17 1.0
  outer loop
    vertex 121.11636089495622 93.77472098421683 4.522580999999962
    vertex 99.12202285327797 80.96191496858579 4.522581
    vertex 101.20884214343191 80.48885475969053 4.522581
  endloop
endfacet
facet normal 1.5294014066351788e-16 -7.760806367365494e-17 1.0
  outer loop
    vertex 121.11636089495622 93.77472098421683 4.522580999999962
    vertex 101.20884214343191 80.48885475969053 4.522581
    vertex 103.63725511917643 68.12490575969053 4.522581
  endloop
endfacet
facet normal 1.5294014066351788e-16 -7.760806367365494e-17 1.0
  outer loop
    vertex 121.11636089495622 93.77472098421683 4.522580999999962
    vertex 103.63725511917643 68.12490575969053 4.522581
    vertex 113.3187287600383 80.50219612460046 4.522581
  endloop
endfacet
facet normal 1.5294014066351788e-16 -7.760806367365494e-17 1.0
  outer loop
    vertex 113.3187287600383 80.50219612460046 4.522581
    vertex 103.63725511917643 68.12490575969053 4.522581
    vertex 110.94565858794529 68.12490575969053 4.522581
  endloop
endfacet
facet normal 1.5294014066351788e-16 -7.760806367365494e-17 1.0
  outer loop
    vertex 113.3187287600383 80.50219612460046 4.522581
    vertex 110.94565858794529 68.12490575969053 4.522581
    vertex 113.3187287600383 70.49797593178354 4.522581
  endloop
endfacet
facet normal 1.5294014066351788e-16 -7.760806367365494e-17 1.0
  outer loop
    vertex 121.11636089495622 93.77472098421683 4.522580999999962
    vertex 113.3187287600383 80.50219612460046 4.522581
    vertex 115.97592378086489 81.17592742496778 4.522581
  endloop
endfacet
facet normal 1.5294014066351788e-16 -7.760806367365494e-17 1.0
  outer loop
    vertex 121.11636089495622 93.77472098421683 4.522580999999962
    vertex 115.97592378086489 81.17592742496778 4.522581
    vertex 119.90858394918297 82.86370313415398 4.522581
  endloop
endfacet
facet normal 1.5294014066351788e-16 -7.760806367365494e-17 1.0
  outer loop
    vertex 121.11636089495622 93.77472098421683 4.522580999999962
    vertex 119.90858394918297 82.86370313415398 4.522581
    vertex 123.5288002547792 85.14590311327274 4.522581
  endloop
endfacet
facet normal 1.5294014066351788e-16 -7.760806367365494e-17 1.0
  outer loop
    vertex 121.11636089495622 93.77472098421683 4.522580999999962
    vertex 123.5288002547792 85.14590311327274 4.522581
    vertex 121.1163608949563 120.14513598421676 4.522580999999962
  endloop
endfacet
facet normal 1.5294014066351788e-16 -7.760806367365494e-17 1.0
  outer loop
    vertex 121.1163608949563 120.14513598421676 4.522580999999962
    vertex 123.5288002547792 85.14590311327274 4.522581
    vertex 122.96850836995529 129.26998858471867 4.522581
  endloop
endfacet
facet normal 1.5294014066351788e-16 -7.760806367365494e-17 1.0
  outer loop
    vertex 122.96850836995529 129.26998858471867 4.522581
    vertex 123.5288002547792 85.14590311327274 4.522581
    vertex 126.25771789332737 126.53219685499326 4.522581
  endloop
endfacet
facet normal 1.5294014066351788e-16 -7.760806367365494e-17 1.0
  outer loop
    vertex 126.25771789332737 126.53219685499326 4.522581
    vertex 123.5288002547792 85.14590311327274 4.522581
    vertex 126.74743095740075 87.96633202465068 4.522581
  endloop
endfacet
facet normal 1.5294014066351788e-16 -7.760806367365494e-17 1.0
  outer loop
    vertex 126.25771789332737 126.53219685499326 4.522581
    vertex 126.74743095740075 87.96633202465068 4.522581
    vertex 129.07814680470528 123.31356615237169 4.522581
  endloop
endfacet
facet normal 1.5294014066351788e-16 -7.760806367365494e-17 1.0
  outer loop
    vertex 129.07814680470528 123.31356615237169 4.522581
    vertex 126.74743095740075 87.96633202465068 4.522581
    vertex 129.48522268712614 91.25554154802278 4.522581
  endloop
endfacet
facet normal 1.5294014066351788e-16 -7.760806367365494e-17 1.0
  outer loop
    vertex 129.07814680470528 123.31356615237169 4.522581
    vertex 129.48522268712614 91.25554154802278 4.522581
    vertex 131.36034678382407 119.69334984677546 4.522581
  endloop
endfacet
facet normal 1.5294014066351788e-16 -7.760806367365494e-17 1.0
  outer loop
    vertex 131.36034678382407 119.69334984677546 4.522581
    vertex 129.48522268712614 91.25554154802278 4.522581
    vertex 131.67476192535983 94.93254042866303 4.522581
  endloop
endfacet
facet normal 1.5294014066351788e-16 -7.760806367365494e-17 1.0
  outer loop
    vertex 131.36034678382407 119.69334984677546 4.522581
    vertex 131.67476192535983 94.93254042866303 4.522581
    vertex 133.04812249301028 115.7606896784574 4.522581
  endloop
endfacet
facet normal 1.5294014066351788e-16 -7.760806367365494e-17 1.0
  outer loop
    vertex 133.04812249301028 115.7606896784574 4.522581
    vertex 131.67476192535983 94.93254042866303 4.522581
    vertex 133.26213494939225 98.90678875087048 4.522581
  endloop
endfacet
facet normal 1.5294014066351788e-16 -7.760806367365494e-17 1.0
  outer loop
    vertex 133.04812249301028 115.7606896784574 4.522581
    vertex 133.26213494939225 98.90678875087048 4.522581
    vertex 134.0999152928973 111.61242079251227 4.522581
  endloop
endfacet
facet normal 1.5294014066351788e-16 -7.760806367365494e-17 1.0
  outer loop
    vertex 134.0999152928973 111.61242079251227 4.522581
    vertex 133.26213494939225 98.90678875087048 4.522581
    vertex 134.2082553671828 103.08042733117836 4.522581
  endloop
endfacet
facet normal 1.5294014066351788e-16 -7.760806367365494e-17 1.0
  outer loop
    vertex 134.0999152928973 111.61242079251227 4.522581
    vertex 134.2082553671828 103.08042733117836 4.522581
    vertex 134.48982655405177 107.35068733622718 4.522581
  endloop
endfacet
facet normal 1.5294014066351788e-16 -7.760806367365494e-17 1.0
  outer loop
    vertex 58.61655050410827 127.5800344734801 4.522581000000019
    vertex 58.61655050410827 137.50424575987827 4.522581000000022
    vertex 56.6517670352635 131.58813536697593 4.522581000000022
  endloop
endfacet
facet normal 1.5294014066351788e-16 -7.760806367365494e-17 1.0
  outer loop
    vertex 58.61655050410827 137.50424575987827 4.522581000000022
    vertex 58.61655050410827 127.5800344734801 4.522581000000019
    vertex 82.76452209502574 119.07627538690751 4.522581
  endloop
endfacet
facet normal 1.5294014066351788e-16 -7.760806367365494e-17 1.0
  outer loop
    vertex 58.61655050410827 137.50424575987827 4.522581000000022
    vertex 82.76452209502574 119.07627538690751 4.522581
    vertex 61.806628985350876 139.0705353203928 4.52258100000002
  endloop
endfacet
facet normal 1.5294014066351788e-16 -7.760806367365494e-17 1.0
  outer loop
    vertex 61.806628985350876 139.0705353203928 4.52258100000002
    vertex 82.76452209502574 119.07627538690751 4.522581
    vertex 90.91048376560634 128.86291270229782 4.522581
  endloop
endfacet
facet normal 1.5294014066351788e-16 -7.760806367365494e-17 1.0
  outer loop
    vertex 90.91048376560634 128.86291270229782 4.522581
    vertex 82.76452209502574 119.07627538690751 4.522581
    vertex 83.07893723656149 94.31546596879508 4.522581
  endloop
endfacet
facet normal 1.5294014066351788e-16 -7.760806367365494e-17 1.0
  outer loop
    vertex 90.91048376560634 128.86291270229782 4.522581
    vertex 83.07893723656149 94.31546596879508 4.522581
    vertex 85.36113721568023 90.69524966319885 4.522581
  endloop
endfacet
facet normal 1.5294014066351788e-16 -7.760806367365494e-17 1.0
  outer loop
    vertex 90.91048376560634 128.86291270229782 4.522581
    vertex 85.36113721568023 90.69524966319885 4.522581
    vertex 88.18156612705818 87.4766189605773 4.522581
  endloop
endfacet
facet normal 1.5294014066351788e-16 -7.760806367365494e-17 1.0
  outer loop
    vertex 90.91048376560634 128.86291270229782 4.522581
    vertex 88.18156612705818 87.4766189605773 4.522581
    vertex 91.47077565043027 84.73882723085187 4.522581
  endloop
endfacet
facet normal 1.5294014066351788e-16 -7.760806367365494e-17 1.0
  outer loop
    vertex 90.91048376560634 128.86291270229782 4.522581
    vertex 91.47077565043027 84.73882723085187 4.522581
    vertex 93.61216889495618 120.14513598421664 4.522580999999962
  endloop
endfacet
facet normal 1.5294014066351788e-16 -7.760806367365494e-17 1.0
  outer loop
    vertex 90.91048376560634 128.86291270229782 4.522581
    vertex 93.61216889495618 120.14513598421664 4.522580999999962
    vertex 94.53070007120257 131.14511268141658 4.522581
  endloop
endfacet
facet normal 1.5294014066351788e-16 -7.760806367365494e-17 1.0
  outer loop
    vertex 93.61216889495618 120.14513598421664 4.522580999999962
    vertex 91.47077565043027 84.73882723085187 4.522581
    vertex 93.61216889495617 93.77472098421688 4.522580999999962
  endloop
endfacet
facet normal 1.5294014066351788e-16 -7.760806367365494e-17 1.0
  outer loop
    vertex 94.53070007120257 131.14511268141658 4.522581
    vertex 93.61216889495618 120.14513598421664 4.522580999999962
    vertex 121.1163608949563 120.14513598421676 4.522580999999962
  endloop
endfacet
facet normal 1.5294014066351788e-16 -7.760806367365494e-17 1.0
  outer loop
    vertex 94.53070007120257 131.14511268141658 4.522581
    vertex 121.1163608949563 120.14513598421676 4.522580999999962
    vertex 98.46336023952065 132.8328883906028 4.522581
  endloop
endfacet
facet normal 1.5294014066351788e-16 -7.760806367365494e-17 1.0
  outer loop
    vertex 98.46336023952065 132.8328883906028 4.522581
    vertex 121.1163608949563 120.14513598421676 4.522580999999962
    vertex 102.61162912546577 133.8846811904898 4.522581
  endloop
endfacet
facet normal 1.5294014066351788e-16 -7.760806367365494e-17 1.0
  outer loop
    vertex 102.61162912546577 133.8846811904898 4.522581
    vertex 121.1163608949563 120.14513598421676 4.522580999999962
    vertex 106.87336258175087 134.27459245164425 4.522581
  endloop
endfacet
facet normal 1.5294014066351788e-16 -7.760806367365494e-17 1.0
  outer loop
    vertex 106.87336258175087 134.27459245164425 4.522581
    vertex 121.1163608949563 120.14513598421676 4.522580999999962
    vertex 111.1436225867997 133.99302126477528 4.522581
  endloop
endfacet
facet normal 1.5294014066351788e-16 -7.760806367365494e-17 1.0
  outer loop
    vertex 111.1436225867997 133.99302126477528 4.522581
    vertex 121.1163608949563 120.14513598421676 4.522580999999962
    vertex 115.31726116710757 133.04690084698476 4.522581
  endloop
endfacet
facet normal 1.5294014066351788e-16 -7.760806367365494e-17 1.0
  outer loop
    vertex 115.31726116710757 133.04690084698476 4.522581
    vertex 121.1163608949563 120.14513598421676 4.522580999999962
    vertex 119.29150948931499 131.45952782295234 4.522581
  endloop
endfacet
facet normal 1.5294014066351788e-16 -7.760806367365494e-17 1.0
  outer loop
    vertex 119.29150948931499 131.45952782295234 4.522581
    vertex 121.1163608949563 120.14513598421676 4.522580999999962
    vertex 122.96850836995529 129.26998858471867 4.522581
  endloop
endfacet
facet normal -0.9286640169328275 0.3709220182925044 1.708165449924595e-16
  outer loop
    vertex 82.76452209502574 119.07627538690751 4.522581
    vertex 81.17714907099328 115.10202706470007 0.0
    vertex 81.17714907099328 115.10202706470007 4.522581
  endloop
endfacet
facet normal -0.9286640169328275 0.3709220182925044 1.708165449924595e-16
  outer loop
    vertex 81.17714907099328 115.10202706470007 0.0
    vertex 82.76452209502574 119.07627538690751 4.522581
    vertex 82.76452209502574 119.07627538690751 0.0
  endloop
endfacet
facet normal -0.33215820924023576 -0.943223687167747 -2.240144072847024e-17
  outer loop
    vertex 82.76452209502574 119.07627538690751 4.522581
    vertex 58.61655050410827 127.5800344734801 2.0103190209592846e-14
    vertex 82.76452209502574 119.07627538690751 0.0
  endloop
endfacet
facet normal -0.33215820924023576 -0.943223687167747 -2.240144072847024e-17
  outer loop
    vertex 58.61655050410827 127.5800344734801 2.0103190209592846e-14
    vertex 82.76452209502574 119.07627538690751 4.522581
    vertex 58.61655050410827 127.5800344734801 4.522581000000019
  endloop
endfacet
facet normal -0.8979182321546563 -0.44016229775419985 1.0316759709922024e-16
  outer loop
    vertex 56.6517670352635 131.58813536697593 4.522581000000022
    vertex 58.61655050410827 127.5800344734801 2.0103190209592846e-14
    vertex 58.61655050410827 127.5800344734801 4.522581000000019
  endloop
endfacet
facet normal -0.8979182321546563 -0.44016229775419985 1.0316759709922024e-16
  outer loop
    vertex 58.61655050410827 127.5800344734801 2.0103190209592846e-14
    vertex 56.6517670352635 131.58813536697593 4.522581000000022
    vertex 56.6517670352635 131.58813536697593 2.255973186038318e-14
  endloop
endfacet
facet normal -0.9490317825199305 0.3151803860760428 1.6960559378402393e-16
  outer loop
    vertex 58.61655050410827 137.50424575987827 4.522581000000022
    vertex 56.6517670352635 131.58813536697593 2.255973186038318e-14
    vertex 56.6517670352635 131.58813536697593 4.522581000000022
  endloop
endfacet
facet normal -0.9490317825199305 0.3151803860760428 1.6960559378402393e-16
  outer loop
    vertex 56.6517670352635 131.58813536697593 2.255973186038318e-14
    vertex 58.61655050410827 137.50424575987827 4.522581000000022
    vertex 58.61655050410827 137.50424575987827 2.255973186038318e-14
  endloop
endfacet
facet normal -0.4407301095339586 0.8976396663195009 1.3706940132649346e-16
  outer loop
    vertex 58.61655050410827 137.50424575987827 2.255973186038318e-14
    vertex 61.806628985350876 139.0705353203928 4.52258100000002
    vertex 61.806628985350876 139.0705353203928 2.0846825163998286e-14
  endloop
endfacet
facet normal -0.4407301095339586 0.8976396663195009 1.3706940132649346e-16
  outer loop
    vertex 61.806628985350876 139.0705353203928 4.52258100000002
    vertex 58.61655050410827 137.50424575987827 2.255973186038318e-14
    vertex 58.61655050410827 137.50424575987827 4.522581000000022
  endloop
endfacet
facet normal 0.3309648360944842 0.9436430878615873 2.2616504260997876e-17
  outer loop
    vertex 61.806628985350876 139.0705353203928 2.0846825163998286e-14
    vertex 90.91048376560634 128.86291270229782 4.522581
    vertex 90.91048376560634 128.86291270229782 0.0
  endloop
endfacet
facet normal 0.3309648360944842 0.9436430878615873 2.2616504260997876e-17
  outer loop
    vertex 90.91048376560634 128.86291270229782 4.522581
    vertex 61.806628985350876 139.0705353203928 2.0846825163998286e-14
    vertex 61.806628985350876 139.0705353203928 4.52258100000002
  endloop
endfacet
facet normal -0.533282479660269 0.8459372298742943 1.4721184785263065e-16
  outer loop
    vertex 90.91048376560634 128.86291270229782 4.522581
    vertex 94.53070007120257 131.14511268141658 0.0
    vertex 90.91048376560634 128.86291270229782 0.0
  endloop
endfacet
facet normal -0.533282479660269 0.8459372298742943 1.4721184785263065e-16
  outer loop
    vertex 94.53070007120257 131.14511268141658 0.0
    vertex 90.91048376560634 128.86291270229782 4.522581
    vertex 94.53070007120257 131.14511268141658 4.522581
  endloop
endfacet
facet normal -0.3943831493911101 0.918946098243172 1.3163464164831042e-16
  outer loop
    vertex 94.53070007120257 131.14511268141658 4.522581
    vertex 98.46336023952065 132.8328883906028 0.0
    vertex 94.53070007120257 131.14511268141658 0.0
  endloop
endfacet
facet normal -0.3943831493911101 0.918946098243172 1.3163464164831042e-16
  outer loop
    vertex 98.46336023952065 132.8328883906028 0.0
    vertex 94.53070007120257 131.14511268141658 4.522581
    vertex 98.46336023952065 132.8328883906028 4.522581
  endloop
endfacet
facet normal -0.24577279710131023 0.9693274638660551 1.1281615369627988e-16
  outer loop
    vertex 98.46336023952065 132.8328883906028 4.522581
    vertex 102.61162912546577 133.8846811904898 0.0
    vertex 98.46336023952065 132.8328883906028 0.0
  endloop
endfacet
facet normal -0.24577279710131023 0.9693274638660551 1.1281615369627988e-16
  outer loop
    vertex 102.61162912546577 133.8846811904898 0.0
    vertex 98.46336023952065 132.8328883906028 4.522581
    vertex 102.61162912546577 133.8846811904898 4.522581
  endloop
endfacet
facet normal -0.09111070287372479 0.9958407703151423 9.121975762489858e-17
  outer loop
    vertex 102.61162912546577 133.8846811904898 4.522581
    vertex 106.87336258175087 134.27459245164425 0.0
    vertex 102.61162912546577 133.8846811904898 0.0
  endloop
endfacet
facet normal -0.09111070287372479 0.9958407703151423 9.121975762489858e-17
  outer loop
    vertex 106.87336258175087 134.27459245164425 0.0
    vertex 102.61162912546577 133.8846811904898 4.522581
    vertex 106.87336258175087 134.27459245164425 4.522581
  endloop
endfacet
facet normal 0.06579483923768728 0.9978331719930376 6.73772283797753e-17
  outer loop
    vertex 106.87336258175087 134.27459245164425 4.522581
    vertex 111.1436225867997 133.99302126477528 0.0
    vertex 106.87336258175087 134.27459245164425 0.0
  endloop
endfacet
facet normal 0.06579483923768728 0.9978331719930376 6.73772283797753e-17
  outer loop
    vertex 111.1436225867997 133.99302126477528 0.0
    vertex 106.87336258175087 134.27459245164425 4.522581
    vertex 111.1436225867997 133.99302126477528 4.522581
  endloop
endfacet
facet normal 0.2210802940465224 0.9752556093580305 4.1875648159740137e-17
  outer loop
    vertex 111.1436225867997 133.99302126477528 4.522581
    vertex 115.31726116710757 133.04690084698476 0.0
    vertex 111.1436225867997 133.99302126477528 0.0
  endloop
endfacet
facet normal 0.2210802940465224 0.9752556093580305 4.1875648159740137e-17
  outer loop
    vertex 115.31726116710757 133.04690084698476 0.0
    vertex 111.1436225867997 133.99302126477528 4.522581
    vertex 115.31726116710757 133.04690084698476 4.522581
  endloop
endfacet
facet normal 0.370922018292504 0.9286640169328279 1.534295050470356e-17
  outer loop
    vertex 115.31726116710757 133.04690084698476 4.522581
    vertex 119.29150948931499 131.45952782295234 0.0
    vertex 115.31726116710757 133.04690084698476 0.0
  endloop
endfacet
facet normal 0.370922018292504 0.9286640169328279 1.534295050470356e-17
  outer loop
    vertex 119.29150948931499 131.45952782295234 0.0
    vertex 115.31726116710757 133.04690084698476 4.522581
    vertex 119.29150948931499 131.45952782295234 4.522581
  endloop
endfacet
facet normal 0.5116304114285185 0.8592056343515707 -1.156754151209136e-17
  outer loop
    vertex 119.29150948931499 131.45952782295234 4.522581
    vertex 122.96850836995529 129.26998858471867 0.0
    vertex 119.29150948931499 131.45952782295234 0.0
  endloop
endfacet
facet normal 0.5116304114285185 0.8592056343515707 -1.156754151209136e-17
  outer loop
    vertex 122.96850836995529 129.26998858471867 0.0
    vertex 119.29150948931499 131.45952782295234 4.522581
    vertex 122.96850836995529 129.26998858471867 4.522581
  endloop
endfacet
facet normal 0.6397407658311846 0.7685907575125592 -3.819320226639064e-17
  outer loop
    vertex 122.96850836995529 129.26998858471867 4.522581
    vertex 126.25771789332737 126.53219685499326 0.0
    vertex 122.96850836995529 129.26998858471867 0.0
  endloop
endfacet
facet normal 0.6397407658311846 0.7685907575125592 -3.819320226639064e-17
  outer loop
    vertex 126.25771789332737 126.53219685499326 0.0
    vertex 122.96850836995529 129.26998858471867 4.522581
    vertex 126.25771789332737 126.53219685499326 4.522581
  endloop
endfacet
facet normal 0.7520985794012104 0.6590506254171082 -6.387841962492003e-17
  outer loop
    vertex 126.25771789332737 126.53219685499326 0.0
    vertex 129.07814680470528 123.31356615237169 4.522581
    vertex 129.07814680470528 123.31356615237169 0.0
  endloop
endfacet
facet normal 0.7520985794012104 0.6590506254171082 -6.387841962492003e-17
  outer loop
    vertex 129.07814680470528 123.31356615237169 4.522581
    vertex 126.25771789332737 126.53219685499326 0.0
    vertex 126.25771789332737 126.53219685499326 4.522581
  endloop
endfacet
facet normal 0.8459372298742937 0.5332824796602702 -8.799073829196229e-17
  outer loop
    vertex 129.07814680470528 123.31356615237169 0.0
    vertex 131.36034678382407 119.69334984677546 4.522581
    vertex 131.36034678382407 119.69334984677546 0.0
  endloop
endfacet
facet normal 0.8459372298742937 0.5332824796602702 -8.799073829196229e-17
  outer loop
    vertex 131.36034678382407 119.69334984677546 4.522581
    vertex 129.07814680470528 123.31356615237169 0.0
    vertex 129.07814680470528 123.31356615237169 4.522581
  endloop
endfacet
facet normal 0.91894609824317 0.3943831493911145 -1.0993643295773916e-16
  outer loop
    vertex 131.36034678382407 119.69334984677546 0.0
    vertex 133.04812249301028 115.7606896784574 4.522581
    vertex 133.04812249301028 115.7606896784574 0.0
  endloop
endfacet
facet normal 0.91894609824317 0.3943831493911145 -1.0993643295773916e-16
  outer loop
    vertex 133.04812249301028 115.7606896784574 4.522581
    vertex 131.36034678382407 119.69334984677546 0.0
    vertex 131.36034678382407 119.69334984677546 4.522581
  endloop
endfacet
facet normal 0.9693274638660551 0.24577279710131023 -1.2917512778599474e-16
  outer loop
    vertex 133.04812249301028 115.7606896784574 0.0
    vertex 134.0999152928973 111.61242079251227 4.522581
    vertex 134.0999152928973 111.61242079251227 0.0
  endloop
endfacet
facet normal 0.9693274638660551 0.24577279710131023 -1.2917512778599474e-16
  outer loop
    vertex 134.0999152928973 111.61242079251227 4.522581
    vertex 133.04812249301028 115.7606896784574 0.0
    vertex 133.04812249301028 115.7606896784574 4.522581
  endloop
endfacet
facet normal 0.9958407703151418 0.09111070287373002 -1.4523310226048788e-16
  outer loop
    vertex 134.0999152928973 111.61242079251227 0.0
    vertex 134.48982655405177 107.35068733622718 4.522581
    vertex 134.48982655405177 107.35068733622718 0.0
  endloop
endfacet
facet normal 0.9958407703151418 0.09111070287373002 -1.4523310226048788e-16
  outer loop
    vertex 134.48982655405177 107.35068733622718 4.522581
    vertex 134.0999152928973 111.61242079251227 0.0
    vertex 134.0999152928973 111.61242079251227 4.522581
  endloop
endfacet
facet normal 0.9978331719930376 -0.06579483923768728 -1.5771495575629571e-16
  outer loop
    vertex 134.48982655405177 107.35068733622718 0.0
    vertex 134.2082553671828 103.08042733117836 4.522581
    vertex 134.2082553671828 103.08042733117836 0.0
  endloop
endfacet
facet normal 0.9978331719930376 -0.06579483923768728 -1.5771495575629571e-16
  outer loop
    vertex 134.2082553671828 103.08042733117836 4.522581
    vertex 134.48982655405177 107.35068733622718 0.0
    vertex 134.48982655405177 107.35068733622718 4.522581
  endloop
endfacet
facet normal 0.9752556093580294 -0.22108029404652743 -1.6631334361545514e-16
  outer loop
    vertex 134.2082553671828 103.08042733117836 0.0
    vertex 133.26213494939225 98.90678875087048 4.522581
    vertex 133.26213494939225 98.90678875087048 0.0
  endloop
endfacet
facet normal 0.9752556093580294 -0.22108029404652743 -1.6631334361545514e-16
  outer loop
    vertex 133.26213494939225 98.90678875087048 4.522581
    vertex 134.2082553671828 103.08042733117836 0.0
    vertex 134.2082553671828 103.08042733117836 4.522581
  endloop
endfacet
facet normal 0.928664016932829 -0.37092201829250127 -1.7081654499245946e-16
  outer loop
    vertex 133.26213494939225 98.90678875087048 0.0
    vertex 131.67476192535983 94.93254042866303 4.522581
    vertex 131.67476192535983 94.93254042866303 0.0
  endloop
endfacet
facet normal 0.928664016932829 -0.37092201829250127 -1.7081654499245946e-16
  outer loop
    vertex 131.67476192535983 94.93254042866303 4.522581
    vertex 133.26213494939225 98.90678875087048 0.0
    vertex 133.26213494939225 98.90678875087048 4.522581
  endloop
endfacet
facet normal 0.8592056343515656 -0.5116304114285269 -1.7111367612413896e-16
  outer loop
    vertex 131.67476192535983 94.93254042866303 0.0
    vertex 129.48522268712614 91.25554154802278 4.522581
    vertex 129.48522268712614 91.25554154802278 0.0
  endloop
endfacet
facet normal 0.8592056343515656 -0.5116304114285269 -1.7111367612413896e-16
  outer loop
    vertex 129.48522268712614 91.25554154802278 4.522581
    vertex 131.67476192535983 94.93254042866303 0.0
    vertex 131.67476192535983 94.93254042866303 4.522581
  endloop
endfacet
facet normal 0.7685907575125629 -0.6397407658311802 -1.6719742065591012e-16
  outer loop
    vertex 129.48522268712614 91.25554154802278 0.0
    vertex 126.74743095740075 87.96633202465068 4.522581
    vertex 126.74743095740075 87.96633202465068 0.0
  endloop
endfacet
facet normal 0.7685907575125629 -0.6397407658311802 -1.6719742065591012e-16
  outer loop
    vertex 126.74743095740075 87.96633202465068 4.522581
    vertex 129.48522268712614 91.25554154802278 0.0
    vertex 129.48522268712614 91.25554154802278 4.522581
  endloop
endfacet
facet normal 0.6590506254171097 -0.7520985794012089 -1.5916420979470663e-16
  outer loop
    vertex 126.74743095740075 87.96633202465068 4.522581
    vertex 123.5288002547792 85.14590311327274 0.0
    vertex 126.74743095740075 87.96633202465068 0.0
  endloop
endfacet
facet normal 0.6590506254171097 -0.7520985794012089 -1.5916420979470663e-16
  outer loop
    vertex 123.5288002547792 85.14590311327274 0.0
    vertex 126.74743095740075 87.96633202465068 4.522581
    vertex 123.5288002547792 85.14590311327274 4.522581
  endloop
endfacet
facet normal 0.5332824796602683 -0.845937229874295 -1.472118478526306e-16
  outer loop
    vertex 123.5288002547792 85.14590311327274 4.522581
    vertex 119.90858394918297 82.86370313415398 0.0
    vertex 123.5288002547792 85.14590311327274 0.0
  endloop
endfacet
facet normal 0.5332824796602683 -0.845937229874295 -1.472118478526306e-16
  outer loop
    vertex 119.90858394918297 82.86370313415398 0.0
    vertex 123.5288002547792 85.14590311327274 4.522581
    vertex 119.90858394918297 82.86370313415398 4.522581
  endloop
endfacet
facet normal 0.3943831493911123 -0.918946098243171 -1.316346416483107e-16
  outer loop
    vertex 119.90858394918297 82.86370313415398 4.522581
    vertex 115.97592378086489 81.17592742496778 0.0
    vertex 119.90858394918297 82.86370313415398 0.0
  endloop
endfacet
facet normal 0.3943831493911123 -0.918946098243171 -1.316346416483107e-16
  outer loop
    vertex 115.97592378086489 81.17592742496778 0.0
    vertex 119.90858394918297 82.86370313415398 4.522581
    vertex 115.97592378086489 81.17592742496778 4.522581
  endloop
endfacet
facet normal 0.24577279710131175 -0.9693274638660548 -1.1281615369628008e-16
  outer loop
    vertex 115.97592378086489 81.17592742496778 4.522581
    vertex 113.3187287600383 80.50219612460046 0.0
    vertex 115.97592378086489 81.17592742496778 0.0
  endloop
endfacet
facet normal 0.24577279710131175 -0.9693274638660548 -1.1281615369628008e-16
  outer loop
    vertex 113.3187287600383 80.50219612460046 0.0
    vertex 115.97592378086489 81.17592742496778 4.522581
    vertex 113.3187287600383 80.50219612460046 4.522581
  endloop
endfacet
facet normal 1.0 0.0 -1.5294014066351788e-16
  outer loop
    vertex 113.3187287600383 80.50219612460046 0.0
    vertex 113.3187287600383 70.49797593178354 4.522581
    vertex 113.3187287600383 70.49797593178354 0.0
  endloop
endfacet
facet normal 1.0 0.0 -1.5294014066351788e-16
  outer loop
    vertex 113.3187287600383 70.49797593178354 4.522581
    vertex 113.3187287600383 80.50219612460046 0.0
    vertex 113.3187287600383 80.50219612460046 4.522581
  endloop
endfacet
facet normal 0.7071067811865476 -0.7071067811865476 -1.6302219867719675e-16
  outer loop
    vertex 113.3187287600383 70.49797593178354 0.0
    vertex 110.94565858794529 68.12490575969053 4.522581
    vertex 110.94565858794529 68.12490575969053 0.0
  endloop
endfacet
facet normal 0.7071067811865476 -0.7071067811865476 -1.6302219867719675e-16
  outer loop
    vertex 110.94565858794529 68.12490575969053 4.522581
    vertex 113.3187287600383 70.49797593178354 0.0
    vertex 113.3187287600383 70.49797593178354 4.522581
  endloop
endfacet
facet normal -0.0 -1.0 -7.760806367365494e-17
  outer loop
    vertex 110.94565858794529 68.12490575969053 4.522581
    vertex 103.63725511917643 68.12490575969053 0.0
    vertex 110.94565858794529 68.12490575969053 0.0
  endloop
endfacet
facet normal -0.0 -1.0 -7.760806367365494e-17
  outer loop
    vertex 103.63725511917643 68.12490575969053 0.0
    vertex 110.94565858794529 68.12490575969053 4.522581
    vertex 103.63725511917643 68.12490575969053 4.522581
  endloop
endfacet
facet normal -0.7071067811865492 -0.7071067811865459 5.326782248039955e-17
  outer loop
    vertex 101.20884214343191 70.55331873543506 4.522581
    vertex 103.63725511917643 68.12490575969053 0.0
    vertex 103.63725511917643 68.12490575969053 4.522581
  endloop
endfacet
facet normal -0.7071067811865492 -0.7071067811865459 5.326782248039955e-17
  outer loop
    vertex 103.63725511917643 68.12490575969053 0.0
    vertex 101.20884214343191 70.55331873543506 4.522581
    vertex 101.20884214343191 70.55331873543506 0.0
  endloop
endfacet
facet normal -1.0 0.0 1.5294014066351788e-16
  outer loop
    vertex 101.20884214343191 80.48885475969053 4.522581
    vertex 101.20884214343191 70.55331873543506 0.0
    vertex 101.20884214343191 70.55331873543506 4.522581
  endloop
endfacet
facet normal -1.0 0.0 1.5294014066351788e-16
  outer loop
    vertex 101.20884214343191 70.55331873543506 0.0
    vertex 101.20884214343191 80.48885475969053 4.522581
    vertex 101.20884214343191 80.48885475969053 0.0
  endloop
endfacet
facet normal -0.2210802940465213 -0.9752556093580308 -4.187564815974034e-17
  outer loop
    vertex 101.20884214343191 80.48885475969053 4.522581
    vertex 99.12202285327797 80.96191496858579 0.0
    vertex 101.20884214343191 80.48885475969053 0.0
  endloop
endfacet
facet normal -0.2210802940465213 -0.9752556093580308 -4.187564815974034e-17
  outer loop
    vertex 99.12202285327797 80.96191496858579 0.0
    vertex 101.20884214343191 80.48885475969053 4.522581
    vertex 99.12202285327797 80.96191496858579 4.522581
  endloop
endfacet
facet normal -0.3709220182925053 -0.9286640169328273 -1.5342950504703305e-17
  outer loop
    vertex 99.12202285327797 80.96191496858579 4.522581
    vertex 95.14777453107054 82.54928799261823 0.0
    vertex 99.12202285327797 80.96191496858579 0.0
  endloop
endfacet
facet normal -0.3709220182925053 -0.9286640169328273 -1.5342950504703305e-17
  outer loop
    vertex 95.14777453107054 82.54928799261823 0.0
    vertex 99.12202285327797 80.96191496858579 4.522581
    vertex 95.14777453107054 82.54928799261823 4.522581
  endloop
endfacet
facet normal -0.5116304114285188 -0.8592056343515706 1.1567541512091429e-17
  outer loop
    vertex 95.14777453107054 82.54928799261823 4.522581
    vertex 91.47077565043027 84.73882723085187 0.0
    vertex 95.14777453107054 82.54928799261823 0.0
  endloop
endfacet
facet normal -0.5116304114285188 -0.8592056343515706 1.1567541512091429e-17
  outer loop
    vertex 91.47077565043027 84.73882723085187 0.0
    vertex 95.14777453107054 82.54928799261823 4.522581
    vertex 91.47077565043027 84.73882723085187 4.522581
  endloop
endfacet
facet normal -0.6397407658311846 -0.7685907575125592 3.819320226639064e-17
  outer loop
    vertex 91.47077565043027 84.73882723085187 4.522581
    vertex 88.18156612705818 87.4766189605773 0.0
    vertex 91.47077565043027 84.73882723085187 0.0
  endloop
endfacet
facet normal -0.6397407658311846 -0.7685907575125592 3.819320226639064e-17
  outer loop
    vertex 88.18156612705818 87.4766189605773 0.0
    vertex 91.47077565043027 84.73882723085187 4.522581
    vertex 88.18156612705818 87.4766189605773 4.522581
  endloop
endfacet
facet normal -0.7520985794012078 -0.659050625417111 6.387841962491942e-17
  outer loop
    vertex 85.36113721568023 90.69524966319885 4.522581
    vertex 88.18156612705818 87.4766189605773 0.0
    vertex 88.18156612705818 87.4766189605773 4.522581
  endloop
endfacet
facet normal -0.7520985794012078 -0.659050625417111 6.387841962491942e-17
  outer loop
    vertex 88.18156612705818 87.4766189605773 0.0
    vertex 85.36113721568023 90.69524966319885 4.522581
    vertex 85.36113721568023 90.69524966319885 0.0
  endloop
endfacet
facet normal -0.8459372298742956 -0.5332824796602671 8.799073829196283e-17
  outer loop
    vertex 83.07893723656149 94.31546596879508 4.522581
    vertex 85.36113721568023 90.69524966319885 0.0
    vertex 85.36113721568023 90.69524966319885 4.522581
  endloop
endfacet
facet normal -0.8459372298742956 -0.5332824796602671 8.799073829196283e-17
  outer loop
    vertex 85.36113721568023 90.69524966319885 0.0
    vertex 83.07893723656149 94.31546596879508 4.522581
    vertex 83.07893723656149 94.31546596879508 0.0
  endloop
endfacet
facet normal -0.918946098243172 -0.3943831493911101 1.099364329577398e-16
  outer loop
    vertex 81.39116152737529 98.24812613711316 4.522581
    vertex 83.07893723656149 94.31546596879508 0.0
    vertex 83.07893723656149 94.31546596879508 4.522581
  endloop
endfacet
facet normal -0.918946098243172 -0.3943831493911101 1.099364329577398e-16
  outer loop
    vertex 83.07893723656149 94.31546596879508 0.0
    vertex 81.39116152737529 98.24812613711316 4.522581
    vertex 81.39116152737529 98.24812613711316 0.0
  endloop
endfacet
facet normal -0.969327463866054 -0.24577279710131522 1.291751277859942e-16
  outer loop
    vertex 80.33936872748824 102.39639502305828 4.522581
    vertex 81.39116152737529 98.24812613711316 0.0
    vertex 81.39116152737529 98.24812613711316 4.522581
  endloop
endfacet
facet normal -0.969327463866054 -0.24577279710131522 1.291751277859942e-16
  outer loop
    vertex 81.39116152737529 98.24812613711316 0.0
    vertex 80.33936872748824 102.39639502305828 4.522581
    vertex 80.33936872748824 102.39639502305828 0.0
  endloop
endfacet
facet normal -0.9958407703151417 -0.0911107028737305 1.4523310226048786e-16
  outer loop
    vertex 79.94945746633375 106.65812847934335 4.522581
    vertex 80.33936872748824 102.39639502305828 0.0
    vertex 80.33936872748824 102.39639502305828 4.522581
  endloop
endfacet
facet normal -0.9958407703151417 -0.0911107028737305 1.4523310226048786e-16
  outer loop
    vertex 80.33936872748824 102.39639502305828 0.0
    vertex 79.94945746633375 106.65812847934335 4.522581
    vertex 79.94945746633375 106.65812847934335 0.0
  endloop
endfacet
facet normal -0.9978331719930376 0.06579483923768956 1.5771495575629589e-16
  outer loop
    vertex 80.23102865320274 110.9283884843922 4.522581
    vertex 79.94945746633375 106.65812847934335 0.0
    vertex 79.94945746633375 106.65812847934335 4.522581
  endloop
endfacet
facet normal -0.9978331719930376 0.06579483923768956 1.5771495575629589e-16
  outer loop
    vertex 79.94945746633375 106.65812847934335 0.0
    vertex 80.23102865320274 110.9283884843922 4.522581
    vertex 80.23102865320274 110.9283884843922 0.0
  endloop
endfacet
facet normal -0.97525560935803 0.22108029404652496 1.6631334361545501e-16
  outer loop
    vertex 81.17714907099328 115.10202706470007 4.522581
    vertex 80.23102865320274 110.9283884843922 0.0
    vertex 80.23102865320274 110.9283884843922 4.522581
  endloop
endfacet
facet normal -0.97525560935803 0.22108029404652496 1.6631334361545501e-16
  outer loop
    vertex 80.23102865320274 110.9283884843922 0.0
    vertex 81.17714907099328 115.10202706470007 4.522581
    vertex 81.17714907099328 115.10202706470007 0.0
  endloop
endfacet
facet normal 0.0 0.0 1.0
  outer loop
    vertex 121.11636089495622 93.77472098421683 23.01016499999997
    vertex 93.61216889495618 120.14513598421664 23.01016499999997
    vertex 93.61216889495617 93.77472098421688 23.01016499999997
  endloop
endfacet
facet normal 0.0 0.0 1.0
  outer loop
    vertex 93.61216889495618 120.14513598421664 23.01016499999997
    vertex 121.11636089495622 93.77472098421683 23.01016499999997
    vertex 121.1163608949563 120.14513598421676 23.01016499999997
  endloop
endfacet
facet normal -1.0 4.27747000955112e-16 0.0
  outer loop
    vertex 93.61216889495618 120.14513598421664 23.01016499999997
    vertex 93.61216889495617 93.77472098421688 4.522580999999962
    vertex 93.61216889495617 93.77472098421688 23.01016499999997
  endloop
endfacet
facet normal -1.0 4.27747000955112e-16 0.0
  outer loop
    vertex 93.61216889495617 93.77472098421688 4.522580999999962
    vertex 93.61216889495618 120.14513598421664 23.01016499999997
    vertex 93.61216889495618 120.14513598421664 4.522580999999962
  endloop
endfacet
facet normal -2.050572132820985e-15 -1.0 -0.0
  outer loop
    vertex 121.11636089495622 93.77472098421683 23.01016499999997
    vertex 93.61216889495617 93.77472098421688 4.522580999999962
    vertex 121.11636089495622 93.77472098421683 4.522580999999962
  endloop
endfacet
facet normal -2.050572132820985e-15 -1.0 -0.0
  outer loop
    vertex 93.61216889495617 93.77472098421688 4.522580999999962
    vertex 121.11636089495622 93.77472098421683 23.01016499999997
    vertex 93.61216889495617 93.77472098421688 23.01016499999997
  endloop
endfacet
facet normal 1.0 -3.4219760076408712e-15 0.0
  outer loop
    vertex 121.1163608949563 120.14513598421676 4.522580999999962
    vertex 121.11636089495622 93.77472098421683 23.01016499999997
    vertex 121.11636089495622 93.77472098421683 4.522580999999962
  endloop
endfacet
facet normal 1.0 -3.4219760076408712e-15 0.0
  outer loop
    vertex 121.11636089495622 93.77472098421683 23.01016499999997
    vertex 121.1163608949563 120.14513598421676 4.522580999999962
    vertex 121.1163608949563 120.14513598421676 23.01016499999997
  endloop
endfacet
facet normal -4.921373118770349e-15 1.0 0.0
  outer loop
    vertex 93.61216889495618 120.14513598421664 23.01016499999997
    vertex 121.1163608949563 120.14513598421676 4.522580999999962
    vertex 93.61216889495618 120.14513598421664 4.522580999999962
  endloop
endfacet
facet normal -4.921373118770349e-15 1.0 0.0
  outer loop
    vertex 121.1163608949563 120.14513598421676 4.522580999999962
    vertex 93.61216889495618 120.14513598421664 23.01016499999997
    vertex 121.1163608949563 120.14513598421676 23.01016499999997
  endloop
endfacet
endsolid Extension3Prov
