solid Extension3
facet normal -1.5294014066351788e-16 -7.760806367365494e-17 -1.0
  outer loop
    vertex 80.33936872748824 104.79904605702505 0.0
    vertex 80.23102865320274 96.26705259569113 0.0
    vertex 79.94945746633375 100.53731260073998 0.0
  endloop
endfacet
facet normal -1.5294014066351788e-16 -7.760806367365494e-17 -1.0
  outer loop
    vertex 80.23102865320274 96.26705259569113 0.0
    vertex 80.33936872748824 104.79904605702505 0.0
    vertex 81.17714907099328 92.09341401538325 0.0
  endloop
endfacet
facet normal -1.5294014066351788e-16 -7.760806367365494e-17 -1.0
  outer loop
    vertex 81.17714907099328 92.09341401538325 0.0
    vertex 80.33936872748824 104.79904605702505 0.0
    vertex 81.39116152737529 108.94731494297017 0.0
  endloop
endfacet
facet normal -1.5294014066351788e-16 -7.760806367365494e-17 -1.0
  outer loop
    vertex 81.17714907099328 92.09341401538325 0.0
    vertex 81.39116152737529 108.94731494297017 0.0
    vertex 82.76452209502574 88.11916569317582 0.0
  endloop
endfacet
facet normal -1.5294014066351788e-16 -7.760806367365494e-17 -1.0
  outer loop
    vertex 82.76452209502574 88.11916569317582 0.0
    vertex 81.39116152737529 108.94731494297017 0.0
    vertex 83.07893723656149 112.87997511128825 0.0
  endloop
endfacet
facet normal -1.5294014066351788e-16 -7.760806367365494e-17 -1.0
  outer loop
    vertex 103.63725511917643 139.0705353203928 0.0
    vertex 101.20884214343191 126.7065863203928 0.0
    vertex 101.20884214343191 136.64212234464827 0.0
  endloop
endfacet
facet normal -1.5294014066351788e-16 -7.760806367365494e-17 -1.0
  outer loop
    vertex 101.20884214343191 126.7065863203928 0.0
    vertex 103.63725511917643 139.0705353203928 0.0
    vertex 102.61162912546577 73.31075988959351 0.0
  endloop
endfacet
facet normal -1.5294014066351788e-16 -7.760806367365494e-17 -1.0
  outer loop
    vertex 102.61162912546577 73.31075988959351 0.0
    vertex 103.63725511917643 139.0705353203928 0.0
    vertex 106.87336258175087 72.92084862843906 0.0
  endloop
endfacet
facet normal -1.5294014066351788e-16 -7.760806367365494e-17 -1.0
  outer loop
    vertex 106.87336258175087 72.92084862843906 0.0
    vertex 103.63725511917643 139.0705353203928 0.0
    vertex 110.94565858794529 139.0705353203928 0.0
  endloop
endfacet
facet normal -1.5294014066351788e-16 -7.760806367365494e-17 -1.0
  outer loop
    vertex 106.87336258175087 72.92084862843906 0.0
    vertex 110.94565858794529 139.0705353203928 0.0
    vertex 111.1436225867997 73.20241981530803 0.0
  endloop
endfacet
facet normal -1.5294014066351788e-16 -7.760806367365494e-17 -1.0
  outer loop
    vertex 111.1436225867997 73.20241981530803 0.0
    vertex 110.94565858794529 139.0705353203928 0.0
    vertex 113.3187287600383 136.69746514829978 0.0
  endloop
endfacet
facet normal -1.5294014066351788e-16 -7.760806367365494e-17 -1.0
  outer loop
    vertex 111.1436225867997 73.20241981530803 0.0
    vertex 113.3187287600383 136.69746514829978 0.0
    vertex 113.3187287600383 126.69324495548287 0.0
  endloop
endfacet
facet normal -1.5294014066351788e-16 -7.760806367365494e-17 -1.0
  outer loop
    vertex 111.1436225867997 73.20241981530803 0.0
    vertex 113.3187287600383 126.69324495548287 0.0
    vertex 115.31726116710757 74.14854023309856 0.0
  endloop
endfacet
facet normal -1.5294014066351788e-16 -7.760806367365494e-17 -1.0
  outer loop
    vertex 115.31726116710757 74.14854023309856 0.0
    vertex 113.3187287600383 126.69324495548287 0.0
    vertex 115.97592378086489 126.01951365511553 0.0
  endloop
endfacet
facet normal -1.5294014066351788e-16 -7.760806367365494e-17 -1.0
  outer loop
    vertex 115.31726116710757 74.14854023309856 0.0
    vertex 115.97592378086489 126.01951365511553 0.0
    vertex 119.29150948931499 75.735913257131 0.0
  endloop
endfacet
facet normal -1.5294014066351788e-16 -7.760806367365494e-17 -1.0
  outer loop
    vertex 119.29150948931499 75.735913257131 0.0
    vertex 115.97592378086489 126.01951365511553 0.0
    vertex 119.90858394918297 124.33173794592935 0.0
  endloop
endfacet
facet normal -1.5294014066351788e-16 -7.760806367365494e-17 -1.0
  outer loop
    vertex 119.29150948931499 75.735913257131 0.0
    vertex 119.90858394918297 124.33173794592935 0.0
    vertex 122.96850836995529 77.92545249536465 0.0
  endloop
endfacet
facet normal -1.5294014066351788e-16 -7.760806367365494e-17 -1.0
  outer loop
    vertex 122.96850836995529 77.92545249536465 0.0
    vertex 119.90858394918297 124.33173794592935 0.0
    vertex 123.5288002547792 122.0495379668106 0.0
  endloop
endfacet
facet normal -1.5294014066351788e-16 -7.760806367365494e-17 -1.0
  outer loop
    vertex 122.96850836995529 77.92545249536465 0.0
    vertex 123.5288002547792 122.0495379668106 0.0
    vertex 126.25771789332737 80.66324422509007 0.0
  endloop
endfacet
facet normal -1.5294014066351788e-16 -7.760806367365494e-17 -1.0
  outer loop
    vertex 126.25771789332737 80.66324422509007 0.0
    vertex 123.5288002547792 122.0495379668106 0.0
    vertex 126.74743095740075 119.22910905543264 0.0
  endloop
endfacet
facet normal -1.5294014066351788e-16 -7.760806367365494e-17 -1.0
  outer loop
    vertex 126.25771789332737 80.66324422509007 0.0
    vertex 126.74743095740075 119.22910905543264 0.0
    vertex 129.07814680470528 83.88187492771164 0.0
  endloop
endfacet
facet normal -1.5294014066351788e-16 -7.760806367365494e-17 -1.0
  outer loop
    vertex 129.07814680470528 83.88187492771164 0.0
    vertex 126.74743095740075 119.22910905543264 0.0
    vertex 129.48522268712614 115.93989953206056 0.0
  endloop
endfacet
facet normal -1.5294014066351788e-16 -7.760806367365494e-17 -1.0
  outer loop
    vertex 129.07814680470528 83.88187492771164 0.0
    vertex 129.48522268712614 115.93989953206056 0.0
    vertex 131.36034678382407 87.50209123330787 0.0
  endloop
endfacet
facet normal -1.5294014066351788e-16 -7.760806367365494e-17 -1.0
  outer loop
    vertex 131.36034678382407 87.50209123330787 0.0
    vertex 129.48522268712614 115.93989953206056 0.0
    vertex 131.67476192535983 112.26290065142028 0.0
  endloop
endfacet
facet normal -1.5294014066351788e-16 -7.760806367365494e-17 -1.0
  outer loop
    vertex 131.36034678382407 87.50209123330787 0.0
    vertex 131.67476192535983 112.26290065142028 0.0
    vertex 133.04812249301028 91.43475140162593 0.0
  endloop
endfacet
facet normal -1.5294014066351788e-16 -7.760806367365494e-17 -1.0
  outer loop
    vertex 133.04812249301028 91.43475140162593 0.0
    vertex 131.67476192535983 112.26290065142028 0.0
    vertex 133.26213494939225 108.28865232921285 0.0
  endloop
endfacet
facet normal -1.5294014066351788e-16 -7.760806367365494e-17 -1.0
  outer loop
    vertex 133.04812249301028 91.43475140162593 0.0
    vertex 133.26213494939225 108.28865232921285 0.0
    vertex 134.0999152928973 95.58302028757105 0.0
  endloop
endfacet
facet normal -1.5294014066351788e-16 -7.760806367365494e-17 -1.0
  outer loop
    vertex 134.0999152928973 95.58302028757105 0.0
    vertex 133.26213494939225 108.28865232921285 0.0
    vertex 134.2082553671828 104.11501374890497 0.0
  endloop
endfacet
facet normal -1.5294014066351788e-16 -7.760806367365494e-17 -1.0
  outer loop
    vertex 134.0999152928973 95.58302028757105 0.0
    vertex 134.2082553671828 104.11501374890497 0.0
    vertex 134.48982655405177 99.84475374385615 0.0
  endloop
endfacet
facet normal -1.5294014066351788e-16 -7.760806367365494e-17 -1.0
  outer loop
    vertex 58.61655050410827 79.61540660660322 2.0103190209592846e-14
    vertex 58.61655050410827 69.69119532020507 2.255973186038318e-14
    vertex 56.6517670352635 75.60730571310738 2.255973186038318e-14
  endloop
endfacet
facet normal -1.5294014066351788e-16 -7.760806367365494e-17 -1.0
  outer loop
    vertex 58.61655050410827 69.69119532020507 2.255973186038318e-14
    vertex 58.61655050410827 79.61540660660322 2.0103190209592846e-14
    vertex 82.76452209502574 88.11916569317582 0.0
  endloop
endfacet
facet normal -1.5294014066351788e-16 -7.760806367365494e-17 -1.0
  outer loop
    vertex 58.61655050410827 69.69119532020507 2.255973186038318e-14
    vertex 82.76452209502574 88.11916569317582 0.0
    vertex 61.806628985350876 68.12490575969053 2.0846825163998286e-14
  endloop
endfacet
facet normal -1.5294014066351788e-16 -7.760806367365494e-17 -1.0
  outer loop
    vertex 61.806628985350876 68.12490575969053 2.0846825163998286e-14
    vertex 82.76452209502574 88.11916569317582 0.0
    vertex 90.91048376560634 78.33252837778551 0.0
  endloop
endfacet
facet normal -1.5294014066351788e-16 -7.760806367365494e-17 -1.0
  outer loop
    vertex 90.91048376560634 78.33252837778551 0.0
    vertex 82.76452209502574 88.11916569317582 0.0
    vertex 83.07893723656149 112.87997511128825 0.0
  endloop
endfacet
facet normal -1.5294014066351788e-16 -7.760806367365494e-17 -1.0
  outer loop
    vertex 90.91048376560634 78.33252837778551 0.0
    vertex 83.07893723656149 112.87997511128825 0.0
    vertex 85.36113721568023 116.50019141688449 0.0
  endloop
endfacet
facet normal -1.5294014066351788e-16 -7.760806367365494e-17 -1.0
  outer loop
    vertex 90.91048376560634 78.33252837778551 0.0
    vertex 85.36113721568023 116.50019141688449 0.0
    vertex 88.18156612705818 119.71882211950603 0.0
  endloop
endfacet
facet normal -1.5294014066351788e-16 -7.760806367365494e-17 -1.0
  outer loop
    vertex 90.91048376560634 78.33252837778551 0.0
    vertex 88.18156612705818 119.71882211950603 0.0
    vertex 91.47077565043027 122.45661384923146 0.0
  endloop
endfacet
facet normal -1.5294014066351788e-16 -7.760806367365494e-17 -1.0
  outer loop
    vertex 90.91048376560634 78.33252837778551 0.0
    vertex 91.47077565043027 122.45661384923146 0.0
    vertex 94.53070007120257 76.05032839866674 0.0
  endloop
endfacet
facet normal -1.5294014066351788e-16 -7.760806367365494e-17 -1.0
  outer loop
    vertex 94.53070007120257 76.05032839866674 0.0
    vertex 91.47077565043027 122.45661384923146 0.0
    vertex 95.14777453107054 124.6461530874651 0.0
  endloop
endfacet
facet normal -1.5294014066351788e-16 -7.760806367365494e-17 -1.0
  outer loop
    vertex 94.53070007120257 76.05032839866674 0.0
    vertex 95.14777453107054 124.6461530874651 0.0
    vertex 98.46336023952065 74.36255268948054 0.0
  endloop
endfacet
facet normal -1.5294014066351788e-16 -7.760806367365494e-17 -1.0
  outer loop
    vertex 98.46336023952065 74.36255268948054 0.0
    vertex 95.14777453107054 124.6461530874651 0.0
    vertex 99.12202285327797 126.23352611149754 0.0
  endloop
endfacet
facet normal -1.5294014066351788e-16 -7.760806367365494e-17 -1.0
  outer loop
    vertex 98.46336023952065 74.36255268948054 0.0
    vertex 99.12202285327797 126.23352611149754 0.0
    vertex 102.61162912546577 73.31075988959351 0.0
  endloop
endfacet
facet normal -1.5294014066351788e-16 -7.760806367365494e-17 -1.0
  outer loop
    vertex 102.61162912546577 73.31075988959351 0.0
    vertex 99.12202285327797 126.23352611149754 0.0
    vertex 101.20884214343191 126.7065863203928 0.0
  endloop
endfacet
facet normal 1.5294014066351788e-16 7.760806367365494e-17 1.0
  outer loop
    vertex 80.23102865320274 96.26705259569113 4.522581
    vertex 80.33936872748824 104.79904605702505 4.522581
    vertex 79.94945746633375 100.53731260073998 4.522581
  endloop
endfacet
facet normal 1.5294014066351788e-16 7.760806367365494e-17 1.0
  outer loop
    vertex 80.33936872748824 104.79904605702505 4.522581
    vertex 80.23102865320274 96.26705259569113 4.522581
    vertex 81.17714907099328 92.09341401538325 4.522581
  endloop
endfacet
facet normal 1.5294014066351788e-16 7.760806367365494e-17 1.0
  outer loop
    vertex 80.33936872748824 104.79904605702505 4.522581
    vertex 81.17714907099328 92.09341401538325 4.522581
    vertex 81.39116152737529 108.94731494297017 4.522581
  endloop
endfacet
facet normal 1.5294014066351788e-16 7.760806367365494e-17 1.0
  outer loop
    vertex 81.39116152737529 108.94731494297017 4.522581
    vertex 81.17714907099328 92.09341401538325 4.522581
    vertex 82.76452209502574 88.11916569317582 4.522581
  endloop
endfacet
facet normal 1.5294014066351788e-16 7.760806367365494e-17 1.0
  outer loop
    vertex 81.39116152737529 108.94731494297017 4.522581
    vertex 82.76452209502574 88.11916569317582 4.522581
    vertex 83.07893723656149 112.87997511128825 4.522581
  endloop
endfacet
facet normal 1.5294014066351788e-16 7.760806367365494e-17 1.0
  outer loop
    vertex 58.61655050410827 69.69119532020507 4.522581000000022
    vertex 58.61655050410827 79.61540660660322 4.522581000000019
    vertex 56.6517670352635 75.60730571310738 4.522581000000022
  endloop
endfacet
facet normal 1.5294014066351788e-16 7.760806367365494e-17 1.0
  outer loop
    vertex 58.61655050410827 79.61540660660322 4.522581000000019
    vertex 58.61655050410827 69.69119532020507 4.522581000000022
    vertex 61.806628985350876 68.12490575969053 4.52258100000002
  endloop
endfacet
facet normal 1.5294014066351788e-16 7.760806367365494e-17 1.0
  outer loop
    vertex 58.61655050410827 79.61540660660322 4.522581000000019
    vertex 61.806628985350876 68.12490575969053 4.52258100000002
    vertex 82.76452209502574 88.11916569317582 4.522581
  endloop
endfacet
facet normal 1.5294014066351788e-16 7.760806367365494e-17 1.0
  outer loop
    vertex 82.76452209502574 88.11916569317582 4.522581
    vertex 61.806628985350876 68.12490575969053 4.52258100000002
    vertex 90.91048376560634 78.33252837778551 4.522581
  endloop
endfacet
facet normal 1.5294014066351788e-16 7.760806367365494e-17 1.0
  outer loop
    vertex 82.76452209502574 88.11916569317582 4.522581
    vertex 90.91048376560634 78.33252837778551 4.522581
    vertex 83.07893723656149 112.87997511128825 4.522581
  endloop
endfacet
facet normal 1.5294014066351788e-16 7.760806367365494e-17 1.0
  outer loop
    vertex 83.07893723656149 112.87997511128825 4.522581
    vertex 90.91048376560634 78.33252837778551 4.522581
    vertex 85.36113721568023 116.50019141688449 4.522581
  endloop
endfacet
facet normal 1.5294014066351788e-16 7.760806367365494e-17 1.0
  outer loop
    vertex 85.36113721568023 116.50019141688449 4.522581
    vertex 90.91048376560634 78.33252837778551 4.522581
    vertex 88.18156612705818 119.71882211950603 4.522581
  endloop
endfacet
facet normal 1.5294014066351788e-16 7.760806367365494e-17 1.0
  outer loop
    vertex 88.18156612705818 119.71882211950603 4.522581
    vertex 90.91048376560634 78.33252837778551 4.522581
    vertex 91.47077565043027 122.45661384923146 4.522581
  endloop
endfacet
facet normal 1.5294014066351788e-16 7.760806367365494e-17 1.0
  outer loop
    vertex 91.47077565043027 122.45661384923146 4.522581
    vertex 90.91048376560634 78.33252837778551 4.522581
    vertex 93.61216889495618 87.05030509586669 4.522580999999962
  endloop
endfacet
facet normal 1.5294014066351788e-16 7.760806367365494e-17 1.0
  outer loop
    vertex 93.61216889495618 87.05030509586669 4.522580999999962
    vertex 90.91048376560634 78.33252837778551 4.522581
    vertex 94.53070007120257 76.05032839866674 4.522581
  endloop
endfacet
facet normal 1.5294014066351788e-16 7.760806367365494e-17 1.0
  outer loop
    vertex 91.47077565043027 122.45661384923146 4.522581
    vertex 93.61216889495618 87.05030509586669 4.522580999999962
    vertex 93.61216889495617 113.42072009586644 4.522580999999962
  endloop
endfacet
facet normal 1.5294014066351788e-16 7.760806367365494e-17 1.0
  outer loop
    vertex 93.61216889495618 87.05030509586669 4.522580999999962
    vertex 94.53070007120257 76.05032839866674 4.522581
    vertex 121.1163608949563 87.05030509586656 4.522580999999962
  endloop
endfacet
facet normal 1.5294014066351788e-16 7.760806367365494e-17 1.0
  outer loop
    vertex 121.1163608949563 87.05030509586656 4.522580999999962
    vertex 94.53070007120257 76.05032839866674 4.522581
    vertex 98.46336023952065 74.36255268948054 4.522581
  endloop
endfacet
facet normal 1.5294014066351788e-16 7.760806367365494e-17 1.0
  outer loop
    vertex 121.1163608949563 87.05030509586656 4.522580999999962
    vertex 98.46336023952065 74.36255268948054 4.522581
    vertex 102.61162912546577 73.31075988959351 4.522581
  endloop
endfacet
facet normal 1.5294014066351788e-16 7.760806367365494e-17 1.0
  outer loop
    vertex 121.1163608949563 87.05030509586656 4.522580999999962
    vertex 102.61162912546577 73.31075988959351 4.522581
    vertex 106.87336258175087 72.92084862843906 4.522581
  endloop
endfacet
facet normal 1.5294014066351788e-16 7.760806367365494e-17 1.0
  outer loop
    vertex 121.1163608949563 87.05030509586656 4.522580999999962
    vertex 106.87336258175087 72.92084862843906 4.522581
    vertex 111.1436225867997 73.20241981530803 4.522581
  endloop
endfacet
facet normal 1.5294014066351788e-16 7.760806367365494e-17 1.0
  outer loop
    vertex 121.1163608949563 87.05030509586656 4.522580999999962
    vertex 111.1436225867997 73.20241981530803 4.522581
    vertex 115.31726116710757 74.14854023309856 4.522581
  endloop
endfacet
facet normal 1.5294014066351788e-16 7.760806367365494e-17 1.0
  outer loop
    vertex 121.1163608949563 87.05030509586656 4.522580999999962
    vertex 115.31726116710757 74.14854023309856 4.522581
    vertex 119.29150948931499 75.735913257131 4.522581
  endloop
endfacet
facet normal 1.5294014066351788e-16 7.760806367365494e-17 1.0
  outer loop
    vertex 121.1163608949563 87.05030509586656 4.522580999999962
    vertex 119.29150948931499 75.735913257131 4.522581
    vertex 122.96850836995529 77.92545249536465 4.522581
  endloop
endfacet
facet normal 1.5294014066351788e-16 7.760806367365494e-17 1.0
  outer loop
    vertex 93.61216889495617 113.42072009586644 4.522580999999962
    vertex 95.14777453107054 124.6461530874651 4.522581
    vertex 91.47077565043027 122.45661384923146 4.522581
  endloop
endfacet
facet normal 1.5294014066351788e-16 7.760806367365494e-17 1.0
  outer loop
    vertex 95.14777453107054 124.6461530874651 4.522581
    vertex 93.61216889495617 113.42072009586644 4.522580999999962
    vertex 121.11636089495622 113.4207200958665 4.522580999999962
  endloop
endfacet
facet normal 1.5294014066351788e-16 7.760806367365494e-17 1.0
  outer loop
    vertex 95.14777453107054 124.6461530874651 4.522581
    vertex 121.11636089495622 113.4207200958665 4.522580999999962
    vertex 99.12202285327797 126.23352611149754 4.522581
  endloop
endfacet
facet normal 1.5294014066351788e-16 7.760806367365494e-17 1.0
  outer loop
    vertex 99.12202285327797 126.23352611149754 4.522581
    vertex 121.11636089495622 113.4207200958665 4.522580999999962
    vertex 101.20884214343191 126.7065863203928 4.522581
  endloop
endfacet
facet normal 1.5294014066351788e-16 7.760806367365494e-17 1.0
  outer loop
    vertex 101.20884214343191 126.7065863203928 4.522581
    vertex 121.11636089495622 113.4207200958665 4.522580999999962
    vertex 101.20884214343191 136.64212234464827 4.522581
  endloop
endfacet
facet normal 1.5294014066351788e-16 7.760806367365494e-17 1.0
  outer loop
    vertex 101.20884214343191 136.64212234464827 4.522581
    vertex 121.11636089495622 113.4207200958665 4.522580999999962
    vertex 103.63725511917643 139.0705353203928 4.522581
  endloop
endfacet
facet normal 1.5294014066351788e-16 7.760806367365494e-17 1.0
  outer loop
    vertex 103.63725511917643 139.0705353203928 4.522581
    vertex 121.11636089495622 113.4207200958665 4.522580999999962
    vertex 113.3187287600383 126.69324495548287 4.522581
  endloop
endfacet
facet normal 1.5294014066351788e-16 7.760806367365494e-17 1.0
  outer loop
    vertex 103.63725511917643 139.0705353203928 4.522581
    vertex 113.3187287600383 126.69324495548287 4.522581
    vertex 110.94565858794529 139.0705353203928 4.522581
  endloop
endfacet
facet normal 1.5294014066351788e-16 7.760806367365494e-17 1.0
  outer loop
    vertex 113.3187287600383 126.69324495548287 4.522581
    vertex 121.11636089495622 113.4207200958665 4.522580999999962
    vertex 115.97592378086489 126.01951365511553 4.522581
  endloop
endfacet
facet normal 1.5294014066351788e-16 7.760806367365494e-17 1.0
  outer loop
    vertex 115.97592378086489 126.01951365511553 4.522581
    vertex 121.11636089495622 113.4207200958665 4.522580999999962
    vertex 119.90858394918297 124.33173794592935 4.522581
  endloop
endfacet
facet normal 1.5294014066351788e-16 7.760806367365494e-17 1.0
  outer loop
    vertex 119.90858394918297 124.33173794592935 4.522581
    vertex 121.11636089495622 113.4207200958665 4.522580999999962
    vertex 123.5288002547792 122.0495379668106 4.522581
  endloop
endfacet
facet normal 1.5294014066351788e-16 7.760806367365494e-17 1.0
  outer loop
    vertex 123.5288002547792 122.0495379668106 4.522581
    vertex 121.11636089495622 113.4207200958665 4.522580999999962
    vertex 121.1163608949563 87.05030509586656 4.522580999999962
  endloop
endfacet
facet normal 1.5294014066351788e-16 7.760806367365494e-17 1.0
  outer loop
    vertex 123.5288002547792 122.0495379668106 4.522581
    vertex 121.1163608949563 87.05030509586656 4.522580999999962
    vertex 122.96850836995529 77.92545249536465 4.522581
  endloop
endfacet
facet normal 1.5294014066351788e-16 7.760806367365494e-17 1.0
  outer loop
    vertex 123.5288002547792 122.0495379668106 4.522581
    vertex 122.96850836995529 77.92545249536465 4.522581
    vertex 126.25771789332737 80.66324422509007 4.522581
  endloop
endfacet
facet normal 1.5294014066351788e-16 7.760806367365494e-17 1.0
  outer loop
    vertex 123.5288002547792 122.0495379668106 4.522581
    vertex 126.25771789332737 80.66324422509007 4.522581
    vertex 126.74743095740075 119.22910905543264 4.522581
  endloop
endfacet
facet normal 1.5294014066351788e-16 7.760806367365494e-17 1.0
  outer loop
    vertex 126.74743095740075 119.22910905543264 4.522581
    vertex 126.25771789332737 80.66324422509007 4.522581
    vertex 129.07814680470528 83.88187492771164 4.522581
  endloop
endfacet
facet normal 1.5294014066351788e-16 7.760806367365494e-17 1.0
  outer loop
    vertex 126.74743095740075 119.22910905543264 4.522581
    vertex 129.07814680470528 83.88187492771164 4.522581
    vertex 129.48522268712614 115.93989953206056 4.522581
  endloop
endfacet
facet normal 1.5294014066351788e-16 7.760806367365494e-17 1.0
  outer loop
    vertex 129.48522268712614 115.93989953206056 4.522581
    vertex 129.07814680470528 83.88187492771164 4.522581
    vertex 131.36034678382407 87.50209123330787 4.522581
  endloop
endfacet
facet normal 1.5294014066351788e-16 7.760806367365494e-17 1.0
  outer loop
    vertex 129.48522268712614 115.93989953206056 4.522581
    vertex 131.36034678382407 87.50209123330787 4.522581
    vertex 131.67476192535983 112.26290065142028 4.522581
  endloop
endfacet
facet normal 1.5294014066351788e-16 7.760806367365494e-17 1.0
  outer loop
    vertex 131.67476192535983 112.26290065142028 4.522581
    vertex 131.36034678382407 87.50209123330787 4.522581
    vertex 133.04812249301028 91.43475140162593 4.522581
  endloop
endfacet
facet normal 1.5294014066351788e-16 7.760806367365494e-17 1.0
  outer loop
    vertex 131.67476192535983 112.26290065142028 4.522581
    vertex 133.04812249301028 91.43475140162593 4.522581
    vertex 133.26213494939225 108.28865232921285 4.522581
  endloop
endfacet
facet normal 1.5294014066351788e-16 7.760806367365494e-17 1.0
  outer loop
    vertex 133.26213494939225 108.28865232921285 4.522581
    vertex 133.04812249301028 91.43475140162593 4.522581
    vertex 134.0999152928973 95.58302028757105 4.522581
  endloop
endfacet
facet normal 1.5294014066351788e-16 7.760806367365494e-17 1.0
  outer loop
    vertex 133.26213494939225 108.28865232921285 4.522581
    vertex 134.0999152928973 95.58302028757105 4.522581
    vertex 134.2082553671828 104.11501374890497 4.522581
  endloop
endfacet
facet normal 1.5294014066351788e-16 7.760806367365494e-17 1.0
  outer loop
    vertex 134.2082553671828 104.11501374890497 4.522581
    vertex 134.0999152928973 95.58302028757105 4.522581
    vertex 134.48982655405177 99.84475374385615 4.522581
  endloop
endfacet
facet normal 1.5294014066351788e-16 7.760806367365494e-17 1.0
  outer loop
    vertex 113.3187287600383 136.69746514829978 4.522581
    vertex 110.94565858794529 139.0705353203928 4.522581
    vertex 113.3187287600383 126.69324495548287 4.522581
  endloop
endfacet
facet normal -0.9286640169328275 -0.3709220182925044 1.708165449924595e-16
  outer loop
    vertex 81.17714907099328 92.09341401538325 4.522581
    vertex 82.76452209502574 88.11916569317582 0.0
    vertex 82.76452209502574 88.11916569317582 4.522581
  endloop
endfacet
facet normal -0.9286640169328275 -0.3709220182925044 1.708165449924595e-16
  outer loop
    vertex 82.76452209502574 88.11916569317582 0.0
    vertex 81.17714907099328 92.09341401538325 4.522581
    vertex 81.17714907099328 92.09341401538325 0.0
  endloop
endfacet
facet normal -0.33215820924023576 0.943223687167747 -2.240144072847024e-17
  outer loop
    vertex 58.61655050410827 79.61540660660322 2.0103190209592846e-14
    vertex 82.76452209502574 88.11916569317582 4.522581
    vertex 82.76452209502574 88.11916569317582 0.0
  endloop
endfacet
facet normal -0.33215820924023576 0.943223687167747 -2.240144072847024e-17
  outer loop
    vertex 82.76452209502574 88.11916569317582 4.522581
    vertex 58.61655050410827 79.61540660660322 2.0103190209592846e-14
    vertex 58.61655050410827 79.61540660660322 4.522581000000019
  endloop
endfacet
facet normal -0.8979182321546563 0.44016229775419985 1.0316759709922024e-16
  outer loop
    vertex 58.61655050410827 79.61540660660322 4.522581000000019
    vertex 56.6517670352635 75.60730571310738 2.255973186038318e-14
    vertex 56.6517670352635 75.60730571310738 4.522581000000022
  endloop
endfacet
facet normal -0.8979182321546563 0.44016229775419985 1.0316759709922024e-16
  outer loop
    vertex 56.6517670352635 75.60730571310738 2.255973186038318e-14
    vertex 58.61655050410827 79.61540660660322 4.522581000000019
    vertex 58.61655050410827 79.61540660660322 2.0103190209592846e-14
  endloop
endfacet
facet normal -0.9490317825199305 -0.3151803860760428 1.6960559378402393e-16
  outer loop
    vertex 56.6517670352635 75.60730571310738 4.522581000000022
    vertex 58.61655050410827 69.69119532020507 2.255973186038318e-14
    vertex 58.61655050410827 69.69119532020507 4.522581000000022
  endloop
endfacet
facet normal -0.9490317825199305 -0.3151803860760428 1.6960559378402393e-16
  outer loop
    vertex 58.61655050410827 69.69119532020507 2.255973186038318e-14
    vertex 56.6517670352635 75.60730571310738 4.522581000000022
    vertex 56.6517670352635 75.60730571310738 2.255973186038318e-14
  endloop
endfacet
facet normal -0.4407301095339586 -0.8976396663195009 1.3706940132649346e-16
  outer loop
    vertex 61.806628985350876 68.12490575969053 4.52258100000002
    vertex 58.61655050410827 69.69119532020507 2.255973186038318e-14
    vertex 61.806628985350876 68.12490575969053 2.0846825163998286e-14
  endloop
endfacet
facet normal -0.4407301095339586 -0.8976396663195009 1.3706940132649346e-16
  outer loop
    vertex 58.61655050410827 69.69119532020507 2.255973186038318e-14
    vertex 61.806628985350876 68.12490575969053 4.52258100000002
    vertex 58.61655050410827 69.69119532020507 4.522581000000022
  endloop
endfacet
facet normal 0.3309648360944842 -0.9436430878615873 2.2616504260997876e-17
  outer loop
    vertex 90.91048376560634 78.33252837778551 4.522581
    vertex 61.806628985350876 68.12490575969053 2.0846825163998286e-14
    vertex 90.91048376560634 78.33252837778551 0.0
  endloop
endfacet
facet normal 0.3309648360944842 -0.9436430878615873 2.2616504260997876e-17
  outer loop
    vertex 61.806628985350876 68.12490575969053 2.0846825163998286e-14
    vertex 90.91048376560634 78.33252837778551 4.522581
    vertex 61.806628985350876 68.12490575969053 4.52258100000002
  endloop
endfacet
facet normal -0.5332824796602691 -0.8459372298742945 1.4721184785263068e-16
  outer loop
    vertex 94.53070007120257 76.05032839866674 4.522581
    vertex 90.91048376560634 78.33252837778551 0.0
    vertex 94.53070007120257 76.05032839866674 0.0
  endloop
endfacet
facet normal -0.5332824796602691 -0.8459372298742945 1.4721184785263068e-16
  outer loop
    vertex 90.91048376560634 78.33252837778551 0.0
    vertex 94.53070007120257 76.05032839866674 4.522581
    vertex 90.91048376560634 78.33252837778551 4.522581
  endloop
endfacet
facet normal -0.3943831493911101 -0.918946098243172 1.3163464164831042e-16
  outer loop
    vertex 98.46336023952065 74.36255268948054 4.522581
    vertex 94.53070007120257 76.05032839866674 0.0
    vertex 98.46336023952065 74.36255268948054 0.0
  endloop
endfacet
facet normal -0.3943831493911101 -0.918946098243172 1.3163464164831042e-16
  outer loop
    vertex 94.53070007120257 76.05032839866674 0.0
    vertex 98.46336023952065 74.36255268948054 4.522581
    vertex 94.53070007120257 76.05032839866674 4.522581
  endloop
endfacet
facet normal -0.24577279710131023 -0.9693274638660551 1.1281615369627988e-16
  outer loop
    vertex 102.61162912546577 73.31075988959351 4.522581
    vertex 98.46336023952065 74.36255268948054 0.0
    vertex 102.61162912546577 73.31075988959351 0.0
  endloop
endfacet
facet normal -0.24577279710131023 -0.9693274638660551 1.1281615369627988e-16
  outer loop
    vertex 98.46336023952065 74.36255268948054 0.0
    vertex 102.61162912546577 73.31075988959351 4.522581
    vertex 98.46336023952065 74.36255268948054 4.522581
  endloop
endfacet
facet normal -0.09111070287372479 -0.9958407703151423 9.121975762489858e-17
  outer loop
    vertex 106.87336258175087 72.92084862843906 4.522581
    vertex 102.61162912546577 73.31075988959351 0.0
    vertex 106.87336258175087 72.92084862843906 0.0
  endloop
endfacet
facet normal -0.09111070287372479 -0.9958407703151423 9.121975762489858e-17
  outer loop
    vertex 102.61162912546577 73.31075988959351 0.0
    vertex 106.87336258175087 72.92084862843906 4.522581
    vertex 102.61162912546577 73.31075988959351 4.522581
  endloop
endfacet
facet normal 0.06579483923768728 -0.9978331719930376 6.73772283797753e-17
  outer loop
    vertex 111.1436225867997 73.20241981530803 4.522581
    vertex 106.87336258175087 72.92084862843906 0.0
    vertex 111.1436225867997 73.20241981530803 0.0
  endloop
endfacet
facet normal 0.06579483923768728 -0.9978331719930376 6.73772283797753e-17
  outer loop
    vertex 106.87336258175087 72.92084862843906 0.0
    vertex 111.1436225867997 73.20241981530803 4.522581
    vertex 106.87336258175087 72.92084862843906 4.522581
  endloop
endfacet
facet normal 0.2210802940465224 -0.9752556093580305 4.1875648159740137e-17
  outer loop
    vertex 115.31726116710757 74.14854023309856 4.522581
    vertex 111.1436225867997 73.20241981530803 0.0
    vertex 115.31726116710757 74.14854023309856 0.0
  endloop
endfacet
facet normal 0.2210802940465224 -0.9752556093580305 4.1875648159740137e-17
  outer loop
    vertex 111.1436225867997 73.20241981530803 0.0
    vertex 115.31726116710757 74.14854023309856 4.522581
    vertex 111.1436225867997 73.20241981530803 4.522581
  endloop
endfacet
facet normal 0.370922018292504 -0.9286640169328279 1.534295050470356e-17
  outer loop
    vertex 119.29150948931499 75.735913257131 4.522581
    vertex 115.31726116710757 74.14854023309856 0.0
    vertex 119.29150948931499 75.735913257131 0.0
  endloop
endfacet
facet normal 0.370922018292504 -0.9286640169328279 1.534295050470356e-17
  outer loop
    vertex 115.31726116710757 74.14854023309856 0.0
    vertex 119.29150948931499 75.735913257131 4.522581
    vertex 115.31726116710757 74.14854023309856 4.522581
  endloop
endfacet
facet normal 0.5116304114285185 -0.8592056343515707 -1.156754151209136e-17
  outer loop
    vertex 122.96850836995529 77.92545249536465 4.522581
    vertex 119.29150948931499 75.735913257131 0.0
    vertex 122.96850836995529 77.92545249536465 0.0
  endloop
endfacet
facet normal 0.5116304114285185 -0.8592056343515707 -1.156754151209136e-17
  outer loop
    vertex 119.29150948931499 75.735913257131 0.0
    vertex 122.96850836995529 77.92545249536465 4.522581
    vertex 119.29150948931499 75.735913257131 4.522581
  endloop
endfacet
facet normal 0.6397407658311846 -0.7685907575125592 -3.819320226639064e-17
  outer loop
    vertex 126.25771789332737 80.66324422509007 4.522581
    vertex 122.96850836995529 77.92545249536465 0.0
    vertex 126.25771789332737 80.66324422509007 0.0
  endloop
endfacet
facet normal 0.6397407658311846 -0.7685907575125592 -3.819320226639064e-17
  outer loop
    vertex 122.96850836995529 77.92545249536465 0.0
    vertex 126.25771789332737 80.66324422509007 4.522581
    vertex 122.96850836995529 77.92545249536465 4.522581
  endloop
endfacet
facet normal 0.7520985794012102 -0.6590506254171081 -6.387841962492001e-17
  outer loop
    vertex 129.07814680470528 83.88187492771164 0.0
    vertex 126.25771789332737 80.66324422509007 4.522581
    vertex 126.25771789332737 80.66324422509007 0.0
  endloop
endfacet
facet normal 0.7520985794012102 -0.6590506254171081 -6.387841962492001e-17
  outer loop
    vertex 126.25771789332737 80.66324422509007 4.522581
    vertex 129.07814680470528 83.88187492771164 0.0
    vertex 129.07814680470528 83.88187492771164 4.522581
  endloop
endfacet
facet normal 0.8459372298742937 -0.5332824796602702 -8.799073829196229e-17
  outer loop
    vertex 131.36034678382407 87.50209123330787 0.0
    vertex 129.07814680470528 83.88187492771164 4.522581
    vertex 129.07814680470528 83.88187492771164 0.0
  endloop
endfacet
facet normal 0.8459372298742937 -0.5332824796602702 -8.799073829196229e-17
  outer loop
    vertex 129.07814680470528 83.88187492771164 4.522581
    vertex 131.36034678382407 87.50209123330787 0.0
    vertex 131.36034678382407 87.50209123330787 4.522581
  endloop
endfacet
facet normal 0.91894609824317 -0.3943831493911145 -1.0993643295773916e-16
  outer loop
    vertex 133.04812249301028 91.43475140162593 0.0
    vertex 131.36034678382407 87.50209123330787 4.522581
    vertex 131.36034678382407 87.50209123330787 0.0
  endloop
endfacet
facet normal 0.91894609824317 -0.3943831493911145 -1.0993643295773916e-16
  outer loop
    vertex 131.36034678382407 87.50209123330787 4.522581
    vertex 133.04812249301028 91.43475140162593 0.0
    vertex 133.04812249301028 91.43475140162593 4.522581
  endloop
endfacet
facet normal 0.9693274638660551 -0.24577279710131023 -1.2917512778599474e-16
  outer loop
    vertex 134.0999152928973 95.58302028757105 0.0
    vertex 133.04812249301028 91.43475140162593 4.522581
    vertex 133.04812249301028 91.43475140162593 0.0
  endloop
endfacet
facet normal 0.9693274638660551 -0.24577279710131023 -1.2917512778599474e-16
  outer loop
    vertex 133.04812249301028 91.43475140162593 4.522581
    vertex 134.0999152928973 95.58302028757105 0.0
    vertex 134.0999152928973 95.58302028757105 4.522581
  endloop
endfacet
facet normal 0.9958407703151418 -0.09111070287373002 -1.4523310226048788e-16
  outer loop
    vertex 134.48982655405177 99.84475374385615 0.0
    vertex 134.0999152928973 95.58302028757105 4.522581
    vertex 134.0999152928973 95.58302028757105 0.0
  endloop
endfacet
facet normal 0.9958407703151418 -0.09111070287373002 -1.4523310226048788e-16
  outer loop
    vertex 134.0999152928973 95.58302028757105 4.522581
    vertex 134.48982655405177 99.84475374385615 0.0
    vertex 134.48982655405177 99.84475374385615 4.522581
  endloop
endfacet
facet normal 0.9978331719930376 0.06579483923768728 -1.5771495575629571e-16
  outer loop
    vertex 134.2082553671828 104.11501374890497 0.0
    vertex 134.48982655405177 99.84475374385615 4.522581
    vertex 134.48982655405177 99.84475374385615 0.0
  endloop
endfacet
facet normal 0.9978331719930376 0.06579483923768728 -1.5771495575629571e-16
  outer loop
    vertex 134.48982655405177 99.84475374385615 4.522581
    vertex 134.2082553671828 104.11501374890497 0.0
    vertex 134.2082553671828 104.11501374890497 4.522581
  endloop
endfacet
facet normal 0.9752556093580294 0.22108029404652743 -1.6631334361545514e-16
  outer loop
    vertex 133.26213494939225 108.28865232921285 0.0
    vertex 134.2082553671828 104.11501374890497 4.522581
    vertex 134.2082553671828 104.11501374890497 0.0
  endloop
endfacet
facet normal 0.9752556093580294 0.22108029404652743 -1.6631334361545514e-16
  outer loop
    vertex 134.2082553671828 104.11501374890497 4.522581
    vertex 133.26213494939225 108.28865232921285 0.0
    vertex 133.26213494939225 108.28865232921285 4.522581
  endloop
endfacet
facet normal 0.928664016932829 0.37092201829250127 -1.7081654499245946e-16
  outer loop
    vertex 131.67476192535983 112.26290065142028 0.0
    vertex 133.26213494939225 108.28865232921285 4.522581
    vertex 133.26213494939225 108.28865232921285 0.0
  endloop
endfacet
facet normal 0.928664016932829 0.37092201829250127 -1.7081654499245946e-16
  outer loop
    vertex 133.26213494939225 108.28865232921285 4.522581
    vertex 131.67476192535983 112.26290065142028 0.0
    vertex 131.67476192535983 112.26290065142028 4.522581
  endloop
endfacet
facet normal 0.8592056343515656 0.5116304114285269 -1.7111367612413896e-16
  outer loop
    vertex 129.48522268712614 115.93989953206056 0.0
    vertex 131.67476192535983 112.26290065142028 4.522581
    vertex 131.67476192535983 112.26290065142028 0.0
  endloop
endfacet
facet normal 0.8592056343515656 0.5116304114285269 -1.7111367612413896e-16
  outer loop
    vertex 131.67476192535983 112.26290065142028 4.522581
    vertex 129.48522268712614 115.93989953206056 0.0
    vertex 129.48522268712614 115.93989953206056 4.522581
  endloop
endfacet
facet normal 0.7685907575125629 0.6397407658311802 -1.6719742065591012e-16
  outer loop
    vertex 126.74743095740075 119.22910905543264 0.0
    vertex 129.48522268712614 115.93989953206056 4.522581
    vertex 129.48522268712614 115.93989953206056 0.0
  endloop
endfacet
facet normal 0.7685907575125629 0.6397407658311802 -1.6719742065591012e-16
  outer loop
    vertex 129.48522268712614 115.93989953206056 4.522581
    vertex 126.74743095740075 119.22910905543264 0.0
    vertex 126.74743095740075 119.22910905543264 4.522581
  endloop
endfacet
facet normal 0.6590506254171097 0.7520985794012089 -1.5916420979470663e-16
  outer loop
    vertex 123.5288002547792 122.0495379668106 4.522581
    vertex 126.74743095740075 119.22910905543264 0.0
    vertex 123.5288002547792 122.0495379668106 0.0
  endloop
endfacet
facet normal 0.6590506254171097 0.7520985794012089 -1.5916420979470663e-16
  outer loop
    vertex 126.74743095740075 119.22910905543264 0.0
    vertex 123.5288002547792 122.0495379668106 4.522581
    vertex 126.74743095740075 119.22910905543264 4.522581
  endloop
endfacet
facet normal 0.5332824796602683 0.845937229874295 -1.472118478526306e-16
  outer loop
    vertex 119.90858394918297 124.33173794592935 4.522581
    vertex 123.5288002547792 122.0495379668106 0.0
    vertex 119.90858394918297 124.33173794592935 0.0
  endloop
endfacet
facet normal 0.5332824796602683 0.845937229874295 -1.472118478526306e-16
  outer loop
    vertex 123.5288002547792 122.0495379668106 0.0
    vertex 119.90858394918297 124.33173794592935 4.522581
    vertex 123.5288002547792 122.0495379668106 4.522581
  endloop
endfacet
facet normal 0.3943831493911123 0.918946098243171 -1.316346416483107e-16
  outer loop
    vertex 115.97592378086489 126.01951365511553 4.522581
    vertex 119.90858394918297 124.33173794592935 0.0
    vertex 115.97592378086489 126.01951365511553 0.0
  endloop
endfacet
facet normal 0.3943831493911123 0.918946098243171 -1.316346416483107e-16
  outer loop
    vertex 119.90858394918297 124.33173794592935 0.0
    vertex 115.97592378086489 126.01951365511553 4.522581
    vertex 119.90858394918297 124.33173794592935 4.522581
  endloop
endfacet
facet normal 0.2457727971013117 0.9693274638660546 -1.1281615369628006e-16
  outer loop
    vertex 113.3187287600383 126.69324495548287 4.522581
    vertex 115.97592378086489 126.01951365511553 0.0
    vertex 113.3187287600383 126.69324495548287 0.0
  endloop
endfacet
facet normal 0.2457727971013117 0.9693274638660546 -1.1281615369628006e-16
  outer loop
    vertex 115.97592378086489 126.01951365511553 0.0
    vertex 113.3187287600383 126.69324495548287 4.522581
    vertex 115.97592378086489 126.01951365511553 4.522581
  endloop
endfacet
facet normal 1.0 0.0 -1.5294014066351788e-16
  outer loop
    vertex 113.3187287600383 136.69746514829978 0.0
    vertex 113.3187287600383 126.69324495548287 4.522581
    vertex 113.3187287600383 126.69324495548287 0.0
  endloop
endfacet
facet normal 1.0 0.0 -1.5294014066351788e-16
  outer loop
    vertex 113.3187287600383 126.69324495548287 4.522581
    vertex 113.3187287600383 136.69746514829978 0.0
    vertex 113.3187287600383 136.69746514829978 4.522581
  endloop
endfacet
facet normal 0.7071067811865476 0.7071067811865476 -1.6302219867719675e-16
  outer loop
    vertex 110.94565858794529 139.0705353203928 0.0
    vertex 113.3187287600383 136.69746514829978 4.522581
    vertex 113.3187287600383 136.69746514829978 0.0
  endloop
endfacet
facet normal 0.7071067811865476 0.7071067811865476 -1.6302219867719675e-16
  outer loop
    vertex 113.3187287600383 136.69746514829978 4.522581
    vertex 110.94565858794529 139.0705353203928 0.0
    vertex 110.94565858794529 139.0705353203928 4.522581
  endloop
endfacet
facet normal 0.0 1.0 -7.760806367365494e-17
  outer loop
    vertex 103.63725511917643 139.0705353203928 4.522581
    vertex 110.94565858794529 139.0705353203928 0.0
    vertex 103.63725511917643 139.0705353203928 0.0
  endloop
endfacet
facet normal 0.0 1.0 -7.760806367365494e-17
  outer loop
    vertex 110.94565858794529 139.0705353203928 0.0
    vertex 103.63725511917643 139.0705353203928 4.522581
    vertex 110.94565858794529 139.0705353203928 4.522581
  endloop
endfacet
facet normal -0.7071067811865492 0.7071067811865459 5.326782248039955e-17
  outer loop
    vertex 103.63725511917643 139.0705353203928 4.522581
    vertex 101.20884214343191 136.64212234464827 0.0
    vertex 101.20884214343191 136.64212234464827 4.522581
  endloop
endfacet
facet normal -0.7071067811865492 0.7071067811865459 5.326782248039955e-17
  outer loop
    vertex 101.20884214343191 136.64212234464827 0.0
    vertex 103.63725511917643 139.0705353203928 4.522581
    vertex 103.63725511917643 139.0705353203928 0.0
  endloop
endfacet
facet normal -1.0 0.0 1.5294014066351788e-16
  outer loop
    vertex 101.20884214343191 136.64212234464827 4.522581
    vertex 101.20884214343191 126.7065863203928 0.0
    vertex 101.20884214343191 126.7065863203928 4.522581
  endloop
endfacet
facet normal -1.0 0.0 1.5294014066351788e-16
  outer loop
    vertex 101.20884214343191 126.7065863203928 0.0
    vertex 101.20884214343191 136.64212234464827 4.522581
    vertex 101.20884214343191 136.64212234464827 0.0
  endloop
endfacet
facet normal -0.2210802940465213 0.9752556093580308 -4.187564815974034e-17
  outer loop
    vertex 99.12202285327797 126.23352611149754 4.522581
    vertex 101.20884214343191 126.7065863203928 0.0
    vertex 99.12202285327797 126.23352611149754 0.0
  endloop
endfacet
facet normal -0.2210802940465213 0.9752556093580308 -4.187564815974034e-17
  outer loop
    vertex 101.20884214343191 126.7065863203928 0.0
    vertex 99.12202285327797 126.23352611149754 4.522581
    vertex 101.20884214343191 126.7065863203928 4.522581
  endloop
endfacet
facet normal -0.3709220182925053 0.9286640169328273 -1.5342950504703305e-17
  outer loop
    vertex 95.14777453107054 124.6461530874651 4.522581
    vertex 99.12202285327797 126.23352611149754 0.0
    vertex 95.14777453107054 124.6461530874651 0.0
  endloop
endfacet
facet normal -0.3709220182925053 0.9286640169328273 -1.5342950504703305e-17
  outer loop
    vertex 99.12202285327797 126.23352611149754 0.0
    vertex 95.14777453107054 124.6461530874651 4.522581
    vertex 99.12202285327797 126.23352611149754 4.522581
  endloop
endfacet
facet normal -0.5116304114285187 0.8592056343515704 1.1567541512091426e-17
  outer loop
    vertex 91.47077565043027 122.45661384923146 4.522581
    vertex 95.14777453107054 124.6461530874651 0.0
    vertex 91.47077565043027 122.45661384923146 0.0
  endloop
endfacet
facet normal -0.5116304114285187 0.8592056343515704 1.1567541512091426e-17
  outer loop
    vertex 95.14777453107054 124.6461530874651 0.0
    vertex 91.47077565043027 122.45661384923146 4.522581
    vertex 95.14777453107054 124.6461530874651 4.522581
  endloop
endfacet
facet normal -0.6397407658311846 0.7685907575125592 3.819320226639064e-17
  outer loop
    vertex 88.18156612705818 119.71882211950603 4.522581
    vertex 91.47077565043027 122.45661384923146 0.0
    vertex 88.18156612705818 119.71882211950603 0.0
  endloop
endfacet
facet normal -0.6397407658311846 0.7685907575125592 3.819320226639064e-17
  outer loop
    vertex 91.47077565043027 122.45661384923146 0.0
    vertex 88.18156612705818 119.71882211950603 4.522581
    vertex 91.47077565043027 122.45661384923146 4.522581
  endloop
endfacet
facet normal -0.7520985794012078 0.659050625417111 6.387841962491942e-17
  outer loop
    vertex 88.18156612705818 119.71882211950603 4.522581
    vertex 85.36113721568023 116.50019141688449 0.0
    vertex 85.36113721568023 116.50019141688449 4.522581
  endloop
endfacet
facet normal -0.7520985794012078 0.659050625417111 6.387841962491942e-17
  outer loop
    vertex 85.36113721568023 116.50019141688449 0.0
    vertex 88.18156612705818 119.71882211950603 4.522581
    vertex 88.18156612705818 119.71882211950603 0.0
  endloop
endfacet
facet normal -0.8459372298742956 0.5332824796602671 8.799073829196283e-17
  outer loop
    vertex 85.36113721568023 116.50019141688449 4.522581
    vertex 83.07893723656149 112.87997511128825 0.0
    vertex 83.07893723656149 112.87997511128825 4.522581
  endloop
endfacet
facet normal -0.8459372298742956 0.5332824796602671 8.799073829196283e-17
  outer loop
    vertex 83.07893723656149 112.87997511128825 0.0
    vertex 85.36113721568023 116.50019141688449 4.522581
    vertex 85.36113721568023 116.50019141688449 0.0
  endloop
endfacet
facet normal -0.918946098243172 0.3943831493911101 1.099364329577398e-16
  outer loop
    vertex 83.07893723656149 112.87997511128825 4.522581
    vertex 81.39116152737529 108.94731494297017 0.0
    vertex 81.39116152737529 108.94731494297017 4.522581
  endloop
endfacet
facet normal -0.918946098243172 0.3943831493911101 1.099364329577398e-16
  outer loop
    vertex 81.39116152737529 108.94731494297017 0.0
    vertex 83.07893723656149 112.87997511128825 4.522581
    vertex 83.07893723656149 112.87997511128825 0.0
  endloop
endfacet
facet normal -0.9693274638660537 0.24577279710131517 1.2917512778599418e-16
  outer loop
    vertex 81.39116152737529 108.94731494297017 4.522581
    vertex 80.33936872748824 104.79904605702505 0.0
    vertex 80.33936872748824 104.79904605702505 4.522581
  endloop
endfacet
facet normal -0.9693274638660537 0.24577279710131517 1.2917512778599418e-16
  outer loop
    vertex 80.33936872748824 104.79904605702505 0.0
    vertex 81.39116152737529 108.94731494297017 4.522581
    vertex 81.39116152737529 108.94731494297017 0.0
  endloop
endfacet
facet normal -0.9958407703151417 0.0911107028737305 1.4523310226048786e-16
  outer loop
    vertex 80.33936872748824 104.79904605702505 4.522581
    vertex 79.94945746633375 100.53731260073998 0.0
    vertex 79.94945746633375 100.53731260073998 4.522581
  endloop
endfacet
facet normal -0.9958407703151417 0.0911107028737305 1.4523310226048786e-16
  outer loop
    vertex 79.94945746633375 100.53731260073998 0.0
    vertex 80.33936872748824 104.79904605702505 4.522581
    vertex 80.33936872748824 104.79904605702505 0.0
  endloop
endfacet
facet normal -0.9978331719930376 -0.06579483923768956 1.5771495575629589e-16
  outer loop
    vertex 79.94945746633375 100.53731260073998 4.522581
    vertex 80.23102865320274 96.26705259569113 0.0
    vertex 80.23102865320274 96.26705259569113 4.522581
  endloop
endfacet
facet normal -0.9978331719930376 -0.06579483923768956 1.5771495575629589e-16
  outer loop
    vertex 80.23102865320274 96.26705259569113 0.0
    vertex 79.94945746633375 100.53731260073998 4.522581
    vertex 79.94945746633375 100.53731260073998 0.0
  endloop
endfacet
facet normal -0.9752556093580298 -0.2210802940465249 1.66313343615455e-16
  outer loop
    vertex 80.23102865320274 96.26705259569113 4.522581
    vertex 81.17714907099328 92.09341401538325 0.0
    vertex 81.17714907099328 92.09341401538325 4.522581
  endloop
endfacet
facet normal -0.9752556093580298 -0.2210802940465249 1.66313343615455e-16
  outer loop
    vertex 81.17714907099328 92.09341401538325 0.0
    vertex 80.23102865320274 96.26705259569113 4.522581
    vertex 80.23102865320274 96.26705259569113 0.0
  endloop
endfacet
facet normal 0.0 0.0 1.0
  outer loop
    vertex 93.61216889495618 87.05030509586669 23.01016499999997
    vertex 121.11636089495622 113.4207200958665 23.01016499999997
    vertex 93.61216889495617 113.42072009586644 23.01016499999997
  endloop
endfacet
facet normal 0.0 0.0 1.0
  outer loop
    vertex 121.11636089495622 113.4207200958665 23.01016499999997
    vertex 93.61216889495618 87.05030509586669 23.01016499999997
    vertex 121.1163608949563 87.05030509586656 23.01016499999997
  endloop
endfacet
facet normal -1.0 -4.27747000955112e-16 0.0
  outer loop
    vertex 93.61216889495617 113.42072009586644 23.01016499999997
    vertex 93.61216889495618 87.05030509586669 4.522580999999962
    vertex 93.61216889495618 87.05030509586669 23.01016499999997
  endloop
endfacet
facet normal -1.0 -4.27747000955112e-16 0.0
  outer loop
    vertex 93.61216889495618 87.05030509586669 4.522580999999962
    vertex 93.61216889495617 113.42072009586644 23.01016499999997
    vertex 93.61216889495617 113.42072009586644 4.522580999999962
  endloop
endfacet
facet normal -2.050572132820985e-15 1.0 0.0
  outer loop
    vertex 93.61216889495617 113.42072009586644 23.01016499999997
    vertex 121.11636089495622 113.4207200958665 4.522580999999962
    vertex 93.61216889495617 113.42072009586644 4.522580999999962
  endloop
endfacet
facet normal -2.050572132820985e-15 1.0 0.0
  outer loop
    vertex 121.11636089495622 113.4207200958665 4.522580999999962
    vertex 93.61216889495617 113.42072009586644 23.01016499999997
    vertex 121.11636089495622 113.4207200958665 23.01016499999997
  endloop
endfacet
facet normal 1.0 3.4219760076408712e-15 0.0
  outer loop
    vertex 121.11636089495622 113.4207200958665 4.522580999999962
    vertex 121.1163608949563 87.05030509586656 23.01016499999997
    vertex 121.1163608949563 87.05030509586656 4.522580999999962
  endloop
endfacet
facet normal 1.0 3.4219760076408712e-15 0.0
  outer loop
    vertex 121.1163608949563 87.05030509586656 23.01016499999997
    vertex 121.11636089495622 113.4207200958665 4.522580999999962
    vertex 121.11636089495622 113.4207200958665 23.01016499999997
  endloop
endfacet
facet normal -4.921373118770349e-15 -1.0 0.0
  outer loop
    vertex 121.1163608949563 87.05030509586656 23.01016499999997
    vertex 93.61216889495618 87.05030509586669 4.522580999999962
    vertex 121.1163608949563 87.05030509586656 4.522580999999962
  endloop
endfacet
facet normal -4.921373118770349e-15 -1.0 0.0
  outer loop
    vertex 93.61216889495618 87.05030509586669 4.522580999999962
    vertex 121.1163608949563 87.05030509586656 23.01016499999997
    vertex 93.61216889495618 87.05030509586669 23.01016499999997
  endloop
endfacet
endsolid Extension3
