solid ExtensionLink2
facet normal 0.0 0.0 -1.0
  outer loop
    vertex 52.82611911482111 138.79788444401487 0.0
    vertex 55.31691603573104 136.70976856604383 0.0
    vertex 52.82611911482111 105.80089444401489 0.0
  endloop
endfacet
facet normal 0.0 0.0 -1.0
  outer loop
    vertex 55.31691603573104 136.70976856604383 0.0
    vertex 52.82611911482111 138.79788444401487 0.0
    vertex 86.92411311482108 138.79788444401487 0.0
  endloop
endfacet
facet normal 0.0 0.0 -1.0
  outer loop
    vertex 55.31691603573104 136.70976856604383 0.0
    vertex 86.92411311482108 138.79788444401487 0.0
    vertex 84.6755714924312 136.70976856604383 0.0
  endloop
endfacet
facet normal 0.0 0.0 -1.0
  outer loop
    vertex 84.6755714924312 136.70976856604383 0.0
    vertex 86.92411311482108 138.79788444401487 0.0
    vertex 84.6755714924312 108.28257293238427 0.0
  endloop
endfacet
facet normal 0.0 0.0 -1.0
  outer loop
    vertex 52.82611911482111 105.80089444401489 0.0
    vertex 55.316916035731055 108.28257293238427 0.0
    vertex 86.92411311482108 105.80089444401489 0.0
  endloop
endfacet
facet normal 0.0 0.0 -1.0
  outer loop
    vertex 55.316916035731055 108.28257293238427 0.0
    vertex 52.82611911482111 105.80089444401489 0.0
    vertex 55.31691603573104 136.70976856604383 0.0
  endloop
endfacet
facet normal 0.0 0.0 -1.0
  outer loop
    vertex 86.92411311482108 105.80089444401489 0.0
    vertex 55.316916035731055 108.28257293238427 0.0
    vertex 84.6755714924312 108.28257293238427 0.0
  endloop
endfacet
facet normal 0.0 0.0 -1.0
  outer loop
    vertex 86.92411311482108 105.80089444401489 0.0
    vertex 84.6755714924312 108.28257293238427 0.0
    vertex 86.92411311482108 138.79788444401487 0.0
  endloop
endfacet
facet normal 0.0 0.0 1.0
  outer loop
    vertex 52.82611911482111 105.80089444401489 70.088458
    vertex 55.316916035731055 108.28257293238427 70.088458
    vertex 52.82611911482111 138.79788444401487 70.088458
  endloop
endfacet
facet normal 0.0 0.0 1.0
  outer loop
    vertex 55.316916035731055 108.28257293238427 70.088458
    vertex 52.82611911482111 105.80089444401489 70.088458
    vertex 86.92411311482108 105.80089444401489 70.088458
  endloop
endfacet
facet normal 0.0 0.0 1.0
  outer loop
    vertex 52.82611911482111 138.79788444401487 70.088458
    vertex 55.316916035731055 108.28257293238427 70.088458
    vertex 55.31691603573104 136.70976856604383 70.088458
  endloop
endfacet
facet normal 0.0 0.0 1.0
  outer loop
    vertex 55.316916035731055 108.28257293238427 70.088458
    vertex 86.92411311482108 105.80089444401489 70.088458
    vertex 84.6755714924312 108.28257293238427 70.088458
  endloop
endfacet
facet normal 0.0 0.0 1.0
  outer loop
    vertex 84.6755714924312 108.28257293238427 70.088458
    vertex 86.92411311482108 105.80089444401489 70.088458
    vertex 84.6755714924312 136.70976856604383 70.088458
  endloop
endfacet
facet normal 0.0 0.0 1.0
  outer loop
    vertex 55.31691603573104 136.70976856604383 70.088458
    vertex 86.92411311482108 138.79788444401487 70.088458
    vertex 52.82611911482111 138.79788444401487 70.088458
  endloop
endfacet
facet normal 0.0 0.0 1.0
  outer loop
    vertex 86.92411311482108 138.79788444401487 70.088458
    vertex 55.31691603573104 136.70976856604383 70.088458
    vertex 84.6755714924312 136.70976856604383 70.088458
  endloop
endfacet
facet normal 0.0 0.0 1.0
  outer loop
    vertex 86.92411311482108 138.79788444401487 70.088458
    vertex 84.6755714924312 136.70976856604383 70.088458
    vertex 86.92411311482108 105.80089444401489 70.088458
  endloop
endfacet
facet normal -0.0 -1.0 -0.0
  outer loop
    vertex 86.92411311482108 105.80089444401489 70.088458
    vertex 52.82611911482111 105.80089444401489 0.0
    vertex 86.92411311482108 105.80089444401489 0.0
  endloop
endfacet
facet normal -0.0 -1.0 -0.0
  outer loop
    vertex 52.82611911482111 105.80089444401489 0.0
    vertex 86.92411311482108 105.80089444401489 70.088458
    vertex 52.82611911482111 105.80089444401489 70.088458
  endloop
endfacet
facet normal -1.0 0.0 0.0
  outer loop
    vertex 52.82611911482111 138.79788444401487 70.088458
    vertex 52.82611911482111 105.80089444401489 0.0
    vertex 52.82611911482111 105.80089444401489 70.088458
  endloop
endfacet
facet normal -1.0 0.0 0.0
  outer loop
    vertex 52.82611911482111 105.80089444401489 0.0
    vertex 52.82611911482111 138.79788444401487 70.088458
    vertex 52.82611911482111 138.79788444401487 0.0
  endloop
endfacet
facet normal 0.0 1.0 0.0
  outer loop
    vertex 52.82611911482111 138.79788444401487 70.088458
    vertex 86.92411311482108 138.79788444401487 0.0
    vertex 52.82611911482111 138.79788444401487 0.0
  endloop
endfacet
facet normal 0.0 1.0 0.0
  outer loop
    vertex 86.92411311482108 138.79788444401487 0.0
    vertex 52.82611911482111 138.79788444401487 70.088458
    vertex 86.92411311482108 138.79788444401487 70.088458
  endloop
endfacet
facet normal 1.0 0.0 0.0
  outer loop
    vertex 86.92411311482108 138.79788444401487 0.0
    vertex 86.92411311482108 105.80089444401489 70.088458
    vertex 86.92411311482108 105.80089444401489 0.0
  endloop
endfacet
facet normal 1.0 0.0 0.0
  outer loop
    vertex 86.92411311482108 105.80089444401489 70.088458
    vertex 86.92411311482108 138.79788444401487 0.0
    vertex 86.92411311482108 138.79788444401487 70.088458
  endloop
endfacet
facet normal -0.0 -1.0 -0.0
  outer loop
    vertex 84.6755714924312 136.70976856604383 70.088458
    vertex 55.31691603573104 136.70976856604383 0.0
    vertex 84.6755714924312 136.70976856604383 0.0
  endloop
endfacet
facet normal -0.0 -1.0 -0.0
  outer loop
    vertex 55.31691603573104 136.70976856604383 0.0
    vertex 84.6755714924312 136.70976856604383 70.088458
    vertex 55.31691603573104 136.70976856604383 70.088458
  endloop
endfacet
facet normal 1.0 4.184930289105133e-16 0.0
  outer loop
    vertex 55.31691603573104 136.70976856604383 0.0
    vertex 55.316916035731055 108.28257293238427 70.088458
    vertex 55.316916035731055 108.28257293238427 0.0
  endloop
endfacet
facet normal 1.0 4.184930289105133e-16 0.0
  outer loop
    vertex 55.316916035731055 108.28257293238427 70.088458
    vertex 55.31691603573104 136.70976856604383 0.0
    vertex 55.31691603573104 136.70976856604383 70.088458
  endloop
endfacet
facet normal 0.0 1.0 0.0
  outer loop
    vertex 55.316916035731055 108.28257293238427 70.088458
    vertex 84.6755714924312 108.28257293238427 0.0
    vertex 55.316916035731055 108.28257293238427 0.0
  endloop
endfacet
facet normal 0.0 1.0 0.0
  outer loop
    vertex 84.6755714924312 108.28257293238427 0.0
    vertex 55.316916035731055 108.28257293238427 70.088458
    vertex 84.6755714924312 108.28257293238427 70.088458
  endloop
endfacet
facet normal -1.0 0.0 0.0
  outer loop
    vertex 84.6755714924312 136.70976856604383 70.088458
    vertex 84.6755714924312 108.28257293238427 0.0
    vertex 84.6755714924312 108.28257293238427 70.088458
  endloop
endfacet
facet normal -1.0 0.0 0.0
  outer loop
    vertex 84.6755714924312 108.28257293238427 0.0
    vertex 84.6755714924312 136.70976856604383 70.088458
    vertex 84.6755714924312 136.70976856604383 0.0
  endloop
endfacet
endsolid ExtensionLink2
