solid ExtensionLink1
facet normal -0.0 -0.0 1.0
  outer loop
    vertex 50.2359744207745 26.3191948324961 40.726062999999996
    vertex 68.95430567722633 36.052512794816714 40.726062999999996
    vertex 50.2359744207745 52.689609832496124 40.726062999999996
  endloop
endfacet
facet normal -0.0 -0.0 1.0
  outer loop
    vertex 68.95430567722633 36.052512794816714 40.726062999999996
    vertex 50.2359744207745 26.3191948324961 40.726062999999996
    vertex 69.53679865872229 35.555016789902986 40.726062999999996
  endloop
endfacet
facet normal -0.0 -0.0 1.0
  outer loop
    vertex 69.53679865872229 35.555016789902986 40.726062999999996
    vertex 50.2359744207745 26.3191948324961 40.726062999999996
    vertex 70.18994570641269 35.154767764307046 40.726062999999996
  endloop
endfacet
facet normal -0.0 -0.0 1.0
  outer loop
    vertex 70.18994570641269 35.154767764307046 40.726062999999996
    vertex 50.2359744207745 26.3191948324961 40.726062999999996
    vertex 70.89766417231259 34.861621177389424 40.726062999999996
  endloop
endfacet
facet normal -0.0 -0.0 1.0
  outer loop
    vertex 70.89766417231259 34.861621177389424 40.726062999999996
    vertex 50.2359744207745 26.3191948324961 40.726062999999996
    vertex 100.82253442077447 26.3191948324961 40.726062999999996
  endloop
endfacet
facet normal -0.0 -0.0 1.0
  outer loop
    vertex 50.2359744207745 52.689609832496124 40.726062999999996
    vertex 68.95430567722633 36.052512794816714 40.726062999999996
    vertex 68.4568096723126 36.63500577631268 40.726062999999996
  endloop
endfacet
facet normal -0.0 -0.0 1.0
  outer loop
    vertex 50.2359744207745 52.689609832496124 40.726062999999996
    vertex 68.4568096723126 36.63500577631268 40.726062999999996
    vertex 68.05656064671666 37.28815282400307 40.726062999999996
  endloop
endfacet
facet normal -0.0 -0.0 1.0
  outer loop
    vertex 50.2359744207745 52.689609832496124 40.726062999999996
    vertex 68.05656064671666 37.28815282400307 40.726062999999996
    vertex 67.76341405979903 37.995871289902986 40.726062999999996
  endloop
endfacet
facet normal -0.0 -0.0 1.0
  outer loop
    vertex 50.2359744207745 52.689609832496124 40.726062999999996
    vertex 67.76341405979903 37.995871289902986 40.726062999999996
    vertex 67.58458815342739 38.740734796599035 40.726062999999996
  endloop
endfacet
facet normal -0.0 -0.0 1.0
  outer loop
    vertex 50.2359744207745 52.689609832496124 40.726062999999996
    vertex 67.58458815342739 38.740734796599035 40.726062999999996
    vertex 67.52448621490574 39.50440233249611 40.726062999999996
  endloop
endfacet
facet normal -0.0 -0.0 1.0
  outer loop
    vertex 70.89766417231259 34.861621177389424 40.726062999999996
    vertex 100.82253442077447 26.3191948324961 40.726062999999996
    vertex 71.64252767900864 34.68279527101777 40.726062999999996
  endloop
endfacet
facet normal -0.0 -0.0 1.0
  outer loop
    vertex 71.64252767900864 34.68279527101777 40.726062999999996
    vertex 100.82253442077447 26.3191948324961 40.726062999999996
    vertex 72.40619521490572 34.62269333249612 40.726062999999996
  endloop
endfacet
facet normal -0.0 -0.0 1.0
  outer loop
    vertex 72.40619521490572 34.62269333249612 40.726062999999996
    vertex 100.82253442077447 26.3191948324961 40.726062999999996
    vertex 73.1698627508028 34.68279527101777 40.726062999999996
  endloop
endfacet
facet normal -0.0 -0.0 1.0
  outer loop
    vertex 73.1698627508028 34.68279527101777 40.726062999999996
    vertex 100.82253442077447 26.3191948324961 40.726062999999996
    vertex 73.91472625749886 34.861621177389424 40.726062999999996
  endloop
endfacet
facet normal -0.0 -0.0 1.0
  outer loop
    vertex 73.91472625749886 34.861621177389424 40.726062999999996
    vertex 100.82253442077447 26.3191948324961 40.726062999999996
    vertex 74.62244472339877 35.154767764307046 40.726062999999996
  endloop
endfacet
facet normal -0.0 -0.0 1.0
  outer loop
    vertex 74.62244472339877 35.154767764307046 40.726062999999996
    vertex 100.82253442077447 26.3191948324961 40.726062999999996
    vertex 75.27559177108917 35.555016789902986 40.726062999999996
  endloop
endfacet
facet normal -0.0 -0.0 1.0
  outer loop
    vertex 75.27559177108917 35.555016789902986 40.726062999999996
    vertex 100.82253442077447 26.3191948324961 40.726062999999996
    vertex 75.85808475258513 36.052512794816714 40.726062999999996
  endloop
endfacet
facet normal -0.0 -0.0 1.0
  outer loop
    vertex 75.85808475258513 36.052512794816714 40.726062999999996
    vertex 100.82253442077447 26.3191948324961 40.726062999999996
    vertex 76.35558075749886 36.63500577631268 40.726062999999996
  endloop
endfacet
facet normal -0.0 -0.0 1.0
  outer loop
    vertex 76.35558075749886 36.63500577631268 40.726062999999996
    vertex 100.82253442077447 26.3191948324961 40.726062999999996
    vertex 76.7558297830948 37.28815282400307 40.726062999999996
  endloop
endfacet
facet normal -0.0 -0.0 1.0
  outer loop
    vertex 76.7558297830948 37.28815282400307 40.726062999999996
    vertex 100.82253442077447 26.3191948324961 40.726062999999996
    vertex 77.04897637001243 37.995871289902986 40.726062999999996
  endloop
endfacet
facet normal -0.0 -0.0 1.0
  outer loop
    vertex 77.04897637001243 37.995871289902986 40.726062999999996
    vertex 100.82253442077447 26.3191948324961 40.726062999999996
    vertex 77.22780227638407 38.740734796599035 40.726062999999996
  endloop
endfacet
facet normal -0.0 -0.0 1.0
  outer loop
    vertex 77.22780227638407 38.740734796599035 40.726062999999996
    vertex 100.82253442077447 26.3191948324961 40.726062999999996
    vertex 77.28790421490572 39.50440233249611 40.726062999999996
  endloop
endfacet
facet normal -0.0 -0.0 1.0
  outer loop
    vertex 77.28790421490572 39.50440233249611 40.726062999999996
    vertex 100.82253442077447 26.3191948324961 40.726062999999996
    vertex 82.19458313413536 37.761686092999426 40.726062999999996
  endloop
endfacet
facet normal -0.0 -0.0 1.0
  outer loop
    vertex 77.28790421490572 39.50440233249611 40.726062999999996
    vertex 82.19458313413536 37.761686092999426 40.726062999999996
    vertex 81.87697056061448 38.02234399578851 40.726062999999996
  endloop
endfacet
facet normal -0.0 -0.0 1.0
  outer loop
    vertex 77.28790421490572 39.50440233249611 40.726062999999996
    vertex 81.87697056061448 38.02234399578851 40.726062999999996
    vertex 81.6163126578254 38.33995656930937 40.726062999999996
  endloop
endfacet
facet normal -0.0 -0.0 1.0
  outer loop
    vertex 77.28790421490572 39.50440233249611 40.726062999999996
    vertex 81.6163126578254 38.33995656930937 40.726062999999996
    vertex 81.42262636279365 38.7023181404808 40.726062999999996
  endloop
endfacet
facet normal -0.0 -0.0 1.0
  outer loop
    vertex 77.28790421490572 39.50440233249611 40.726062999999996
    vertex 81.42262636279365 38.7023181404808 40.726062999999996
    vertex 81.30335493121677 39.09550335733737 40.726062999999996
  endloop
endfacet
facet normal -0.0 -0.0 1.0
  outer loop
    vertex 77.28790421490572 39.50440233249611 40.726062999999996
    vertex 81.30335493121677 39.09550335733737 40.726062999999996
    vertex 81.26308189732208 39.50440233249611 40.726062999999996
  endloop
endfacet
facet normal -0.0 -0.0 1.0
  outer loop
    vertex 82.19458313413536 37.761686092999426 40.726062999999996
    vertex 100.82253442077447 26.3191948324961 40.726062999999996
    vertex 82.55694470530676 37.56799979796768 40.726062999999996
  endloop
endfacet
facet normal -0.0 -0.0 1.0
  outer loop
    vertex 82.55694470530676 37.56799979796768 40.726062999999996
    vertex 100.82253442077447 26.3191948324961 40.726062999999996
    vertex 82.95012992216334 37.4487283663908 40.726062999999996
  endloop
endfacet
facet normal -0.0 -0.0 1.0
  outer loop
    vertex 82.95012992216334 37.4487283663908 40.726062999999996
    vertex 100.82253442077447 26.3191948324961 40.726062999999996
    vertex 83.35902889732208 37.40845533249611 40.726062999999996
  endloop
endfacet
facet normal -0.0 -0.0 1.0
  outer loop
    vertex 83.35902889732208 37.40845533249611 40.726062999999996
    vertex 100.82253442077447 26.3191948324961 40.726062999999996
    vertex 83.76792787248081 37.4487283663908 40.726062999999996
  endloop
endfacet
facet normal -0.0 -0.0 1.0
  outer loop
    vertex 83.76792787248081 37.4487283663908 40.726062999999996
    vertex 100.82253442077447 26.3191948324961 40.726062999999996
    vertex 84.16111308933739 37.56799979796767 40.726062999999996
  endloop
endfacet
facet normal -0.0 -0.0 1.0
  outer loop
    vertex 84.16111308933739 37.56799979796767 40.726062999999996
    vertex 100.82253442077447 26.3191948324961 40.726062999999996
    vertex 84.52347466050881 37.761686092999426 40.726062999999996
  endloop
endfacet
facet normal -0.0 -0.0 1.0
  outer loop
    vertex 84.52347466050881 37.761686092999426 40.726062999999996
    vertex 100.82253442077447 26.3191948324961 40.726062999999996
    vertex 84.84108723402967 38.0223439957885 40.726062999999996
  endloop
endfacet
facet normal -0.0 -0.0 1.0
  outer loop
    vertex 84.84108723402967 38.0223439957885 40.726062999999996
    vertex 100.82253442077447 26.3191948324961 40.726062999999996
    vertex 85.10174513681876 38.33995656930937 40.726062999999996
  endloop
endfacet
facet normal -0.0 -0.0 1.0
  outer loop
    vertex 85.10174513681876 38.33995656930937 40.726062999999996
    vertex 100.82253442077447 26.3191948324961 40.726062999999996
    vertex 85.2954314318505 38.70231814048079 40.726062999999996
  endloop
endfacet
facet normal -0.0 -0.0 1.0
  outer loop
    vertex 85.2954314318505 38.70231814048079 40.726062999999996
    vertex 100.82253442077447 26.3191948324961 40.726062999999996
    vertex 85.41470286342738 39.095503357337364 40.726062999999996
  endloop
endfacet
facet normal -0.0 -0.0 1.0
  outer loop
    vertex 85.41470286342738 39.095503357337364 40.726062999999996
    vertex 100.82253442077447 26.3191948324961 40.726062999999996
    vertex 85.45497589732207 39.504402332496106 40.726062999999996
  endloop
endfacet
facet normal -0.0 -0.0 1.0
  outer loop
    vertex 50.2359744207745 52.689609832496124 40.726062999999996
    vertex 70.89766417231259 44.1471834876028 40.726062999999996
    vertex 100.82253442077447 52.689609832496146 40.726062999999996
  endloop
endfacet
facet normal -0.0 -0.0 1.0
  outer loop
    vertex 70.89766417231259 44.1471834876028 40.726062999999996
    vertex 50.2359744207745 52.689609832496124 40.726062999999996
    vertex 70.18994570641269 43.85403690068518 40.726062999999996
  endloop
endfacet
facet normal -0.0 -0.0 1.0
  outer loop
    vertex 70.18994570641269 43.85403690068518 40.726062999999996
    vertex 50.2359744207745 52.689609832496124 40.726062999999996
    vertex 69.53679865872229 43.45378787508923 40.726062999999996
  endloop
endfacet
facet normal -0.0 -0.0 1.0
  outer loop
    vertex 69.53679865872229 43.45378787508923 40.726062999999996
    vertex 50.2359744207745 52.689609832496124 40.726062999999996
    vertex 68.95430567722633 42.956291870175505 40.726062999999996
  endloop
endfacet
facet normal -0.0 -0.0 1.0
  outer loop
    vertex 68.95430567722633 42.956291870175505 40.726062999999996
    vertex 50.2359744207745 52.689609832496124 40.726062999999996
    vertex 68.4568096723126 42.373798888679545 40.726062999999996
  endloop
endfacet
facet normal -0.0 -0.0 1.0
  outer loop
    vertex 68.4568096723126 42.373798888679545 40.726062999999996
    vertex 50.2359744207745 52.689609832496124 40.726062999999996
    vertex 68.05656064671666 41.72065184098915 40.726062999999996
  endloop
endfacet
facet normal -0.0 -0.0 1.0
  outer loop
    vertex 68.05656064671666 41.72065184098915 40.726062999999996
    vertex 50.2359744207745 52.689609832496124 40.726062999999996
    vertex 67.76341405979903 41.01293337508924 40.726062999999996
  endloop
endfacet
facet normal -0.0 -0.0 1.0
  outer loop
    vertex 67.76341405979903 41.01293337508924 40.726062999999996
    vertex 50.2359744207745 52.689609832496124 40.726062999999996
    vertex 67.58458815342739 40.26806986839319 40.726062999999996
  endloop
endfacet
facet normal -0.0 -0.0 1.0
  outer loop
    vertex 67.58458815342739 40.26806986839319 40.726062999999996
    vertex 50.2359744207745 52.689609832496124 40.726062999999996
    vertex 67.52448621490574 39.50440233249611 40.726062999999996
  endloop
endfacet
facet normal -0.0 -0.0 1.0
  outer loop
    vertex 100.82253442077447 52.689609832496146 40.726062999999996
    vertex 70.89766417231259 44.1471834876028 40.726062999999996
    vertex 71.64252767900864 44.32600939397446 40.726062999999996
  endloop
endfacet
facet normal -0.0 -0.0 1.0
  outer loop
    vertex 100.82253442077447 52.689609832496146 40.726062999999996
    vertex 71.64252767900864 44.32600939397446 40.726062999999996
    vertex 72.40619521490572 44.38611133249611 40.726062999999996
  endloop
endfacet
facet normal -0.0 -0.0 1.0
  outer loop
    vertex 100.82253442077447 52.689609832496146 40.726062999999996
    vertex 72.40619521490572 44.38611133249611 40.726062999999996
    vertex 73.1698627508028 44.32600939397446 40.726062999999996
  endloop
endfacet
facet normal -0.0 -0.0 1.0
  outer loop
    vertex 100.82253442077447 52.689609832496146 40.726062999999996
    vertex 73.1698627508028 44.32600939397446 40.726062999999996
    vertex 73.91472625749886 44.1471834876028 40.726062999999996
  endloop
endfacet
facet normal -0.0 -0.0 1.0
  outer loop
    vertex 100.82253442077447 52.689609832496146 40.726062999999996
    vertex 73.91472625749886 44.1471834876028 40.726062999999996
    vertex 74.62244472339877 43.85403690068518 40.726062999999996
  endloop
endfacet
facet normal -0.0 -0.0 1.0
  outer loop
    vertex 100.82253442077447 52.689609832496146 40.726062999999996
    vertex 74.62244472339877 43.85403690068518 40.726062999999996
    vertex 75.27559177108917 43.45378787508923 40.726062999999996
  endloop
endfacet
facet normal -0.0 -0.0 1.0
  outer loop
    vertex 100.82253442077447 52.689609832496146 40.726062999999996
    vertex 75.27559177108917 43.45378787508923 40.726062999999996
    vertex 75.85808475258513 42.956291870175505 40.726062999999996
  endloop
endfacet
facet normal -0.0 -0.0 1.0
  outer loop
    vertex 100.82253442077447 52.689609832496146 40.726062999999996
    vertex 75.85808475258513 42.956291870175505 40.726062999999996
    vertex 76.35558075749886 42.373798888679545 40.726062999999996
  endloop
endfacet
facet normal -0.0 -0.0 1.0
  outer loop
    vertex 100.82253442077447 52.689609832496146 40.726062999999996
    vertex 76.35558075749886 42.373798888679545 40.726062999999996
    vertex 76.7558297830948 41.720651840989156 40.726062999999996
  endloop
endfacet
facet normal -0.0 -0.0 1.0
  outer loop
    vertex 100.82253442077447 52.689609832496146 40.726062999999996
    vertex 76.7558297830948 41.720651840989156 40.726062999999996
    vertex 77.04897637001243 41.01293337508924 40.726062999999996
  endloop
endfacet
facet normal -0.0 -0.0 1.0
  outer loop
    vertex 100.82253442077447 52.689609832496146 40.726062999999996
    vertex 77.04897637001243 41.01293337508924 40.726062999999996
    vertex 77.22780227638407 40.26806986839319 40.726062999999996
  endloop
endfacet
facet normal -0.0 -0.0 1.0
  outer loop
    vertex 100.82253442077447 52.689609832496146 40.726062999999996
    vertex 77.22780227638407 40.26806986839319 40.726062999999996
    vertex 77.28790421490572 39.50440233249611 40.726062999999996
  endloop
endfacet
facet normal -0.0 -0.0 1.0
  outer loop
    vertex 100.82253442077447 52.689609832496146 40.726062999999996
    vertex 77.28790421490572 39.50440233249611 40.726062999999996
    vertex 82.19458313413536 41.24711857199279 40.726062999999996
  endloop
endfacet
facet normal -0.0 -0.0 1.0
  outer loop
    vertex 82.19458313413536 41.24711857199279 40.726062999999996
    vertex 77.28790421490572 39.50440233249611 40.726062999999996
    vertex 81.87697056061448 40.98646066920371 40.726062999999996
  endloop
endfacet
facet normal -0.0 -0.0 1.0
  outer loop
    vertex 81.87697056061448 40.98646066920371 40.726062999999996
    vertex 77.28790421490572 39.50440233249611 40.726062999999996
    vertex 81.6163126578254 40.66884809568285 40.726062999999996
  endloop
endfacet
facet normal -0.0 -0.0 1.0
  outer loop
    vertex 81.6163126578254 40.66884809568285 40.726062999999996
    vertex 77.28790421490572 39.50440233249611 40.726062999999996
    vertex 81.42262636279365 40.30648652451143 40.726062999999996
  endloop
endfacet
facet normal -0.0 -0.0 1.0
  outer loop
    vertex 81.42262636279365 40.30648652451143 40.726062999999996
    vertex 77.28790421490572 39.50440233249611 40.726062999999996
    vertex 81.30335493121677 39.91330130765485 40.726062999999996
  endloop
endfacet
facet normal -0.0 -0.0 1.0
  outer loop
    vertex 81.30335493121677 39.91330130765485 40.726062999999996
    vertex 77.28790421490572 39.50440233249611 40.726062999999996
    vertex 81.26308189732208 39.50440233249611 40.726062999999996
  endloop
endfacet
facet normal -0.0 -0.0 1.0
  outer loop
    vertex 100.82253442077447 52.689609832496146 40.726062999999996
    vertex 82.19458313413536 41.24711857199279 40.726062999999996
    vertex 82.55694470530676 41.44080486702454 40.726062999999996
  endloop
endfacet
facet normal -0.0 -0.0 1.0
  outer loop
    vertex 100.82253442077447 52.689609832496146 40.726062999999996
    vertex 82.55694470530676 41.44080486702454 40.726062999999996
    vertex 82.95012992216334 41.56007629860142 40.726062999999996
  endloop
endfacet
facet normal -0.0 -0.0 1.0
  outer loop
    vertex 100.82253442077447 52.689609832496146 40.726062999999996
    vertex 82.95012992216334 41.56007629860142 40.726062999999996
    vertex 83.35902889732208 41.600349332496116 40.726062999999996
  endloop
endfacet
facet normal -0.0 -0.0 1.0
  outer loop
    vertex 100.82253442077447 52.689609832496146 40.726062999999996
    vertex 83.35902889732208 41.600349332496116 40.726062999999996
    vertex 83.76792787248083 41.56007629860142 40.726062999999996
  endloop
endfacet
facet normal -0.0 -0.0 1.0
  outer loop
    vertex 100.82253442077447 52.689609832496146 40.726062999999996
    vertex 83.76792787248083 41.56007629860142 40.726062999999996
    vertex 84.16111308933739 41.44080486702454 40.726062999999996
  endloop
endfacet
facet normal -0.0 -0.0 1.0
  outer loop
    vertex 100.82253442077447 52.689609832496146 40.726062999999996
    vertex 84.16111308933739 41.44080486702454 40.726062999999996
    vertex 84.52347466050882 41.24711857199279 40.726062999999996
  endloop
endfacet
facet normal -0.0 -0.0 1.0
  outer loop
    vertex 100.82253442077447 52.689609832496146 40.726062999999996
    vertex 84.52347466050882 41.24711857199279 40.726062999999996
    vertex 84.84108723402969 40.98646066920371 40.726062999999996
  endloop
endfacet
facet normal -0.0 -0.0 1.0
  outer loop
    vertex 100.82253442077447 52.689609832496146 40.726062999999996
    vertex 84.84108723402969 40.98646066920371 40.726062999999996
    vertex 85.10174513681876 40.66884809568284 40.726062999999996
  endloop
endfacet
facet normal -0.0 -0.0 1.0
  outer loop
    vertex 100.82253442077447 52.689609832496146 40.726062999999996
    vertex 85.10174513681876 40.66884809568284 40.726062999999996
    vertex 85.29543143185052 40.30648652451142 40.726062999999996
  endloop
endfacet
facet normal -0.0 -0.0 1.0
  outer loop
    vertex 100.82253442077447 52.689609832496146 40.726062999999996
    vertex 85.29543143185052 40.30648652451142 40.726062999999996
    vertex 85.4147028634274 39.91330130765484 40.726062999999996
  endloop
endfacet
facet normal -0.0 -0.0 1.0
  outer loop
    vertex 100.82253442077447 52.689609832496146 40.726062999999996
    vertex 85.4147028634274 39.91330130765484 40.726062999999996
    vertex 85.45497589732207 39.504402332496106 40.726062999999996
  endloop
endfacet
facet normal -0.0 -0.0 1.0
  outer loop
    vertex 100.82253442077447 52.689609832496146 40.726062999999996
    vertex 85.45497589732207 39.504402332496106 40.726062999999996
    vertex 100.82253442077447 26.3191948324961 40.726062999999996
  endloop
endfacet
facet normal -1.0 0.0 0.0
  outer loop
    vertex 50.2359744207745 52.689609832496124 40.726062999999996
    vertex 50.2359744207745 26.3191948324961 30.328459
    vertex 50.2359744207745 26.3191948324961 40.726062999999996
  endloop
endfacet
facet normal -1.0 0.0 0.0
  outer loop
    vertex 50.2359744207745 26.3191948324961 30.328459
    vertex 50.2359744207745 52.689609832496124 40.726062999999996
    vertex 50.2359744207745 52.689609832496124 30.328459
  endloop
endfacet
facet normal -4.902727110744528e-16 1.0 2.0439842579140505e-16
  outer loop
    vertex 50.2359744207745 52.689609832496124 40.726062999999996
    vertex 61.748156587872614 52.689609832496124 30.328459
    vertex 50.2359744207745 52.689609832496124 30.328459
  endloop
endfacet
facet normal -4.902727110744528e-16 1.0 2.0439842579140505e-16
  outer loop
    vertex 61.748156587872614 52.689609832496124 30.328459
    vertex 50.2359744207745 52.689609832496124 40.726062999999996
    vertex 89.25234908761759 52.689609832496146 30.328459
  endloop
endfacet
facet normal -4.902727110744528e-16 1.0 2.0439842579140505e-16
  outer loop
    vertex 89.25234908761759 52.689609832496146 30.328459
    vertex 50.2359744207745 52.689609832496124 40.726062999999996
    vertex 100.82253442077447 52.689609832496146 30.328459
  endloop
endfacet
facet normal -4.902727110744528e-16 1.0 2.0439842579140505e-16
  outer loop
    vertex 100.82253442077447 52.689609832496146 30.328459
    vertex 50.2359744207745 52.689609832496124 40.726062999999996
    vertex 100.82253442077447 52.689609832496146 40.726062999999996
  endloop
endfacet
facet normal -4.902727110744528e-16 1.0 2.0439842579140505e-16
  outer loop
    vertex 61.748156587872614 52.689609832496124 30.328459
    vertex 89.25234908761759 52.689609832496146 0.0
    vertex 61.748156587872614 52.689609832496124 0.0
  endloop
endfacet
facet normal -4.902727110744528e-16 1.0 2.0439842579140505e-16
  outer loop
    vertex 89.25234908761759 52.689609832496146 0.0
    vertex 61.748156587872614 52.689609832496124 30.328459
    vertex 89.25234908761759 52.689609832496146 30.328459
  endloop
endfacet
facet normal 1.0 0.0 0.0
  outer loop
    vertex 100.82253442077447 52.689609832496146 30.328459
    vertex 100.82253442077447 26.3191948324961 40.726062999999996
    vertex 100.82253442077447 26.3191948324961 30.328459
  endloop
endfacet
facet normal 1.0 0.0 0.0
  outer loop
    vertex 100.82253442077447 26.3191948324961 40.726062999999996
    vertex 100.82253442077447 52.689609832496146 30.328459
    vertex 100.82253442077447 52.689609832496146 40.726062999999996
  endloop
endfacet
facet normal 0.0 -1.0 0.0
  outer loop
    vertex 100.82253442077447 26.3191948324961 40.726062999999996
    vertex 89.25234908761759 26.3191948324961 30.328459
    vertex 100.82253442077447 26.3191948324961 30.328459
  endloop
endfacet
facet normal 0.0 -1.0 0.0
  outer loop
    vertex 89.25234908761759 26.3191948324961 30.328459
    vertex 100.82253442077447 26.3191948324961 40.726062999999996
    vertex 61.748156587872614 26.3191948324961 30.328459
  endloop
endfacet
facet normal 0.0 -1.0 0.0
  outer loop
    vertex 61.748156587872614 26.3191948324961 30.328459
    vertex 100.82253442077447 26.3191948324961 40.726062999999996
    vertex 50.2359744207745 26.3191948324961 30.328459
  endloop
endfacet
facet normal 0.0 -1.0 0.0
  outer loop
    vertex 50.2359744207745 26.3191948324961 30.328459
    vertex 100.82253442077447 26.3191948324961 40.726062999999996
    vertex 50.2359744207745 26.3191948324961 40.726062999999996
  endloop
endfacet
facet normal 0.0 -1.0 0.0
  outer loop
    vertex 89.25234908761759 26.3191948324961 30.328459
    vertex 61.748156587872614 26.3191948324961 0.0
    vertex 89.25234908761759 26.3191948324961 0.0
  endloop
endfacet
facet normal 0.0 -1.0 0.0
  outer loop
    vertex 61.748156587872614 26.3191948324961 0.0
    vertex 89.25234908761759 26.3191948324961 30.328459
    vertex 61.748156587872614 26.3191948324961 30.328459
  endloop
endfacet
facet normal 0.0 0.0 -1.0
  outer loop
    vertex 89.25234908761759 52.689609832496146 0.0
    vertex 61.748156587872614 26.3191948324961 0.0
    vertex 61.748156587872614 52.689609832496124 0.0
  endloop
endfacet
facet normal 0.0 0.0 -1.0
  outer loop
    vertex 61.748156587872614 26.3191948324961 0.0
    vertex 89.25234908761759 52.689609832496146 0.0
    vertex 89.25234908761759 26.3191948324961 0.0
  endloop
endfacet
facet normal 0.0 0.0 -1.0
  outer loop
    vertex 100.82253442077447 52.689609832496146 30.328459
    vertex 89.25234908761759 26.3191948324961 30.328459
    vertex 89.25234908761759 52.689609832496146 30.328459
  endloop
endfacet
facet normal 0.0 0.0 -1.0
  outer loop
    vertex 89.25234908761759 26.3191948324961 30.328459
    vertex 100.82253442077447 52.689609832496146 30.328459
    vertex 100.82253442077447 26.3191948324961 30.328459
  endloop
endfacet
facet normal 1.0 -0.0 -0.0
  outer loop
    vertex 89.25234908761759 52.689609832496146 0.0
    vertex 89.25234908761759 26.3191948324961 30.328459
    vertex 89.25234908761759 26.3191948324961 0.0
  endloop
endfacet
facet normal 1.0 -0.0 -0.0
  outer loop
    vertex 89.25234908761759 26.3191948324961 30.328459
    vertex 89.25234908761759 52.689609832496146 0.0
    vertex 89.25234908761759 52.689609832496146 30.328459
  endloop
endfacet
facet normal 0.0 0.0 -1.0
  outer loop
    vertex 61.748156587872614 52.689609832496124 30.328459
    vertex 50.2359744207745 26.3191948324961 30.328459
    vertex 50.2359744207745 52.689609832496124 30.328459
  endloop
endfacet
facet normal 0.0 0.0 -1.0
  outer loop
    vertex 50.2359744207745 26.3191948324961 30.328459
    vertex 61.748156587872614 52.689609832496124 30.328459
    vertex 61.748156587872614 26.3191948324961 30.328459
  endloop
endfacet
facet normal -1.0 -0.0 -0.0
  outer loop
    vertex 61.748156587872614 52.689609832496124 30.328459
    vertex 61.748156587872614 26.3191948324961 0.0
    vertex 61.748156587872614 26.3191948324961 30.328459
  endloop
endfacet
facet normal -1.0 -0.0 -0.0
  outer loop
    vertex 61.748156587872614 26.3191948324961 0.0
    vertex 61.748156587872614 52.689609832496124 30.328459
    vertex 61.748156587872614 52.689609832496124 0.0
  endloop
endfacet
facet normal -6.124961281637668e-47 -1.810203081589559e-30 1.0
  outer loop
    vertex 81.30335493121677 39.09550335733737 42.501630000000006
    vertex 81.30335493121677 39.91330130765485 42.501630000000006
    vertex 81.26308189732208 39.50440233249611 42.501630000000006
  endloop
endfacet
facet normal -6.124961281637668e-47 -1.810203081589559e-30 1.0
  outer loop
    vertex 81.30335493121677 39.91330130765485 42.501630000000006
    vertex 81.30335493121677 39.09550335733737 42.501630000000006
    vertex 81.42262636279365 38.7023181404808 42.501630000000006
  endloop
endfacet
facet normal -6.124961281637668e-47 -1.810203081589559e-30 1.0
  outer loop
    vertex 81.30335493121677 39.91330130765485 42.501630000000006
    vertex 81.42262636279365 38.7023181404808 42.501630000000006
    vertex 81.42262636279365 40.30648652451143 42.501630000000006
  endloop
endfacet
facet normal -6.124961281637668e-47 -1.810203081589559e-30 1.0
  outer loop
    vertex 81.42262636279365 40.30648652451143 42.501630000000006
    vertex 81.42262636279365 38.7023181404808 42.501630000000006
    vertex 81.6163126578254 38.33995656930937 42.501630000000006
  endloop
endfacet
facet normal -6.124961281637668e-47 -1.810203081589559e-30 1.0
  outer loop
    vertex 81.42262636279365 40.30648652451143 42.501630000000006
    vertex 81.6163126578254 38.33995656930937 42.501630000000006
    vertex 81.6163126578254 40.66884809568285 42.501630000000006
  endloop
endfacet
facet normal -6.124961281637668e-47 -1.810203081589559e-30 1.0
  outer loop
    vertex 81.6163126578254 40.66884809568285 42.501630000000006
    vertex 81.6163126578254 38.33995656930937 42.501630000000006
    vertex 81.87697056061448 38.02234399578851 42.501630000000006
  endloop
endfacet
facet normal -6.124961281637668e-47 -1.810203081589559e-30 1.0
  outer loop
    vertex 81.6163126578254 40.66884809568285 42.501630000000006
    vertex 81.87697056061448 38.02234399578851 42.501630000000006
    vertex 81.87697056061448 40.98646066920371 42.501630000000006
  endloop
endfacet
facet normal -6.124961281637668e-47 -1.810203081589559e-30 1.0
  outer loop
    vertex 81.87697056061448 40.98646066920371 42.501630000000006
    vertex 81.87697056061448 38.02234399578851 42.501630000000006
    vertex 82.19458313413536 37.761686092999426 42.501630000000006
  endloop
endfacet
facet normal -6.124961281637668e-47 -1.810203081589559e-30 1.0
  outer loop
    vertex 81.87697056061448 40.98646066920371 42.501630000000006
    vertex 82.19458313413536 37.761686092999426 42.501630000000006
    vertex 82.19458313413536 41.24711857199279 42.501630000000006
  endloop
endfacet
facet normal -6.124961281637668e-47 -1.810203081589559e-30 1.0
  outer loop
    vertex 82.19458313413536 41.24711857199279 42.501630000000006
    vertex 82.19458313413536 37.761686092999426 42.501630000000006
    vertex 82.55694470530676 37.56799979796768 42.501630000000006
  endloop
endfacet
facet normal -6.124961281637668e-47 -1.810203081589559e-30 1.0
  outer loop
    vertex 82.19458313413536 41.24711857199279 42.501630000000006
    vertex 82.55694470530676 37.56799979796768 42.501630000000006
    vertex 82.55694470530676 41.44080486702454 42.501630000000006
  endloop
endfacet
facet normal -6.124961281637668e-47 -1.810203081589559e-30 1.0
  outer loop
    vertex 82.55694470530676 41.44080486702454 42.501630000000006
    vertex 82.55694470530676 37.56799979796768 42.501630000000006
    vertex 82.95012992216334 37.4487283663908 42.501630000000006
  endloop
endfacet
facet normal -6.124961281637668e-47 -1.810203081589559e-30 1.0
  outer loop
    vertex 82.55694470530676 41.44080486702454 42.501630000000006
    vertex 82.95012992216334 37.4487283663908 42.501630000000006
    vertex 82.95012992216334 41.56007629860142 42.501630000000006
  endloop
endfacet
facet normal -6.124961281637668e-47 -1.810203081589559e-30 1.0
  outer loop
    vertex 82.95012992216334 41.56007629860142 42.501630000000006
    vertex 82.95012992216334 37.4487283663908 42.501630000000006
    vertex 83.35902889732208 37.40845533249611 42.501630000000006
  endloop
endfacet
facet normal -6.124961281637668e-47 -1.810203081589559e-30 1.0
  outer loop
    vertex 82.95012992216334 41.56007629860142 42.501630000000006
    vertex 83.35902889732208 37.40845533249611 42.501630000000006
    vertex 83.35902889732208 41.600349332496116 42.501630000000006
  endloop
endfacet
facet normal -6.124961281637668e-47 -1.810203081589559e-30 1.0
  outer loop
    vertex 83.35902889732208 41.600349332496116 42.501630000000006
    vertex 83.35902889732208 37.40845533249611 42.501630000000006
    vertex 83.76792787248081 37.4487283663908 42.501630000000006
  endloop
endfacet
facet normal -6.124961281637668e-47 -1.810203081589559e-30 1.0
  outer loop
    vertex 83.35902889732208 41.600349332496116 42.501630000000006
    vertex 83.76792787248081 37.4487283663908 42.501630000000006
    vertex 83.76792787248083 41.56007629860142 42.501630000000006
  endloop
endfacet
facet normal -6.124961281637668e-47 -1.810203081589559e-30 1.0
  outer loop
    vertex 83.76792787248083 41.56007629860142 42.501630000000006
    vertex 83.76792787248081 37.4487283663908 42.501630000000006
    vertex 84.16111308933739 37.56799979796767 42.501630000000006
  endloop
endfacet
facet normal -6.124961281637668e-47 -1.810203081589559e-30 1.0
  outer loop
    vertex 83.76792787248083 41.56007629860142 42.501630000000006
    vertex 84.16111308933739 37.56799979796767 42.501630000000006
    vertex 84.16111308933739 41.44080486702454 42.501630000000006
  endloop
endfacet
facet normal -6.124961281637668e-47 -1.810203081589559e-30 1.0
  outer loop
    vertex 84.16111308933739 41.44080486702454 42.501630000000006
    vertex 84.16111308933739 37.56799979796767 42.501630000000006
    vertex 84.52347466050881 37.761686092999426 42.501630000000006
  endloop
endfacet
facet normal -6.124961281637668e-47 -1.810203081589559e-30 1.0
  outer loop
    vertex 84.16111308933739 41.44080486702454 42.501630000000006
    vertex 84.52347466050881 37.761686092999426 42.501630000000006
    vertex 84.52347466050882 41.24711857199279 42.501630000000006
  endloop
endfacet
facet normal -6.124961281637668e-47 -1.810203081589559e-30 1.0
  outer loop
    vertex 84.52347466050882 41.24711857199279 42.501630000000006
    vertex 84.52347466050881 37.761686092999426 42.501630000000006
    vertex 84.84108723402967 38.0223439957885 42.501630000000006
  endloop
endfacet
facet normal -6.124961281637668e-47 -1.810203081589559e-30 1.0
  outer loop
    vertex 84.52347466050882 41.24711857199279 42.501630000000006
    vertex 84.84108723402967 38.0223439957885 42.501630000000006
    vertex 84.84108723402969 40.98646066920371 42.501630000000006
  endloop
endfacet
facet normal -6.124961281637668e-47 -1.810203081589559e-30 1.0
  outer loop
    vertex 84.84108723402969 40.98646066920371 42.501630000000006
    vertex 84.84108723402967 38.0223439957885 42.501630000000006
    vertex 85.10174513681876 38.33995656930937 42.501630000000006
  endloop
endfacet
facet normal -6.124961281637668e-47 -1.810203081589559e-30 1.0
  outer loop
    vertex 84.84108723402969 40.98646066920371 42.501630000000006
    vertex 85.10174513681876 38.33995656930937 42.501630000000006
    vertex 85.10174513681876 40.66884809568284 42.501630000000006
  endloop
endfacet
facet normal -6.124961281637668e-47 -1.810203081589559e-30 1.0
  outer loop
    vertex 85.10174513681876 40.66884809568284 42.501630000000006
    vertex 85.10174513681876 38.33995656930937 42.501630000000006
    vertex 85.2954314318505 38.70231814048079 42.501630000000006
  endloop
endfacet
facet normal -6.124961281637668e-47 -1.810203081589559e-30 1.0
  outer loop
    vertex 85.10174513681876 40.66884809568284 42.501630000000006
    vertex 85.2954314318505 38.70231814048079 42.501630000000006
    vertex 85.29543143185052 40.30648652451142 42.501630000000006
  endloop
endfacet
facet normal -6.124961281637668e-47 -1.810203081589559e-30 1.0
  outer loop
    vertex 85.29543143185052 40.30648652451142 42.501630000000006
    vertex 85.2954314318505 38.70231814048079 42.501630000000006
    vertex 85.41470286342738 39.095503357337364 42.501630000000006
  endloop
endfacet
facet normal -6.124961281637668e-47 -1.810203081589559e-30 1.0
  outer loop
    vertex 85.29543143185052 40.30648652451142 42.501630000000006
    vertex 85.41470286342738 39.095503357337364 42.501630000000006
    vertex 85.4147028634274 39.91330130765484 42.501630000000006
  endloop
endfacet
facet normal -6.124961281637668e-47 -1.810203081589559e-30 1.0
  outer loop
    vertex 85.4147028634274 39.91330130765484 42.501630000000006
    vertex 85.41470286342738 39.095503357337364 42.501630000000006
    vertex 85.45497589732207 39.504402332496106 42.501630000000006
  endloop
endfacet
facet normal 0.09801714032956654 -0.9951847266721965 -1.801486458972873e-30
  outer loop
    vertex 83.76792787248081 37.4487283663908 42.501630000000006
    vertex 83.35902889732208 37.40845533249611 40.726062999999996
    vertex 83.76792787248081 37.4487283663908 40.726062999999996
  endloop
endfacet
facet normal 0.09801714032956654 -0.9951847266721965 -1.801486458972873e-30
  outer loop
    vertex 83.35902889732208 37.40845533249611 40.726062999999996
    vertex 83.76792787248081 37.4487283663908 42.501630000000006
    vertex 83.35902889732208 37.40845533249611 42.501630000000006
  endloop
endfacet
facet normal 0.29028467725445456 -0.9569403357322113 -1.7322563446397957e-30
  outer loop
    vertex 84.16111308933739 37.56799979796767 42.501630000000006
    vertex 83.76792787248081 37.4487283663908 40.726062999999996
    vertex 84.16111308933739 37.56799979796767 40.726062999999996
  endloop
endfacet
facet normal 0.29028467725445456 -0.9569403357322113 -1.7322563446397957e-30
  outer loop
    vertex 83.76792787248081 37.4487283663908 40.726062999999996
    vertex 84.16111308933739 37.56799979796767 42.501630000000006
    vertex 83.76792787248081 37.4487283663908 42.501630000000006
  endloop
endfacet
facet normal 0.4713967368259889 -0.8819212643483598 -1.596456590442761e-30
  outer loop
    vertex 84.52347466050881 37.761686092999426 42.501630000000006
    vertex 84.16111308933739 37.56799979796767 40.726062999999996
    vertex 84.52347466050881 37.761686092999426 40.726062999999996
  endloop
endfacet
facet normal 0.4713967368259889 -0.8819212643483598 -1.596456590442761e-30
  outer loop
    vertex 84.16111308933739 37.56799979796767 40.726062999999996
    vertex 84.52347466050881 37.761686092999426 42.501630000000006
    vertex 84.16111308933739 37.56799979796767 42.501630000000006
  endloop
endfacet
facet normal 0.6343932841636458 -0.7730104533627367 -1.399305904778168e-30
  outer loop
    vertex 84.84108723402967 38.0223439957885 42.501630000000006
    vertex 84.52347466050881 37.761686092999426 40.726062999999996
    vertex 84.84108723402967 38.0223439957885 40.726062999999996
  endloop
endfacet
facet normal 0.6343932841636458 -0.7730104533627367 -1.399305904778168e-30
  outer loop
    vertex 84.52347466050881 37.761686092999426 40.726062999999996
    vertex 84.84108723402967 38.0223439957885 42.501630000000006
    vertex 84.52347466050881 37.761686092999426 42.501630000000006
  endloop
endfacet
facet normal 0.7730104533627301 -0.634393284163654 -1.1483806779327672e-30
  outer loop
    vertex 85.10174513681876 38.33995656930937 40.726062999999996
    vertex 84.84108723402967 38.0223439957885 42.501630000000006
    vertex 84.84108723402967 38.0223439957885 40.726062999999996
  endloop
endfacet
facet normal 0.7730104533627301 -0.634393284163654 -1.1483806779327672e-30
  outer loop
    vertex 84.84108723402967 38.0223439957885 42.501630000000006
    vertex 85.10174513681876 38.33995656930937 40.726062999999996
    vertex 85.10174513681876 38.33995656930937 42.501630000000006
  endloop
endfacet
facet normal 0.8819212643483625 -0.471396736825984 -8.533238256536586e-31
  outer loop
    vertex 85.2954314318505 38.70231814048079 40.726062999999996
    vertex 85.10174513681876 38.33995656930937 42.501630000000006
    vertex 85.10174513681876 38.33995656930937 40.726062999999996
  endloop
endfacet
facet normal 0.8819212643483625 -0.471396736825984 -8.533238256536586e-31
  outer loop
    vertex 85.10174513681876 38.33995656930937 42.501630000000006
    vertex 85.2954314318505 38.70231814048079 40.726062999999996
    vertex 85.2954314318505 38.70231814048079 42.501630000000006
  endloop
endfacet
facet normal 0.9569403357322075 -0.29028467725446716 -5.254742173042669e-31
  outer loop
    vertex 85.41470286342738 39.095503357337364 40.726062999999996
    vertex 85.2954314318505 38.70231814048079 42.501630000000006
    vertex 85.2954314318505 38.70231814048079 40.726062999999996
  endloop
endfacet
facet normal 0.9569403357322075 -0.29028467725446716 -5.254742173042669e-31
  outer loop
    vertex 85.2954314318505 38.70231814048079 42.501630000000006
    vertex 85.41470286342738 39.095503357337364 40.726062999999996
    vertex 85.41470286342738 39.095503357337364 42.501630000000006
  endloop
endfacet
facet normal 0.9951847266721966 -0.09801714032956384 -1.7743092947317263e-31
  outer loop
    vertex 85.45497589732207 39.504402332496106 40.726062999999996
    vertex 85.41470286342738 39.095503357337364 42.501630000000006
    vertex 85.41470286342738 39.095503357337364 40.726062999999996
  endloop
endfacet
facet normal 0.9951847266721966 -0.09801714032956384 -1.7743092947317263e-31
  outer loop
    vertex 85.41470286342738 39.095503357337364 42.501630000000006
    vertex 85.45497589732207 39.504402332496106 40.726062999999996
    vertex 85.45497589732207 39.504402332496106 42.501630000000006
  endloop
endfacet
facet normal 0.9951847266721994 0.09801714032953666 1.7743092947312359e-31
  outer loop
    vertex 85.4147028634274 39.91330130765484 40.726062999999996
    vertex 85.45497589732207 39.504402332496106 42.501630000000006
    vertex 85.45497589732207 39.504402332496106 40.726062999999996
  endloop
endfacet
facet normal 0.9951847266721994 0.09801714032953666 1.7743092947312359e-31
  outer loop
    vertex 85.45497589732207 39.504402332496106 42.501630000000006
    vertex 85.4147028634274 39.91330130765484 40.726062999999996
    vertex 85.4147028634274 39.91330130765484 42.501630000000006
  endloop
endfacet
facet normal 0.9569403357322075 0.29028467725446716 5.254742173042671e-31
  outer loop
    vertex 85.29543143185052 40.30648652451142 40.726062999999996
    vertex 85.4147028634274 39.91330130765484 42.501630000000006
    vertex 85.4147028634274 39.91330130765484 40.726062999999996
  endloop
endfacet
facet normal 0.9569403357322075 0.29028467725446716 5.254742173042671e-31
  outer loop
    vertex 85.4147028634274 39.91330130765484 42.501630000000006
    vertex 85.29543143185052 40.30648652451142 40.726062999999996
    vertex 85.29543143185052 40.30648652451142 42.501630000000006
  endloop
endfacet
facet normal 0.8819212643483512 0.47139673682600536 8.533238256536973e-31
  outer loop
    vertex 85.10174513681876 40.66884809568284 40.726062999999996
    vertex 85.29543143185052 40.30648652451142 42.501630000000006
    vertex 85.29543143185052 40.30648652451142 40.726062999999996
  endloop
endfacet
facet normal 0.8819212643483512 0.47139673682600536 8.533238256536973e-31
  outer loop
    vertex 85.29543143185052 40.30648652451142 42.501630000000006
    vertex 85.10174513681876 40.66884809568284 40.726062999999996
    vertex 85.10174513681876 40.66884809568284 42.501630000000006
  endloop
endfacet
facet normal 0.7730104533627491 0.6343932841636309 1.1483806779327255e-30
  outer loop
    vertex 84.84108723402969 40.98646066920371 40.726062999999996
    vertex 85.10174513681876 40.66884809568284 42.501630000000006
    vertex 85.10174513681876 40.66884809568284 40.726062999999996
  endloop
endfacet
facet normal 0.7730104533627491 0.6343932841636309 1.1483806779327255e-30
  outer loop
    vertex 85.10174513681876 40.66884809568284 42.501630000000006
    vertex 84.84108723402969 40.98646066920371 40.726062999999996
    vertex 84.84108723402969 40.98646066920371 42.501630000000006
  endloop
endfacet
facet normal 0.6343932841636458 0.7730104533627367 1.399305904778168e-30
  outer loop
    vertex 84.52347466050882 41.24711857199279 42.501630000000006
    vertex 84.84108723402969 40.98646066920371 40.726062999999996
    vertex 84.52347466050882 41.24711857199279 40.726062999999996
  endloop
endfacet
facet normal 0.6343932841636458 0.7730104533627367 1.399305904778168e-30
  outer loop
    vertex 84.84108723402969 40.98646066920371 40.726062999999996
    vertex 84.52347466050882 41.24711857199279 42.501630000000006
    vertex 84.84108723402969 40.98646066920371 42.501630000000006
  endloop
endfacet
facet normal 0.4713967368259889 0.8819212643483598 1.596456590442761e-30
  outer loop
    vertex 84.16111308933739 41.44080486702454 42.501630000000006
    vertex 84.52347466050882 41.24711857199279 40.726062999999996
    vertex 84.16111308933739 41.44080486702454 40.726062999999996
  endloop
endfacet
facet normal 0.4713967368259889 0.8819212643483598 1.596456590442761e-30
  outer loop
    vertex 84.52347466050882 41.24711857199279 40.726062999999996
    vertex 84.16111308933739 41.44080486702454 42.501630000000006
    vertex 84.52347466050882 41.24711857199279 42.501630000000006
  endloop
endfacet
facet normal 0.29028467725446716 0.9569403357322075 1.732256344639789e-30
  outer loop
    vertex 83.76792787248083 41.56007629860142 42.501630000000006
    vertex 84.16111308933739 41.44080486702454 40.726062999999996
    vertex 83.76792787248083 41.56007629860142 40.726062999999996
  endloop
endfacet
facet normal 0.29028467725446716 0.9569403357322075 1.732256344639789e-30
  outer loop
    vertex 84.16111308933739 41.44080486702454 40.726062999999996
    vertex 83.76792787248083 41.56007629860142 42.501630000000006
    vertex 84.16111308933739 41.44080486702454 42.501630000000006
  endloop
endfacet
facet normal 0.09801714032956384 0.9951847266721966 1.801486458972873e-30
  outer loop
    vertex 83.35902889732208 41.600349332496116 42.501630000000006
    vertex 83.76792787248083 41.56007629860142 40.726062999999996
    vertex 83.35902889732208 41.600349332496116 40.726062999999996
  endloop
endfacet
facet normal 0.09801714032956384 0.9951847266721966 1.801486458972873e-30
  outer loop
    vertex 83.76792787248083 41.56007629860142 40.726062999999996
    vertex 83.35902889732208 41.600349332496116 42.501630000000006
    vertex 83.76792787248083 41.56007629860142 42.501630000000006
  endloop
endfacet
facet normal -0.09801714032956384 0.9951847266721966 1.801486458972873e-30
  outer loop
    vertex 82.95012992216334 41.56007629860142 42.501630000000006
    vertex 83.35902889732208 41.600349332496116 40.726062999999996
    vertex 82.95012992216334 41.56007629860142 40.726062999999996
  endloop
endfacet
facet normal -0.09801714032956384 0.9951847266721966 1.801486458972873e-30
  outer loop
    vertex 83.35902889732208 41.600349332496116 40.726062999999996
    vertex 82.95012992216334 41.56007629860142 42.501630000000006
    vertex 83.35902889732208 41.600349332496116 42.501630000000006
  endloop
endfacet
facet normal -0.29028467725446716 0.9569403357322075 1.732256344639789e-30
  outer loop
    vertex 82.55694470530676 41.44080486702454 42.501630000000006
    vertex 82.95012992216334 41.56007629860142 40.726062999999996
    vertex 82.55694470530676 41.44080486702454 40.726062999999996
  endloop
endfacet
facet normal -0.29028467725446716 0.9569403357322075 1.732256344639789e-30
  outer loop
    vertex 82.95012992216334 41.56007629860142 40.726062999999996
    vertex 82.55694470530676 41.44080486702454 42.501630000000006
    vertex 82.95012992216334 41.56007629860142 42.501630000000006
  endloop
endfacet
facet normal -0.47139673682600025 0.8819212643483536 1.5964565904427496e-30
  outer loop
    vertex 82.19458313413536 41.24711857199279 42.501630000000006
    vertex 82.55694470530676 41.44080486702454 40.726062999999996
    vertex 82.19458313413536 41.24711857199279 40.726062999999996
  endloop
endfacet
facet normal -0.47139673682600025 0.8819212643483536 1.5964565904427496e-30
  outer loop
    vertex 82.55694470530676 41.44080486702454 40.726062999999996
    vertex 82.19458313413536 41.24711857199279 42.501630000000006
    vertex 82.55694470530676 41.44080486702454 42.501630000000006
  endloop
endfacet
facet normal -0.6343932841636458 0.7730104533627367 1.399305904778168e-30
  outer loop
    vertex 81.87697056061448 40.98646066920371 42.501630000000006
    vertex 82.19458313413536 41.24711857199279 40.726062999999996
    vertex 81.87697056061448 40.98646066920371 40.726062999999996
  endloop
endfacet
facet normal -0.6343932841636458 0.7730104533627367 1.399305904778168e-30
  outer loop
    vertex 82.19458313413536 41.24711857199279 40.726062999999996
    vertex 81.87697056061448 40.98646066920371 42.501630000000006
    vertex 82.19458313413536 41.24711857199279 42.501630000000006
  endloop
endfacet
facet normal -0.7730104533627301 0.634393284163654 1.1483806779327672e-30
  outer loop
    vertex 81.87697056061448 40.98646066920371 42.501630000000006
    vertex 81.6163126578254 40.66884809568285 40.726062999999996
    vertex 81.6163126578254 40.66884809568285 42.501630000000006
  endloop
endfacet
facet normal -0.7730104533627301 0.634393284163654 1.1483806779327672e-30
  outer loop
    vertex 81.6163126578254 40.66884809568285 40.726062999999996
    vertex 81.87697056061448 40.98646066920371 42.501630000000006
    vertex 81.87697056061448 40.98646066920371 40.726062999999996
  endloop
endfacet
facet normal -0.8819212643483512 0.47139673682600536 8.533238256536973e-31
  outer loop
    vertex 81.6163126578254 40.66884809568285 42.501630000000006
    vertex 81.42262636279365 40.30648652451143 40.726062999999996
    vertex 81.42262636279365 40.30648652451143 42.501630000000006
  endloop
endfacet
facet normal -0.8819212643483512 0.47139673682600536 8.533238256536973e-31
  outer loop
    vertex 81.42262636279365 40.30648652451143 40.726062999999996
    vertex 81.6163126578254 40.66884809568285 42.501630000000006
    vertex 81.6163126578254 40.66884809568285 40.726062999999996
  endloop
endfacet
facet normal -0.956940335732215 0.290284677254442 5.254742173042214e-31
  outer loop
    vertex 81.42262636279365 40.30648652451143 42.501630000000006
    vertex 81.30335493121677 39.91330130765485 40.726062999999996
    vertex 81.30335493121677 39.91330130765485 42.501630000000006
  endloop
endfacet
facet normal -0.956940335732215 0.290284677254442 5.254742173042214e-31
  outer loop
    vertex 81.30335493121677 39.91330130765485 40.726062999999996
    vertex 81.42262636279365 40.30648652451143 42.501630000000006
    vertex 81.42262636279365 40.30648652451143 40.726062999999996
  endloop
endfacet
facet normal -0.9951847266721966 0.09801714032956384 1.7743092947317263e-31
  outer loop
    vertex 81.30335493121677 39.91330130765485 42.501630000000006
    vertex 81.26308189732208 39.50440233249611 40.726062999999996
    vertex 81.26308189732208 39.50440233249611 42.501630000000006
  endloop
endfacet
facet normal -0.9951847266721966 0.09801714032956384 1.7743092947317263e-31
  outer loop
    vertex 81.26308189732208 39.50440233249611 40.726062999999996
    vertex 81.30335493121677 39.91330130765485 42.501630000000006
    vertex 81.30335493121677 39.91330130765485 40.726062999999996
  endloop
endfacet
facet normal -0.9951847266721966 -0.09801714032956384 -1.7743092947317276e-31
  outer loop
    vertex 81.26308189732208 39.50440233249611 42.501630000000006
    vertex 81.30335493121677 39.09550335733737 40.726062999999996
    vertex 81.30335493121677 39.09550335733737 42.501630000000006
  endloop
endfacet
facet normal -0.9951847266721966 -0.09801714032956384 -1.7743092947317276e-31
  outer loop
    vertex 81.30335493121677 39.09550335733737 40.726062999999996
    vertex 81.26308189732208 39.50440233249611 42.501630000000006
    vertex 81.26308189732208 39.50440233249611 40.726062999999996
  endloop
endfacet
facet normal -0.956940335732215 -0.290284677254442 -5.254742173042215e-31
  outer loop
    vertex 81.30335493121677 39.09550335733737 42.501630000000006
    vertex 81.42262636279365 38.7023181404808 40.726062999999996
    vertex 81.42262636279365 38.7023181404808 42.501630000000006
  endloop
endfacet
facet normal -0.956940335732215 -0.290284677254442 -5.254742173042215e-31
  outer loop
    vertex 81.42262636279365 38.7023181404808 40.726062999999996
    vertex 81.30335493121677 39.09550335733737 42.501630000000006
    vertex 81.30335493121677 39.09550335733737 40.726062999999996
  endloop
endfacet
facet normal -0.8819212643483512 -0.47139673682600536 -8.533238256536973e-31
  outer loop
    vertex 81.42262636279365 38.7023181404808 42.501630000000006
    vertex 81.6163126578254 38.33995656930937 40.726062999999996
    vertex 81.6163126578254 38.33995656930937 42.501630000000006
  endloop
endfacet
facet normal -0.8819212643483512 -0.47139673682600536 -8.533238256536973e-31
  outer loop
    vertex 81.6163126578254 38.33995656930937 40.726062999999996
    vertex 81.42262636279365 38.7023181404808 42.501630000000006
    vertex 81.42262636279365 38.7023181404808 40.726062999999996
  endloop
endfacet
facet normal -0.7730104533627301 -0.634393284163654 -1.1483806779327672e-30
  outer loop
    vertex 81.6163126578254 38.33995656930937 42.501630000000006
    vertex 81.87697056061448 38.02234399578851 40.726062999999996
    vertex 81.87697056061448 38.02234399578851 42.501630000000006
  endloop
endfacet
facet normal -0.7730104533627301 -0.634393284163654 -1.1483806779327672e-30
  outer loop
    vertex 81.87697056061448 38.02234399578851 40.726062999999996
    vertex 81.6163126578254 38.33995656930937 42.501630000000006
    vertex 81.6163126578254 38.33995656930937 40.726062999999996
  endloop
endfacet
facet normal -0.6343932841636458 -0.7730104533627367 -1.399305904778168e-30
  outer loop
    vertex 82.19458313413536 37.761686092999426 42.501630000000006
    vertex 81.87697056061448 38.02234399578851 40.726062999999996
    vertex 82.19458313413536 37.761686092999426 40.726062999999996
  endloop
endfacet
facet normal -0.6343932841636458 -0.7730104533627367 -1.399305904778168e-30
  outer loop
    vertex 81.87697056061448 38.02234399578851 40.726062999999996
    vertex 82.19458313413536 37.761686092999426 42.501630000000006
    vertex 81.87697056061448 38.02234399578851 42.501630000000006
  endloop
endfacet
facet normal -0.47139673682600025 -0.8819212643483536 -1.5964565904427496e-30
  outer loop
    vertex 82.55694470530676 37.56799979796768 42.501630000000006
    vertex 82.19458313413536 37.761686092999426 40.726062999999996
    vertex 82.55694470530676 37.56799979796768 40.726062999999996
  endloop
endfacet
facet normal -0.47139673682600025 -0.8819212643483536 -1.5964565904427496e-30
  outer loop
    vertex 82.19458313413536 37.761686092999426 40.726062999999996
    vertex 82.55694470530676 37.56799979796768 42.501630000000006
    vertex 82.19458313413536 37.761686092999426 42.501630000000006
  endloop
endfacet
facet normal -0.29028467725446716 -0.9569403357322075 -1.732256344639789e-30
  outer loop
    vertex 82.95012992216334 37.4487283663908 42.501630000000006
    vertex 82.55694470530676 37.56799979796768 40.726062999999996
    vertex 82.95012992216334 37.4487283663908 40.726062999999996
  endloop
endfacet
facet normal -0.29028467725446716 -0.9569403357322075 -1.732256344639789e-30
  outer loop
    vertex 82.55694470530676 37.56799979796768 40.726062999999996
    vertex 82.95012992216334 37.4487283663908 42.501630000000006
    vertex 82.55694470530676 37.56799979796768 42.501630000000006
  endloop
endfacet
facet normal -0.09801714032956384 -0.9951847266721966 -1.801486458972873e-30
  outer loop
    vertex 83.35902889732208 37.40845533249611 42.501630000000006
    vertex 82.95012992216334 37.4487283663908 40.726062999999996
    vertex 83.35902889732208 37.40845533249611 40.726062999999996
  endloop
endfacet
facet normal -0.09801714032956384 -0.9951847266721966 -1.801486458972873e-30
  outer loop
    vertex 82.95012992216334 37.4487283663908 40.726062999999996
    vertex 83.35902889732208 37.40845533249611 42.501630000000006
    vertex 82.95012992216334 37.4487283663908 42.501630000000006
  endloop
endfacet
facet normal -1.8686679845096333e-30 -4.004288538234931e-31 1.0
  outer loop
    vertex 67.58458815342739 38.740734796599035 42.50163
    vertex 67.58458815342739 40.26806986839319 42.50163
    vertex 67.52448621490574 39.50440233249611 42.50163
  endloop
endfacet
facet normal -1.8686679845096333e-30 -4.004288538234931e-31 1.0
  outer loop
    vertex 67.58458815342739 40.26806986839319 42.50163
    vertex 67.58458815342739 38.740734796599035 42.50163
    vertex 67.76341405979903 37.995871289902986 42.50163
  endloop
endfacet
facet normal -1.8686679845096333e-30 -4.004288538234931e-31 1.0
  outer loop
    vertex 67.58458815342739 40.26806986839319 42.50163
    vertex 67.76341405979903 37.995871289902986 42.50163
    vertex 67.76341405979903 41.01293337508924 42.50163
  endloop
endfacet
facet normal -1.8686679845096333e-30 -4.004288538234931e-31 1.0
  outer loop
    vertex 67.76341405979903 41.01293337508924 42.50163
    vertex 67.76341405979903 37.995871289902986 42.50163
    vertex 68.05656064671666 37.28815282400307 42.50163
  endloop
endfacet
facet normal -1.8686679845096333e-30 -4.004288538234931e-31 1.0
  outer loop
    vertex 67.76341405979903 41.01293337508924 42.50163
    vertex 68.05656064671666 37.28815282400307 42.50163
    vertex 68.05656064671666 41.72065184098915 42.50163
  endloop
endfacet
facet normal -1.8686679845096333e-30 -4.004288538234931e-31 1.0
  outer loop
    vertex 68.05656064671666 41.72065184098915 42.50163
    vertex 68.05656064671666 37.28815282400307 42.50163
    vertex 68.4568096723126 36.63500577631268 42.50163
  endloop
endfacet
facet normal -1.8686679845096333e-30 -4.004288538234931e-31 1.0
  outer loop
    vertex 68.05656064671666 41.72065184098915 42.50163
    vertex 68.4568096723126 36.63500577631268 42.50163
    vertex 68.4568096723126 42.373798888679545 42.50163
  endloop
endfacet
facet normal -1.8686679845096333e-30 -4.004288538234931e-31 1.0
  outer loop
    vertex 68.4568096723126 42.373798888679545 42.50163
    vertex 68.4568096723126 36.63500577631268 42.50163
    vertex 68.95430567722633 36.052512794816714 42.50163
  endloop
endfacet
facet normal -1.8686679845096333e-30 -4.004288538234931e-31 1.0
  outer loop
    vertex 68.4568096723126 42.373798888679545 42.50163
    vertex 68.95430567722633 36.052512794816714 42.50163
    vertex 68.95430567722633 42.956291870175505 42.50163
  endloop
endfacet
facet normal -1.8686679845096333e-30 -4.004288538234931e-31 1.0
  outer loop
    vertex 68.95430567722633 42.956291870175505 42.50163
    vertex 68.95430567722633 36.052512794816714 42.50163
    vertex 69.53679865872229 35.555016789902986 42.50163
  endloop
endfacet
facet normal -1.8686679845096333e-30 -4.004288538234931e-31 1.0
  outer loop
    vertex 68.95430567722633 42.956291870175505 42.50163
    vertex 69.53679865872229 35.555016789902986 42.50163
    vertex 69.53679865872229 43.45378787508923 42.50163
  endloop
endfacet
facet normal -1.8686679845096333e-30 -4.004288538234931e-31 1.0
  outer loop
    vertex 69.53679865872229 43.45378787508923 42.50163
    vertex 69.53679865872229 35.555016789902986 42.50163
    vertex 70.18994570641269 35.154767764307046 42.50163
  endloop
endfacet
facet normal -1.8686679845096333e-30 -4.004288538234931e-31 1.0
  outer loop
    vertex 69.53679865872229 43.45378787508923 42.50163
    vertex 70.18994570641269 35.154767764307046 42.50163
    vertex 70.18994570641269 43.85403690068518 42.50163
  endloop
endfacet
facet normal -1.8686679845096333e-30 -4.004288538234931e-31 1.0
  outer loop
    vertex 70.18994570641269 43.85403690068518 42.50163
    vertex 70.18994570641269 35.154767764307046 42.50163
    vertex 70.89766417231259 34.861621177389424 42.50163
  endloop
endfacet
facet normal -1.8686679845096333e-30 -4.004288538234931e-31 1.0
  outer loop
    vertex 70.18994570641269 43.85403690068518 42.50163
    vertex 70.89766417231259 34.861621177389424 42.50163
    vertex 70.89766417231259 44.1471834876028 42.50163
  endloop
endfacet
facet normal -1.8686679845096333e-30 -4.004288538234931e-31 1.0
  outer loop
    vertex 70.89766417231259 44.1471834876028 42.50163
    vertex 70.89766417231259 34.861621177389424 42.50163
    vertex 71.64252767900864 34.68279527101777 42.50163
  endloop
endfacet
facet normal -1.8686679845096333e-30 -4.004288538234931e-31 1.0
  outer loop
    vertex 70.89766417231259 44.1471834876028 42.50163
    vertex 71.64252767900864 34.68279527101777 42.50163
    vertex 71.64252767900864 44.32600939397446 42.50163
  endloop
endfacet
facet normal -1.8686679845096333e-30 -4.004288538234931e-31 1.0
  outer loop
    vertex 71.64252767900864 44.32600939397446 42.50163
    vertex 71.64252767900864 34.68279527101777 42.50163
    vertex 72.40619521490572 34.62269333249612 42.50163
  endloop
endfacet
facet normal -1.8686679845096333e-30 -4.004288538234931e-31 1.0
  outer loop
    vertex 71.64252767900864 44.32600939397446 42.50163
    vertex 72.40619521490572 34.62269333249612 42.50163
    vertex 72.40619521490572 44.38611133249611 42.50163
  endloop
endfacet
facet normal -1.8686679845096333e-30 -4.004288538234931e-31 1.0
  outer loop
    vertex 72.40619521490572 44.38611133249611 42.50163
    vertex 72.40619521490572 34.62269333249612 42.50163
    vertex 73.1698627508028 34.68279527101777 42.50163
  endloop
endfacet
facet normal -1.8686679845096333e-30 -4.004288538234931e-31 1.0
  outer loop
    vertex 72.40619521490572 44.38611133249611 42.50163
    vertex 73.1698627508028 34.68279527101777 42.50163
    vertex 73.1698627508028 44.32600939397446 42.50163
  endloop
endfacet
facet normal -1.8686679845096333e-30 -4.004288538234931e-31 1.0
  outer loop
    vertex 73.1698627508028 44.32600939397446 42.50163
    vertex 73.1698627508028 34.68279527101777 42.50163
    vertex 73.91472625749886 34.861621177389424 42.50163
  endloop
endfacet
facet normal -1.8686679845096333e-30 -4.004288538234931e-31 1.0
  outer loop
    vertex 73.1698627508028 44.32600939397446 42.50163
    vertex 73.91472625749886 34.861621177389424 42.50163
    vertex 73.91472625749886 44.1471834876028 42.50163
  endloop
endfacet
facet normal -1.8686679845096333e-30 -4.004288538234931e-31 1.0
  outer loop
    vertex 73.91472625749886 44.1471834876028 42.50163
    vertex 73.91472625749886 34.861621177389424 42.50163
    vertex 74.62244472339877 35.154767764307046 42.50163
  endloop
endfacet
facet normal -1.8686679845096333e-30 -4.004288538234931e-31 1.0
  outer loop
    vertex 73.91472625749886 44.1471834876028 42.50163
    vertex 74.62244472339877 35.154767764307046 42.50163
    vertex 74.62244472339877 43.85403690068518 42.50163
  endloop
endfacet
facet normal -1.8686679845096333e-30 -4.004288538234931e-31 1.0
  outer loop
    vertex 74.62244472339877 43.85403690068518 42.50163
    vertex 74.62244472339877 35.154767764307046 42.50163
    vertex 75.27559177108917 35.555016789902986 42.50163
  endloop
endfacet
facet normal -1.8686679845096333e-30 -4.004288538234931e-31 1.0
  outer loop
    vertex 74.62244472339877 43.85403690068518 42.50163
    vertex 75.27559177108917 35.555016789902986 42.50163
    vertex 75.27559177108917 43.45378787508923 42.50163
  endloop
endfacet
facet normal -1.8686679845096333e-30 -4.004288538234931e-31 1.0
  outer loop
    vertex 75.27559177108917 43.45378787508923 42.50163
    vertex 75.27559177108917 35.555016789902986 42.50163
    vertex 75.85808475258513 36.052512794816714 42.50163
  endloop
endfacet
facet normal -1.8686679845096333e-30 -4.004288538234931e-31 1.0
  outer loop
    vertex 75.27559177108917 43.45378787508923 42.50163
    vertex 75.85808475258513 36.052512794816714 42.50163
    vertex 75.85808475258513 42.956291870175505 42.50163
  endloop
endfacet
facet normal -1.8686679845096333e-30 -4.004288538234931e-31 1.0
  outer loop
    vertex 75.85808475258513 42.956291870175505 42.50163
    vertex 75.85808475258513 36.052512794816714 42.50163
    vertex 76.35558075749886 36.63500577631268 42.50163
  endloop
endfacet
facet normal -1.8686679845096333e-30 -4.004288538234931e-31 1.0
  outer loop
    vertex 75.85808475258513 42.956291870175505 42.50163
    vertex 76.35558075749886 36.63500577631268 42.50163
    vertex 76.35558075749886 42.373798888679545 42.50163
  endloop
endfacet
facet normal -1.8686679845096333e-30 -4.004288538234931e-31 1.0
  outer loop
    vertex 76.35558075749886 42.373798888679545 42.50163
    vertex 76.35558075749886 36.63500577631268 42.50163
    vertex 76.7558297830948 37.28815282400307 42.50163
  endloop
endfacet
facet normal -1.8686679845096333e-30 -4.004288538234931e-31 1.0
  outer loop
    vertex 76.35558075749886 42.373798888679545 42.50163
    vertex 76.7558297830948 37.28815282400307 42.50163
    vertex 76.7558297830948 41.720651840989156 42.50163
  endloop
endfacet
facet normal -1.8686679845096333e-30 -4.004288538234931e-31 1.0
  outer loop
    vertex 76.7558297830948 41.720651840989156 42.50163
    vertex 76.7558297830948 37.28815282400307 42.50163
    vertex 77.04897637001243 37.995871289902986 42.50163
  endloop
endfacet
facet normal -1.8686679845096333e-30 -4.004288538234931e-31 1.0
  outer loop
    vertex 76.7558297830948 41.720651840989156 42.50163
    vertex 77.04897637001243 37.995871289902986 42.50163
    vertex 77.04897637001243 41.01293337508924 42.50163
  endloop
endfacet
facet normal -1.8686679845096333e-30 -4.004288538234931e-31 1.0
  outer loop
    vertex 77.04897637001243 41.01293337508924 42.50163
    vertex 77.04897637001243 37.995871289902986 42.50163
    vertex 77.22780227638407 38.740734796599035 42.50163
  endloop
endfacet
facet normal -1.8686679845096333e-30 -4.004288538234931e-31 1.0
  outer loop
    vertex 77.04897637001243 41.01293337508924 42.50163
    vertex 77.22780227638407 38.740734796599035 42.50163
    vertex 77.22780227638407 40.26806986839319 42.50163
  endloop
endfacet
facet normal -1.8686679845096333e-30 -4.004288538234931e-31 1.0
  outer loop
    vertex 77.22780227638407 40.26806986839319 42.50163
    vertex 77.22780227638407 38.740734796599035 42.50163
    vertex 77.28790421490572 39.50440233249611 42.50163
  endloop
endfacet
facet normal 0.07845909572784163 -0.9969173337331283 -2.5258046502333515e-31
  outer loop
    vertex 73.1698627508028 34.68279527101777 42.50163
    vertex 72.40619521490572 34.62269333249612 40.726062999999996
    vertex 73.1698627508028 34.68279527101777 40.726062999999996
  endloop
endfacet
facet normal 0.07845909572784163 -0.9969173337331283 -2.5258046502333515e-31
  outer loop
    vertex 72.40619521490572 34.62269333249612 40.726062999999996
    vertex 73.1698627508028 34.68279527101777 42.50163
    vertex 72.40619521490572 34.62269333249612 42.50163
  endloop
endfacet
facet normal 0.23344536385591028 -0.9723699203976756 4.686690485245934e-32
  outer loop
    vertex 73.91472625749886 34.861621177389424 42.50163
    vertex 73.1698627508028 34.68279527101777 40.726062999999996
    vertex 73.91472625749886 34.861621177389424 40.726062999999996
  endloop
endfacet
facet normal 0.23344536385591028 -0.9723699203976756 4.686690485245934e-32
  outer loop
    vertex 73.1698627508028 34.68279527101777 40.726062999999996
    vertex 73.91472625749886 34.861621177389424 42.50163
    vertex 73.1698627508028 34.68279527101777 42.50163
  endloop
endfacet
facet normal 0.3826834323650909 -0.9238795325112864 3.4516025598842382e-31
  outer loop
    vertex 74.62244472339877 35.154767764307046 42.50163
    vertex 73.91472625749886 34.861621177389424 40.726062999999996
    vertex 74.62244472339877 35.154767764307046 40.726062999999996
  endloop
endfacet
facet normal 0.3826834323650909 -0.9238795325112864 3.4516025598842382e-31
  outer loop
    vertex 73.91472625749886 34.861621177389424 40.726062999999996
    vertex 74.62244472339877 35.154767764307046 42.50163
    vertex 73.91472625749886 34.861621177389424 42.50163
  endloop
endfacet
facet normal 0.5224985647159471 -0.8526401643540934 6.349546161007407e-31
  outer loop
    vertex 75.27559177108917 35.555016789902986 42.50163
    vertex 74.62244472339877 35.154767764307046 40.726062999999996
    vertex 75.27559177108917 35.555016789902986 40.726062999999996
  endloop
endfacet
facet normal 0.5224985647159471 -0.8526401643540934 6.349546161007407e-31
  outer loop
    vertex 74.62244472339877 35.154767764307046 40.726062999999996
    vertex 75.27559177108917 35.555016789902986 42.50163
    vertex 74.62244472339877 35.154767764307046 42.50163
  endloop
endfacet
facet normal 0.6494480483301858 -0.7604059656000294 9.09114286271117e-31
  outer loop
    vertex 75.85808475258513 36.052512794816714 42.50163
    vertex 75.27559177108917 35.555016789902986 40.726062999999996
    vertex 75.85808475258513 36.052512794816714 40.726062999999996
  endloop
endfacet
facet normal 0.6494480483301858 -0.7604059656000294 9.09114286271117e-31
  outer loop
    vertex 75.27559177108917 35.555016789902986 40.726062999999996
    vertex 75.85808475258513 36.052512794816714 42.50163
    vertex 75.27559177108917 35.555016789902986 42.50163
  endloop
endfacet
facet normal 0.7604059656000323 -0.6494480483301821 1.1608885455361542e-30
  outer loop
    vertex 76.35558075749886 36.63500577631268 40.726062999999996
    vertex 75.85808475258513 36.052512794816714 42.50163
    vertex 75.85808475258513 36.052512794816714 40.726062999999996
  endloop
endfacet
facet normal 0.7604059656000323 -0.6494480483301821 1.1608885455361542e-30
  outer loop
    vertex 75.85808475258513 36.052512794816714 42.50163
    vertex 76.35558075749886 36.63500577631268 40.726062999999996
    vertex 76.35558075749886 36.63500577631268 42.50163
  endloop
endfacet
facet normal 0.8526401643540913 -0.5224985647159504 1.3840778760418938e-30
  outer loop
    vertex 76.7558297830948 37.28815282400307 40.726062999999996
    vertex 76.35558075749886 36.63500577631268 42.50163
    vertex 76.35558075749886 36.63500577631268 40.726062999999996
  endloop
endfacet
facet normal 0.8526401643540913 -0.5224985647159504 1.3840778760418938e-30
  outer loop
    vertex 76.35558075749886 36.63500577631268 42.50163
    vertex 76.7558297830948 37.28815282400307 40.726062999999996
    vertex 76.7558297830948 37.28815282400307 42.50163
  endloop
endfacet
facet normal 0.9238795325112849 -0.3826834323650945 1.5731866157483696e-30
  outer loop
    vertex 77.04897637001243 37.995871289902986 40.726062999999996
    vertex 76.7558297830948 37.28815282400307 42.50163
    vertex 76.7558297830948 37.28815282400307 40.726062999999996
  endloop
endfacet
facet normal 0.9238795325112849 -0.3826834323650945 1.5731866157483696e-30
  outer loop
    vertex 76.7558297830948 37.28815282400307 42.50163
    vertex 77.04897637001243 37.995871289902986 40.726062999999996
    vertex 77.04897637001243 37.995871289902986 42.50163
  endloop
endfacet
facet normal 0.9723699203976789 -0.23344536385589637 1.7235582798680984e-30
  outer loop
    vertex 77.22780227638407 38.740734796599035 40.726062999999996
    vertex 77.04897637001243 37.995871289902986 42.50163
    vertex 77.04897637001243 37.995871289902986 40.726062999999996
  endloop
endfacet
facet normal 0.9723699203976789 -0.23344536385589637 1.7235582798680984e-30
  outer loop
    vertex 77.04897637001243 37.995871289902986 42.50163
    vertex 77.22780227638407 38.740734796599035 40.726062999999996
    vertex 77.22780227638407 38.740734796599035 42.50163
  endloop
endfacet
facet normal 0.9969173337331276 -0.07845909572784951 1.8314902189754705e-30
  outer loop
    vertex 77.28790421490572 39.50440233249611 40.726062999999996
    vertex 77.22780227638407 38.740734796599035 42.50163
    vertex 77.22780227638407 38.740734796599035 40.726062999999996
  endloop
endfacet
facet normal 0.9969173337331276 -0.07845909572784951 1.8314902189754705e-30
  outer loop
    vertex 77.22780227638407 38.740734796599035 42.50163
    vertex 77.28790421490572 39.50440233249611 40.726062999999996
    vertex 77.28790421490572 39.50440233249611 42.50163
  endloop
endfacet
facet normal 0.9969173337331276 0.07845909572784951 1.8943247905241315e-30
  outer loop
    vertex 77.22780227638407 40.26806986839319 40.726062999999996
    vertex 77.28790421490572 39.50440233249611 42.50163
    vertex 77.28790421490572 39.50440233249611 40.726062999999996
  endloop
endfacet
facet normal 0.9969173337331276 0.07845909572784951 1.8943247905241315e-30
  outer loop
    vertex 77.28790421490572 39.50440233249611 42.50163
    vertex 77.22780227638407 40.26806986839319 40.726062999999996
    vertex 77.22780227638407 40.26806986839319 42.50163
  endloop
endfacet
facet normal 0.9723699203976789 0.23344536385589637 1.910514798826548e-30
  outer loop
    vertex 77.04897637001243 41.01293337508924 40.726062999999996
    vertex 77.22780227638407 40.26806986839319 42.50163
    vertex 77.22780227638407 40.26806986839319 40.726062999999996
  endloop
endfacet
facet normal 0.9723699203976789 0.23344536385589637 1.910514798826548e-30
  outer loop
    vertex 77.22780227638407 40.26806986839319 42.50163
    vertex 77.04897637001243 41.01293337508924 40.726062999999996
    vertex 77.04897637001243 41.01293337508924 42.50163
  endloop
endfacet
facet normal 0.9238795325112861 0.382683432365092 1.8796615921467613e-30
  outer loop
    vertex 76.7558297830948 41.720651840989156 40.726062999999996
    vertex 77.04897637001243 41.01293337508924 42.50163
    vertex 77.04897637001243 41.01293337508924 40.726062999999996
  endloop
endfacet
facet normal 0.9238795325112861 0.382683432365092 1.8796615921467613e-30
  outer loop
    vertex 77.04897637001243 41.01293337508924 42.50163
    vertex 76.7558297830948 41.720651840989156 40.726062999999996
    vertex 76.7558297830948 41.720651840989156 42.50163
  endloop
endfacet
facet normal 0.8526401643540894 0.5224985647159537 1.8025248788291484e-30
  outer loop
    vertex 76.35558075749886 42.373798888679545 40.726062999999996
    vertex 76.7558297830948 41.720651840989156 42.50163
    vertex 76.7558297830948 41.720651840989156 40.726062999999996
  endloop
endfacet
facet normal 0.8526401643540894 0.5224985647159537 1.8025248788291484e-30
  outer loop
    vertex 76.7558297830948 41.720651840989156 42.50163
    vertex 76.35558075749886 42.373798888679545 40.726062999999996
    vertex 76.35558075749886 42.373798888679545 42.50163
  endloop
endfacet
facet normal 0.7604059656000323 0.6494480483301821 1.681004020757673e-30
  outer loop
    vertex 75.85808475258513 42.956291870175505 40.726062999999996
    vertex 76.35558075749886 42.373798888679545 42.50163
    vertex 76.35558075749886 42.373798888679545 40.726062999999996
  endloop
endfacet
facet normal 0.7604059656000323 0.6494480483301821 1.681004020757673e-30
  outer loop
    vertex 76.35558075749886 42.373798888679545 42.50163
    vertex 75.85808475258513 42.956291870175505 40.726062999999996
    vertex 75.85808475258513 42.956291870175505 42.50163
  endloop
endfacet
facet normal 0.6494480483301858 0.7604059656000294 1.5180912647626497e-30
  outer loop
    vertex 75.27559177108917 43.45378787508923 42.50163
    vertex 75.85808475258513 42.956291870175505 40.726062999999996
    vertex 75.27559177108917 43.45378787508923 40.726062999999996
  endloop
endfacet
facet normal 0.6494480483301858 0.7604059656000294 1.5180912647626497e-30
  outer loop
    vertex 75.85808475258513 42.956291870175505 40.726062999999996
    vertex 75.27559177108917 43.45378787508923 42.50163
    vertex 75.85808475258513 42.956291870175505 42.50163
  endloop
endfacet
facet normal 0.5224985647159471 0.8526401643540934 1.3177980635731094e-30
  outer loop
    vertex 74.62244472339877 43.85403690068518 42.50163
    vertex 75.27559177108917 43.45378787508923 40.726062999999996
    vertex 74.62244472339877 43.85403690068518 40.726062999999996
  endloop
endfacet
facet normal 0.5224985647159471 0.8526401643540934 1.3177980635731094e-30
  outer loop
    vertex 75.27559177108917 43.45378787508923 40.726062999999996
    vertex 74.62244472339877 43.85403690068518 42.50163
    vertex 75.27559177108917 43.45378787508923 42.50163
  endloop
endfacet
facet normal 0.3826834323650909 0.9238795325112864 1.0850563005373818e-30
  outer loop
    vertex 73.91472625749886 44.1471834876028 42.50163
    vertex 74.62244472339877 43.85403690068518 40.726062999999996
    vertex 73.91472625749886 44.1471834876028 40.726062999999996
  endloop
endfacet
facet normal 0.3826834323650909 0.9238795325112864 1.0850563005373818e-30
  outer loop
    vertex 74.62244472339877 43.85403690068518 40.726062999999996
    vertex 73.91472625749886 44.1471834876028 42.50163
    vertex 74.62244472339877 43.85403690068518 42.50163
  endloop
endfacet
facet normal 0.23344536385591028 0.9723699203976756 8.255968502870243e-31
  outer loop
    vertex 73.1698627508028 44.32600939397446 42.50163
    vertex 73.91472625749886 44.1471834876028 40.726062999999996
    vertex 73.1698627508028 44.32600939397446 40.726062999999996
  endloop
endfacet
facet normal 0.23344536385591028 0.9723699203976756 8.255968502870243e-31
  outer loop
    vertex 73.91472625749886 44.1471834876028 40.726062999999996
    vertex 73.1698627508028 44.32600939397446 42.50163
    vertex 73.91472625749886 44.1471834876028 42.50163
  endloop
endfacet
facet normal 0.07845909572784163 0.9969173337331283 5.4580846558372355e-31
  outer loop
    vertex 72.40619521490572 44.38611133249611 42.50163
    vertex 73.1698627508028 44.32600939397446 40.726062999999996
    vertex 72.40619521490572 44.38611133249611 40.726062999999996
  endloop
endfacet
facet normal 0.07845909572784163 0.9969173337331283 5.4580846558372355e-31
  outer loop
    vertex 73.1698627508028 44.32600939397446 40.726062999999996
    vertex 72.40619521490572 44.38611133249611 42.50163
    vertex 73.1698627508028 44.32600939397446 42.50163
  endloop
endfacet
facet normal -0.07845909572784163 0.9969173337331283 2.5258046502333515e-31
  outer loop
    vertex 71.64252767900864 44.32600939397446 42.50163
    vertex 72.40619521490572 44.38611133249611 40.726062999999996
    vertex 71.64252767900864 44.32600939397446 40.726062999999996
  endloop
endfacet
facet normal -0.07845909572784163 0.9969173337331283 2.5258046502333515e-31
  outer loop
    vertex 72.40619521490572 44.38611133249611 40.726062999999996
    vertex 71.64252767900864 44.32600939397446 42.50163
    vertex 72.40619521490572 44.38611133249611 42.50163
  endloop
endfacet
facet normal -0.23344536385591028 0.9723699203976756 -4.686690485245934e-32
  outer loop
    vertex 70.89766417231259 44.1471834876028 42.50163
    vertex 71.64252767900864 44.32600939397446 40.726062999999996
    vertex 70.89766417231259 44.1471834876028 40.726062999999996
  endloop
endfacet
facet normal -0.23344536385591028 0.9723699203976756 -4.686690485245934e-32
  outer loop
    vertex 71.64252767900864 44.32600939397446 40.726062999999996
    vertex 70.89766417231259 44.1471834876028 42.50163
    vertex 71.64252767900864 44.32600939397446 42.50163
  endloop
endfacet
facet normal -0.3826834323650909 0.9238795325112864 -3.4516025598842382e-31
  outer loop
    vertex 70.18994570641269 43.85403690068518 42.50163
    vertex 70.89766417231259 44.1471834876028 40.726062999999996
    vertex 70.18994570641269 43.85403690068518 40.726062999999996
  endloop
endfacet
facet normal -0.3826834323650909 0.9238795325112864 -3.4516025598842382e-31
  outer loop
    vertex 70.89766417231259 44.1471834876028 40.726062999999996
    vertex 70.18994570641269 43.85403690068518 42.50163
    vertex 70.89766417231259 44.1471834876028 42.50163
  endloop
endfacet
facet normal -0.5224985647159471 0.8526401643540934 -6.349546161007407e-31
  outer loop
    vertex 69.53679865872229 43.45378787508923 42.50163
    vertex 70.18994570641269 43.85403690068518 40.726062999999996
    vertex 69.53679865872229 43.45378787508923 40.726062999999996
  endloop
endfacet
facet normal -0.5224985647159471 0.8526401643540934 -6.349546161007407e-31
  outer loop
    vertex 70.18994570641269 43.85403690068518 40.726062999999996
    vertex 69.53679865872229 43.45378787508923 42.50163
    vertex 70.18994570641269 43.85403690068518 42.50163
  endloop
endfacet
facet normal -0.6494480483301858 0.7604059656000294 -9.09114286271117e-31
  outer loop
    vertex 68.95430567722633 42.956291870175505 42.50163
    vertex 69.53679865872229 43.45378787508923 40.726062999999996
    vertex 68.95430567722633 42.956291870175505 40.726062999999996
  endloop
endfacet
facet normal -0.6494480483301858 0.7604059656000294 -9.09114286271117e-31
  outer loop
    vertex 69.53679865872229 43.45378787508923 40.726062999999996
    vertex 68.95430567722633 42.956291870175505 42.50163
    vertex 69.53679865872229 43.45378787508923 42.50163
  endloop
endfacet
facet normal -0.7604059656000323 0.6494480483301821 -1.1608885455361542e-30
  outer loop
    vertex 68.95430567722633 42.956291870175505 42.50163
    vertex 68.4568096723126 42.373798888679545 40.726062999999996
    vertex 68.4568096723126 42.373798888679545 42.50163
  endloop
endfacet
facet normal -0.7604059656000323 0.6494480483301821 -1.1608885455361542e-30
  outer loop
    vertex 68.4568096723126 42.373798888679545 40.726062999999996
    vertex 68.95430567722633 42.956291870175505 42.50163
    vertex 68.95430567722633 42.956291870175505 40.726062999999996
  endloop
endfacet
facet normal -0.8526401643540913 0.5224985647159504 -1.3840778760418938e-30
  outer loop
    vertex 68.4568096723126 42.373798888679545 42.50163
    vertex 68.05656064671666 41.72065184098915 40.726062999999996
    vertex 68.05656064671666 41.72065184098915 42.50163
  endloop
endfacet
facet normal -0.8526401643540913 0.5224985647159504 -1.3840778760418938e-30
  outer loop
    vertex 68.05656064671666 41.72065184098915 40.726062999999996
    vertex 68.4568096723126 42.373798888679545 42.50163
    vertex 68.4568096723126 42.373798888679545 40.726062999999996
  endloop
endfacet
facet normal -0.9238795325112849 0.3826834323650945 -1.5731866157483696e-30
  outer loop
    vertex 68.05656064671666 41.72065184098915 42.50163
    vertex 67.76341405979903 41.01293337508924 40.726062999999996
    vertex 67.76341405979903 41.01293337508924 42.50163
  endloop
endfacet
facet normal -0.9238795325112849 0.3826834323650945 -1.5731866157483696e-30
  outer loop
    vertex 67.76341405979903 41.01293337508924 40.726062999999996
    vertex 68.05656064671666 41.72065184098915 42.50163
    vertex 68.05656064671666 41.72065184098915 40.726062999999996
  endloop
endfacet
facet normal -0.9723699203976789 0.23344536385589637 -1.7235582798680984e-30
  outer loop
    vertex 67.76341405979903 41.01293337508924 42.50163
    vertex 67.58458815342739 40.26806986839319 40.726062999999996
    vertex 67.58458815342739 40.26806986839319 42.50163
  endloop
endfacet
facet normal -0.9723699203976789 0.23344536385589637 -1.7235582798680984e-30
  outer loop
    vertex 67.58458815342739 40.26806986839319 40.726062999999996
    vertex 67.76341405979903 41.01293337508924 42.50163
    vertex 67.76341405979903 41.01293337508924 40.726062999999996
  endloop
endfacet
facet normal -0.9969173337331276 0.07845909572784951 -1.8314902189754705e-30
  outer loop
    vertex 67.58458815342739 40.26806986839319 42.50163
    vertex 67.52448621490574 39.50440233249611 40.726062999999996
    vertex 67.52448621490574 39.50440233249611 42.50163
  endloop
endfacet
facet normal -0.9969173337331276 0.07845909572784951 -1.8314902189754705e-30
  outer loop
    vertex 67.52448621490574 39.50440233249611 40.726062999999996
    vertex 67.58458815342739 40.26806986839319 42.50163
    vertex 67.58458815342739 40.26806986839319 40.726062999999996
  endloop
endfacet
facet normal -0.9969173337331276 -0.07845909572784951 -1.8943247905241315e-30
  outer loop
    vertex 67.52448621490574 39.50440233249611 42.50163
    vertex 67.58458815342739 38.740734796599035 40.726062999999996
    vertex 67.58458815342739 38.740734796599035 42.50163
  endloop
endfacet
facet normal -0.9969173337331276 -0.07845909572784951 -1.8943247905241315e-30
  outer loop
    vertex 67.58458815342739 38.740734796599035 40.726062999999996
    vertex 67.52448621490574 39.50440233249611 42.50163
    vertex 67.52448621490574 39.50440233249611 40.726062999999996
  endloop
endfacet
facet normal -0.9723699203976789 -0.23344536385589637 -1.910514798826548e-30
  outer loop
    vertex 67.58458815342739 38.740734796599035 42.50163
    vertex 67.76341405979903 37.995871289902986 40.726062999999996
    vertex 67.76341405979903 37.995871289902986 42.50163
  endloop
endfacet
facet normal -0.9723699203976789 -0.23344536385589637 -1.910514798826548e-30
  outer loop
    vertex 67.76341405979903 37.995871289902986 40.726062999999996
    vertex 67.58458815342739 38.740734796599035 42.50163
    vertex 67.58458815342739 38.740734796599035 40.726062999999996
  endloop
endfacet
facet normal -0.9238795325112849 -0.3826834323650945 -1.87966159214676e-30
  outer loop
    vertex 67.76341405979903 37.995871289902986 42.50163
    vertex 68.05656064671666 37.28815282400307 40.726062999999996
    vertex 68.05656064671666 37.28815282400307 42.50163
  endloop
endfacet
facet normal -0.9238795325112849 -0.3826834323650945 -1.87966159214676e-30
  outer loop
    vertex 68.05656064671666 37.28815282400307 40.726062999999996
    vertex 67.76341405979903 37.995871289902986 42.50163
    vertex 67.76341405979903 37.995871289902986 40.726062999999996
  endloop
endfacet
facet normal -0.8526401643540913 -0.5224985647159504 -1.8025248788291505e-30
  outer loop
    vertex 68.05656064671666 37.28815282400307 42.50163
    vertex 68.4568096723126 36.63500577631268 40.726062999999996
    vertex 68.4568096723126 36.63500577631268 42.50163
  endloop
endfacet
facet normal -0.8526401643540913 -0.5224985647159504 -1.8025248788291505e-30
  outer loop
    vertex 68.4568096723126 36.63500577631268 40.726062999999996
    vertex 68.05656064671666 37.28815282400307 42.50163
    vertex 68.05656064671666 37.28815282400307 40.726062999999996
  endloop
endfacet
facet normal -0.7604059656000323 -0.6494480483301821 -1.681004020757673e-30
  outer loop
    vertex 68.4568096723126 36.63500577631268 42.50163
    vertex 68.95430567722633 36.052512794816714 40.726062999999996
    vertex 68.95430567722633 36.052512794816714 42.50163
  endloop
endfacet
facet normal -0.7604059656000323 -0.6494480483301821 -1.681004020757673e-30
  outer loop
    vertex 68.95430567722633 36.052512794816714 40.726062999999996
    vertex 68.4568096723126 36.63500577631268 42.50163
    vertex 68.4568096723126 36.63500577631268 40.726062999999996
  endloop
endfacet
facet normal -0.6494480483301858 -0.7604059656000294 -1.5180912647626497e-30
  outer loop
    vertex 69.53679865872229 35.555016789902986 42.50163
    vertex 68.95430567722633 36.052512794816714 40.726062999999996
    vertex 69.53679865872229 35.555016789902986 40.726062999999996
  endloop
endfacet
facet normal -0.6494480483301858 -0.7604059656000294 -1.5180912647626497e-30
  outer loop
    vertex 68.95430567722633 36.052512794816714 40.726062999999996
    vertex 69.53679865872229 35.555016789902986 42.50163
    vertex 68.95430567722633 36.052512794816714 42.50163
  endloop
endfacet
facet normal -0.5224985647159471 -0.8526401643540934 -1.3177980635731094e-30
  outer loop
    vertex 70.18994570641269 35.154767764307046 42.50163
    vertex 69.53679865872229 35.555016789902986 40.726062999999996
    vertex 70.18994570641269 35.154767764307046 40.726062999999996
  endloop
endfacet
facet normal -0.5224985647159471 -0.8526401643540934 -1.3177980635731094e-30
  outer loop
    vertex 69.53679865872229 35.555016789902986 40.726062999999996
    vertex 70.18994570641269 35.154767764307046 42.50163
    vertex 69.53679865872229 35.555016789902986 42.50163
  endloop
endfacet
facet normal -0.3826834323650909 -0.9238795325112864 -1.0850563005373818e-30
  outer loop
    vertex 70.89766417231259 34.861621177389424 42.50163
    vertex 70.18994570641269 35.154767764307046 40.726062999999996
    vertex 70.89766417231259 34.861621177389424 40.726062999999996
  endloop
endfacet
facet normal -0.3826834323650909 -0.9238795325112864 -1.0850563005373818e-30
  outer loop
    vertex 70.18994570641269 35.154767764307046 40.726062999999996
    vertex 70.89766417231259 34.861621177389424 42.50163
    vertex 70.18994570641269 35.154767764307046 42.50163
  endloop
endfacet
facet normal -0.23344536385591028 -0.9723699203976756 -8.255968502870243e-31
  outer loop
    vertex 71.64252767900864 34.68279527101777 42.50163
    vertex 70.89766417231259 34.861621177389424 40.726062999999996
    vertex 71.64252767900864 34.68279527101777 40.726062999999996
  endloop
endfacet
facet normal -0.23344536385591028 -0.9723699203976756 -8.255968502870243e-31
  outer loop
    vertex 70.89766417231259 34.861621177389424 40.726062999999996
    vertex 71.64252767900864 34.68279527101777 42.50163
    vertex 70.89766417231259 34.861621177389424 42.50163
  endloop
endfacet
facet normal -0.07845909572784163 -0.9969173337331283 -5.4580846558372355e-31
  outer loop
    vertex 72.40619521490572 34.62269333249612 42.50163
    vertex 71.64252767900864 34.68279527101777 40.726062999999996
    vertex 72.40619521490572 34.62269333249612 40.726062999999996
  endloop
endfacet
facet normal -0.07845909572784163 -0.9969173337331283 -5.4580846558372355e-31
  outer loop
    vertex 71.64252767900864 34.68279527101777 40.726062999999996
    vertex 72.40619521490572 34.62269333249612 42.50163
    vertex 71.64252767900864 34.68279527101777 42.50163
  endloop
endfacet
endsolid ExtensionLink1
