solid TiltStick
facet normal 0.3460966406240389 0.9381988676974382 3.738009787348217e-17
  outer loop
    vertex 127.77037767187282 30.91259986240805 9.888826
    vertex 147.71886770198225 23.553706537491436 5.078295000000003
    vertex 127.77037767187282 30.91259986240805 5.078295000000001
  endloop
endfacet
facet normal 0.3460966406240389 0.9381988676974382 3.738009787348217e-17
  outer loop
    vertex 147.71886770198225 23.553706537491436 5.078295000000003
    vertex 127.77037767187282 30.91259986240805 9.888826
    vertex 147.71886770198225 23.553706537491436 9.888826000000002
  endloop
endfacet
facet normal -0.9664645736199446 0.25679997651405395 7.436774920016476e-31
  outer loop
    vertex 8.67398790776355 49.72402509687481 12.438692999999997
    vertex -0.7922742980177403 14.097826096874812 0.0
    vertex -0.7922742980177403 14.097826096874812 12.438692999999997
  endloop
endfacet
facet normal -0.9664645736199446 0.25679997651405395 7.436774920016476e-31
  outer loop
    vertex -0.7922742980177403 14.097826096874812 0.0
    vertex 8.67398790776355 49.72402509687481 12.438692999999997
    vertex 8.67398790776355 49.72402509687481 0.0
  endloop
endfacet
facet normal 0.0 0.0 1.0
  outer loop
    vertex 1.8095156743006333 14.097826096874812 12.438692999999997
    vertex 8.67398790776355 49.72402509687481 12.438692999999997
    vertex -0.7922742980177403 14.097826096874812 12.438692999999997
  endloop
endfacet
facet normal 0.0 0.0 1.0
  outer loop
    vertex 8.67398790776355 49.72402509687481 12.438692999999997
    vertex 1.8095156743006333 14.097826096874812 12.438692999999997
    vertex 11.14647049329317 49.72402509687481 12.438692999999997
  endloop
endfacet
facet normal 0.9673303936625127 -0.25351905154589094 0.0
  outer loop
    vertex 11.14647049329317 49.72402509687481 9.888826000000002
    vertex 1.8095156743006333 14.097826096874812 12.438692999999997
    vertex 1.8095156743006333 14.097826096874812 9.888826000000002
  endloop
endfacet
facet normal 0.9673303936625127 -0.25351905154589094 0.0
  outer loop
    vertex 1.8095156743006333 14.097826096874812 12.438692999999997
    vertex 11.14647049329317 49.72402509687481 9.888826000000002
    vertex 11.14647049329317 49.72402509687481 12.438692999999997
  endloop
endfacet
facet normal -0.6736145960557489 0.7390827937252025 7.752720530261076e-17
  outer loop
    vertex 75.45633912298355 34.43539479583256 9.888826
    vertex 92.23086221272808 49.72402509687481 0.0
    vertex 75.45633912298355 34.43539479583256 0.0
  endloop
endfacet
facet normal -0.6736145960557489 0.7390827937252025 7.752720530261076e-17
  outer loop
    vertex 92.23086221272808 49.72402509687481 0.0
    vertex 75.45633912298355 34.43539479583256 9.888826
    vertex 92.23086221272808 49.72402509687481 9.888826000000002
  endloop
endfacet
facet normal -0.6251553300424703 -0.7805003608708263 -3.555785706126555e-18
  outer loop
    vertex 140.19022664781855 17.972329096874812 0.0
    vertex 135.0516895632979 22.08812968846558 9.888826
    vertex 135.0516895632979 22.08812968846558 -6.525872936806326e-16
  endloop
endfacet
facet normal -0.6251553300424703 -0.7805003608708263 -3.555785706126555e-18
  outer loop
    vertex 135.0516895632979 22.08812968846558 9.888826
    vertex 140.19022664781855 17.972329096874812 0.0
    vertex 140.19022664781855 17.972329096874812 9.888826
  endloop
endfacet
facet normal 1.0 0.0 0.0
  outer loop
    vertex 147.71886770198225 18.825766317183124 0.0
    vertex 147.71886770198225 23.553706537491436 5.078295000000003
    vertex 147.71886770198225 18.825766317183124 9.888826000000002
  endloop
endfacet
facet normal 1.0 0.0 0.0
  outer loop
    vertex 147.71886770198225 23.553706537491436 5.078295000000003
    vertex 147.71886770198225 18.825766317183124 0.0
    vertex 147.71886770198225 45.423535982725504 2.8199664825478975e-15
  endloop
endfacet
facet normal 1.0 0.0 0.0
  outer loop
    vertex 147.71886770198225 23.553706537491436 5.078295000000003
    vertex 147.71886770198225 45.423535982725504 2.8199664825478975e-15
    vertex 147.71886770198225 45.423535982725504 5.078295000000003
  endloop
endfacet
facet normal 1.0 0.0 0.0
  outer loop
    vertex 147.71886770198225 23.553706537491436 9.888826000000002
    vertex 147.71886770198225 18.825766317183124 9.888826000000002
    vertex 147.71886770198225 23.553706537491436 5.078295000000003
  endloop
endfacet
facet normal 0.11263733803720281 -0.9936361658473855 -2.048687293740999e-18
  outer loop
    vertex 147.71886770198225 18.825766317183124 9.888826000000002
    vertex 140.19022664781855 17.972329096874812 0.0
    vertex 147.71886770198225 18.825766317183124 0.0
  endloop
endfacet
facet normal 0.11263733803720281 -0.9936361658473855 -2.048687293740999e-18
  outer loop
    vertex 140.19022664781855 17.972329096874812 0.0
    vertex 147.71886770198225 18.825766317183124 9.888826000000002
    vertex 140.19022664781855 17.972329096874812 9.888826
  endloop
endfacet
facet normal -0.11574194414627152 -0.9932793173952842 -7.129778952968603e-18
  outer loop
    vertex 76.74448579957348 17.828774418937098 1.0574874309554616e-14
    vertex 54.79247469791377 20.38673409687481 9.888826000000002
    vertex 54.79247469791377 20.38673409687481 0.0
  endloop
endfacet
facet normal -0.11574194414627152 -0.9932793173952842 -7.129778952968603e-18
  outer loop
    vertex 54.79247469791377 20.38673409687481 9.888826000000002
    vertex 76.74448579957348 17.828774418937098 1.0574874309554616e-14
    vertex 76.74448579957348 17.828774418937098 9.88882600000001
  endloop
endfacet
facet normal 0.3214126444145639 -0.9469392335363644 0.0
  outer loop
    vertex 54.79247469791377 20.38673409687481 0.0
    vertex 49.19170119072035 18.485704590481525 6.435196999999996
    vertex 36.26422503260325 14.097826096874812 0.0
  endloop
endfacet
facet normal 0.3214126444145639 -0.9469392335363644 0.0
  outer loop
    vertex 49.19170119072035 18.485704590481525 6.435196999999996
    vertex 54.79247469791377 20.38673409687481 0.0
    vertex 54.79247469791377 20.38673409687481 9.888826000000002
  endloop
endfacet
facet normal 0.3214126444145639 -0.9469392335363644 0.0
  outer loop
    vertex 49.19170119072035 18.485704590481525 6.435196999999996
    vertex 54.79247469791377 20.38673409687481 9.888826000000002
    vertex 49.19170119072035 18.485704590481525 9.888826
  endloop
endfacet
facet normal 0.3214126444145639 -0.9469392335363644 0.0
  outer loop
    vertex 36.26422503260325 14.097826096874812 6.435196999999996
    vertex 36.26422503260325 14.097826096874812 0.0
    vertex 49.19170119072035 18.485704590481525 6.435196999999996
  endloop
endfacet
facet normal 0.00790368924517784 -0.9999687653603565 -3.9716129385448095e-19
  outer loop
    vertex 122.78700319343247 23.832227195830587 9.888825999999987
    vertex 121.57951767941367 23.822683307459815 -1.0828540229475728e-14
    vertex 122.78700319343247 23.832227195830587 -1.127986593019159e-14
  endloop
endfacet
facet normal 0.00790368924517784 -0.9999687653603565 -3.9716129385448095e-19
  outer loop
    vertex 121.57951767941367 23.822683307459815 -1.0828540229475728e-14
    vertex 122.78700319343247 23.832227195830587 9.888825999999987
    vertex 121.57951767941367 23.822683307459815 2.528943999999989
  endloop
endfacet
facet normal 0.00790368924517784 -0.9999687653603565 -3.9716129385448095e-19
  outer loop
    vertex 121.57951767941367 23.822683307459815 2.528943999999989
    vertex 122.78700319343247 23.832227195830587 9.888825999999987
    vertex 98.29518633950963 23.638645439910984 2.528943999999998
  endloop
endfacet
facet normal 0.00790368924517784 -0.9999687653603565 -3.9716129385448095e-19
  outer loop
    vertex 98.29518633950963 23.638645439910984 2.528943999999998
    vertex 92.60863158911884 23.593699274410923 0.0
    vertex 98.29518633950963 23.638645439910984 -2.1254816538853112e-15
  endloop
endfacet
facet normal 0.00790368924517784 -0.9999687653603565 -3.9716129385448095e-19
  outer loop
    vertex 92.60863158911884 23.593699274410923 0.0
    vertex 98.29518633950963 23.638645439910984 2.528943999999998
    vertex 92.60863158911884 23.593699274410923 9.888826
  endloop
endfacet
facet normal 0.00790368924517784 -0.9999687653603565 -3.9716129385448095e-19
  outer loop
    vertex 92.60863158911884 23.593699274410923 9.888826
    vertex 98.29518633950963 23.638645439910984 2.528943999999998
    vertex 122.78700319343247 23.832227195830587 9.888825999999987
  endloop
endfacet
facet normal 0.0 1.0 0.0
  outer loop
    vertex 92.23086221272808 49.72402509687481 9.888826000000002
    vertex 144.58185687058463 49.72402509687481 2.8199664825478975e-15
    vertex 92.23086221272808 49.72402509687481 0.0
  endloop
endfacet
facet normal 0.0 1.0 0.0
  outer loop
    vertex 144.58185687058463 49.72402509687481 2.8199664825478975e-15
    vertex 92.23086221272808 49.72402509687481 9.888826000000002
    vertex 119.80581105765437 49.72402509687481 5.078295000000003
  endloop
endfacet
facet normal 0.0 1.0 0.0
  outer loop
    vertex 119.80581105765437 49.72402509687481 5.078295000000003
    vertex 92.23086221272808 49.72402509687481 9.888826000000002
    vertex 119.80581105765437 49.72402509687481 9.888826000000002
  endloop
endfacet
facet normal 0.0 1.0 0.0
  outer loop
    vertex 144.58185687058463 49.72402509687481 5.078295000000003
    vertex 144.58185687058463 49.72402509687481 2.8199664825478975e-15
    vertex 119.80581105765437 49.72402509687481 5.078295000000003
  endloop
endfacet
facet normal 0.9949454547562198 0.10041684151545167 9.592672792886442e-18
  outer loop
    vertex 126.66424080208648 41.87237348527046 5.078295000000003
    vertex 127.77037767187282 30.91259986240805 9.888826
    vertex 127.77037767187282 30.91259986240805 5.078295000000001
  endloop
endfacet
facet normal 0.9949454547562198 0.10041684151545167 9.592672792886442e-18
  outer loop
    vertex 127.77037767187282 30.91259986240805 9.888826
    vertex 126.66424080208648 41.87237348527046 5.078295000000003
    vertex 126.66424080208648 41.87237348527046 9.888826000000002
  endloop
endfacet
facet normal 0.7531357029999729 0.6578651935364392 5.480631731096887e-17
  outer loop
    vertex 119.80581105765437 49.72402509687481 5.078295000000003
    vertex 126.66424080208648 41.87237348527046 9.888826000000002
    vertex 126.66424080208648 41.87237348527046 5.078295000000003
  endloop
endfacet
facet normal 0.7531357029999729 0.6578651935364392 5.480631731096887e-17
  outer loop
    vertex 126.66424080208648 41.87237348527046 9.888826000000002
    vertex 119.80581105765437 49.72402509687481 5.078295000000003
    vertex 119.80581105765437 49.72402509687481 9.888826000000002
  endloop
endfacet
facet normal -3.985949341209462e-17 -5.565985304476241e-17 1.0
  outer loop
    vertex 126.66424080208648 41.87237348527046 5.078295000000003
    vertex 144.58185687058463 49.72402509687481 5.078295000000003
    vertex 119.80581105765437 49.72402509687481 5.078295000000003
  endloop
endfacet
facet normal -3.985949341209462e-17 -5.565985304476241e-17 1.0
  outer loop
    vertex 144.58185687058463 49.72402509687481 5.078295000000003
    vertex 126.66424080208648 41.87237348527046 5.078295000000003
    vertex 127.77037767187282 30.91259986240805 5.078295000000001
  endloop
endfacet
facet normal -3.985949341209462e-17 -5.565985304476241e-17 1.0
  outer loop
    vertex 144.58185687058463 49.72402509687481 5.078295000000003
    vertex 127.77037767187282 30.91259986240805 5.078295000000001
    vertex 147.71886770198225 23.553706537491436 5.078295000000003
  endloop
endfacet
facet normal -3.985949341209462e-17 -5.565985304476241e-17 1.0
  outer loop
    vertex 144.58185687058463 49.72402509687481 5.078295000000003
    vertex 147.71886770198225 23.553706537491436 5.078295000000003
    vertex 147.71886770198225 45.423535982725504 5.078295000000003
  endloop
endfacet
facet normal 0.8078968414637956 0.5893239292212923 0.0
  outer loop
    vertex 144.58185687058463 49.72402509687481 2.8199664825478975e-15
    vertex 147.71886770198225 45.423535982725504 5.078295000000003
    vertex 147.71886770198225 45.423535982725504 2.8199664825478975e-15
  endloop
endfacet
facet normal 0.8078968414637956 0.5893239292212923 0.0
  outer loop
    vertex 147.71886770198225 45.423535982725504 5.078295000000003
    vertex 144.58185687058463 49.72402509687481 2.8199664825478975e-15
    vertex 144.58185687058463 49.72402509687481 5.078295000000003
  endloop
endfacet
facet normal 0.00952063572161723 0.9999546777206738 0.0
  outer loop
    vertex 111.87900906491855 29.768676797719085 9.888826
    vertex 118.6485128436454 29.70422389707335 2.5289440000000005
    vertex 111.87900906491855 29.768676797719085 2.5289440000000005
  endloop
endfacet
facet normal 0.00952063572161723 0.9999546777206738 0.0
  outer loop
    vertex 118.6485128436454 29.70422389707335 2.5289440000000005
    vertex 111.87900906491855 29.768676797719085 9.888826
    vertex 118.6485128436454 29.70422389707335 9.888826
  endloop
endfacet
facet normal 0.970844456922272 0.2397103261507496 0.0
  outer loop
    vertex 107.85180007683321 46.079169490017186 2.5289440000000005
    vertex 111.87900906491855 29.768676797719085 9.888826
    vertex 111.87900906491855 29.768676797719085 2.5289440000000005
  endloop
endfacet
facet normal 0.970844456922272 0.2397103261507496 0.0
  outer loop
    vertex 111.87900906491855 29.768676797719085 9.888826
    vertex 107.85180007683321 46.079169490017186 2.5289440000000005
    vertex 107.85180007683321 46.079169490017186 9.888826
  endloop
endfacet
facet normal 0.0 -1.0 0.0
  outer loop
    vertex 113.9417840768332 46.079169490017186 9.888826
    vertex 107.85180007683321 46.079169490017186 2.5289440000000005
    vertex 113.9417840768332 46.079169490017186 2.5289440000000005
  endloop
endfacet
facet normal 0.0 -1.0 0.0
  outer loop
    vertex 107.85180007683321 46.079169490017186 2.5289440000000005
    vertex 113.9417840768332 46.079169490017186 9.888826
    vertex 107.85180007683321 46.079169490017186 9.888826
  endloop
endfacet
facet normal -0.6619927345617133 -0.7495102530236027 0.0
  outer loop
    vertex 118.6485128436454 41.92202789707335 9.888826
    vertex 116.29514846023932 44.00059869354527 7.049916206369744e-16
    vertex 118.6485128436454 41.92202789707335 7.049916206369744e-16
  endloop
endfacet
facet normal -0.6619927345617133 -0.7495102530236027 0.0
  outer loop
    vertex 116.29514846023932 44.00059869354527 7.049916206369744e-16
    vertex 118.6485128436454 41.92202789707335 9.888826
    vertex 116.29514846023932 44.00059869354527 2.5289440000000005
  endloop
endfacet
facet normal -0.6619927345617133 -0.7495102530236027 0.0
  outer loop
    vertex 116.29514846023932 44.00059869354527 2.5289440000000005
    vertex 118.6485128436454 41.92202789707335 9.888826
    vertex 113.9417840768332 46.079169490017186 2.5289440000000005
  endloop
endfacet
facet normal -0.6619927345617133 -0.7495102530236027 0.0
  outer loop
    vertex 113.9417840768332 46.079169490017186 2.5289440000000005
    vertex 118.6485128436454 41.92202789707335 9.888826
    vertex 113.9417840768332 46.079169490017186 9.888826
  endloop
endfacet
facet normal -1.0 0.0 0.0
  outer loop
    vertex 118.6485128436454 41.92202789707335 9.888826
    vertex 118.6485128436454 29.70422389707335 2.5289440000000005
    vertex 118.6485128436454 29.70422389707335 9.888826
  endloop
endfacet
facet normal -1.0 0.0 0.0
  outer loop
    vertex 118.6485128436454 29.70422389707335 2.5289440000000005
    vertex 118.6485128436454 41.92202789707335 9.888826
    vertex 118.6485128436454 37.067280501922596 2.5289440000000005
  endloop
endfacet
facet normal -1.0 0.0 0.0
  outer loop
    vertex 118.6485128436454 37.067280501922596 2.5289440000000005
    vertex 118.6485128436454 41.92202789707335 9.888826
    vertex 118.6485128436454 37.067280501922596 7.049916206369744e-16
  endloop
endfacet
facet normal -1.0 0.0 0.0
  outer loop
    vertex 118.6485128436454 37.067280501922596 7.049916206369744e-16
    vertex 118.6485128436454 41.92202789707335 9.888826
    vertex 118.6485128436454 41.92202789707335 7.049916206369744e-16
  endloop
endfacet
facet normal 0.0 1.0 0.0
  outer loop
    vertex 98.29518633950963 29.449716562115935 9.888826
    vertex 99.939251717086 29.449716562115935 -1.6919798895287383e-14
    vertex 98.29518633950963 29.449716562115935 -1.6919798895287383e-14
  endloop
endfacet
facet normal 0.0 1.0 0.0
  outer loop
    vertex 99.939251717086 29.449716562115935 -1.6919798895287383e-14
    vertex 98.29518633950963 29.449716562115935 9.888826
    vertex 99.939251717086 29.449716562115935 2.5289439999999828
  endloop
endfacet
facet normal 0.0 1.0 0.0
  outer loop
    vertex 99.939251717086 29.449716562115935 2.5289439999999828
    vertex 98.29518633950963 29.449716562115935 9.888826
    vertex 104.74645600997005 29.449716562115935 2.5289439999999828
  endloop
endfacet
facet normal 0.0 1.0 0.0
  outer loop
    vertex 104.74645600997005 29.449716562115935 2.5289439999999828
    vertex 98.29518633950963 29.449716562115935 9.888826
    vertex 104.74645600997005 29.449716562115935 9.888826
  endloop
endfacet
facet normal 0.6206481114540879 0.7840892307310912 0.0
  outer loop
    vertex 87.26201132139839 38.18305834255116 9.888826
    vertex 98.29518633950963 29.449716562115935 -1.6919798895287383e-14
    vertex 87.26201132139839 38.18305834255116 -1.6919798895287383e-14
  endloop
endfacet
facet normal 0.6206481114540879 0.7840892307310912 0.0
  outer loop
    vertex 98.29518633950963 29.449716562115935 -1.6919798895287383e-14
    vertex 87.26201132139839 38.18305834255116 9.888826
    vertex 98.29518633950963 29.449716562115935 9.888826
  endloop
endfacet
facet normal 0.7840892307310912 -0.6206481114540878 0.0
  outer loop
    vertex 92.96375097994733 45.386290867059245 -1.6919798895287383e-14
    vertex 87.26201132139839 38.18305834255116 9.888826
    vertex 87.26201132139839 38.18305834255116 -1.6919798895287383e-14
  endloop
endfacet
facet normal 0.7840892307310912 -0.6206481114540878 0.0
  outer loop
    vertex 87.26201132139839 38.18305834255116 9.888826
    vertex 92.96375097994733 45.386290867059245 -1.6919798895287383e-14
    vertex 92.96375097994733 45.386290867059245 9.888826
  endloop
endfacet
facet normal 0.0 -1.0 0.0
  outer loop
    vertex 101.15216597994734 45.386290867059245 9.888826
    vertex 98.08125366143452 45.386290867059245 2.5289439999999828
    vertex 101.15216597994734 45.386290867059245 2.5289439999999828
  endloop
endfacet
facet normal 0.0 -1.0 0.0
  outer loop
    vertex 98.08125366143452 45.386290867059245 2.5289439999999828
    vertex 92.96375097994733 45.386290867059245 -1.6919798895287383e-14
    vertex 98.08125366143452 45.386290867059245 -1.6919798895287383e-14
  endloop
endfacet
facet normal 0.0 -1.0 0.0
  outer loop
    vertex 92.96375097994733 45.386290867059245 -1.6919798895287383e-14
    vertex 98.08125366143452 45.386290867059245 2.5289439999999828
    vertex 92.96375097994733 45.386290867059245 9.888826
  endloop
endfacet
facet normal 0.0 -1.0 0.0
  outer loop
    vertex 92.96375097994733 45.386290867059245 9.888826
    vertex 98.08125366143452 45.386290867059245 2.5289439999999828
    vertex 101.15216597994734 45.386290867059245 9.888826
  endloop
endfacet
facet normal -0.9754974058643616 -0.22001093416442094 0.0
  outer loop
    vertex 101.15216597994734 45.386290867059245 9.888826
    vertex 104.74645600997005 29.449716562115935 2.5289439999999828
    vertex 104.74645600997005 29.449716562115935 9.888826
  endloop
endfacet
facet normal -0.9754974058643616 -0.22001093416442094 0.0
  outer loop
    vertex 104.74645600997005 29.449716562115935 2.5289439999999828
    vertex 101.15216597994734 45.386290867059245 9.888826
    vertex 101.15216597994734 45.386290867059245 2.5289439999999828
  endloop
endfacet
facet normal -0.19101256704206704 0.9815875912174113 0.0
  outer loop
    vertex 76.84725118543493 24.80867398796561 9.888826
    vertex 93.76199996599252 28.10020865522727 -7.049916206369744e-16
    vertex 76.84725118543493 24.80867398796561 -7.049916206369744e-16
  endloop
endfacet
facet normal -0.19101256704206704 0.9815875912174113 0.0
  outer loop
    vertex 93.76199996599252 28.10020865522727 -7.049916206369744e-16
    vertex 76.84725118543493 24.80867398796561 9.888826
    vertex 93.76199996599252 28.10020865522727 9.888826
  endloop
endfacet
facet normal 0.7280888460602863 -0.6854827731187711 0.0
  outer loop
    vertex 86.14036581798594 34.67940068520336 -7.049916206369744e-16
    vertex 76.84725118543493 24.80867398796561 9.888826
    vertex 76.84725118543493 24.80867398796561 -7.049916206369744e-16
  endloop
endfacet
facet normal 0.7280888460602863 -0.6854827731187711 0.0
  outer loop
    vertex 76.84725118543493 24.80867398796561 9.888826
    vertex 86.14036581798594 34.67940068520336 -7.049916206369744e-16
    vertex 86.14036581798594 34.67940068520336 9.888826
  endloop
endfacet
facet normal -0.6534418845488693 -0.7569766862441816 0.0
  outer loop
    vertex 93.76199996599252 28.10020865522727 9.888826
    vertex 86.14036581798594 34.67940068520336 -7.049916206369744e-16
    vertex 93.76199996599252 28.10020865522727 -7.049916206369744e-16
  endloop
endfacet
facet normal -0.6534418845488693 -0.7569766862441816 0.0
  outer loop
    vertex 86.14036581798594 34.67940068520336 -7.049916206369744e-16
    vertex 93.76199996599252 28.10020865522727 9.888826
    vertex 86.14036581798594 34.67940068520336 9.888826
  endloop
endfacet
facet normal 0.2772138935808242 -0.9608082312333506 0.0
  outer loop
    vertex 68.55707412692307 29.146913430757934 9.888826
    vertex 53.940358428993285 24.92967575702804 0.0
    vertex 68.55707412692307 29.146913430757934 0.0
  endloop
endfacet
facet normal 0.2772138935808242 -0.9608082312333506 0.0
  outer loop
    vertex 53.940358428993285 24.92967575702804 0.0
    vertex 68.55707412692307 29.146913430757934 9.888826
    vertex 53.940358428993285 24.92967575702804 9.888826
  endloop
endfacet
facet normal -0.797116079321907 0.6038260975533198 0.0
  outer loop
    vertex 68.55707412692307 29.146913430757934 9.888826
    vertex 63.23679196885955 22.1235627145405 0.0
    vertex 63.23679196885955 22.1235627145405 9.888826
  endloop
endfacet
facet normal -0.797116079321907 0.6038260975533198 0.0
  outer loop
    vertex 63.23679196885955 22.1235627145405 0.0
    vertex 68.55707412692307 29.146913430757934 9.888826
    vertex 68.55707412692307 29.146913430757934 0.0
  endloop
endfacet
facet normal 0.28897085543435774 0.9573378947422564 0.0
  outer loop
    vertex 53.940358428993285 24.92967575702804 9.888826
    vertex 63.23679196885955 22.1235627145405 0.0
    vertex 53.940358428993285 24.92967575702804 0.0
  endloop
endfacet
facet normal 0.28897085543435774 0.9573378947422564 0.0
  outer loop
    vertex 63.23679196885955 22.1235627145405 0.0
    vertex 53.940358428993285 24.92967575702804 9.888826
    vertex 63.23679196885955 22.1235627145405 9.888826
  endloop
endfacet
facet normal -0.21974833320391565 -0.97555659500313 0.0
  outer loop
    vertex 51.62940926697999 26.697987458878583 6.435196999999996
    vertex 44.37538717395877 28.331987241290676 2.8199664825478975e-15
    vertex 51.62940926697999 26.697987458878583 2.8199664825478975e-15
  endloop
endfacet
facet normal -0.21974833320391565 -0.97555659500313 0.0
  outer loop
    vertex 44.37538717395877 28.331987241290676 2.8199664825478975e-15
    vertex 51.62940926697999 26.697987458878583 6.435196999999996
    vertex 44.37538717395877 28.331987241290676 6.435196999999996
  endloop
endfacet
facet normal -0.5806906849251504 0.8141242708832357 0.0
  outer loop
    vertex 39.68742332890791 18.180123243600598 6.435196999999996
    vertex 51.62940926697999 26.697987458878583 2.8199664825478975e-15
    vertex 39.68742332890791 18.180123243600598 2.8199664825478975e-15
  endloop
endfacet
facet normal -0.5806906849251504 0.8141242708832357 0.0
  outer loop
    vertex 51.62940926697999 26.697987458878583 2.8199664825478975e-15
    vertex 39.68742332890791 18.180123243600598 6.435196999999996
    vertex 51.62940926697999 26.697987458878583 6.435196999999996
  endloop
endfacet
facet normal 0.9078747021054425 -0.4192416072826672 0.0
  outer loop
    vertex 44.37538717395877 28.331987241290676 2.8199664825478975e-15
    vertex 39.68742332890791 18.180123243600598 6.435196999999996
    vertex 39.68742332890791 18.180123243600598 2.8199664825478975e-15
  endloop
endfacet
facet normal 0.9078747021054425 -0.4192416072826672 0.0
  outer loop
    vertex 39.68742332890791 18.180123243600598 6.435196999999996
    vertex 44.37538717395877 28.331987241290676 2.8199664825478975e-15
    vertex 44.37538717395877 28.331987241290676 6.435196999999996
  endloop
endfacet
facet normal 0.341541317353717 -0.9398667610572722 -2.9733498477678895e-17
  outer loop
    vertex 92.60863158911884 23.593699274410923 9.888826
    vertex 76.74448579957348 17.828774418937098 1.0574874309554616e-14
    vertex 92.60863158911884 23.593699274410923 0.0
  endloop
endfacet
facet normal 0.341541317353717 -0.9398667610572722 -2.9733498477678895e-17
  outer loop
    vertex 76.74448579957348 17.828774418937098 1.0574874309554616e-14
    vertex 92.60863158911884 23.593699274410923 9.888826
    vertex 76.74448579957348 17.828774418937098 9.88882600000001
  endloop
endfacet
facet normal 0.0 0.0 -1.0
  outer loop
    vertex 10.81087505114102 44.156928948765035 3.570687
    vertex 23.978527256327148 14.097826096874812 3.570687
    vertex 2.7919854765333447 14.097826096874812 3.570687
  endloop
endfacet
facet normal 0.0 0.0 -1.0
  outer loop
    vertex 23.978527256327148 14.097826096874812 3.570687
    vertex 10.81087505114102 44.156928948765035 3.570687
    vertex 18.174188051141048 44.156928948765035 3.570687
  endloop
endfacet
facet normal -0.9818623398330977 -0.1895952151755803 0.0
  outer loop
    vertex 18.174188051141048 44.156928948765035 3.570687
    vertex 23.978527256327148 14.097826096874812 0.0
    vertex 23.978527256327148 14.097826096874812 3.570687
  endloop
endfacet
facet normal -0.9818623398330977 -0.1895952151755803 0.0
  outer loop
    vertex 23.978527256327148 14.097826096874812 0.0
    vertex 18.174188051141048 44.156928948765035 3.570687
    vertex 18.174188051141048 44.156928948765035 0.0
  endloop
endfacet
facet normal -0.0 -1.0 0.0
  outer loop
    vertex 18.174188051141048 44.156928948765035 3.570687
    vertex 10.81087505114102 44.156928948765035 0.0
    vertex 18.174188051141048 44.156928948765035 0.0
  endloop
endfacet
facet normal -0.0 -1.0 0.0
  outer loop
    vertex 10.81087505114102 44.156928948765035 0.0
    vertex 18.174188051141048 44.156928948765035 3.570687
    vertex 10.81087505114102 44.156928948765035 3.570687
  endloop
endfacet
facet normal 0.9662098964740884 -0.25775654396257647 0.0
  outer loop
    vertex 10.81087505114102 44.156928948765035 0.0
    vertex 2.7919854765333447 14.097826096874812 3.570687
    vertex 2.7919854765333447 14.097826096874812 0.0
  endloop
endfacet
facet normal 0.9662098964740884 -0.25775654396257647 0.0
  outer loop
    vertex 2.7919854765333447 14.097826096874812 3.570687
    vertex 10.81087505114102 44.156928948765035 0.0
    vertex 10.81087505114102 44.156928948765035 3.570687
  endloop
endfacet
facet normal 0.0 0.0 -1.0
  outer loop
    vertex 40.06312156468829 49.72402509687481 3.570687
    vertex 27.354314093494633 19.738899592979433 3.570687
    vertex 21.386988597441103 49.72402509687481 3.570687
  endloop
endfacet
facet normal 0.9807670439088001 0.1951819806805787 0.0
  outer loop
    vertex 21.386988597441103 49.72402509687481 0.0
    vertex 27.354314093494633 19.738899592979433 3.570687
    vertex 27.354314093494633 19.738899592979433 0.0
  endloop
endfacet
facet normal 0.9807670439088001 0.1951819806805787 0.0
  outer loop
    vertex 27.354314093494633 19.738899592979433 3.570687
    vertex 21.386988597441103 49.72402509687481 0.0
    vertex 21.386988597441103 49.72402509687481 3.570687
  endloop
endfacet
facet normal -0.9207159140065493 0.39023352712841647 0.0
  outer loop
    vertex 40.06312156468829 49.72402509687481 3.570687
    vertex 27.354314093494633 19.738899592979433 0.0
    vertex 27.354314093494633 19.738899592979433 3.570687
  endloop
endfacet
facet normal -0.9207159140065493 0.39023352712841647 0.0
  outer loop
    vertex 27.354314093494633 19.738899592979433 0.0
    vertex 40.06312156468829 49.72402509687481 3.570687
    vertex 40.06312156468829 49.72402509687481 0.0
  endloop
endfacet
facet normal 0.36491903561714234 0.9310392566612081 -3.7856147904506276e-32
  outer loop
    vertex 44.32150229268062 49.72402509687481 6.120718000000006
    vertex 53.5112665361627 46.12211477860702 7.049916206369744e-16
    vertex 44.32150229268062 49.72402509687481 7.049916206369744e-16
  endloop
endfacet
facet normal 0.36491903561714234 0.9310392566612081 -3.7856147904506276e-32
  outer loop
    vertex 53.5112665361627 46.12211477860702 7.049916206369744e-16
    vertex 44.32150229268062 49.72402509687481 6.120718000000006
    vertex 48.916384414421664 47.92306993774092 6.120718000000006
  endloop
endfacet
facet normal 0.36491903561714234 0.9310392566612081 -3.7856147904506276e-32
  outer loop
    vertex 53.5112665361627 46.12211477860702 7.049916206369744e-16
    vertex 48.916384414421664 47.92306993774092 6.120718000000006
    vertex 53.5112665361627 46.12211477860702 9.888826000000002
  endloop
endfacet
facet normal 0.36491903561714234 0.9310392566612081 -3.7856147904506276e-32
  outer loop
    vertex 53.5112665361627 46.12211477860702 9.888826000000002
    vertex 48.916384414421664 47.92306993774092 6.120718000000006
    vertex 48.916384414421664 47.92306993774092 9.888826000000002
  endloop
endfacet
facet normal -0.0 -1.0 0.0
  outer loop
    vertex 36.26422503260325 14.097826096874812 6.435196999999996
    vertex 23.978527256327148 14.097826096874812 0.0
    vertex 36.26422503260325 14.097826096874812 0.0
  endloop
endfacet
facet normal -0.0 -1.0 0.0
  outer loop
    vertex 23.978527256327148 14.097826096874812 0.0
    vertex 36.26422503260325 14.097826096874812 6.435196999999996
    vertex 23.978527256327148 14.097826096874812 3.570687
  endloop
endfacet
facet normal -0.0 -1.0 0.0
  outer loop
    vertex 23.978527256327148 14.097826096874812 3.570687
    vertex 36.26422503260325 14.097826096874812 6.435196999999996
    vertex 2.7919854765333447 14.097826096874812 3.570687
  endloop
endfacet
facet normal -0.0 -1.0 0.0
  outer loop
    vertex 33.50446671682928 14.097826096874812 9.888826000000002
    vertex 18.468968121369844 14.097826096874812 7.5964730000000005
    vertex 33.50446671682928 14.097826096874812 6.435196999999996
  endloop
endfacet
facet normal -0.0 -1.0 0.0
  outer loop
    vertex 18.468968121369844 14.097826096874812 7.5964730000000005
    vertex 33.50446671682928 14.097826096874812 9.888826000000002
    vertex 18.468968121369844 14.097826096874812 9.888826000000002
  endloop
endfacet
facet normal -0.0 -1.0 0.0
  outer loop
    vertex 2.7919854765333447 14.097826096874812 3.570687
    vertex -0.7922742980177403 14.097826096874812 0.0
    vertex 2.7919854765333447 14.097826096874812 0.0
  endloop
endfacet
facet normal -0.0 -1.0 0.0
  outer loop
    vertex -0.7922742980177403 14.097826096874812 0.0
    vertex 2.7919854765333447 14.097826096874812 3.570687
    vertex -0.7922742980177403 14.097826096874812 12.438692999999997
  endloop
endfacet
facet normal -0.0 -1.0 0.0
  outer loop
    vertex -0.7922742980177403 14.097826096874812 12.438692999999997
    vertex 2.7919854765333447 14.097826096874812 3.570687
    vertex 1.8095156743006333 14.097826096874812 9.888826000000002
  endloop
endfacet
facet normal -0.0 -1.0 0.0
  outer loop
    vertex 1.8095156743006333 14.097826096874812 9.888826000000002
    vertex 2.7919854765333447 14.097826096874812 3.570687
    vertex 9.692202466812976 14.097826096874812 7.5964730000000005
  endloop
endfacet
facet normal -0.0 -1.0 0.0
  outer loop
    vertex 9.692202466812976 14.097826096874812 7.5964730000000005
    vertex 2.7919854765333447 14.097826096874812 3.570687
    vertex 33.50446671682928 14.097826096874812 6.435196999999996
  endloop
endfacet
facet normal -0.0 -1.0 0.0
  outer loop
    vertex 33.50446671682928 14.097826096874812 6.435196999999996
    vertex 2.7919854765333447 14.097826096874812 3.570687
    vertex 36.26422503260325 14.097826096874812 6.435196999999996
  endloop
endfacet
facet normal -0.0 -1.0 0.0
  outer loop
    vertex 9.692202466812976 14.097826096874812 7.5964730000000005
    vertex 33.50446671682928 14.097826096874812 6.435196999999996
    vertex 18.468968121369844 14.097826096874812 7.5964730000000005
  endloop
endfacet
facet normal -0.0 -1.0 0.0
  outer loop
    vertex 1.8095156743006333 14.097826096874812 9.888826000000002
    vertex 9.692202466812976 14.097826096874812 7.5964730000000005
    vertex 9.692202466812976 14.097826096874812 9.888826000000002
  endloop
endfacet
facet normal -0.0 -1.0 0.0
  outer loop
    vertex -0.7922742980177403 14.097826096874812 12.438692999999997
    vertex 1.8095156743006333 14.097826096874812 9.888826000000002
    vertex 1.8095156743006333 14.097826096874812 12.438692999999997
  endloop
endfacet
facet normal -0.9735665576310913 0.22840349792055892 -2.918694898520647e-16
  outer loop
    vertex 24.627326434827516 40.347738022379126 9.888826000000002
    vertex 18.468968121369844 14.097826096874812 7.5964730000000005
    vertex 18.468968121369844 14.097826096874812 9.888826000000002
  endloop
endfacet
facet normal -0.9735665576310913 0.22840349792055892 -2.918694898520647e-16
  outer loop
    vertex 18.468968121369844 14.097826096874812 7.5964730000000005
    vertex 24.627326434827516 40.347738022379126 9.888826000000002
    vertex 24.627326434827516 40.34773802237912 7.5964730000000005
  endloop
endfacet
facet normal 1.2212353342388688e-32 1.0 9.077486160847522e-32
  outer loop
    vertex 37.352199871350884 49.72402509687481 6.120718000000006
    vertex 28.389411478986755 49.72402509687481 7.603783000000003
    vertex 37.352199871350884 49.72402509687481 9.888826000000002
  endloop
endfacet
facet normal 1.2212353342388688e-32 1.0 9.077486160847522e-32
  outer loop
    vertex 28.389411478986755 49.72402509687481 7.603783000000003
    vertex 37.352199871350884 49.72402509687481 6.120718000000006
    vertex 26.827049451744877 49.72402509687481 7.5964730000000005
  endloop
endfacet
facet normal 1.2212353342388688e-32 1.0 9.077486160847522e-32
  outer loop
    vertex 26.827049451744877 49.72402509687481 7.5964730000000005
    vertex 37.352199871350884 49.72402509687481 6.120718000000006
    vertex 14.959418974450738 49.72402509687481 7.5964730000000005
  endloop
endfacet
facet normal 1.2212353342388688e-32 1.0 9.077486160847522e-32
  outer loop
    vertex 37.352199871350884 49.72402509687481 9.888826000000002
    vertex 28.389411478986755 49.72402509687481 7.603783000000003
    vertex 28.389411478986755 49.72402509687481 9.888826000000002
  endloop
endfacet
facet normal 1.2212353342388688e-32 1.0 9.077486160847522e-32
  outer loop
    vertex 8.67398790776355 49.72402509687481 0.0
    vertex 11.14647049329317 49.72402509687481 9.888826000000002
    vertex 21.386988597441103 49.72402509687481 0.0
  endloop
endfacet
facet normal 1.2212353342388688e-32 1.0 9.077486160847522e-32
  outer loop
    vertex 11.14647049329317 49.72402509687481 9.888826000000002
    vertex 8.67398790776355 49.72402509687481 0.0
    vertex 8.67398790776355 49.72402509687481 12.438692999999997
  endloop
endfacet
facet normal 1.2212353342388688e-32 1.0 9.077486160847522e-32
  outer loop
    vertex 21.386988597441103 49.72402509687481 0.0
    vertex 11.14647049329317 49.72402509687481 9.888826000000002
    vertex 21.386988597441103 49.72402509687481 3.570687
  endloop
endfacet
facet normal 1.2212353342388688e-32 1.0 9.077486160847522e-32
  outer loop
    vertex 21.386988597441103 49.72402509687481 3.570687
    vertex 11.14647049329317 49.72402509687481 9.888826000000002
    vertex 14.959418974450738 49.72402509687481 7.5964730000000005
  endloop
endfacet
facet normal 1.2212353342388688e-32 1.0 9.077486160847522e-32
  outer loop
    vertex 21.386988597441103 49.72402509687481 3.570687
    vertex 14.959418974450738 49.72402509687481 7.5964730000000005
    vertex 40.06312156468829 49.72402509687481 3.570687
  endloop
endfacet
facet normal 1.2212353342388688e-32 1.0 9.077486160847522e-32
  outer loop
    vertex 40.06312156468829 49.72402509687481 3.570687
    vertex 14.959418974450738 49.72402509687481 7.5964730000000005
    vertex 37.352199871350884 49.72402509687481 6.120718000000006
  endloop
endfacet
facet normal 1.2212353342388688e-32 1.0 9.077486160847522e-32
  outer loop
    vertex 11.14647049329317 49.72402509687481 9.888826000000002
    vertex 8.67398790776355 49.72402509687481 12.438692999999997
    vertex 11.14647049329317 49.72402509687481 12.438692999999997
  endloop
endfacet
facet normal 1.2212353342388688e-32 1.0 9.077486160847522e-32
  outer loop
    vertex 14.959418974450738 49.72402509687481 9.888826000000002
    vertex 14.959418974450738 49.72402509687481 7.5964730000000005
    vertex 11.14647049329317 49.72402509687481 9.888826000000002
  endloop
endfacet
facet normal 1.2212353342388688e-32 1.0 9.077486160847522e-32
  outer loop
    vertex 40.06312156468829 49.72402509687481 3.570687
    vertex 44.32150229268062 49.72402509687481 7.049916206369744e-16
    vertex 40.06312156468829 49.72402509687481 0.0
  endloop
endfacet
facet normal 1.2212353342388688e-32 1.0 9.077486160847522e-32
  outer loop
    vertex 44.32150229268062 49.72402509687481 7.049916206369744e-16
    vertex 40.06312156468829 49.72402509687481 3.570687
    vertex 44.32150229268062 49.72402509687481 6.120718000000006
  endloop
endfacet
facet normal 1.2212353342388688e-32 1.0 9.077486160847522e-32
  outer loop
    vertex 44.32150229268062 49.72402509687481 6.120718000000006
    vertex 40.06312156468829 49.72402509687481 3.570687
    vertex 37.352199871350884 49.72402509687481 6.120718000000006
  endloop
endfacet
facet normal 0.9690211949040127 -0.24697757757901767 -1.0319008698327974e-16
  outer loop
    vertex 16.27942303054507 39.942910514393304 7.5964730000000005
    vertex 9.692202466812976 14.097826096874812 9.888826000000002
    vertex 9.692202466812976 14.097826096874812 7.5964730000000005
  endloop
endfacet
facet normal 0.9690211949040127 -0.24697757757901767 -1.0319008698327974e-16
  outer loop
    vertex 9.692202466812976 14.097826096874812 9.888826000000002
    vertex 16.27942303054507 39.942910514393304 7.5964730000000005
    vertex 16.27942303054507 39.942910514393304 9.888826000000002
  endloop
endfacet
facet normal 0.0 0.0 1.0
  outer loop
    vertex 9.692202466812976 14.097826096874812 9.888826000000002
    vertex 11.14647049329317 49.72402509687481 9.888826000000002
    vertex 1.8095156743006333 14.097826096874812 9.888826000000002
  endloop
endfacet
facet normal 0.0 0.0 1.0
  outer loop
    vertex 11.14647049329317 49.72402509687481 9.888826000000002
    vertex 9.692202466812976 14.097826096874812 9.888826000000002
    vertex 12.107920030545053 39.942910514393304 9.888826000000002
  endloop
endfacet
facet normal 0.0 0.0 1.0
  outer loop
    vertex 12.107920030545053 39.942910514393304 9.888826000000002
    vertex 9.692202466812976 14.097826096874812 9.888826000000002
    vertex 16.27942303054507 39.942910514393304 9.888826000000002
  endloop
endfacet
facet normal 0.0 0.0 1.0
  outer loop
    vertex 14.959418974450738 49.72402509687481 9.888826000000002
    vertex 11.14647049329317 49.72402509687481 9.888826000000002
    vertex 12.107920030545053 39.942910514393304 9.888826000000002
  endloop
endfacet
facet normal 0.0 1.0 0.0
  outer loop
    vertex 12.107920030545053 39.942910514393304 7.601667999999996
    vertex 16.27942303054507 39.942910514393304 9.888826000000002
    vertex 16.27942303054507 39.942910514393304 7.5964730000000005
  endloop
endfacet
facet normal 0.0 1.0 0.0
  outer loop
    vertex 16.27942303054507 39.942910514393304 9.888826000000002
    vertex 12.107920030545053 39.942910514393304 7.601667999999996
    vertex 12.107920030545053 39.942910514393304 9.888826000000002
  endloop
endfacet
facet normal 0.9600349804327147 -0.27988003920529453 1.1640077000871615e-17
  outer loop
    vertex 14.959418974450738 49.72402509687481 7.5964730000000005
    vertex 12.107920030545053 39.942910514393304 9.888826000000002
    vertex 12.107920030545053 39.942910514393304 7.601667999999996
  endloop
endfacet
facet normal 0.9600349804327147 -0.27988003920529453 1.1640077000871615e-17
  outer loop
    vertex 12.107920030545053 39.942910514393304 9.888826000000002
    vertex 14.959418974450738 49.72402509687481 7.5964730000000005
    vertex 14.959418974450738 49.72402509687481 9.888826000000002
  endloop
endfacet
facet normal -0.9749852977976988 0.22226936153760055 0.0
  outer loop
    vertex 28.389411478986755 49.72402509687481 9.888826000000002
    vertex 26.251880434827502 40.347738022379126 7.603783000000003
    vertex 26.251880434827502 40.347738022379126 9.888826000000002
  endloop
endfacet
facet normal -0.9749852977976988 0.22226936153760055 0.0
  outer loop
    vertex 26.251880434827502 40.347738022379126 7.603783000000003
    vertex 28.389411478986755 49.72402509687481 9.888826000000002
    vertex 28.389411478986755 49.72402509687481 7.603783000000003
  endloop
endfacet
facet normal -1.7330638921123588e-15 1.0 -1.2340914804876251e-15
  outer loop
    vertex 24.627326434827516 40.347738022379126 9.888826000000002
    vertex 26.251880434827502 40.347738022379126 7.603783000000003
    vertex 24.627326434827516 40.34773802237912 7.5964730000000005
  endloop
endfacet
facet normal -1.7330638921123588e-15 1.0 -1.2340914804876251e-15
  outer loop
    vertex 26.251880434827502 40.347738022379126 7.603783000000003
    vertex 24.627326434827516 40.347738022379126 9.888826000000002
    vertex 26.251880434827502 40.347738022379126 9.888826000000002
  endloop
endfacet
facet normal 0.00016949939345879962 -4.740816895304636e-05 0.9999999845112104
  outer loop
    vertex 18.468968121369844 14.097826096874812 7.5964730000000005
    vertex 16.27942303054507 39.942910514393304 7.5964730000000005
    vertex 9.692202466812976 14.097826096874812 7.5964730000000005
  endloop
endfacet
facet normal 0.00016949939345879962 -4.740816895304636e-05 0.9999999845112104
  outer loop
    vertex 16.27942303054507 39.942910514393304 7.5964730000000005
    vertex 14.959418974450738 49.72402509687481 7.5964730000000005
    vertex 12.107920030545053 39.942910514393304 7.601667999999996
  endloop
endfacet
facet normal 0.00016949939345879962 -4.740816895304636e-05 0.9999999845112104
  outer loop
    vertex 14.959418974450738 49.72402509687481 7.5964730000000005
    vertex 16.27942303054507 39.942910514393304 7.5964730000000005
    vertex 26.827049451744877 49.72402509687481 7.5964730000000005
  endloop
endfacet
facet normal 0.00016949939345879962 -4.740816895304636e-05 0.9999999845112104
  outer loop
    vertex 26.827049451744877 49.72402509687481 7.5964730000000005
    vertex 16.27942303054507 39.942910514393304 7.5964730000000005
    vertex 18.468968121369844 14.097826096874812 7.5964730000000005
  endloop
endfacet
facet normal 0.00016949939345879962 -4.740816895304636e-05 0.9999999845112104
  outer loop
    vertex 26.827049451744877 49.72402509687481 7.5964730000000005
    vertex 18.468968121369844 14.097826096874812 7.5964730000000005
    vertex 24.627326434827516 40.34773802237912 7.5964730000000005
  endloop
endfacet
facet normal -0.004585709954489006 0.001060621809304866 0.9999889231114468
  outer loop
    vertex 26.251880434827502 40.347738022379126 7.603783000000003
    vertex 26.827049451744877 49.72402509687481 7.5964730000000005
    vertex 24.627326434827516 40.34773802237912 7.5964730000000005
  endloop
endfacet
facet normal -0.004585709954489006 0.001060621809304866 0.9999889231114468
  outer loop
    vertex 26.827049451744877 49.72402509687481 7.5964730000000005
    vertex 26.251880434827502 40.347738022379126 7.603783000000003
    vertex 28.389411478986755 49.72402509687481 7.603783000000003
  endloop
endfacet
facet normal -9.8027787125087e-18 -6.573493359381227e-17 1.0
  outer loop
    vertex 48.916384414421664 47.92306993774092 6.120718000000006
    vertex 37.352199871350884 49.72402509687481 6.120718000000006
    vertex 32.21272400889229 29.4102883783957 6.120718000000004
  endloop
endfacet
facet normal -9.8027787125087e-18 -6.573493359381227e-17 1.0
  outer loop
    vertex 37.352199871350884 49.72402509687481 6.120718000000006
    vertex 48.916384414421664 47.92306993774092 6.120718000000006
    vertex 44.32150229268062 49.72402509687481 6.120718000000006
  endloop
endfacet
facet normal -0.7424528790123303 0.6698982926133655 3.6757618502124936e-17
  outer loop
    vertex 48.916384414421664 47.92306993774092 9.888826000000002
    vertex 32.21272400889229 29.4102883783957 6.120718000000004
    vertex 32.21272400889229 29.4102883783957 9.888826
  endloop
endfacet
facet normal -0.7424528790123303 0.6698982926133655 3.6757618502124936e-17
  outer loop
    vertex 32.21272400889229 29.4102883783957 6.120718000000004
    vertex 48.916384414421664 47.92306993774092 9.888826000000002
    vertex 48.916384414421664 47.92306993774092 6.120718000000006
  endloop
endfacet
facet normal 0.9694531776289033 -0.24527644890046454 -6.619896108163595e-18
  outer loop
    vertex 37.352199871350884 49.72402509687481 6.120718000000006
    vertex 32.21272400889229 29.4102883783957 9.888826
    vertex 32.21272400889229 29.4102883783957 6.120718000000004
  endloop
endfacet
facet normal 0.9694531776289033 -0.24527644890046454 -6.619896108163595e-18
  outer loop
    vertex 32.21272400889229 29.4102883783957 9.888826
    vertex 37.352199871350884 49.72402509687481 6.120718000000006
    vertex 37.352199871350884 49.72402509687481 9.888826000000002
  endloop
endfacet
facet normal 1.334789921556515e-17 -3.769065586107458e-18 1.0
  outer loop
    vertex 53.940358428993285 24.92967575702804 9.888826
    vertex 54.07240276885179 28.008113461240736 9.888826
    vertex 49.19170119072035 18.485704590481525 9.888826
  endloop
endfacet
facet normal 1.334789921556515e-17 -3.769065586107458e-18 1.0
  outer loop
    vertex 54.07240276885179 28.008113461240736 9.888826
    vertex 53.940358428993285 24.92967575702804 9.888826
    vertex 68.55707412692307 29.146913430757934 9.888826
  endloop
endfacet
facet normal 1.334789921556515e-17 -3.769065586107458e-18 1.0
  outer loop
    vertex 92.60863158911884 23.593699274410923 9.888826
    vertex 76.84725118543493 24.80867398796561 9.888826
    vertex 76.74448579957348 17.828774418937098 9.88882600000001
  endloop
endfacet
facet normal 1.334789921556515e-17 -3.769065586107458e-18 1.0
  outer loop
    vertex 76.84725118543493 24.80867398796561 9.888826
    vertex 92.60863158911884 23.593699274410923 9.888826
    vertex 93.76199996599252 28.10020865522727 9.888826
  endloop
endfacet
facet normal 1.334789921556515e-17 -3.769065586107458e-18 1.0
  outer loop
    vertex 93.76199996599252 28.10020865522727 9.888826
    vertex 92.60863158911884 23.593699274410923 9.888826
    vertex 122.78700319343247 23.832227195830587 9.888825999999987
  endloop
endfacet
facet normal 1.334789921556515e-17 -3.769065586107458e-18 1.0
  outer loop
    vertex 93.76199996599252 28.10020865522727 9.888826
    vertex 122.78700319343247 23.832227195830587 9.888825999999987
    vertex 98.29518633950963 29.449716562115935 9.888826
  endloop
endfacet
facet normal 1.334789921556515e-17 -3.769065586107458e-18 1.0
  outer loop
    vertex 98.29518633950963 29.449716562115935 9.888826
    vertex 122.78700319343247 23.832227195830587 9.888825999999987
    vertex 104.74645600997005 29.449716562115935 9.888826
  endloop
endfacet
facet normal 1.334789921556515e-17 -3.769065586107458e-18 1.0
  outer loop
    vertex 104.74645600997005 29.449716562115935 9.888826
    vertex 122.78700319343247 23.832227195830587 9.888825999999987
    vertex 111.87900906491855 29.768676797719085 9.888826
  endloop
endfacet
facet normal 1.334789921556515e-17 -3.769065586107458e-18 1.0
  outer loop
    vertex 104.74645600997005 29.449716562115935 9.888826
    vertex 111.87900906491855 29.768676797719085 9.888826
    vertex 107.85180007683321 46.079169490017186 9.888826
  endloop
endfacet
facet normal 1.334789921556515e-17 -3.769065586107458e-18 1.0
  outer loop
    vertex 111.87900906491855 29.768676797719085 9.888826
    vertex 122.78700319343247 23.832227195830587 9.888825999999987
    vertex 118.6485128436454 29.70422389707335 9.888826
  endloop
endfacet
facet normal 1.334789921556515e-17 -3.769065586107458e-18 1.0
  outer loop
    vertex 118.6485128436454 29.70422389707335 9.888826
    vertex 122.78700319343247 23.832227195830587 9.888825999999987
    vertex 118.6485128436454 41.92202789707335 9.888826
  endloop
endfacet
facet normal 1.334789921556515e-17 -3.769065586107458e-18 1.0
  outer loop
    vertex 118.6485128436454 41.92202789707335 9.888826
    vertex 122.78700319343247 23.832227195830587 9.888825999999987
    vertex 119.80581105765437 49.72402509687481 9.888826000000002
  endloop
endfacet
facet normal 1.334789921556515e-17 -3.769065586107458e-18 1.0
  outer loop
    vertex 119.80581105765437 49.72402509687481 9.888826000000002
    vertex 122.78700319343247 23.832227195830587 9.888825999999987
    vertex 126.66424080208648 41.87237348527046 9.888826000000002
  endloop
endfacet
facet normal 1.334789921556515e-17 -3.769065586107458e-18 1.0
  outer loop
    vertex 126.66424080208648 41.87237348527046 9.888826000000002
    vertex 122.78700319343247 23.832227195830587 9.888825999999987
    vertex 127.77037767187282 30.91259986240805 9.888826
  endloop
endfacet
facet normal 1.334789921556515e-17 -3.769065586107458e-18 1.0
  outer loop
    vertex 127.77037767187282 30.91259986240805 9.888826
    vertex 122.78700319343247 23.832227195830587 9.888825999999987
    vertex 135.0516895632979 22.08812968846558 9.888826
  endloop
endfacet
facet normal 1.334789921556515e-17 -3.769065586107458e-18 1.0
  outer loop
    vertex 127.77037767187282 30.91259986240805 9.888826
    vertex 135.0516895632979 22.08812968846558 9.888826
    vertex 147.71886770198225 23.553706537491436 9.888826000000002
  endloop
endfacet
facet normal 1.334789921556515e-17 -3.769065586107458e-18 1.0
  outer loop
    vertex 147.71886770198225 23.553706537491436 9.888826000000002
    vertex 135.0516895632979 22.08812968846558 9.888826
    vertex 140.19022664781855 17.972329096874812 9.888826
  endloop
endfacet
facet normal 1.334789921556515e-17 -3.769065586107458e-18 1.0
  outer loop
    vertex 147.71886770198225 23.553706537491436 9.888826000000002
    vertex 140.19022664781855 17.972329096874812 9.888826
    vertex 147.71886770198225 18.825766317183124 9.888826000000002
  endloop
endfacet
facet normal 1.334789921556515e-17 -3.769065586107458e-18 1.0
  outer loop
    vertex 54.79247469791377 20.38673409687481 9.888826000000002
    vertex 53.940358428993285 24.92967575702804 9.888826
    vertex 49.19170119072035 18.485704590481525 9.888826
  endloop
endfacet
facet normal 1.334789921556515e-17 -3.769065586107458e-18 1.0
  outer loop
    vertex 53.940358428993285 24.92967575702804 9.888826
    vertex 54.79247469791377 20.38673409687481 9.888826000000002
    vertex 63.23679196885955 22.1235627145405 9.888826
  endloop
endfacet
facet normal 1.334789921556515e-17 -3.769065586107458e-18 1.0
  outer loop
    vertex 63.23679196885955 22.1235627145405 9.888826
    vertex 54.79247469791377 20.38673409687481 9.888826000000002
    vertex 76.74448579957348 17.828774418937098 9.88882600000001
  endloop
endfacet
facet normal 1.334789921556515e-17 -3.769065586107458e-18 1.0
  outer loop
    vertex 63.23679196885955 22.1235627145405 9.888826
    vertex 76.74448579957348 17.828774418937098 9.88882600000001
    vertex 68.55707412692307 29.146913430757934 9.888826
  endloop
endfacet
facet normal 1.334789921556515e-17 -3.769065586107458e-18 1.0
  outer loop
    vertex 68.55707412692307 29.146913430757934 9.888826
    vertex 76.74448579957348 17.828774418937098 9.88882600000001
    vertex 70.41399138713594 33.38946797412706 9.888826
  endloop
endfacet
facet normal 1.334789921556515e-17 -3.769065586107458e-18 1.0
  outer loop
    vertex 70.41399138713594 33.38946797412706 9.888826
    vertex 76.74448579957348 17.828774418937098 9.88882600000001
    vertex 75.45633912298355 34.43539479583256 9.888826
  endloop
endfacet
facet normal 1.334789921556515e-17 -3.769065586107458e-18 1.0
  outer loop
    vertex 75.45633912298355 34.43539479583256 9.888826
    vertex 76.74448579957348 17.828774418937098 9.88882600000001
    vertex 76.84725118543493 24.80867398796561 9.888826
  endloop
endfacet
facet normal 1.334789921556515e-17 -3.769065586107458e-18 1.0
  outer loop
    vertex 75.45633912298355 34.43539479583256 9.888826
    vertex 76.84725118543493 24.80867398796561 9.888826
    vertex 92.23086221272808 49.72402509687481 9.888826000000002
  endloop
endfacet
facet normal 1.334789921556515e-17 -3.769065586107458e-18 1.0
  outer loop
    vertex 92.23086221272808 49.72402509687481 9.888826000000002
    vertex 76.84725118543493 24.80867398796561 9.888826
    vertex 87.26201132139839 38.18305834255116 9.888826
  endloop
endfacet
facet normal 1.334789921556515e-17 -3.769065586107458e-18 1.0
  outer loop
    vertex 87.26201132139839 38.18305834255116 9.888826
    vertex 76.84725118543493 24.80867398796561 9.888826
    vertex 86.14036581798594 34.67940068520336 9.888826
  endloop
endfacet
facet normal 1.334789921556515e-17 -3.769065586107458e-18 1.0
  outer loop
    vertex 92.23086221272808 49.72402509687481 9.888826000000002
    vertex 87.26201132139839 38.18305834255116 9.888826
    vertex 92.96375097994733 45.386290867059245 9.888826
  endloop
endfacet
facet normal 1.334789921556515e-17 -3.769065586107458e-18 1.0
  outer loop
    vertex 92.23086221272808 49.72402509687481 9.888826000000002
    vertex 92.96375097994733 45.386290867059245 9.888826
    vertex 119.80581105765437 49.72402509687481 9.888826000000002
  endloop
endfacet
facet normal 1.334789921556515e-17 -3.769065586107458e-18 1.0
  outer loop
    vertex 119.80581105765437 49.72402509687481 9.888826000000002
    vertex 92.96375097994733 45.386290867059245 9.888826
    vertex 101.15216597994734 45.386290867059245 9.888826
  endloop
endfacet
facet normal 1.334789921556515e-17 -3.769065586107458e-18 1.0
  outer loop
    vertex 119.80581105765437 49.72402509687481 9.888826000000002
    vertex 101.15216597994734 45.386290867059245 9.888826
    vertex 107.85180007683321 46.079169490017186 9.888826
  endloop
endfacet
facet normal 1.334789921556515e-17 -3.769065586107458e-18 1.0
  outer loop
    vertex 107.85180007683321 46.079169490017186 9.888826
    vertex 101.15216597994734 45.386290867059245 9.888826
    vertex 104.74645600997005 29.449716562115935 9.888826
  endloop
endfacet
facet normal 1.334789921556515e-17 -3.769065586107458e-18 1.0
  outer loop
    vertex 119.80581105765437 49.72402509687481 9.888826000000002
    vertex 107.85180007683321 46.079169490017186 9.888826
    vertex 113.9417840768332 46.079169490017186 9.888826
  endloop
endfacet
facet normal 1.334789921556515e-17 -3.769065586107458e-18 1.0
  outer loop
    vertex 119.80581105765437 49.72402509687481 9.888826000000002
    vertex 113.9417840768332 46.079169490017186 9.888826
    vertex 118.6485128436454 41.92202789707335 9.888826
  endloop
endfacet
facet normal 1.334789921556515e-17 -3.769065586107458e-18 1.0
  outer loop
    vertex 93.76199996599252 28.10020865522727 9.888826
    vertex 87.26201132139839 38.18305834255116 9.888826
    vertex 86.14036581798594 34.67940068520336 9.888826
  endloop
endfacet
facet normal 1.334789921556515e-17 -3.769065586107458e-18 1.0
  outer loop
    vertex 87.26201132139839 38.18305834255116 9.888826
    vertex 93.76199996599252 28.10020865522727 9.888826
    vertex 98.29518633950963 29.449716562115935 9.888826
  endloop
endfacet
facet normal 1.334789921556515e-17 -3.769065586107458e-18 1.0
  outer loop
    vertex 33.50446671682928 14.097826096874812 9.888826000000002
    vertex 24.627326434827516 40.347738022379126 9.888826000000002
    vertex 18.468968121369844 14.097826096874812 9.888826000000002
  endloop
endfacet
facet normal 1.334789921556515e-17 -3.769065586107458e-18 1.0
  outer loop
    vertex 24.627326434827516 40.347738022379126 9.888826000000002
    vertex 33.50446671682928 14.097826096874812 9.888826000000002
    vertex 26.251880434827502 40.347738022379126 9.888826000000002
  endloop
endfacet
facet normal 1.334789921556515e-17 -3.769065586107458e-18 1.0
  outer loop
    vertex 26.251880434827502 40.347738022379126 9.888826000000002
    vertex 33.50446671682928 14.097826096874812 9.888826000000002
    vertex 28.389411478986755 49.72402509687481 9.888826000000002
  endloop
endfacet
facet normal 1.334789921556515e-17 -3.769065586107458e-18 1.0
  outer loop
    vertex 28.389411478986755 49.72402509687481 9.888826000000002
    vertex 33.50446671682928 14.097826096874812 9.888826000000002
    vertex 32.21272400889229 29.4102883783957 9.888826
  endloop
endfacet
facet normal 1.334789921556515e-17 -3.769065586107458e-18 1.0
  outer loop
    vertex 32.21272400889229 29.4102883783957 9.888826
    vertex 33.50446671682928 14.097826096874812 9.888826000000002
    vertex 48.916384414421664 47.92306993774092 9.888826000000002
  endloop
endfacet
facet normal 1.334789921556515e-17 -3.769065586107458e-18 1.0
  outer loop
    vertex 48.916384414421664 47.92306993774092 9.888826000000002
    vertex 33.50446671682928 14.097826096874812 9.888826000000002
    vertex 43.42999989578227 33.46286689628826 9.888826
  endloop
endfacet
facet normal 1.334789921556515e-17 -3.769065586107458e-18 1.0
  outer loop
    vertex 48.916384414421664 47.92306993774092 9.888826000000002
    vertex 43.42999989578227 33.46286689628826 9.888826
    vertex 54.07240276885179 28.008113461240736 9.888826
  endloop
endfacet
facet normal 1.334789921556515e-17 -3.769065586107458e-18 1.0
  outer loop
    vertex 48.916384414421664 47.92306993774092 9.888826000000002
    vertex 54.07240276885179 28.008113461240736 9.888826
    vertex 53.5112665361627 46.12211477860702 9.888826000000002
  endloop
endfacet
facet normal 1.334789921556515e-17 -3.769065586107458e-18 1.0
  outer loop
    vertex 53.5112665361627 46.12211477860702 9.888826000000002
    vertex 54.07240276885179 28.008113461240736 9.888826
    vertex 70.41399138713594 33.38946797412706 9.888826
  endloop
endfacet
facet normal 1.334789921556515e-17 -3.769065586107458e-18 1.0
  outer loop
    vertex 70.41399138713594 33.38946797412706 9.888826
    vertex 54.07240276885179 28.008113461240736 9.888826
    vertex 68.55707412692307 29.146913430757934 9.888826
  endloop
endfacet
facet normal 1.334789921556515e-17 -3.769065586107458e-18 1.0
  outer loop
    vertex 37.352199871350884 49.72402509687481 9.888826000000002
    vertex 28.389411478986755 49.72402509687481 9.888826000000002
    vertex 32.21272400889229 29.4102883783957 9.888826
  endloop
endfacet
facet normal 5.871638802968015e-17 3.539241590267037e-17 1.0
  outer loop
    vertex 49.19170119072035 18.485704590481525 6.435196999999996
    vertex 39.68742332890791 18.180123243600598 6.435196999999996
    vertex 36.26422503260325 14.097826096874812 6.435196999999996
  endloop
endfacet
facet normal 5.871638802968015e-17 3.539241590267037e-17 1.0
  outer loop
    vertex 39.68742332890791 18.180123243600598 6.435196999999996
    vertex 49.19170119072035 18.485704590481525 6.435196999999996
    vertex 51.62940926697999 26.697987458878583 6.435196999999996
  endloop
endfacet
facet normal 5.871638802968015e-17 3.539241590267037e-17 1.0
  outer loop
    vertex 51.62940926697999 26.697987458878583 6.435196999999996
    vertex 49.19170119072035 18.485704590481525 6.435196999999996
    vertex 54.07240276885179 28.008113461240736 6.435196999999996
  endloop
endfacet
facet normal 5.871638802968015e-17 3.539241590267037e-17 1.0
  outer loop
    vertex 36.26422503260325 14.097826096874812 6.435196999999996
    vertex 43.42999989578227 33.46286689628826 6.435196999999996
    vertex 33.50446671682928 14.097826096874812 6.435196999999996
  endloop
endfacet
facet normal 5.871638802968015e-17 3.539241590267037e-17 1.0
  outer loop
    vertex 43.42999989578227 33.46286689628826 6.435196999999996
    vertex 36.26422503260325 14.097826096874812 6.435196999999996
    vertex 39.68742332890791 18.180123243600598 6.435196999999996
  endloop
endfacet
facet normal 5.871638802968015e-17 3.539241590267037e-17 1.0
  outer loop
    vertex 43.42999989578227 33.46286689628826 6.435196999999996
    vertex 39.68742332890791 18.180123243600598 6.435196999999996
    vertex 44.37538717395877 28.331987241290676 6.435196999999996
  endloop
endfacet
facet normal 5.871638802968015e-17 3.539241590267037e-17 1.0
  outer loop
    vertex 43.42999989578227 33.46286689628826 6.435196999999996
    vertex 44.37538717395877 28.331987241290676 6.435196999999996
    vertex 54.07240276885179 28.008113461240736 6.435196999999996
  endloop
endfacet
facet normal 5.871638802968015e-17 3.539241590267037e-17 1.0
  outer loop
    vertex 54.07240276885179 28.008113461240736 6.435196999999996
    vertex 44.37538717395877 28.331987241290676 6.435196999999996
    vertex 51.62940926697999 26.697987458878583 6.435196999999996
  endloop
endfacet
facet normal 0.8899155342305163 -0.45612535769809487 -3.610924745811384e-17
  outer loop
    vertex 43.42999989578227 33.46286689628826 6.435196999999996
    vertex 33.50446671682928 14.097826096874812 9.888826000000002
    vertex 33.50446671682928 14.097826096874812 6.435196999999996
  endloop
endfacet
facet normal 0.8899155342305163 -0.45612535769809487 -3.610924745811384e-17
  outer loop
    vertex 33.50446671682928 14.097826096874812 9.888826000000002
    vertex 43.42999989578227 33.46286689628826 6.435196999999996
    vertex 43.42999989578227 33.46286689628826 9.888826
  endloop
endfacet
facet normal -0.4561253576980947 -0.8899155342305164 5.827829419851152e-17
  outer loop
    vertex 54.07240276885179 28.008113461240736 9.888826
    vertex 43.42999989578227 33.46286689628826 6.435196999999996
    vertex 54.07240276885179 28.008113461240736 6.435196999999996
  endloop
endfacet
facet normal -0.4561253576980947 -0.8899155342305164 5.827829419851152e-17
  outer loop
    vertex 43.42999989578227 33.46286689628826 6.435196999999996
    vertex 54.07240276885179 28.008113461240736 9.888826
    vertex 43.42999989578227 33.46286689628826 9.888826
  endloop
endfacet
facet normal -0.8899155342305161 0.45612535769809526 3.610924745811381e-17
  outer loop
    vertex 54.07240276885179 28.008113461240736 9.888826
    vertex 49.19170119072035 18.485704590481525 6.435196999999996
    vertex 49.19170119072035 18.485704590481525 9.888826
  endloop
endfacet
facet normal -0.8899155342305161 0.45612535769809526 3.610924745811381e-17
  outer loop
    vertex 49.19170119072035 18.485704590481525 6.435196999999996
    vertex 54.07240276885179 28.008113461240736 9.888826
    vertex 54.07240276885179 28.008113461240736 6.435196999999996
  endloop
endfacet
facet normal -0.203105093888985 0.9791569439248984 0.0
  outer loop
    vertex 70.41399138713594 33.38946797412706 3.9487588070197215e-17
    vertex 75.45633912298355 34.43539479583256 9.888826
    vertex 75.45633912298355 34.43539479583256 0.0
  endloop
endfacet
facet normal -0.203105093888985 0.9791569439248984 0.0
  outer loop
    vertex 75.45633912298355 34.43539479583256 9.888826
    vertex 70.41399138713594 33.38946797412706 3.9487588070197215e-17
    vertex 70.41399138713594 33.38946797412706 9.888826
  endloop
endfacet
facet normal 0.6016802895172838 0.7987370213070116 4.811437139969104e-19
  outer loop
    vertex 53.5112665361627 46.12211477860702 7.049916206369744e-16
    vertex 70.41399138713594 33.38946797412706 9.888826
    vertex 70.41399138713594 33.38946797412706 3.9487588070197215e-17
  endloop
endfacet
facet normal 0.6016802895172838 0.7987370213070116 4.811437139969104e-19
  outer loop
    vertex 70.41399138713594 33.38946797412706 9.888826
    vertex 53.5112665361627 46.12211477860702 7.049916206369744e-16
    vertex 53.5112665361627 46.12211477860702 9.888826000000002
  endloop
endfacet
facet normal -0.14078841750621865 -0.9900397070300235 -1.1378860407619005e-17
  outer loop
    vertex 135.0516895632979 22.08812968846558 -6.525872936806326e-16
    vertex 122.78700319343247 23.832227195830587 9.888825999999987
    vertex 122.78700319343247 23.832227195830587 -1.127986593019159e-14
  endloop
endfacet
facet normal -0.14078841750621865 -0.9900397070300235 -1.1378860407619005e-17
  outer loop
    vertex 122.78700319343247 23.832227195830587 9.888825999999987
    vertex 135.0516895632979 22.08812968846558 -6.525872936806326e-16
    vertex 135.0516895632979 22.08812968846558 9.888826
  endloop
endfacet
facet normal -3.363263533606301e-17 1.0443747195182402e-17 -1.0
  outer loop
    vertex 87.26201132139839 38.18305834255116 -1.6919798895287383e-14
    vertex 93.76199996599252 28.10020865522727 -7.049916206369744e-16
    vertex 86.14036581798594 34.67940068520336 -7.049916206369744e-16
  endloop
endfacet
facet normal -3.363263533606301e-17 1.0443747195182402e-17 -1.0
  outer loop
    vertex 93.76199996599252 28.10020865522727 -7.049916206369744e-16
    vertex 87.26201132139839 38.18305834255116 -1.6919798895287383e-14
    vertex 98.29518633950963 29.449716562115935 -1.6919798895287383e-14
  endloop
endfacet
facet normal -3.363263533606301e-17 1.0443747195182402e-17 -1.0
  outer loop
    vertex 39.68742332890791 18.180123243600598 2.8199664825478975e-15
    vertex 54.79247469791377 20.38673409687481 0.0
    vertex 36.26422503260325 14.097826096874812 0.0
  endloop
endfacet
facet normal -3.363263533606301e-17 1.0443747195182402e-17 -1.0
  outer loop
    vertex 54.79247469791377 20.38673409687481 0.0
    vertex 39.68742332890791 18.180123243600598 2.8199664825478975e-15
    vertex 51.62940926697999 26.697987458878583 2.8199664825478975e-15
  endloop
endfacet
facet normal -3.363263533606301e-17 1.0443747195182402e-17 -1.0
  outer loop
    vertex 54.79247469791377 20.38673409687481 0.0
    vertex 51.62940926697999 26.697987458878583 2.8199664825478975e-15
    vertex 53.940358428993285 24.92967575702804 0.0
  endloop
endfacet
facet normal -3.363263533606301e-17 1.0443747195182402e-17 -1.0
  outer loop
    vertex 53.940358428993285 24.92967575702804 0.0
    vertex 51.62940926697999 26.697987458878583 2.8199664825478975e-15
    vertex 53.5112665361627 46.12211477860702 7.049916206369744e-16
  endloop
endfacet
facet normal -3.363263533606301e-17 1.0443747195182402e-17 -1.0
  outer loop
    vertex 54.79247469791377 20.38673409687481 0.0
    vertex 53.940358428993285 24.92967575702804 0.0
    vertex 63.23679196885955 22.1235627145405 0.0
  endloop
endfacet
facet normal -3.363263533606301e-17 1.0443747195182402e-17 -1.0
  outer loop
    vertex 54.79247469791377 20.38673409687481 0.0
    vertex 63.23679196885955 22.1235627145405 0.0
    vertex 76.74448579957348 17.828774418937098 1.0574874309554616e-14
  endloop
endfacet
facet normal -3.363263533606301e-17 1.0443747195182402e-17 -1.0
  outer loop
    vertex 76.74448579957348 17.828774418937098 1.0574874309554616e-14
    vertex 63.23679196885955 22.1235627145405 0.0
    vertex 68.55707412692307 29.146913430757934 0.0
  endloop
endfacet
facet normal -3.363263533606301e-17 1.0443747195182402e-17 -1.0
  outer loop
    vertex 76.74448579957348 17.828774418937098 1.0574874309554616e-14
    vertex 68.55707412692307 29.146913430757934 0.0
    vertex 70.41399138713594 33.38946797412706 3.9487588070197215e-17
  endloop
endfacet
facet normal -3.363263533606301e-17 1.0443747195182402e-17 -1.0
  outer loop
    vertex 76.74448579957348 17.828774418937098 1.0574874309554616e-14
    vertex 70.41399138713594 33.38946797412706 3.9487588070197215e-17
    vertex 75.45633912298355 34.43539479583256 0.0
  endloop
endfacet
facet normal -3.363263533606301e-17 1.0443747195182402e-17 -1.0
  outer loop
    vertex 76.74448579957348 17.828774418937098 1.0574874309554616e-14
    vertex 75.45633912298355 34.43539479583256 0.0
    vertex 76.84725118543493 24.80867398796561 -7.049916206369744e-16
  endloop
endfacet
facet normal -3.363263533606301e-17 1.0443747195182402e-17 -1.0
  outer loop
    vertex 76.84725118543493 24.80867398796561 -7.049916206369744e-16
    vertex 75.45633912298355 34.43539479583256 0.0
    vertex 92.23086221272808 49.72402509687481 0.0
  endloop
endfacet
facet normal -3.363263533606301e-17 1.0443747195182402e-17 -1.0
  outer loop
    vertex 76.84725118543493 24.80867398796561 -7.049916206369744e-16
    vertex 92.23086221272808 49.72402509687481 0.0
    vertex 87.26201132139839 38.18305834255116 -1.6919798895287383e-14
  endloop
endfacet
facet normal -3.363263533606301e-17 1.0443747195182402e-17 -1.0
  outer loop
    vertex 76.84725118543493 24.80867398796561 -7.049916206369744e-16
    vertex 87.26201132139839 38.18305834255116 -1.6919798895287383e-14
    vertex 86.14036581798594 34.67940068520336 -7.049916206369744e-16
  endloop
endfacet
facet normal -3.363263533606301e-17 1.0443747195182402e-17 -1.0
  outer loop
    vertex 87.26201132139839 38.18305834255116 -1.6919798895287383e-14
    vertex 92.23086221272808 49.72402509687481 0.0
    vertex 92.96375097994733 45.386290867059245 -1.6919798895287383e-14
  endloop
endfacet
facet normal -3.363263533606301e-17 1.0443747195182402e-17 -1.0
  outer loop
    vertex 92.96375097994733 45.386290867059245 -1.6919798895287383e-14
    vertex 92.23086221272808 49.72402509687481 0.0
    vertex 99.939251717086 48.34221500815015 3.9952113256509126e-23
  endloop
endfacet
facet normal -3.363263533606301e-17 1.0443747195182402e-17 -1.0
  outer loop
    vertex 99.939251717086 48.34221500815015 3.9952113256509126e-23
    vertex 92.23086221272808 49.72402509687481 0.0
    vertex 144.58185687058463 49.72402509687481 2.8199664825478975e-15
  endloop
endfacet
facet normal -3.363263533606301e-17 1.0443747195182402e-17 -1.0
  outer loop
    vertex 92.96375097994733 45.386290867059245 -1.6919798895287383e-14
    vertex 99.939251717086 48.34221500815015 3.9952113256509126e-23
    vertex 98.08125366143452 45.386290867059245 -1.6919798895287383e-14
  endloop
endfacet
facet normal -3.363263533606301e-17 1.0443747195182402e-17 -1.0
  outer loop
    vertex 99.939251717086 48.34221500815015 3.9952113256509126e-23
    vertex 144.58185687058463 49.72402509687481 2.8199664825478975e-15
    vertex 113.89655771708598 48.34221500815015 3.9952113256509126e-23
  endloop
endfacet
facet normal -3.363263533606301e-17 1.0443747195182402e-17 -1.0
  outer loop
    vertex 113.89655771708598 48.34221500815015 3.9952113256509126e-23
    vertex 144.58185687058463 49.72402509687481 2.8199664825478975e-15
    vertex 116.29514846023932 44.00059869354527 7.049916206369744e-16
  endloop
endfacet
facet normal -3.363263533606301e-17 1.0443747195182402e-17 -1.0
  outer loop
    vertex 116.29514846023932 44.00059869354527 7.049916206369744e-16
    vertex 144.58185687058463 49.72402509687481 2.8199664825478975e-15
    vertex 118.6485128436454 41.92202789707335 7.049916206369744e-16
  endloop
endfacet
facet normal -3.363263533606301e-17 1.0443747195182402e-17 -1.0
  outer loop
    vertex 118.6485128436454 41.92202789707335 7.049916206369744e-16
    vertex 144.58185687058463 49.72402509687481 2.8199664825478975e-15
    vertex 118.6485128436454 37.067280501922596 7.049916206369744e-16
  endloop
endfacet
facet normal -3.363263533606301e-17 1.0443747195182402e-17 -1.0
  outer loop
    vertex 118.6485128436454 37.067280501922596 7.049916206369744e-16
    vertex 144.58185687058463 49.72402509687481 2.8199664825478975e-15
    vertex 120.58809183090405 28.302729144111094 -4.93494134445882e-15
  endloop
endfacet
facet normal -3.363263533606301e-17 1.0443747195182402e-17 -1.0
  outer loop
    vertex 120.58809183090405 28.302729144111094 -4.93494134445882e-15
    vertex 144.58185687058463 49.72402509687481 2.8199664825478975e-15
    vertex 121.04372086797335 26.243836919696868 -6.3449245857327695e-15
  endloop
endfacet
facet normal -3.363263533606301e-17 1.0443747195182402e-17 -1.0
  outer loop
    vertex 121.04372086797335 26.243836919696868 -6.3449245857327695e-15
    vertex 144.58185687058463 49.72402509687481 2.8199664825478975e-15
    vertex 121.57951767941367 23.822683307459815 -1.0828540229475728e-14
  endloop
endfacet
facet normal -3.363263533606301e-17 1.0443747195182402e-17 -1.0
  outer loop
    vertex 121.57951767941367 23.822683307459815 -1.0828540229475728e-14
    vertex 144.58185687058463 49.72402509687481 2.8199664825478975e-15
    vertex 122.78700319343247 23.832227195830587 -1.127986593019159e-14
  endloop
endfacet
facet normal -3.363263533606301e-17 1.0443747195182402e-17 -1.0
  outer loop
    vertex 122.78700319343247 23.832227195830587 -1.127986593019159e-14
    vertex 144.58185687058463 49.72402509687481 2.8199664825478975e-15
    vertex 135.0516895632979 22.08812968846558 -6.525872936806326e-16
  endloop
endfacet
facet normal -3.363263533606301e-17 1.0443747195182402e-17 -1.0
  outer loop
    vertex 135.0516895632979 22.08812968846558 -6.525872936806326e-16
    vertex 144.58185687058463 49.72402509687481 2.8199664825478975e-15
    vertex 140.19022664781855 17.972329096874812 0.0
  endloop
endfacet
facet normal -3.363263533606301e-17 1.0443747195182402e-17 -1.0
  outer loop
    vertex 140.19022664781855 17.972329096874812 0.0
    vertex 144.58185687058463 49.72402509687481 2.8199664825478975e-15
    vertex 147.71886770198225 18.825766317183124 0.0
  endloop
endfacet
facet normal -3.363263533606301e-17 1.0443747195182402e-17 -1.0
  outer loop
    vertex 147.71886770198225 18.825766317183124 0.0
    vertex 144.58185687058463 49.72402509687481 2.8199664825478975e-15
    vertex 147.71886770198225 45.423535982725504 2.8199664825478975e-15
  endloop
endfacet
facet normal -3.363263533606301e-17 1.0443747195182402e-17 -1.0
  outer loop
    vertex 99.4133199812714 27.59077179998689 -1.0574874309554616e-14
    vertex 121.04372086797335 26.243836919696868 -6.3449245857327695e-15
    vertex 98.8873882454568 25.73182703785784 -5.639932965095795e-15
  endloop
endfacet
facet normal -3.363263533606301e-17 1.0443747195182402e-17 -1.0
  outer loop
    vertex 121.04372086797335 26.243836919696868 -6.3449245857327695e-15
    vertex 99.4133199812714 27.59077179998689 -1.0574874309554616e-14
    vertex 120.58809183090405 28.302729144111094 -4.93494134445882e-15
  endloop
endfacet
facet normal -3.363263533606301e-17 1.0443747195182402e-17 -1.0
  outer loop
    vertex 76.84725118543493 24.80867398796561 -7.049916206369744e-16
    vertex 92.60863158911884 23.593699274410923 0.0
    vertex 76.74448579957348 17.828774418937098 1.0574874309554616e-14
  endloop
endfacet
facet normal -3.363263533606301e-17 1.0443747195182402e-17 -1.0
  outer loop
    vertex 92.60863158911884 23.593699274410923 0.0
    vertex 76.84725118543493 24.80867398796561 -7.049916206369744e-16
    vertex 93.76199996599252 28.10020865522727 -7.049916206369744e-16
  endloop
endfacet
facet normal -3.363263533606301e-17 1.0443747195182402e-17 -1.0
  outer loop
    vertex 92.60863158911884 23.593699274410923 0.0
    vertex 93.76199996599252 28.10020865522727 -7.049916206369744e-16
    vertex 98.29518633950963 23.638645439910984 -2.1254816538853112e-15
  endloop
endfacet
facet normal -3.363263533606301e-17 1.0443747195182402e-17 -1.0
  outer loop
    vertex 98.29518633950963 23.638645439910984 -2.1254816538853112e-15
    vertex 93.76199996599252 28.10020865522727 -7.049916206369744e-16
    vertex 98.29518633950963 29.449716562115935 -1.6919798895287383e-14
  endloop
endfacet
facet normal -3.363263533606301e-17 1.0443747195182402e-17 -1.0
  outer loop
    vertex 98.29518633950963 23.638645439910984 -2.1254816538853112e-15
    vertex 98.29518633950963 29.449716562115935 -1.6919798895287383e-14
    vertex 99.939251717086 29.449716562115935 -1.6919798895287383e-14
  endloop
endfacet
facet normal -3.363263533606301e-17 1.0443747195182402e-17 -1.0
  outer loop
    vertex 98.29518633950963 23.638645439910984 -2.1254816538853112e-15
    vertex 99.939251717086 29.449716562115935 -1.6919798895287383e-14
    vertex 98.8873882454568 25.73182703785784 -5.639932965095795e-15
  endloop
endfacet
facet normal -3.363263533606301e-17 1.0443747195182402e-17 -1.0
  outer loop
    vertex 98.8873882454568 25.73182703785784 -5.639932965095795e-15
    vertex 99.939251717086 29.449716562115935 -1.6919798895287383e-14
    vertex 99.4133199812714 27.59077179998689 -1.0574874309554616e-14
  endloop
endfacet
facet normal -3.363263533606301e-17 1.0443747195182402e-17 -1.0
  outer loop
    vertex 8.67398790776355 49.72402509687481 0.0
    vertex 2.7919854765333447 14.097826096874812 0.0
    vertex -0.7922742980177403 14.097826096874812 0.0
  endloop
endfacet
facet normal -3.363263533606301e-17 1.0443747195182402e-17 -1.0
  outer loop
    vertex 2.7919854765333447 14.097826096874812 0.0
    vertex 8.67398790776355 49.72402509687481 0.0
    vertex 10.81087505114102 44.156928948765035 0.0
  endloop
endfacet
facet normal -3.363263533606301e-17 1.0443747195182402e-17 -1.0
  outer loop
    vertex 10.81087505114102 44.156928948765035 0.0
    vertex 8.67398790776355 49.72402509687481 0.0
    vertex 21.386988597441103 49.72402509687481 0.0
  endloop
endfacet
facet normal -3.363263533606301e-17 1.0443747195182402e-17 -1.0
  outer loop
    vertex 10.81087505114102 44.156928948765035 0.0
    vertex 21.386988597441103 49.72402509687481 0.0
    vertex 18.174188051141048 44.156928948765035 0.0
  endloop
endfacet
facet normal -3.363263533606301e-17 1.0443747195182402e-17 -1.0
  outer loop
    vertex 18.174188051141048 44.156928948765035 0.0
    vertex 21.386988597441103 49.72402509687481 0.0
    vertex 23.978527256327148 14.097826096874812 0.0
  endloop
endfacet
facet normal -3.363263533606301e-17 1.0443747195182402e-17 -1.0
  outer loop
    vertex 23.978527256327148 14.097826096874812 0.0
    vertex 21.386988597441103 49.72402509687481 0.0
    vertex 27.354314093494633 19.738899592979433 0.0
  endloop
endfacet
facet normal -3.363263533606301e-17 1.0443747195182402e-17 -1.0
  outer loop
    vertex 23.978527256327148 14.097826096874812 0.0
    vertex 27.354314093494633 19.738899592979433 0.0
    vertex 36.26422503260325 14.097826096874812 0.0
  endloop
endfacet
facet normal -3.363263533606301e-17 1.0443747195182402e-17 -1.0
  outer loop
    vertex 36.26422503260325 14.097826096874812 0.0
    vertex 27.354314093494633 19.738899592979433 0.0
    vertex 40.06312156468829 49.72402509687481 0.0
  endloop
endfacet
facet normal -3.363263533606301e-17 1.0443747195182402e-17 -1.0
  outer loop
    vertex 36.26422503260325 14.097826096874812 0.0
    vertex 40.06312156468829 49.72402509687481 0.0
    vertex 39.68742332890791 18.180123243600598 2.8199664825478975e-15
  endloop
endfacet
facet normal -3.363263533606301e-17 1.0443747195182402e-17 -1.0
  outer loop
    vertex 39.68742332890791 18.180123243600598 2.8199664825478975e-15
    vertex 40.06312156468829 49.72402509687481 0.0
    vertex 44.37538717395877 28.331987241290676 2.8199664825478975e-15
  endloop
endfacet
facet normal -3.363263533606301e-17 1.0443747195182402e-17 -1.0
  outer loop
    vertex 44.37538717395877 28.331987241290676 2.8199664825478975e-15
    vertex 40.06312156468829 49.72402509687481 0.0
    vertex 44.32150229268062 49.72402509687481 7.049916206369744e-16
  endloop
endfacet
facet normal -3.363263533606301e-17 1.0443747195182402e-17 -1.0
  outer loop
    vertex 44.37538717395877 28.331987241290676 2.8199664825478975e-15
    vertex 44.32150229268062 49.72402509687481 7.049916206369744e-16
    vertex 53.5112665361627 46.12211477860702 7.049916206369744e-16
  endloop
endfacet
facet normal -3.363263533606301e-17 1.0443747195182402e-17 -1.0
  outer loop
    vertex 44.37538717395877 28.331987241290676 2.8199664825478975e-15
    vertex 53.5112665361627 46.12211477860702 7.049916206369744e-16
    vertex 51.62940926697999 26.697987458878583 2.8199664825478975e-15
  endloop
endfacet
facet normal -3.363263533606301e-17 1.0443747195182402e-17 -1.0
  outer loop
    vertex 70.41399138713594 33.38946797412706 3.9487588070197215e-17
    vertex 53.940358428993285 24.92967575702804 0.0
    vertex 53.5112665361627 46.12211477860702 7.049916206369744e-16
  endloop
endfacet
facet normal -3.363263533606301e-17 1.0443747195182402e-17 -1.0
  outer loop
    vertex 53.940358428993285 24.92967575702804 0.0
    vertex 70.41399138713594 33.38946797412706 3.9487588070197215e-17
    vertex 68.55707412692307 29.146913430757934 0.0
  endloop
endfacet
facet normal -2.046676383622317e-16 -5.754790026564555e-16 -1.0
  outer loop
    vertex 98.8873882454568 25.73182703785784 2.5289439999999925
    vertex 121.57951767941367 23.822683307459815 2.528943999999989
    vertex 98.29518633950963 23.638645439910984 2.528943999999998
  endloop
endfacet
facet normal -2.046676383622317e-16 -5.754790026564555e-16 -1.0
  outer loop
    vertex 121.57951767941367 23.822683307459815 2.528943999999989
    vertex 98.8873882454568 25.73182703785784 2.5289439999999925
    vertex 121.04372086797335 26.243836919696868 2.528943999999991
  endloop
endfacet
facet normal 0.9622310939692998 -0.27223394681531643 2.7319217996588628e-18
  outer loop
    vertex 99.939251717086 29.449716562115935 -1.6919798895287383e-14
    vertex 99.4133199812714 27.59077179998689 2.5289439999999876
    vertex 99.4133199812714 27.59077179998689 -1.0574874309554616e-14
  endloop
endfacet
facet normal 0.9622310939692998 -0.27223394681531643 2.7319217996588628e-18
  outer loop
    vertex 99.4133199812714 27.59077179998689 2.5289439999999876
    vertex 99.939251717086 29.449716562115935 -1.6919798895287383e-14
    vertex 99.939251717086 29.449716562115935 2.5289439999999828
  endloop
endfacet
facet normal -0.9763777452173625 -0.21607058717988234 7.160958032513552e-18
  outer loop
    vertex 121.04372086797335 26.243836919696868 2.528943999999991
    vertex 121.57951767941367 23.822683307459815 -1.0828540229475728e-14
    vertex 121.57951767941367 23.822683307459815 2.528943999999989
  endloop
endfacet
facet normal -0.9763777452173625 -0.21607058717988234 7.160958032513552e-18
  outer loop
    vertex 121.57951767941367 23.822683307459815 -1.0828540229475728e-14
    vertex 121.04372086797335 26.243836919696868 2.528943999999991
    vertex 121.04372086797335 26.243836919696868 -6.3449245857327695e-15
  endloop
endfacet
facet normal -0.8753032814082374 -0.48357436403925713 -5.547969730108101e-16
  outer loop
    vertex 113.89655771708598 48.34221500815015 2.5289439999999996
    vertex 116.29514846023932 44.00059869354527 7.049916206369744e-16
    vertex 116.29514846023932 44.00059869354527 2.5289440000000005
  endloop
endfacet
facet normal -0.8753032814082374 -0.48357436403925713 -5.547969730108101e-16
  outer loop
    vertex 116.29514846023932 44.00059869354527 7.049916206369744e-16
    vertex 113.89655771708598 48.34221500815015 2.5289439999999996
    vertex 113.89655771708598 48.34221500815015 3.9952113256509126e-23
  endloop
endfacet
facet normal 0.0 -1.0 -2.238358776406261e-16
  outer loop
    vertex 113.89655771708598 48.34221500815015 2.5289439999999996
    vertex 99.939251717086 48.34221500815015 3.9952113256509126e-23
    vertex 113.89655771708598 48.34221500815015 3.9952113256509126e-23
  endloop
endfacet
facet normal 0.0 -1.0 -2.238358776406261e-16
  outer loop
    vertex 99.939251717086 48.34221500815015 3.9952113256509126e-23
    vertex 113.89655771708598 48.34221500815015 2.5289439999999996
    vertex 99.939251717086 48.34221500815015 2.5289439999999996
  endloop
endfacet
facet normal 0.8466380209372122 -0.5321692038285574 3.128128918686237e-16
  outer loop
    vertex 99.939251717086 48.34221500815015 3.9952113256509126e-23
    vertex 98.08125366143452 45.386290867059245 2.5289439999999828
    vertex 98.08125366143452 45.386290867059245 -1.6919798895287383e-14
  endloop
endfacet
facet normal 0.8466380209372122 -0.5321692038285574 3.128128918686237e-16
  outer loop
    vertex 98.08125366143452 45.386290867059245 2.5289439999999828
    vertex 99.939251717086 48.34221500815015 3.9952113256509126e-23
    vertex 99.939251717086 48.34221500815015 2.5289439999999996
  endloop
endfacet
facet normal 7.245472738405224e-16 3.480232746512843e-16 -1.0
  outer loop
    vertex 99.939251717086 48.34221500815015 2.5289439999999996
    vertex 101.15216597994734 45.386290867059245 2.5289439999999828
    vertex 98.08125366143452 45.386290867059245 2.5289439999999828
  endloop
endfacet
facet normal 7.245472738405224e-16 3.480232746512843e-16 -1.0
  outer loop
    vertex 101.15216597994734 45.386290867059245 2.5289439999999828
    vertex 99.939251717086 48.34221500815015 2.5289439999999996
    vertex 113.89655771708598 48.34221500815015 2.5289439999999996
  endloop
endfacet
facet normal 7.245472738405224e-16 3.480232746512843e-16 -1.0
  outer loop
    vertex 101.15216597994734 45.386290867059245 2.5289439999999828
    vertex 113.89655771708598 48.34221500815015 2.5289439999999996
    vertex 107.85180007683321 46.079169490017186 2.5289440000000005
  endloop
endfacet
facet normal 7.245472738405224e-16 3.480232746512843e-16 -1.0
  outer loop
    vertex 101.15216597994734 45.386290867059245 2.5289439999999828
    vertex 107.85180007683321 46.079169490017186 2.5289440000000005
    vertex 104.74645600997005 29.449716562115935 2.5289439999999828
  endloop
endfacet
facet normal 7.245472738405224e-16 3.480232746512843e-16 -1.0
  outer loop
    vertex 107.85180007683321 46.079169490017186 2.5289440000000005
    vertex 113.89655771708598 48.34221500815015 2.5289439999999996
    vertex 113.9417840768332 46.079169490017186 2.5289440000000005
  endloop
endfacet
facet normal 7.245472738405224e-16 3.480232746512843e-16 -1.0
  outer loop
    vertex 113.9417840768332 46.079169490017186 2.5289440000000005
    vertex 113.89655771708598 48.34221500815015 2.5289439999999996
    vertex 116.29514846023932 44.00059869354527 2.5289440000000005
  endloop
endfacet
facet normal 7.245472738405224e-16 3.480232746512843e-16 -1.0
  outer loop
    vertex 120.58809183090405 28.302729144111094 2.528943999999993
    vertex 118.6485128436454 29.70422389707335 2.5289440000000005
    vertex 118.6485128436454 37.067280501922596 2.5289440000000005
  endloop
endfacet
facet normal 7.245472738405224e-16 3.480232746512843e-16 -1.0
  outer loop
    vertex 99.939251717086 29.449716562115935 2.5289439999999828
    vertex 120.58809183090405 28.302729144111094 2.528943999999993
    vertex 99.4133199812714 27.59077179998689 2.5289439999999876
  endloop
endfacet
facet normal 7.245472738405224e-16 3.480232746512843e-16 -1.0
  outer loop
    vertex 120.58809183090405 28.302729144111094 2.528943999999993
    vertex 99.939251717086 29.449716562115935 2.5289439999999828
    vertex 104.74645600997005 29.449716562115935 2.5289439999999828
  endloop
endfacet
facet normal 7.245472738405224e-16 3.480232746512843e-16 -1.0
  outer loop
    vertex 120.58809183090405 28.302729144111094 2.528943999999993
    vertex 104.74645600997005 29.449716562115935 2.5289439999999828
    vertex 111.87900906491855 29.768676797719085 2.5289440000000005
  endloop
endfacet
facet normal 7.245472738405224e-16 3.480232746512843e-16 -1.0
  outer loop
    vertex 111.87900906491855 29.768676797719085 2.5289440000000005
    vertex 104.74645600997005 29.449716562115935 2.5289439999999828
    vertex 107.85180007683321 46.079169490017186 2.5289440000000005
  endloop
endfacet
facet normal 7.245472738405224e-16 3.480232746512843e-16 -1.0
  outer loop
    vertex 120.58809183090405 28.302729144111094 2.528943999999993
    vertex 111.87900906491855 29.768676797719085 2.5289440000000005
    vertex 118.6485128436454 29.70422389707335 2.5289440000000005
  endloop
endfacet
facet normal -0.03360391584244598 0.99943522893685 1.0972386048415498e-18
  outer loop
    vertex 99.4133199812714 27.59077179998689 2.5289439999999876
    vertex 120.58809183090405 28.302729144111094 -4.93494134445882e-15
    vertex 99.4133199812714 27.59077179998689 -1.0574874309554616e-14
  endloop
endfacet
facet normal -0.03360391584244598 0.99943522893685 1.0972386048415498e-18
  outer loop
    vertex 120.58809183090405 28.302729144111094 -4.93494134445882e-15
    vertex 99.4133199812714 27.59077179998689 2.5289439999999876
    vertex 120.58809183090405 28.302729144111094 2.528943999999993
  endloop
endfacet
facet normal 0.02310279559615451 -0.999733094798628 4.3175327630404456e-18
  outer loop
    vertex 121.04372086797335 26.243836919696868 2.528943999999991
    vertex 98.8873882454568 25.73182703785784 -5.639932965095795e-15
    vertex 121.04372086797335 26.243836919696868 -6.3449245857327695e-15
  endloop
endfacet
facet normal 0.02310279559615451 -0.999733094798628 4.3175327630404456e-18
  outer loop
    vertex 98.8873882454568 25.73182703785784 -5.639932965095795e-15
    vertex 121.04372086797335 26.243836919696868 2.528943999999991
    vertex 98.8873882454568 25.73182703785784 2.5289439999999925
  endloop
endfacet
facet normal -0.9763777452173623 -0.21607058717988362 4.399675438000205e-17
  outer loop
    vertex 118.6485128436454 37.067280501922596 2.5289440000000005
    vertex 120.58809183090405 28.302729144111094 -4.93494134445882e-15
    vertex 120.58809183090405 28.302729144111094 2.528943999999993
  endloop
endfacet
facet normal -0.9763777452173623 -0.21607058717988362 4.399675438000205e-17
  outer loop
    vertex 120.58809183090405 28.302729144111094 -4.93494134445882e-15
    vertex 118.6485128436454 37.067280501922596 2.5289440000000005
    vertex 118.6485128436454 37.067280501922596 7.049916206369744e-16
  endloop
endfacet
facet normal 0.9622310939692996 -0.27223394681531704 8.275012367237103e-18
  outer loop
    vertex 98.8873882454568 25.73182703785784 -5.639932965095795e-15
    vertex 98.29518633950963 23.638645439910984 2.528943999999998
    vertex 98.29518633950963 23.638645439910984 -2.1254816538853112e-15
  endloop
endfacet
facet normal 0.9622310939692996 -0.27223394681531704 8.275012367237103e-18
  outer loop
    vertex 98.29518633950963 23.638645439910984 2.528943999999998
    vertex 98.8873882454568 25.73182703785784 -5.639932965095795e-15
    vertex 98.8873882454568 25.73182703785784 2.5289439999999925
  endloop
endfacet
endsolid TiltStick
