solid TiltStick
facet normal -0.3460966406240389 0.9381988676974382 3.738009787348217e-17
  outer loop
    vertex 8.541975131188414 23.553706537491436 5.078295000000003
    vertex 28.49046516129783 30.91259986240805 9.888826
    vertex 28.49046516129783 30.91259986240805 5.078295000000001
  endloop
endfacet
facet normal -0.3460966406240389 0.9381988676974382 3.738009787348217e-17
  outer loop
    vertex 28.49046516129783 30.91259986240805 9.888826
    vertex 8.541975131188414 23.553706537491436 5.078295000000003
    vertex 8.541975131188414 23.553706537491436 9.888826000000002
  endloop
endfacet
facet normal 0.9664645736199446 0.25679997651405395 7.436774920016476e-31
  outer loop
    vertex 147.58685492540712 49.72402509687481 0.0
    vertex 157.05311713118843 14.097826096874812 12.438692999999997
    vertex 157.05311713118843 14.097826096874812 0.0
  endloop
endfacet
facet normal 0.9664645736199446 0.25679997651405395 7.436774920016476e-31
  outer loop
    vertex 157.05311713118843 14.097826096874812 12.438692999999997
    vertex 147.58685492540712 49.72402509687481 0.0
    vertex 147.58685492540712 49.72402509687481 12.438692999999997
  endloop
endfacet
facet normal 0.0 0.0 1.0
  outer loop
    vertex 154.45132715887004 14.097826096874812 12.438692999999997
    vertex 147.58685492540712 49.72402509687481 12.438692999999997
    vertex 145.1143723398775 49.72402509687481 12.438692999999997
  endloop
endfacet
facet normal 0.0 0.0 1.0
  outer loop
    vertex 147.58685492540712 49.72402509687481 12.438692999999997
    vertex 154.45132715887004 14.097826096874812 12.438692999999997
    vertex 157.05311713118843 14.097826096874812 12.438692999999997
  endloop
endfacet
facet normal -0.9673303936625127 -0.25351905154589094 -0.0
  outer loop
    vertex 145.1143723398775 49.72402509687481 12.438692999999997
    vertex 154.45132715887004 14.097826096874812 9.888826000000002
    vertex 154.45132715887004 14.097826096874812 12.438692999999997
  endloop
endfacet
facet normal -0.9673303936625127 -0.25351905154589094 -0.0
  outer loop
    vertex 154.45132715887004 14.097826096874812 9.888826000000002
    vertex 145.1143723398775 49.72402509687481 12.438692999999997
    vertex 145.1143723398775 49.72402509687481 9.888826000000002
  endloop
endfacet
facet normal 0.6736145960557489 0.7390827937252025 7.752720530261076e-17
  outer loop
    vertex 64.02998062044259 49.72402509687481 9.888826000000002
    vertex 80.8045037101871 34.43539479583256 0.0
    vertex 64.02998062044259 49.72402509687481 0.0
  endloop
endfacet
facet normal 0.6736145960557489 0.7390827937252025 7.752720530261076e-17
  outer loop
    vertex 80.8045037101871 34.43539479583256 0.0
    vertex 64.02998062044259 49.72402509687481 9.888826000000002
    vertex 80.8045037101871 34.43539479583256 9.888826
  endloop
endfacet
facet normal 0.6251553300424703 -0.7805003608708263 -3.555785706126555e-18
  outer loop
    vertex 21.209153269872733 22.08812968846558 9.888826
    vertex 16.07061618535213 17.972329096874812 0.0
    vertex 21.209153269872733 22.08812968846558 -6.525872936806326e-16
  endloop
endfacet
facet normal 0.6251553300424703 -0.7805003608708263 -3.555785706126555e-18
  outer loop
    vertex 16.07061618535213 17.972329096874812 0.0
    vertex 21.209153269872733 22.08812968846558 9.888826
    vertex 16.07061618535213 17.972329096874812 9.888826
  endloop
endfacet
facet normal -1.0 0.0 0.0
  outer loop
    vertex 8.541975131188414 23.553706537491436 9.888826000000002
    vertex 8.541975131188414 18.825766317183124 0.0
    vertex 8.541975131188414 18.825766317183124 9.888826000000002
  endloop
endfacet
facet normal -1.0 0.0 0.0
  outer loop
    vertex 8.541975131188414 18.825766317183124 0.0
    vertex 8.541975131188414 23.553706537491436 9.888826000000002
    vertex 8.541975131188414 23.553706537491436 5.078295000000003
  endloop
endfacet
facet normal -1.0 0.0 0.0
  outer loop
    vertex 8.541975131188414 18.825766317183124 0.0
    vertex 8.541975131188414 23.553706537491436 5.078295000000003
    vertex 8.541975131188414 45.423535982725504 2.8199664825478975e-15
  endloop
endfacet
facet normal -1.0 0.0 0.0
  outer loop
    vertex 8.541975131188414 45.423535982725504 2.8199664825478975e-15
    vertex 8.541975131188414 23.553706537491436 5.078295000000003
    vertex 8.541975131188414 45.423535982725504 5.078295000000003
  endloop
endfacet
facet normal -0.11263733803720281 -0.9936361658473855 -2.048687293740999e-18
  outer loop
    vertex 16.07061618535213 17.972329096874812 9.888826
    vertex 8.541975131188414 18.825766317183124 0.0
    vertex 16.07061618535213 17.972329096874812 0.0
  endloop
endfacet
facet normal -0.11263733803720281 -0.9936361658473855 -2.048687293740999e-18
  outer loop
    vertex 8.541975131188414 18.825766317183124 0.0
    vertex 16.07061618535213 17.972329096874812 9.888826
    vertex 8.541975131188414 18.825766317183124 9.888826000000002
  endloop
endfacet
facet normal 0.1157419441462715 -0.993279317395284 -7.129778952968601e-18
  outer loop
    vertex 101.4683681352569 20.38673409687481 9.888826000000002
    vertex 79.51635703359719 17.828774418937098 1.0574874309554616e-14
    vertex 101.4683681352569 20.38673409687481 0.0
  endloop
endfacet
facet normal 0.1157419441462715 -0.993279317395284 -7.129778952968601e-18
  outer loop
    vertex 79.51635703359719 17.828774418937098 1.0574874309554616e-14
    vertex 101.4683681352569 20.38673409687481 9.888826000000002
    vertex 79.51635703359719 17.828774418937098 9.88882600000001
  endloop
endfacet
facet normal -0.3214126444145639 -0.9469392335363644 0.0
  outer loop
    vertex 119.9966178005674 14.097826096874812 6.435196999999996
    vertex 101.4683681352569 20.38673409687481 0.0
    vertex 119.9966178005674 14.097826096874812 0.0
  endloop
endfacet
facet normal -0.3214126444145639 -0.9469392335363644 0.0
  outer loop
    vertex 101.4683681352569 20.38673409687481 0.0
    vertex 119.9966178005674 14.097826096874812 6.435196999999996
    vertex 107.06914164245032 18.485704590481525 6.435196999999996
  endloop
endfacet
facet normal -0.3214126444145639 -0.9469392335363644 0.0
  outer loop
    vertex 101.4683681352569 20.38673409687481 0.0
    vertex 107.06914164245032 18.485704590481525 6.435196999999996
    vertex 101.4683681352569 20.38673409687481 9.888826000000002
  endloop
endfacet
facet normal -0.3214126444145639 -0.9469392335363644 0.0
  outer loop
    vertex 101.4683681352569 20.38673409687481 9.888826000000002
    vertex 107.06914164245032 18.485704590481525 6.435196999999996
    vertex 107.06914164245032 18.485704590481525 9.888826
  endloop
endfacet
facet normal -0.00790368924517784 -0.9999687653603565 -3.9716129385448095e-19
  outer loop
    vertex 63.65221124405182 23.593699274410923 0.0
    vertex 57.965656493661044 23.638645439910984 2.528943999999998
    vertex 57.965656493661044 23.638645439910984 -2.1254816538853124e-15
  endloop
endfacet
facet normal -0.00790368924517784 -0.9999687653603565 -3.9716129385448095e-19
  outer loop
    vertex 57.965656493661044 23.638645439910984 2.528943999999998
    vertex 63.65221124405182 23.593699274410923 0.0
    vertex 63.65221124405182 23.593699274410923 9.888826
  endloop
endfacet
facet normal -0.00790368924517784 -0.9999687653603565 -3.9716129385448095e-19
  outer loop
    vertex 57.965656493661044 23.638645439910984 2.528943999999998
    vertex 63.65221124405182 23.593699274410923 9.888826
    vertex 33.4738396397382 23.832227195830587 9.888825999999987
  endloop
endfacet
facet normal -0.00790368924517784 -0.9999687653603565 -3.9716129385448095e-19
  outer loop
    vertex 34.681325153756994 23.822683307459815 -1.0828540229475728e-14
    vertex 33.4738396397382 23.832227195830587 9.888825999999987
    vertex 33.4738396397382 23.832227195830587 -1.127986593019159e-14
  endloop
endfacet
facet normal -0.00790368924517784 -0.9999687653603565 -3.9716129385448095e-19
  outer loop
    vertex 33.4738396397382 23.832227195830587 9.888825999999987
    vertex 34.681325153756994 23.822683307459815 -1.0828540229475728e-14
    vertex 34.681325153756994 23.822683307459815 2.528943999999989
  endloop
endfacet
facet normal -0.00790368924517784 -0.9999687653603565 -3.9716129385448095e-19
  outer loop
    vertex 33.4738396397382 23.832227195830587 9.888825999999987
    vertex 34.681325153756994 23.822683307459815 2.528943999999989
    vertex 57.965656493661044 23.638645439910984 2.528943999999998
  endloop
endfacet
facet normal -0.0 1.0 -0.0
  outer loop
    vertex 11.678985962586047 49.72402509687481 2.8199664825478975e-15
    vertex 64.02998062044259 49.72402509687481 9.888826000000002
    vertex 64.02998062044259 49.72402509687481 0.0
  endloop
endfacet
facet normal -0.0 1.0 -0.0
  outer loop
    vertex 64.02998062044259 49.72402509687481 9.888826000000002
    vertex 11.678985962586047 49.72402509687481 2.8199664825478975e-15
    vertex 36.45503177551628 49.72402509687481 5.078295000000003
  endloop
endfacet
facet normal -0.0 1.0 -0.0
  outer loop
    vertex 36.45503177551628 49.72402509687481 5.078295000000003
    vertex 11.678985962586047 49.72402509687481 2.8199664825478975e-15
    vertex 11.678985962586047 49.72402509687481 5.078295000000003
  endloop
endfacet
facet normal -0.0 1.0 -0.0
  outer loop
    vertex 64.02998062044259 49.72402509687481 9.888826000000002
    vertex 36.45503177551628 49.72402509687481 5.078295000000003
    vertex 36.45503177551628 49.72402509687481 9.888826000000002
  endloop
endfacet
facet normal -0.9949454547562198 0.10041684151545167 9.592672792886442e-18
  outer loop
    vertex 29.59660203108418 41.87237348527046 9.888826000000002
    vertex 28.49046516129783 30.91259986240805 5.078295000000001
    vertex 28.49046516129783 30.91259986240805 9.888826
  endloop
endfacet
facet normal -0.9949454547562198 0.10041684151545167 9.592672792886442e-18
  outer loop
    vertex 28.49046516129783 30.91259986240805 5.078295000000001
    vertex 29.59660203108418 41.87237348527046 9.888826000000002
    vertex 29.59660203108418 41.87237348527046 5.078295000000003
  endloop
endfacet
facet normal -0.7531357029999729 0.6578651935364392 5.480631731096887e-17
  outer loop
    vertex 36.45503177551628 49.72402509687481 9.888826000000002
    vertex 29.59660203108418 41.87237348527046 5.078295000000003
    vertex 29.59660203108418 41.87237348527046 9.888826000000002
  endloop
endfacet
facet normal -0.7531357029999729 0.6578651935364392 5.480631731096887e-17
  outer loop
    vertex 29.59660203108418 41.87237348527046 5.078295000000003
    vertex 36.45503177551628 49.72402509687481 9.888826000000002
    vertex 36.45503177551628 49.72402509687481 5.078295000000003
  endloop
endfacet
facet normal 3.985949341209462e-17 -5.565985304476241e-17 1.0
  outer loop
    vertex 28.49046516129783 30.91259986240805 5.078295000000001
    vertex 8.541975131188414 45.423535982725504 5.078295000000003
    vertex 8.541975131188414 23.553706537491436 5.078295000000003
  endloop
endfacet
facet normal 3.985949341209462e-17 -5.565985304476241e-17 1.0
  outer loop
    vertex 8.541975131188414 45.423535982725504 5.078295000000003
    vertex 28.49046516129783 30.91259986240805 5.078295000000001
    vertex 11.678985962586047 49.72402509687481 5.078295000000003
  endloop
endfacet
facet normal 3.985949341209462e-17 -5.565985304476241e-17 1.0
  outer loop
    vertex 11.678985962586047 49.72402509687481 5.078295000000003
    vertex 28.49046516129783 30.91259986240805 5.078295000000001
    vertex 29.59660203108418 41.87237348527046 5.078295000000003
  endloop
endfacet
facet normal 3.985949341209462e-17 -5.565985304476241e-17 1.0
  outer loop
    vertex 11.678985962586047 49.72402509687481 5.078295000000003
    vertex 29.59660203108418 41.87237348527046 5.078295000000003
    vertex 36.45503177551628 49.72402509687481 5.078295000000003
  endloop
endfacet
facet normal -0.8078968414637956 0.5893239292212923 0.0
  outer loop
    vertex 11.678985962586047 49.72402509687481 5.078295000000003
    vertex 8.541975131188414 45.423535982725504 2.8199664825478975e-15
    vertex 8.541975131188414 45.423535982725504 5.078295000000003
  endloop
endfacet
facet normal -0.8078968414637956 0.5893239292212923 0.0
  outer loop
    vertex 8.541975131188414 45.423535982725504 2.8199664825478975e-15
    vertex 11.678985962586047 49.72402509687481 5.078295000000003
    vertex 11.678985962586047 49.72402509687481 2.8199664825478975e-15
  endloop
endfacet
facet normal -0.009520635721617229 0.9999546777206736 -0.0
  outer loop
    vertex 37.612329989525264 29.70422389707335 9.888826
    vertex 44.38183376825212 29.768676797719085 2.5289440000000005
    vertex 37.612329989525264 29.70422389707335 2.5289440000000005
  endloop
endfacet
facet normal -0.009520635721617229 0.9999546777206736 -0.0
  outer loop
    vertex 44.38183376825212 29.768676797719085 2.5289440000000005
    vertex 37.612329989525264 29.70422389707335 9.888826
    vertex 44.38183376825212 29.768676797719085 9.888826
  endloop
endfacet
facet normal -0.970844456922272 0.2397103261507496 -0.0
  outer loop
    vertex 48.409042756337456 46.079169490017186 9.888826
    vertex 44.38183376825212 29.768676797719085 2.5289440000000005
    vertex 44.38183376825212 29.768676797719085 9.888826
  endloop
endfacet
facet normal -0.970844456922272 0.2397103261507496 -0.0
  outer loop
    vertex 44.38183376825212 29.768676797719085 2.5289440000000005
    vertex 48.409042756337456 46.079169490017186 9.888826
    vertex 48.409042756337456 46.079169490017186 2.5289440000000005
  endloop
endfacet
facet normal -0.0 -1.0 -0.0
  outer loop
    vertex 48.409042756337456 46.079169490017186 9.888826
    vertex 42.31905875633745 46.079169490017186 2.5289440000000005
    vertex 48.409042756337456 46.079169490017186 2.5289440000000005
  endloop
endfacet
facet normal -0.0 -1.0 -0.0
  outer loop
    vertex 42.31905875633745 46.079169490017186 2.5289440000000005
    vertex 48.409042756337456 46.079169490017186 9.888826
    vertex 42.31905875633745 46.079169490017186 9.888826
  endloop
endfacet
facet normal 0.6619927345617133 -0.7495102530236027 -0.0
  outer loop
    vertex 42.31905875633745 46.079169490017186 9.888826
    vertex 39.96569437293136 44.00059869354527 2.5289440000000005
    vertex 42.31905875633745 46.079169490017186 2.5289440000000005
  endloop
endfacet
facet normal 0.6619927345617133 -0.7495102530236027 -0.0
  outer loop
    vertex 39.96569437293136 44.00059869354527 2.5289440000000005
    vertex 37.612329989525264 41.92202789707335 7.049916206369744e-16
    vertex 39.96569437293136 44.00059869354527 7.049916206369744e-16
  endloop
endfacet
facet normal 0.6619927345617133 -0.7495102530236027 -0.0
  outer loop
    vertex 37.612329989525264 41.92202789707335 7.049916206369744e-16
    vertex 39.96569437293136 44.00059869354527 2.5289440000000005
    vertex 37.612329989525264 41.92202789707335 9.888826
  endloop
endfacet
facet normal 0.6619927345617133 -0.7495102530236027 -0.0
  outer loop
    vertex 37.612329989525264 41.92202789707335 9.888826
    vertex 39.96569437293136 44.00059869354527 2.5289440000000005
    vertex 42.31905875633745 46.079169490017186 9.888826
  endloop
endfacet
facet normal 1.0 0.0 0.0
  outer loop
    vertex 37.612329989525264 41.92202789707335 7.049916206369744e-16
    vertex 37.612329989525264 37.067280501922596 2.5289440000000005
    vertex 37.612329989525264 37.067280501922596 7.049916206369744e-16
  endloop
endfacet
facet normal 1.0 0.0 0.0
  outer loop
    vertex 37.612329989525264 37.067280501922596 2.5289440000000005
    vertex 37.612329989525264 29.70422389707335 9.888826
    vertex 37.612329989525264 29.70422389707335 2.5289440000000005
  endloop
endfacet
facet normal 1.0 0.0 0.0
  outer loop
    vertex 37.612329989525264 29.70422389707335 9.888826
    vertex 37.612329989525264 37.067280501922596 2.5289440000000005
    vertex 37.612329989525264 41.92202789707335 9.888826
  endloop
endfacet
facet normal 1.0 0.0 0.0
  outer loop
    vertex 37.612329989525264 41.92202789707335 9.888826
    vertex 37.612329989525264 37.067280501922596 2.5289440000000005
    vertex 37.612329989525264 41.92202789707335 7.049916206369744e-16
  endloop
endfacet
facet normal -0.0 1.0 -0.0
  outer loop
    vertex 51.514386823200624 29.449716562115935 9.888826
    vertex 56.32159111608467 29.449716562115935 2.5289439999999828
    vertex 51.514386823200624 29.449716562115935 2.5289439999999828
  endloop
endfacet
facet normal -0.0 1.0 -0.0
  outer loop
    vertex 56.32159111608467 29.449716562115935 2.5289439999999828
    vertex 57.965656493661044 29.449716562115935 -1.6919798895287383e-14
    vertex 56.32159111608467 29.449716562115935 -1.6919798895287383e-14
  endloop
endfacet
facet normal -0.0 1.0 -0.0
  outer loop
    vertex 57.965656493661044 29.449716562115935 -1.6919798895287383e-14
    vertex 56.32159111608467 29.449716562115935 2.5289439999999828
    vertex 57.965656493661044 29.449716562115935 9.888826
  endloop
endfacet
facet normal -0.0 1.0 -0.0
  outer loop
    vertex 57.965656493661044 29.449716562115935 9.888826
    vertex 56.32159111608467 29.449716562115935 2.5289439999999828
    vertex 51.514386823200624 29.449716562115935 9.888826
  endloop
endfacet
facet normal -0.6206481114540879 0.7840892307310912 -0.0
  outer loop
    vertex 57.965656493661044 29.449716562115935 9.888826
    vertex 68.99883151177228 38.18305834255116 -1.6919798895287383e-14
    vertex 57.965656493661044 29.449716562115935 -1.6919798895287383e-14
  endloop
endfacet
facet normal -0.6206481114540879 0.7840892307310912 -0.0
  outer loop
    vertex 68.99883151177228 38.18305834255116 -1.6919798895287383e-14
    vertex 57.965656493661044 29.449716562115935 9.888826
    vertex 68.99883151177228 38.18305834255116 9.888826
  endloop
endfacet
facet normal -0.7840892307310912 -0.6206481114540878 -0.0
  outer loop
    vertex 63.29709185322333 45.386290867059245 9.888826
    vertex 68.99883151177228 38.18305834255116 -1.6919798895287383e-14
    vertex 68.99883151177228 38.18305834255116 9.888826
  endloop
endfacet
facet normal -0.7840892307310912 -0.6206481114540878 -0.0
  outer loop
    vertex 68.99883151177228 38.18305834255116 -1.6919798895287383e-14
    vertex 63.29709185322333 45.386290867059245 9.888826
    vertex 63.29709185322333 45.386290867059245 -1.6919798895287383e-14
  endloop
endfacet
facet normal -0.0 -1.0 -0.0
  outer loop
    vertex 63.29709185322333 45.386290867059245 9.888826
    vertex 58.179589171736154 45.386290867059245 -1.6919798895287383e-14
    vertex 63.29709185322333 45.386290867059245 -1.6919798895287383e-14
  endloop
endfacet
facet normal -0.0 -1.0 -0.0
  outer loop
    vertex 58.179589171736154 45.386290867059245 -1.6919798895287383e-14
    vertex 63.29709185322333 45.386290867059245 9.888826
    vertex 58.179589171736154 45.386290867059245 2.5289439999999828
  endloop
endfacet
facet normal -0.0 -1.0 -0.0
  outer loop
    vertex 58.179589171736154 45.386290867059245 2.5289439999999828
    vertex 63.29709185322333 45.386290867059245 9.888826
    vertex 55.10867685322333 45.386290867059245 2.5289439999999828
  endloop
endfacet
facet normal -0.0 -1.0 -0.0
  outer loop
    vertex 55.10867685322333 45.386290867059245 2.5289439999999828
    vertex 63.29709185322333 45.386290867059245 9.888826
    vertex 55.10867685322333 45.386290867059245 9.888826
  endloop
endfacet
facet normal 0.9754974058643616 -0.22001093416442094 -0.0
  outer loop
    vertex 55.10867685322333 45.386290867059245 2.5289439999999828
    vertex 51.514386823200624 29.449716562115935 9.888826
    vertex 51.514386823200624 29.449716562115935 2.5289439999999828
  endloop
endfacet
facet normal 0.9754974058643616 -0.22001093416442094 -0.0
  outer loop
    vertex 51.514386823200624 29.449716562115935 9.888826
    vertex 55.10867685322333 45.386290867059245 2.5289439999999828
    vertex 55.10867685322333 45.386290867059245 9.888826
  endloop
endfacet
facet normal 0.19101256704206704 0.9815875912174113 0.0
  outer loop
    vertex 62.49884286717815 28.10020865522727 9.888826
    vertex 79.41359164773574 24.80867398796561 -7.049916206369744e-16
    vertex 62.49884286717815 28.10020865522727 -7.049916206369744e-16
  endloop
endfacet
facet normal 0.19101256704206704 0.9815875912174113 0.0
  outer loop
    vertex 79.41359164773574 24.80867398796561 -7.049916206369744e-16
    vertex 62.49884286717815 28.10020865522727 9.888826
    vertex 79.41359164773574 24.80867398796561 9.888826
  endloop
endfacet
facet normal -0.7280888460602863 -0.6854827731187711 -0.0
  outer loop
    vertex 70.12047701518473 34.67940068520336 9.888826
    vertex 79.41359164773574 24.80867398796561 -7.049916206369744e-16
    vertex 79.41359164773574 24.80867398796561 9.888826
  endloop
endfacet
facet normal -0.7280888460602863 -0.6854827731187711 -0.0
  outer loop
    vertex 79.41359164773574 24.80867398796561 -7.049916206369744e-16
    vertex 70.12047701518473 34.67940068520336 9.888826
    vertex 70.12047701518473 34.67940068520336 -7.049916206369744e-16
  endloop
endfacet
facet normal 0.6534418845488693 -0.7569766862441816 -0.0
  outer loop
    vertex 70.12047701518473 34.67940068520336 9.888826
    vertex 62.49884286717815 28.10020865522727 -7.049916206369744e-16
    vertex 70.12047701518473 34.67940068520336 -7.049916206369744e-16
  endloop
endfacet
facet normal 0.6534418845488693 -0.7569766862441816 -0.0
  outer loop
    vertex 62.49884286717815 28.10020865522727 -7.049916206369744e-16
    vertex 70.12047701518473 34.67940068520336 9.888826
    vertex 62.49884286717815 28.10020865522727 9.888826
  endloop
endfacet
facet normal -0.2772138935808242 -0.9608082312333506 -0.0
  outer loop
    vertex 102.32048440417738 24.92967575702804 9.888826
    vertex 87.7037687062476 29.146913430757934 0.0
    vertex 102.32048440417738 24.92967575702804 0.0
  endloop
endfacet
facet normal -0.2772138935808242 -0.9608082312333506 -0.0
  outer loop
    vertex 87.7037687062476 29.146913430757934 0.0
    vertex 102.32048440417738 24.92967575702804 9.888826
    vertex 87.7037687062476 29.146913430757934 9.888826
  endloop
endfacet
facet normal 0.797116079321907 0.6038260975533198 0.0
  outer loop
    vertex 87.7037687062476 29.146913430757934 0.0
    vertex 93.02405086431112 22.1235627145405 9.888826
    vertex 93.02405086431112 22.1235627145405 0.0
  endloop
endfacet
facet normal 0.797116079321907 0.6038260975533198 0.0
  outer loop
    vertex 93.02405086431112 22.1235627145405 9.888826
    vertex 87.7037687062476 29.146913430757934 0.0
    vertex 87.7037687062476 29.146913430757934 9.888826
  endloop
endfacet
facet normal -0.28897085543435774 0.9573378947422564 -0.0
  outer loop
    vertex 93.02405086431112 22.1235627145405 9.888826
    vertex 102.32048440417738 24.92967575702804 0.0
    vertex 93.02405086431112 22.1235627145405 0.0
  endloop
endfacet
facet normal -0.28897085543435774 0.9573378947422564 -0.0
  outer loop
    vertex 102.32048440417738 24.92967575702804 0.0
    vertex 93.02405086431112 22.1235627145405 9.888826
    vertex 102.32048440417738 24.92967575702804 9.888826
  endloop
endfacet
facet normal 0.21974833320391565 -0.97555659500313 -0.0
  outer loop
    vertex 111.88545565921191 28.331987241290676 6.435196999999996
    vertex 104.63143356619068 26.697987458878583 2.8199664825478975e-15
    vertex 111.88545565921191 28.331987241290676 2.8199664825478975e-15
  endloop
endfacet
facet normal 0.21974833320391565 -0.97555659500313 -0.0
  outer loop
    vertex 104.63143356619068 26.697987458878583 2.8199664825478975e-15
    vertex 111.88545565921191 28.331987241290676 6.435196999999996
    vertex 104.63143356619068 26.697987458878583 6.435196999999996
  endloop
endfacet
facet normal 0.5806906849251503 0.8141242708832355 0.0
  outer loop
    vertex 104.63143356619068 26.697987458878583 6.435196999999996
    vertex 116.57341950426276 18.180123243600598 2.8199664825478975e-15
    vertex 104.63143356619068 26.697987458878583 2.8199664825478975e-15
  endloop
endfacet
facet normal 0.5806906849251503 0.8141242708832355 0.0
  outer loop
    vertex 116.57341950426276 18.180123243600598 2.8199664825478975e-15
    vertex 104.63143356619068 26.697987458878583 6.435196999999996
    vertex 116.57341950426276 18.180123243600598 6.435196999999996
  endloop
endfacet
facet normal -0.9078747021054425 -0.4192416072826672 -0.0
  outer loop
    vertex 111.88545565921191 28.331987241290676 6.435196999999996
    vertex 116.57341950426276 18.180123243600598 2.8199664825478975e-15
    vertex 116.57341950426276 18.180123243600598 6.435196999999996
  endloop
endfacet
facet normal -0.9078747021054425 -0.4192416072826672 -0.0
  outer loop
    vertex 116.57341950426276 18.180123243600598 2.8199664825478975e-15
    vertex 111.88545565921191 28.331987241290676 6.435196999999996
    vertex 111.88545565921191 28.331987241290676 2.8199664825478975e-15
  endloop
endfacet
facet normal -0.341541317353717 -0.9398667610572722 -2.9733498477678895e-17
  outer loop
    vertex 79.51635703359719 17.828774418937098 1.0574874309554616e-14
    vertex 63.65221124405182 23.593699274410923 9.888826
    vertex 63.65221124405182 23.593699274410923 0.0
  endloop
endfacet
facet normal -0.341541317353717 -0.9398667610572722 -2.9733498477678895e-17
  outer loop
    vertex 63.65221124405182 23.593699274410923 9.888826
    vertex 79.51635703359719 17.828774418937098 1.0574874309554616e-14
    vertex 79.51635703359719 17.828774418937098 9.88882600000001
  endloop
endfacet
facet normal 0.0 0.0 -1.0
  outer loop
    vertex 138.08665478202963 44.156928948765035 3.570687
    vertex 153.46885735663733 14.097826096874812 3.570687
    vertex 132.2823155768435 14.097826096874812 3.570687
  endloop
endfacet
facet normal 0.0 0.0 -1.0
  outer loop
    vertex 153.46885735663733 14.097826096874812 3.570687
    vertex 138.08665478202963 44.156928948765035 3.570687
    vertex 145.44996778202963 44.156928948765035 3.570687
  endloop
endfacet
facet normal 0.9818623398330977 -0.1895952151755803 -0.0
  outer loop
    vertex 138.08665478202963 44.156928948765035 0.0
    vertex 132.2823155768435 14.097826096874812 3.570687
    vertex 132.2823155768435 14.097826096874812 0.0
  endloop
endfacet
facet normal 0.9818623398330977 -0.1895952151755803 -0.0
  outer loop
    vertex 132.2823155768435 14.097826096874812 3.570687
    vertex 138.08665478202963 44.156928948765035 0.0
    vertex 138.08665478202963 44.156928948765035 3.570687
  endloop
endfacet
facet normal 0.0 -1.0 -0.0
  outer loop
    vertex 145.44996778202963 44.156928948765035 3.570687
    vertex 138.08665478202963 44.156928948765035 0.0
    vertex 145.44996778202963 44.156928948765035 0.0
  endloop
endfacet
facet normal 0.0 -1.0 -0.0
  outer loop
    vertex 138.08665478202963 44.156928948765035 0.0
    vertex 145.44996778202963 44.156928948765035 3.570687
    vertex 138.08665478202963 44.156928948765035 3.570687
  endloop
endfacet
facet normal -0.9662098964740884 -0.25775654396257647 -0.0
  outer loop
    vertex 145.44996778202963 44.156928948765035 3.570687
    vertex 153.46885735663733 14.097826096874812 0.0
    vertex 153.46885735663733 14.097826096874812 3.570687
  endloop
endfacet
facet normal -0.9662098964740884 -0.25775654396257647 -0.0
  outer loop
    vertex 153.46885735663733 14.097826096874812 0.0
    vertex 145.44996778202963 44.156928948765035 3.570687
    vertex 145.44996778202963 44.156928948765035 0.0
  endloop
endfacet
facet normal 0.0 0.0 -1.0
  outer loop
    vertex 134.87385423572957 49.72402509687481 3.570687
    vertex 128.90652873967605 19.738899592979433 3.570687
    vertex 116.19772126848238 49.72402509687481 3.570687
  endloop
endfacet
facet normal -0.9807670439088001 0.1951819806805787 -0.0
  outer loop
    vertex 134.87385423572957 49.72402509687481 3.570687
    vertex 128.90652873967605 19.738899592979433 0.0
    vertex 128.90652873967605 19.738899592979433 3.570687
  endloop
endfacet
facet normal -0.9807670439088001 0.1951819806805787 -0.0
  outer loop
    vertex 128.90652873967605 19.738899592979433 0.0
    vertex 134.87385423572957 49.72402509687481 3.570687
    vertex 134.87385423572957 49.72402509687481 0.0
  endloop
endfacet
facet normal 0.9207159140065493 0.39023352712841647 0.0
  outer loop
    vertex 116.19772126848238 49.72402509687481 0.0
    vertex 128.90652873967605 19.738899592979433 3.570687
    vertex 128.90652873967605 19.738899592979433 0.0
  endloop
endfacet
facet normal 0.9207159140065493 0.39023352712841647 0.0
  outer loop
    vertex 128.90652873967605 19.738899592979433 3.570687
    vertex 116.19772126848238 49.72402509687481 0.0
    vertex 116.19772126848238 49.72402509687481 3.570687
  endloop
endfacet
facet normal -0.36491903561714234 0.9310392566612081 -3.7856147904506276e-32
  outer loop
    vertex 102.74957629700796 46.12211477860702 9.888826000000002
    vertex 111.93934054049004 49.72402509687481 7.049916206369744e-16
    vertex 102.74957629700796 46.12211477860702 7.049916206369744e-16
  endloop
endfacet
facet normal -0.36491903561714234 0.9310392566612081 -3.7856147904506276e-32
  outer loop
    vertex 111.93934054049004 49.72402509687481 7.049916206369744e-16
    vertex 102.74957629700796 46.12211477860702 9.888826000000002
    vertex 107.344458418749 47.92306993774092 6.120718000000006
  endloop
endfacet
facet normal -0.36491903561714234 0.9310392566612081 -3.7856147904506276e-32
  outer loop
    vertex 107.344458418749 47.92306993774092 6.120718000000006
    vertex 102.74957629700796 46.12211477860702 9.888826000000002
    vertex 107.344458418749 47.92306993774092 9.888826000000002
  endloop
endfacet
facet normal -0.36491903561714234 0.9310392566612081 -3.7856147904506276e-32
  outer loop
    vertex 111.93934054049004 49.72402509687481 6.120718000000006
    vertex 111.93934054049004 49.72402509687481 7.049916206369744e-16
    vertex 107.344458418749 47.92306993774092 6.120718000000006
  endloop
endfacet
facet normal 0.0 -1.0 0.0
  outer loop
    vertex 157.05311713118843 14.097826096874812 12.438692999999997
    vertex 153.46885735663733 14.097826096874812 0.0
    vertex 157.05311713118843 14.097826096874812 0.0
  endloop
endfacet
facet normal 0.0 -1.0 0.0
  outer loop
    vertex 153.46885735663733 14.097826096874812 0.0
    vertex 157.05311713118843 14.097826096874812 12.438692999999997
    vertex 153.46885735663733 14.097826096874812 3.570687
  endloop
endfacet
facet normal 0.0 -1.0 0.0
  outer loop
    vertex 153.46885735663733 14.097826096874812 3.570687
    vertex 157.05311713118843 14.097826096874812 12.438692999999997
    vertex 154.45132715887004 14.097826096874812 9.888826000000002
  endloop
endfacet
facet normal 0.0 -1.0 0.0
  outer loop
    vertex 153.46885735663733 14.097826096874812 3.570687
    vertex 154.45132715887004 14.097826096874812 9.888826000000002
    vertex 146.56864036635767 14.097826096874812 7.5964730000000005
  endloop
endfacet
facet normal 0.0 -1.0 0.0
  outer loop
    vertex 153.46885735663733 14.097826096874812 3.570687
    vertex 146.56864036635767 14.097826096874812 7.5964730000000005
    vertex 132.2823155768435 14.097826096874812 3.570687
  endloop
endfacet
facet normal 0.0 -1.0 0.0
  outer loop
    vertex 132.2823155768435 14.097826096874812 3.570687
    vertex 146.56864036635767 14.097826096874812 7.5964730000000005
    vertex 122.75637611634137 14.097826096874812 6.435196999999996
  endloop
endfacet
facet normal 0.0 -1.0 0.0
  outer loop
    vertex 154.45132715887004 14.097826096874812 9.888826000000002
    vertex 157.05311713118843 14.097826096874812 12.438692999999997
    vertex 154.45132715887004 14.097826096874812 12.438692999999997
  endloop
endfacet
facet normal 0.0 -1.0 0.0
  outer loop
    vertex 146.56864036635767 14.097826096874812 9.888826000000002
    vertex 146.56864036635767 14.097826096874812 7.5964730000000005
    vertex 154.45132715887004 14.097826096874812 9.888826000000002
  endloop
endfacet
facet normal 0.0 -1.0 0.0
  outer loop
    vertex 122.75637611634137 14.097826096874812 6.435196999999996
    vertex 137.7918747118008 14.097826096874812 7.5964730000000005
    vertex 122.75637611634137 14.097826096874812 9.888826000000002
  endloop
endfacet
facet normal 0.0 -1.0 0.0
  outer loop
    vertex 137.7918747118008 14.097826096874812 7.5964730000000005
    vertex 122.75637611634137 14.097826096874812 6.435196999999996
    vertex 146.56864036635767 14.097826096874812 7.5964730000000005
  endloop
endfacet
facet normal 0.0 -1.0 0.0
  outer loop
    vertex 122.75637611634137 14.097826096874812 9.888826000000002
    vertex 137.7918747118008 14.097826096874812 7.5964730000000005
    vertex 137.7918747118008 14.097826096874812 9.888826000000002
  endloop
endfacet
facet normal 0.0 -1.0 0.0
  outer loop
    vertex 132.2823155768435 14.097826096874812 3.570687
    vertex 119.9966178005674 14.097826096874812 0.0
    vertex 132.2823155768435 14.097826096874812 0.0
  endloop
endfacet
facet normal 0.0 -1.0 0.0
  outer loop
    vertex 119.9966178005674 14.097826096874812 0.0
    vertex 132.2823155768435 14.097826096874812 3.570687
    vertex 119.9966178005674 14.097826096874812 6.435196999999996
  endloop
endfacet
facet normal 0.0 -1.0 0.0
  outer loop
    vertex 119.9966178005674 14.097826096874812 6.435196999999996
    vertex 132.2823155768435 14.097826096874812 3.570687
    vertex 122.75637611634137 14.097826096874812 6.435196999999996
  endloop
endfacet
facet normal 0.9735665576310916 0.22840349792055897 -2.9186948985206476e-16
  outer loop
    vertex 131.63351639834315 40.34773802237912 7.5964730000000005
    vertex 137.7918747118008 14.097826096874812 9.888826000000002
    vertex 137.7918747118008 14.097826096874812 7.5964730000000005
  endloop
endfacet
facet normal 0.9735665576310916 0.22840349792055897 -2.9186948985206476e-16
  outer loop
    vertex 137.7918747118008 14.097826096874812 9.888826000000002
    vertex 131.63351639834315 40.34773802237912 7.5964730000000005
    vertex 131.63351639834315 40.347738022379126 9.888826000000002
  endloop
endfacet
facet normal -1.2212353342388688e-32 1.0 9.077486160847522e-32
  outer loop
    vertex 111.93934054049004 49.72402509687481 7.049916206369744e-16
    vertex 116.19772126848238 49.72402509687481 3.570687
    vertex 116.19772126848238 49.72402509687481 0.0
  endloop
endfacet
facet normal -1.2212353342388688e-32 1.0 9.077486160847522e-32
  outer loop
    vertex 116.19772126848238 49.72402509687481 3.570687
    vertex 111.93934054049004 49.72402509687481 7.049916206369744e-16
    vertex 111.93934054049004 49.72402509687481 6.120718000000006
  endloop
endfacet
facet normal -1.2212353342388688e-32 1.0 9.077486160847522e-32
  outer loop
    vertex 116.19772126848238 49.72402509687481 3.570687
    vertex 111.93934054049004 49.72402509687481 6.120718000000006
    vertex 134.87385423572957 49.72402509687481 3.570687
  endloop
endfacet
facet normal -1.2212353342388688e-32 1.0 9.077486160847522e-32
  outer loop
    vertex 118.9086429618198 49.72402509687481 6.120718000000006
    vertex 127.87143135418393 49.72402509687481 7.603783000000003
    vertex 129.43379338142577 49.72402509687481 7.5964730000000005
  endloop
endfacet
facet normal -1.2212353342388688e-32 1.0 9.077486160847522e-32
  outer loop
    vertex 127.87143135418393 49.72402509687481 7.603783000000003
    vertex 118.9086429618198 49.72402509687481 6.120718000000006
    vertex 118.9086429618198 49.72402509687481 9.888826000000002
  endloop
endfacet
facet normal -1.2212353342388688e-32 1.0 9.077486160847522e-32
  outer loop
    vertex 127.87143135418393 49.72402509687481 7.603783000000003
    vertex 118.9086429618198 49.72402509687481 9.888826000000002
    vertex 127.87143135418393 49.72402509687481 9.888826000000002
  endloop
endfacet
facet normal -1.2212353342388688e-32 1.0 9.077486160847522e-32
  outer loop
    vertex 134.87385423572957 49.72402509687481 3.570687
    vertex 147.58685492540712 49.72402509687481 0.0
    vertex 134.87385423572957 49.72402509687481 0.0
  endloop
endfacet
facet normal -1.2212353342388688e-32 1.0 9.077486160847522e-32
  outer loop
    vertex 147.58685492540712 49.72402509687481 0.0
    vertex 134.87385423572957 49.72402509687481 3.570687
    vertex 145.1143723398775 49.72402509687481 9.888826000000002
  endloop
endfacet
facet normal -1.2212353342388688e-32 1.0 9.077486160847522e-32
  outer loop
    vertex 147.58685492540712 49.72402509687481 0.0
    vertex 145.1143723398775 49.72402509687481 9.888826000000002
    vertex 147.58685492540712 49.72402509687481 12.438692999999997
  endloop
endfacet
facet normal -1.2212353342388688e-32 1.0 9.077486160847522e-32
  outer loop
    vertex 145.1143723398775 49.72402509687481 9.888826000000002
    vertex 134.87385423572957 49.72402509687481 3.570687
    vertex 141.30142385871991 49.72402509687481 7.5964730000000005
  endloop
endfacet
facet normal -1.2212353342388688e-32 1.0 9.077486160847522e-32
  outer loop
    vertex 141.30142385871991 49.72402509687481 7.5964730000000005
    vertex 134.87385423572957 49.72402509687481 3.570687
    vertex 118.9086429618198 49.72402509687481 6.120718000000006
  endloop
endfacet
facet normal -1.2212353342388688e-32 1.0 9.077486160847522e-32
  outer loop
    vertex 118.9086429618198 49.72402509687481 6.120718000000006
    vertex 134.87385423572957 49.72402509687481 3.570687
    vertex 111.93934054049004 49.72402509687481 6.120718000000006
  endloop
endfacet
facet normal -1.2212353342388688e-32 1.0 9.077486160847522e-32
  outer loop
    vertex 141.30142385871991 49.72402509687481 7.5964730000000005
    vertex 118.9086429618198 49.72402509687481 6.120718000000006
    vertex 129.43379338142577 49.72402509687481 7.5964730000000005
  endloop
endfacet
facet normal -1.2212353342388688e-32 1.0 9.077486160847522e-32
  outer loop
    vertex 145.1143723398775 49.72402509687481 9.888826000000002
    vertex 141.30142385871991 49.72402509687481 7.5964730000000005
    vertex 141.30142385871991 49.72402509687481 9.888826000000002
  endloop
endfacet
facet normal -1.2212353342388688e-32 1.0 9.077486160847522e-32
  outer loop
    vertex 147.58685492540712 49.72402509687481 12.438692999999997
    vertex 145.1143723398775 49.72402509687481 9.888826000000002
    vertex 145.1143723398775 49.72402509687481 12.438692999999997
  endloop
endfacet
facet normal -0.9690211949040125 -0.24697757757901762 -1.0319008698327972e-16
  outer loop
    vertex 139.98141980262562 39.942910514393304 9.888826000000002
    vertex 146.56864036635767 14.097826096874812 7.5964730000000005
    vertex 146.56864036635767 14.097826096874812 9.888826000000002
  endloop
endfacet
facet normal -0.9690211949040125 -0.24697757757901762 -1.0319008698327972e-16
  outer loop
    vertex 146.56864036635767 14.097826096874812 7.5964730000000005
    vertex 139.98141980262562 39.942910514393304 9.888826000000002
    vertex 139.98141980262562 39.942910514393304 7.5964730000000005
  endloop
endfacet
facet normal -0.0 -0.0 1.0
  outer loop
    vertex 146.56864036635767 14.097826096874812 9.888826000000002
    vertex 144.1529228026256 39.942910514393304 9.888826000000002
    vertex 139.98141980262562 39.942910514393304 9.888826000000002
  endloop
endfacet
facet normal -0.0 -0.0 1.0
  outer loop
    vertex 144.1529228026256 39.942910514393304 9.888826000000002
    vertex 146.56864036635767 14.097826096874812 9.888826000000002
    vertex 145.1143723398775 49.72402509687481 9.888826000000002
  endloop
endfacet
facet normal -0.0 -0.0 1.0
  outer loop
    vertex 145.1143723398775 49.72402509687481 9.888826000000002
    vertex 146.56864036635767 14.097826096874812 9.888826000000002
    vertex 154.45132715887004 14.097826096874812 9.888826000000002
  endloop
endfacet
facet normal -0.0 -0.0 1.0
  outer loop
    vertex 145.1143723398775 49.72402509687481 9.888826000000002
    vertex 141.30142385871991 49.72402509687481 9.888826000000002
    vertex 144.1529228026256 39.942910514393304 9.888826000000002
  endloop
endfacet
facet normal -0.0 1.0 -0.0
  outer loop
    vertex 139.98141980262562 39.942910514393304 9.888826000000002
    vertex 144.1529228026256 39.942910514393304 7.601667999999996
    vertex 139.98141980262562 39.942910514393304 7.5964730000000005
  endloop
endfacet
facet normal -0.0 1.0 -0.0
  outer loop
    vertex 144.1529228026256 39.942910514393304 7.601667999999996
    vertex 139.98141980262562 39.942910514393304 9.888826000000002
    vertex 144.1529228026256 39.942910514393304 9.888826000000002
  endloop
endfacet
facet normal -0.9600349804327147 -0.27988003920529453 1.1640077000871615e-17
  outer loop
    vertex 141.30142385871991 49.72402509687481 9.888826000000002
    vertex 144.1529228026256 39.942910514393304 7.601667999999996
    vertex 144.1529228026256 39.942910514393304 9.888826000000002
  endloop
endfacet
facet normal -0.9600349804327147 -0.27988003920529453 1.1640077000871615e-17
  outer loop
    vertex 144.1529228026256 39.942910514393304 7.601667999999996
    vertex 141.30142385871991 49.72402509687481 9.888826000000002
    vertex 141.30142385871991 49.72402509687481 7.5964730000000005
  endloop
endfacet
facet normal 0.9749852977976988 0.22226936153760055 0.0
  outer loop
    vertex 127.87143135418393 49.72402509687481 7.603783000000003
    vertex 130.00896239834316 40.347738022379126 9.888826000000002
    vertex 130.00896239834316 40.347738022379126 7.603783000000003
  endloop
endfacet
facet normal 0.9749852977976988 0.22226936153760055 0.0
  outer loop
    vertex 130.00896239834316 40.347738022379126 9.888826000000002
    vertex 127.87143135418393 49.72402509687481 7.603783000000003
    vertex 127.87143135418393 49.72402509687481 9.888826000000002
  endloop
endfacet
facet normal 1.7330638921123588e-15 1.0 -1.2340914804876251e-15
  outer loop
    vertex 130.00896239834316 40.347738022379126 7.603783000000003
    vertex 131.63351639834315 40.347738022379126 9.888826000000002
    vertex 131.63351639834315 40.34773802237912 7.5964730000000005
  endloop
endfacet
facet normal 1.7330638921123588e-15 1.0 -1.2340914804876251e-15
  outer loop
    vertex 131.63351639834315 40.347738022379126 9.888826000000002
    vertex 130.00896239834316 40.347738022379126 7.603783000000003
    vertex 130.00896239834316 40.347738022379126 9.888826000000002
  endloop
endfacet
facet normal -0.00016949939345879965 -4.7408168953046375e-05 0.9999999845112106
  outer loop
    vertex 146.56864036635767 14.097826096874812 7.5964730000000005
    vertex 139.98141980262562 39.942910514393304 7.5964730000000005
    vertex 137.7918747118008 14.097826096874812 7.5964730000000005
  endloop
endfacet
facet normal -0.00016949939345879965 -4.7408168953046375e-05 0.9999999845112106
  outer loop
    vertex 131.63351639834315 40.34773802237912 7.5964730000000005
    vertex 141.30142385871991 49.72402509687481 7.5964730000000005
    vertex 129.43379338142577 49.72402509687481 7.5964730000000005
  endloop
endfacet
facet normal -0.00016949939345879965 -4.7408168953046375e-05 0.9999999845112106
  outer loop
    vertex 141.30142385871991 49.72402509687481 7.5964730000000005
    vertex 131.63351639834315 40.34773802237912 7.5964730000000005
    vertex 139.98141980262562 39.942910514393304 7.5964730000000005
  endloop
endfacet
facet normal -0.00016949939345879965 -4.7408168953046375e-05 0.9999999845112106
  outer loop
    vertex 139.98141980262562 39.942910514393304 7.5964730000000005
    vertex 131.63351639834315 40.34773802237912 7.5964730000000005
    vertex 137.7918747118008 14.097826096874812 7.5964730000000005
  endloop
endfacet
facet normal -0.00016949939345879965 -4.7408168953046375e-05 0.9999999845112106
  outer loop
    vertex 141.30142385871991 49.72402509687481 7.5964730000000005
    vertex 139.98141980262562 39.942910514393304 7.5964730000000005
    vertex 144.1529228026256 39.942910514393304 7.601667999999996
  endloop
endfacet
facet normal 0.004585709954489006 0.001060621809304866 0.9999889231114468
  outer loop
    vertex 130.00896239834316 40.347738022379126 7.603783000000003
    vertex 129.43379338142577 49.72402509687481 7.5964730000000005
    vertex 127.87143135418393 49.72402509687481 7.603783000000003
  endloop
endfacet
facet normal 0.004585709954489006 0.001060621809304866 0.9999889231114468
  outer loop
    vertex 129.43379338142577 49.72402509687481 7.5964730000000005
    vertex 130.00896239834316 40.347738022379126 7.603783000000003
    vertex 131.63351639834315 40.34773802237912 7.5964730000000005
  endloop
endfacet
facet normal 9.8027787125087e-18 -6.573493359381227e-17 1.0
  outer loop
    vertex 124.04811882427839 29.4102883783957 6.120718000000004
    vertex 111.93934054049004 49.72402509687481 6.120718000000006
    vertex 107.344458418749 47.92306993774092 6.120718000000006
  endloop
endfacet
facet normal 9.8027787125087e-18 -6.573493359381227e-17 1.0
  outer loop
    vertex 111.93934054049004 49.72402509687481 6.120718000000006
    vertex 124.04811882427839 29.4102883783957 6.120718000000004
    vertex 118.9086429618198 49.72402509687481 6.120718000000006
  endloop
endfacet
facet normal 0.7424528790123303 0.6698982926133655 3.6757618502124936e-17
  outer loop
    vertex 107.344458418749 47.92306993774092 6.120718000000006
    vertex 124.04811882427839 29.4102883783957 9.888826
    vertex 124.04811882427839 29.4102883783957 6.120718000000004
  endloop
endfacet
facet normal 0.7424528790123303 0.6698982926133655 3.6757618502124936e-17
  outer loop
    vertex 124.04811882427839 29.4102883783957 9.888826
    vertex 107.344458418749 47.92306993774092 6.120718000000006
    vertex 107.344458418749 47.92306993774092 9.888826000000002
  endloop
endfacet
facet normal -0.9694531776289033 -0.24527644890046454 -6.619896108163595e-18
  outer loop
    vertex 118.9086429618198 49.72402509687481 9.888826000000002
    vertex 124.04811882427839 29.4102883783957 6.120718000000004
    vertex 124.04811882427839 29.4102883783957 9.888826
  endloop
endfacet
facet normal -0.9694531776289033 -0.24527644890046454 -6.619896108163595e-18
  outer loop
    vertex 124.04811882427839 29.4102883783957 6.120718000000004
    vertex 118.9086429618198 49.72402509687481 9.888826000000002
    vertex 118.9086429618198 49.72402509687481 6.120718000000006
  endloop
endfacet
facet normal -1.334789921556515e-17 -3.769065586107458e-18 1.0
  outer loop
    vertex 36.45503177551628 49.72402509687481 9.888826000000002
    vertex 42.31905875633745 46.079169490017186 9.888826
    vertex 64.02998062044259 49.72402509687481 9.888826000000002
  endloop
endfacet
facet normal -1.334789921556515e-17 -3.769065586107458e-18 1.0
  outer loop
    vertex 42.31905875633745 46.079169490017186 9.888826
    vertex 36.45503177551628 49.72402509687481 9.888826000000002
    vertex 37.612329989525264 41.92202789707335 9.888826
  endloop
endfacet
facet normal -1.334789921556515e-17 -3.769065586107458e-18 1.0
  outer loop
    vertex 37.612329989525264 41.92202789707335 9.888826
    vertex 36.45503177551628 49.72402509687481 9.888826000000002
    vertex 37.612329989525264 29.70422389707335 9.888826
  endloop
endfacet
facet normal -1.334789921556515e-17 -3.769065586107458e-18 1.0
  outer loop
    vertex 64.02998062044259 49.72402509687481 9.888826000000002
    vertex 42.31905875633745 46.079169490017186 9.888826
    vertex 48.409042756337456 46.079169490017186 9.888826
  endloop
endfacet
facet normal -1.334789921556515e-17 -3.769065586107458e-18 1.0
  outer loop
    vertex 64.02998062044259 49.72402509687481 9.888826000000002
    vertex 48.409042756337456 46.079169490017186 9.888826
    vertex 55.10867685322333 45.386290867059245 9.888826
  endloop
endfacet
facet normal -1.334789921556515e-17 -3.769065586107458e-18 1.0
  outer loop
    vertex 55.10867685322333 45.386290867059245 9.888826
    vertex 48.409042756337456 46.079169490017186 9.888826
    vertex 51.514386823200624 29.449716562115935 9.888826
  endloop
endfacet
facet normal -1.334789921556515e-17 -3.769065586107458e-18 1.0
  outer loop
    vertex 64.02998062044259 49.72402509687481 9.888826000000002
    vertex 55.10867685322333 45.386290867059245 9.888826
    vertex 63.29709185322333 45.386290867059245 9.888826
  endloop
endfacet
facet normal -1.334789921556515e-17 -3.769065586107458e-18 1.0
  outer loop
    vertex 64.02998062044259 49.72402509687481 9.888826000000002
    vertex 63.29709185322333 45.386290867059245 9.888826
    vertex 68.99883151177228 38.18305834255116 9.888826
  endloop
endfacet
facet normal -1.334789921556515e-17 -3.769065586107458e-18 1.0
  outer loop
    vertex 64.02998062044259 49.72402509687481 9.888826000000002
    vertex 68.99883151177228 38.18305834255116 9.888826
    vertex 80.8045037101871 34.43539479583256 9.888826
  endloop
endfacet
facet normal -1.334789921556515e-17 -3.769065586107458e-18 1.0
  outer loop
    vertex 80.8045037101871 34.43539479583256 9.888826
    vertex 68.99883151177228 38.18305834255116 9.888826
    vertex 70.12047701518473 34.67940068520336 9.888826
  endloop
endfacet
facet normal -1.334789921556515e-17 -3.769065586107458e-18 1.0
  outer loop
    vertex 80.8045037101871 34.43539479583256 9.888826
    vertex 70.12047701518473 34.67940068520336 9.888826
    vertex 79.41359164773574 24.80867398796561 9.888826
  endloop
endfacet
facet normal -1.334789921556515e-17 -3.769065586107458e-18 1.0
  outer loop
    vertex 80.8045037101871 34.43539479583256 9.888826
    vertex 79.41359164773574 24.80867398796561 9.888826
    vertex 79.51635703359719 17.828774418937098 9.88882600000001
  endloop
endfacet
facet normal -1.334789921556515e-17 -3.769065586107458e-18 1.0
  outer loop
    vertex 80.8045037101871 34.43539479583256 9.888826
    vertex 79.51635703359719 17.828774418937098 9.88882600000001
    vertex 93.02405086431112 22.1235627145405 9.888826
  endloop
endfacet
facet normal -1.334789921556515e-17 -3.769065586107458e-18 1.0
  outer loop
    vertex 93.02405086431112 22.1235627145405 9.888826
    vertex 79.51635703359719 17.828774418937098 9.88882600000001
    vertex 101.4683681352569 20.38673409687481 9.888826000000002
  endloop
endfacet
facet normal -1.334789921556515e-17 -3.769065586107458e-18 1.0
  outer loop
    vertex 80.8045037101871 34.43539479583256 9.888826
    vertex 93.02405086431112 22.1235627145405 9.888826
    vertex 87.7037687062476 29.146913430757934 9.888826
  endloop
endfacet
facet normal -1.334789921556515e-17 -3.769065586107458e-18 1.0
  outer loop
    vertex 80.8045037101871 34.43539479583256 9.888826
    vertex 87.7037687062476 29.146913430757934 9.888826
    vertex 85.84685144603472 33.38946797412706 9.888826
  endloop
endfacet
facet normal -1.334789921556515e-17 -3.769065586107458e-18 1.0
  outer loop
    vertex 93.02405086431112 22.1235627145405 9.888826
    vertex 101.4683681352569 20.38673409687481 9.888826000000002
    vertex 102.32048440417738 24.92967575702804 9.888826
  endloop
endfacet
facet normal -1.334789921556515e-17 -3.769065586107458e-18 1.0
  outer loop
    vertex 102.32048440417738 24.92967575702804 9.888826
    vertex 101.4683681352569 20.38673409687481 9.888826000000002
    vertex 107.06914164245032 18.485704590481525 9.888826
  endloop
endfacet
facet normal -1.334789921556515e-17 -3.769065586107458e-18 1.0
  outer loop
    vertex 102.32048440417738 24.92967575702804 9.888826
    vertex 102.18844006431888 28.008113461240736 9.888826
    vertex 87.7037687062476 29.146913430757934 9.888826
  endloop
endfacet
facet normal -1.334789921556515e-17 -3.769065586107458e-18 1.0
  outer loop
    vertex 102.18844006431888 28.008113461240736 9.888826
    vertex 102.32048440417738 24.92967575702804 9.888826
    vertex 107.06914164245032 18.485704590481525 9.888826
  endloop
endfacet
facet normal -1.334789921556515e-17 -3.769065586107458e-18 1.0
  outer loop
    vertex 87.7037687062476 29.146913430757934 9.888826
    vertex 102.74957629700796 46.12211477860702 9.888826000000002
    vertex 85.84685144603472 33.38946797412706 9.888826
  endloop
endfacet
facet normal -1.334789921556515e-17 -3.769065586107458e-18 1.0
  outer loop
    vertex 102.74957629700796 46.12211477860702 9.888826000000002
    vertex 87.7037687062476 29.146913430757934 9.888826
    vertex 102.18844006431888 28.008113461240736 9.888826
  endloop
endfacet
facet normal -1.334789921556515e-17 -3.769065586107458e-18 1.0
  outer loop
    vertex 102.74957629700796 46.12211477860702 9.888826000000002
    vertex 102.18844006431888 28.008113461240736 9.888826
    vertex 112.8308429373884 33.46286689628826 9.888826
  endloop
endfacet
facet normal -1.334789921556515e-17 -3.769065586107458e-18 1.0
  outer loop
    vertex 102.74957629700796 46.12211477860702 9.888826000000002
    vertex 112.8308429373884 33.46286689628826 9.888826
    vertex 107.344458418749 47.92306993774092 9.888826000000002
  endloop
endfacet
facet normal -1.334789921556515e-17 -3.769065586107458e-18 1.0
  outer loop
    vertex 107.344458418749 47.92306993774092 9.888826000000002
    vertex 112.8308429373884 33.46286689628826 9.888826
    vertex 124.04811882427839 29.4102883783957 9.888826
  endloop
endfacet
facet normal -1.334789921556515e-17 -3.769065586107458e-18 1.0
  outer loop
    vertex 124.04811882427839 29.4102883783957 9.888826
    vertex 112.8308429373884 33.46286689628826 9.888826
    vertex 122.75637611634137 14.097826096874812 9.888826000000002
  endloop
endfacet
facet normal -1.334789921556515e-17 -3.769065586107458e-18 1.0
  outer loop
    vertex 124.04811882427839 29.4102883783957 9.888826
    vertex 122.75637611634137 14.097826096874812 9.888826000000002
    vertex 137.7918747118008 14.097826096874812 9.888826000000002
  endloop
endfacet
facet normal -1.334789921556515e-17 -3.769065586107458e-18 1.0
  outer loop
    vertex 124.04811882427839 29.4102883783957 9.888826
    vertex 137.7918747118008 14.097826096874812 9.888826000000002
    vertex 130.00896239834316 40.347738022379126 9.888826000000002
  endloop
endfacet
facet normal -1.334789921556515e-17 -3.769065586107458e-18 1.0
  outer loop
    vertex 124.04811882427839 29.4102883783957 9.888826
    vertex 130.00896239834316 40.347738022379126 9.888826000000002
    vertex 127.87143135418393 49.72402509687481 9.888826000000002
  endloop
endfacet
facet normal -1.334789921556515e-17 -3.769065586107458e-18 1.0
  outer loop
    vertex 130.00896239834316 40.347738022379126 9.888826000000002
    vertex 137.7918747118008 14.097826096874812 9.888826000000002
    vertex 131.63351639834315 40.347738022379126 9.888826000000002
  endloop
endfacet
facet normal -1.334789921556515e-17 -3.769065586107458e-18 1.0
  outer loop
    vertex 127.87143135418393 49.72402509687481 9.888826000000002
    vertex 118.9086429618198 49.72402509687481 9.888826000000002
    vertex 124.04811882427839 29.4102883783957 9.888826
  endloop
endfacet
facet normal -1.334789921556515e-17 -3.769065586107458e-18 1.0
  outer loop
    vertex 62.49884286717815 28.10020865522727 9.888826
    vertex 68.99883151177228 38.18305834255116 9.888826
    vertex 57.965656493661044 29.449716562115935 9.888826
  endloop
endfacet
facet normal -1.334789921556515e-17 -3.769065586107458e-18 1.0
  outer loop
    vertex 68.99883151177228 38.18305834255116 9.888826
    vertex 62.49884286717815 28.10020865522727 9.888826
    vertex 70.12047701518473 34.67940068520336 9.888826
  endloop
endfacet
facet normal -1.334789921556515e-17 -3.769065586107458e-18 1.0
  outer loop
    vertex 16.07061618535213 17.972329096874812 9.888826
    vertex 8.541975131188414 23.553706537491436 9.888826000000002
    vertex 8.541975131188414 18.825766317183124 9.888826000000002
  endloop
endfacet
facet normal -1.334789921556515e-17 -3.769065586107458e-18 1.0
  outer loop
    vertex 8.541975131188414 23.553706537491436 9.888826000000002
    vertex 16.07061618535213 17.972329096874812 9.888826
    vertex 28.49046516129783 30.91259986240805 9.888826
  endloop
endfacet
facet normal -1.334789921556515e-17 -3.769065586107458e-18 1.0
  outer loop
    vertex 28.49046516129783 30.91259986240805 9.888826
    vertex 16.07061618535213 17.972329096874812 9.888826
    vertex 21.209153269872733 22.08812968846558 9.888826
  endloop
endfacet
facet normal -1.334789921556515e-17 -3.769065586107458e-18 1.0
  outer loop
    vertex 28.49046516129783 30.91259986240805 9.888826
    vertex 21.209153269872733 22.08812968846558 9.888826
    vertex 33.4738396397382 23.832227195830587 9.888825999999987
  endloop
endfacet
facet normal -1.334789921556515e-17 -3.769065586107458e-18 1.0
  outer loop
    vertex 28.49046516129783 30.91259986240805 9.888826
    vertex 33.4738396397382 23.832227195830587 9.888825999999987
    vertex 29.59660203108418 41.87237348527046 9.888826000000002
  endloop
endfacet
facet normal -1.334789921556515e-17 -3.769065586107458e-18 1.0
  outer loop
    vertex 29.59660203108418 41.87237348527046 9.888826000000002
    vertex 33.4738396397382 23.832227195830587 9.888825999999987
    vertex 36.45503177551628 49.72402509687481 9.888826000000002
  endloop
endfacet
facet normal -1.334789921556515e-17 -3.769065586107458e-18 1.0
  outer loop
    vertex 36.45503177551628 49.72402509687481 9.888826000000002
    vertex 33.4738396397382 23.832227195830587 9.888825999999987
    vertex 37.612329989525264 29.70422389707335 9.888826
  endloop
endfacet
facet normal -1.334789921556515e-17 -3.769065586107458e-18 1.0
  outer loop
    vertex 37.612329989525264 29.70422389707335 9.888826
    vertex 33.4738396397382 23.832227195830587 9.888825999999987
    vertex 63.65221124405182 23.593699274410923 9.888826
  endloop
endfacet
facet normal -1.334789921556515e-17 -3.769065586107458e-18 1.0
  outer loop
    vertex 37.612329989525264 29.70422389707335 9.888826
    vertex 63.65221124405182 23.593699274410923 9.888826
    vertex 44.38183376825212 29.768676797719085 9.888826
  endloop
endfacet
facet normal -1.334789921556515e-17 -3.769065586107458e-18 1.0
  outer loop
    vertex 44.38183376825212 29.768676797719085 9.888826
    vertex 63.65221124405182 23.593699274410923 9.888826
    vertex 51.514386823200624 29.449716562115935 9.888826
  endloop
endfacet
facet normal -1.334789921556515e-17 -3.769065586107458e-18 1.0
  outer loop
    vertex 44.38183376825212 29.768676797719085 9.888826
    vertex 51.514386823200624 29.449716562115935 9.888826
    vertex 48.409042756337456 46.079169490017186 9.888826
  endloop
endfacet
facet normal -1.334789921556515e-17 -3.769065586107458e-18 1.0
  outer loop
    vertex 51.514386823200624 29.449716562115935 9.888826
    vertex 63.65221124405182 23.593699274410923 9.888826
    vertex 57.965656493661044 29.449716562115935 9.888826
  endloop
endfacet
facet normal -1.334789921556515e-17 -3.769065586107458e-18 1.0
  outer loop
    vertex 57.965656493661044 29.449716562115935 9.888826
    vertex 63.65221124405182 23.593699274410923 9.888826
    vertex 62.49884286717815 28.10020865522727 9.888826
  endloop
endfacet
facet normal -1.334789921556515e-17 -3.769065586107458e-18 1.0
  outer loop
    vertex 62.49884286717815 28.10020865522727 9.888826
    vertex 63.65221124405182 23.593699274410923 9.888826
    vertex 79.41359164773574 24.80867398796561 9.888826
  endloop
endfacet
facet normal -1.334789921556515e-17 -3.769065586107458e-18 1.0
  outer loop
    vertex 79.41359164773574 24.80867398796561 9.888826
    vertex 63.65221124405182 23.593699274410923 9.888826
    vertex 79.51635703359719 17.828774418937098 9.88882600000001
  endloop
endfacet
facet normal -5.871638802968015e-17 3.539241590267037e-17 1.0
  outer loop
    vertex 107.06914164245032 18.485704590481525 6.435196999999996
    vertex 104.63143356619068 26.697987458878583 6.435196999999996
    vertex 102.18844006431888 28.008113461240736 6.435196999999996
  endloop
endfacet
facet normal -5.871638802968015e-17 3.539241590267037e-17 1.0
  outer loop
    vertex 104.63143356619068 26.697987458878583 6.435196999999996
    vertex 107.06914164245032 18.485704590481525 6.435196999999996
    vertex 116.57341950426276 18.180123243600598 6.435196999999996
  endloop
endfacet
facet normal -5.871638802968015e-17 3.539241590267037e-17 1.0
  outer loop
    vertex 116.57341950426276 18.180123243600598 6.435196999999996
    vertex 107.06914164245032 18.485704590481525 6.435196999999996
    vertex 119.9966178005674 14.097826096874812 6.435196999999996
  endloop
endfacet
facet normal -5.871638802968015e-17 3.539241590267037e-17 1.0
  outer loop
    vertex 104.63143356619068 26.697987458878583 6.435196999999996
    vertex 112.8308429373884 33.46286689628826 6.435196999999996
    vertex 102.18844006431888 28.008113461240736 6.435196999999996
  endloop
endfacet
facet normal -5.871638802968015e-17 3.539241590267037e-17 1.0
  outer loop
    vertex 112.8308429373884 33.46286689628826 6.435196999999996
    vertex 104.63143356619068 26.697987458878583 6.435196999999996
    vertex 111.88545565921191 28.331987241290676 6.435196999999996
  endloop
endfacet
facet normal -5.871638802968015e-17 3.539241590267037e-17 1.0
  outer loop
    vertex 112.8308429373884 33.46286689628826 6.435196999999996
    vertex 111.88545565921191 28.331987241290676 6.435196999999996
    vertex 116.57341950426276 18.180123243600598 6.435196999999996
  endloop
endfacet
facet normal -5.871638802968015e-17 3.539241590267037e-17 1.0
  outer loop
    vertex 112.8308429373884 33.46286689628826 6.435196999999996
    vertex 116.57341950426276 18.180123243600598 6.435196999999996
    vertex 122.75637611634137 14.097826096874812 6.435196999999996
  endloop
endfacet
facet normal -5.871638802968015e-17 3.539241590267037e-17 1.0
  outer loop
    vertex 122.75637611634137 14.097826096874812 6.435196999999996
    vertex 116.57341950426276 18.180123243600598 6.435196999999996
    vertex 119.9966178005674 14.097826096874812 6.435196999999996
  endloop
endfacet
facet normal -0.8899155342305163 -0.45612535769809487 -3.610924745811384e-17
  outer loop
    vertex 112.8308429373884 33.46286689628826 9.888826
    vertex 122.75637611634137 14.097826096874812 6.435196999999996
    vertex 122.75637611634137 14.097826096874812 9.888826000000002
  endloop
endfacet
facet normal -0.8899155342305163 -0.45612535769809487 -3.610924745811384e-17
  outer loop
    vertex 122.75637611634137 14.097826096874812 6.435196999999996
    vertex 112.8308429373884 33.46286689628826 9.888826
    vertex 112.8308429373884 33.46286689628826 6.435196999999996
  endloop
endfacet
facet normal 0.4561253576980947 -0.8899155342305164 5.827829419851152e-17
  outer loop
    vertex 112.8308429373884 33.46286689628826 9.888826
    vertex 102.18844006431888 28.008113461240736 6.435196999999996
    vertex 112.8308429373884 33.46286689628826 6.435196999999996
  endloop
endfacet
facet normal 0.4561253576980947 -0.8899155342305164 5.827829419851152e-17
  outer loop
    vertex 102.18844006431888 28.008113461240736 6.435196999999996
    vertex 112.8308429373884 33.46286689628826 9.888826
    vertex 102.18844006431888 28.008113461240736 9.888826
  endloop
endfacet
facet normal 0.8899155342305161 0.45612535769809526 3.610924745811381e-17
  outer loop
    vertex 102.18844006431888 28.008113461240736 6.435196999999996
    vertex 107.06914164245032 18.485704590481525 9.888826
    vertex 107.06914164245032 18.485704590481525 6.435196999999996
  endloop
endfacet
facet normal 0.8899155342305161 0.45612535769809526 3.610924745811381e-17
  outer loop
    vertex 107.06914164245032 18.485704590481525 9.888826
    vertex 102.18844006431888 28.008113461240736 6.435196999999996
    vertex 102.18844006431888 28.008113461240736 9.888826
  endloop
endfacet
facet normal 0.203105093888985 0.9791569439248984 -0.0
  outer loop
    vertex 80.8045037101871 34.43539479583256 9.888826
    vertex 85.84685144603472 33.38946797412706 3.948758807019678e-17
    vertex 80.8045037101871 34.43539479583256 0.0
  endloop
endfacet
facet normal 0.203105093888985 0.9791569439248984 -0.0
  outer loop
    vertex 85.84685144603472 33.38946797412706 3.948758807019678e-17
    vertex 80.8045037101871 34.43539479583256 9.888826
    vertex 85.84685144603472 33.38946797412706 9.888826
  endloop
endfacet
facet normal -0.6016802895172838 0.7987370213070116 4.811437139969104e-19
  outer loop
    vertex 85.84685144603472 33.38946797412706 9.888826
    vertex 102.74957629700796 46.12211477860702 7.049916206369744e-16
    vertex 85.84685144603472 33.38946797412706 3.948758807019678e-17
  endloop
endfacet
facet normal -0.6016802895172838 0.7987370213070116 4.811437139969104e-19
  outer loop
    vertex 102.74957629700796 46.12211477860702 7.049916206369744e-16
    vertex 85.84685144603472 33.38946797412706 9.888826
    vertex 102.74957629700796 46.12211477860702 9.888826000000002
  endloop
endfacet
facet normal 0.14078841750621865 -0.9900397070300235 -1.1378860407619005e-17
  outer loop
    vertex 33.4738396397382 23.832227195830587 9.888825999999987
    vertex 21.209153269872733 22.08812968846558 -6.525872936806326e-16
    vertex 33.4738396397382 23.832227195830587 -1.127986593019159e-14
  endloop
endfacet
facet normal 0.14078841750621865 -0.9900397070300235 -1.1378860407619005e-17
  outer loop
    vertex 21.209153269872733 22.08812968846558 -6.525872936806326e-16
    vertex 33.4738396397382 23.832227195830587 9.888825999999987
    vertex 21.209153269872733 22.08812968846558 9.888826
  endloop
endfacet
facet normal 3.363263533606301e-17 1.0443747195182402e-17 -1.0
  outer loop
    vertex 35.672751002266615 28.302729144111094 -4.93494134445882e-15
    vertex 57.37345458771386 25.73182703785784 -5.639932965095795e-15
    vertex 35.217121965197315 26.243836919696868 -6.3449245857327695e-15
  endloop
endfacet
facet normal 3.363263533606301e-17 1.0443747195182402e-17 -1.0
  outer loop
    vertex 57.37345458771386 25.73182703785784 -5.639932965095795e-15
    vertex 35.672751002266615 28.302729144111094 -4.93494134445882e-15
    vertex 56.847522851899264 27.59077179998689 -1.0574874309554616e-14
  endloop
endfacet
facet normal 3.363263533606301e-17 1.0443747195182402e-17 -1.0
  outer loop
    vertex 37.612329989525264 37.067280501922596 7.049916206369744e-16
    vertex 35.672751002266615 28.302729144111094 -4.93494134445882e-15
    vertex 37.612329989525264 41.92202789707335 7.049916206369744e-16
  endloop
endfacet
facet normal 3.363263533606301e-17 1.0443747195182402e-17 -1.0
  outer loop
    vertex 102.74957629700796 46.12211477860702 7.049916206369744e-16
    vertex 87.7037687062476 29.146913430757934 0.0
    vertex 85.84685144603472 33.38946797412706 3.948758807019678e-17
  endloop
endfacet
facet normal 3.363263533606301e-17 1.0443747195182402e-17 -1.0
  outer loop
    vertex 87.7037687062476 29.146913430757934 0.0
    vertex 102.74957629700796 46.12211477860702 7.049916206369744e-16
    vertex 102.32048440417738 24.92967575702804 0.0
  endloop
endfacet
facet normal 3.363263533606301e-17 1.0443747195182402e-17 -1.0
  outer loop
    vertex 111.93934054049004 49.72402509687481 7.049916206369744e-16
    vertex 104.63143356619068 26.697987458878583 2.8199664825478975e-15
    vertex 102.74957629700796 46.12211477860702 7.049916206369744e-16
  endloop
endfacet
facet normal 3.363263533606301e-17 1.0443747195182402e-17 -1.0
  outer loop
    vertex 104.63143356619068 26.697987458878583 2.8199664825478975e-15
    vertex 111.93934054049004 49.72402509687481 7.049916206369744e-16
    vertex 111.88545565921191 28.331987241290676 2.8199664825478975e-15
  endloop
endfacet
facet normal 3.363263533606301e-17 1.0443747195182402e-17 -1.0
  outer loop
    vertex 111.88545565921191 28.331987241290676 2.8199664825478975e-15
    vertex 111.93934054049004 49.72402509687481 7.049916206369744e-16
    vertex 116.57341950426276 18.180123243600598 2.8199664825478975e-15
  endloop
endfacet
facet normal 3.363263533606301e-17 1.0443747195182402e-17 -1.0
  outer loop
    vertex 116.57341950426276 18.180123243600598 2.8199664825478975e-15
    vertex 111.93934054049004 49.72402509687481 7.049916206369744e-16
    vertex 116.19772126848238 49.72402509687481 0.0
  endloop
endfacet
facet normal 3.363263533606301e-17 1.0443747195182402e-17 -1.0
  outer loop
    vertex 116.57341950426276 18.180123243600598 2.8199664825478975e-15
    vertex 116.19772126848238 49.72402509687481 0.0
    vertex 128.90652873967605 19.738899592979433 0.0
  endloop
endfacet
facet normal 3.363263533606301e-17 1.0443747195182402e-17 -1.0
  outer loop
    vertex 116.57341950426276 18.180123243600598 2.8199664825478975e-15
    vertex 128.90652873967605 19.738899592979433 0.0
    vertex 119.9966178005674 14.097826096874812 0.0
  endloop
endfacet
facet normal 3.363263533606301e-17 1.0443747195182402e-17 -1.0
  outer loop
    vertex 119.9966178005674 14.097826096874812 0.0
    vertex 128.90652873967605 19.738899592979433 0.0
    vertex 132.2823155768435 14.097826096874812 0.0
  endloop
endfacet
facet normal 3.363263533606301e-17 1.0443747195182402e-17 -1.0
  outer loop
    vertex 132.2823155768435 14.097826096874812 0.0
    vertex 128.90652873967605 19.738899592979433 0.0
    vertex 134.87385423572957 49.72402509687481 0.0
  endloop
endfacet
facet normal 3.363263533606301e-17 1.0443747195182402e-17 -1.0
  outer loop
    vertex 132.2823155768435 14.097826096874812 0.0
    vertex 134.87385423572957 49.72402509687481 0.0
    vertex 138.08665478202963 44.156928948765035 0.0
  endloop
endfacet
facet normal 3.363263533606301e-17 1.0443747195182402e-17 -1.0
  outer loop
    vertex 138.08665478202963 44.156928948765035 0.0
    vertex 134.87385423572957 49.72402509687481 0.0
    vertex 147.58685492540712 49.72402509687481 0.0
  endloop
endfacet
facet normal 3.363263533606301e-17 1.0443747195182402e-17 -1.0
  outer loop
    vertex 138.08665478202963 44.156928948765035 0.0
    vertex 147.58685492540712 49.72402509687481 0.0
    vertex 145.44996778202963 44.156928948765035 0.0
  endloop
endfacet
facet normal 3.363263533606301e-17 1.0443747195182402e-17 -1.0
  outer loop
    vertex 145.44996778202963 44.156928948765035 0.0
    vertex 147.58685492540712 49.72402509687481 0.0
    vertex 153.46885735663733 14.097826096874812 0.0
  endloop
endfacet
facet normal 3.363263533606301e-17 1.0443747195182402e-17 -1.0
  outer loop
    vertex 153.46885735663733 14.097826096874812 0.0
    vertex 147.58685492540712 49.72402509687481 0.0
    vertex 157.05311713118843 14.097826096874812 0.0
  endloop
endfacet
facet normal 3.363263533606301e-17 1.0443747195182402e-17 -1.0
  outer loop
    vertex 11.678985962586047 49.72402509687481 2.8199664825478975e-15
    vertex 8.541975131188414 18.825766317183124 0.0
    vertex 8.541975131188414 45.423535982725504 2.8199664825478975e-15
  endloop
endfacet
facet normal 3.363263533606301e-17 1.0443747195182402e-17 -1.0
  outer loop
    vertex 8.541975131188414 18.825766317183124 0.0
    vertex 11.678985962586047 49.72402509687481 2.8199664825478975e-15
    vertex 16.07061618535213 17.972329096874812 0.0
  endloop
endfacet
facet normal 3.363263533606301e-17 1.0443747195182402e-17 -1.0
  outer loop
    vertex 16.07061618535213 17.972329096874812 0.0
    vertex 11.678985962586047 49.72402509687481 2.8199664825478975e-15
    vertex 42.36428511608467 48.34221500815015 3.995211302169975e-23
  endloop
endfacet
facet normal 3.363263533606301e-17 1.0443747195182402e-17 -1.0
  outer loop
    vertex 42.36428511608467 48.34221500815015 3.995211302169975e-23
    vertex 11.678985962586047 49.72402509687481 2.8199664825478975e-15
    vertex 64.02998062044259 49.72402509687481 0.0
  endloop
endfacet
facet normal 3.363263533606301e-17 1.0443747195182402e-17 -1.0
  outer loop
    vertex 16.07061618535213 17.972329096874812 0.0
    vertex 42.36428511608467 48.34221500815015 3.995211302169975e-23
    vertex 21.209153269872733 22.08812968846558 -6.525872936806326e-16
  endloop
endfacet
facet normal 3.363263533606301e-17 1.0443747195182402e-17 -1.0
  outer loop
    vertex 21.209153269872733 22.08812968846558 -6.525872936806326e-16
    vertex 42.36428511608467 48.34221500815015 3.995211302169975e-23
    vertex 37.612329989525264 41.92202789707335 7.049916206369744e-16
  endloop
endfacet
facet normal 3.363263533606301e-17 1.0443747195182402e-17 -1.0
  outer loop
    vertex 21.209153269872733 22.08812968846558 -6.525872936806326e-16
    vertex 37.612329989525264 41.92202789707335 7.049916206369744e-16
    vertex 33.4738396397382 23.832227195830587 -1.127986593019159e-14
  endloop
endfacet
facet normal 3.363263533606301e-17 1.0443747195182402e-17 -1.0
  outer loop
    vertex 33.4738396397382 23.832227195830587 -1.127986593019159e-14
    vertex 37.612329989525264 41.92202789707335 7.049916206369744e-16
    vertex 34.681325153756994 23.822683307459815 -1.0828540229475728e-14
  endloop
endfacet
facet normal 3.363263533606301e-17 1.0443747195182402e-17 -1.0
  outer loop
    vertex 34.681325153756994 23.822683307459815 -1.0828540229475728e-14
    vertex 37.612329989525264 41.92202789707335 7.049916206369744e-16
    vertex 35.217121965197315 26.243836919696868 -6.3449245857327695e-15
  endloop
endfacet
facet normal 3.363263533606301e-17 1.0443747195182402e-17 -1.0
  outer loop
    vertex 35.217121965197315 26.243836919696868 -6.3449245857327695e-15
    vertex 37.612329989525264 41.92202789707335 7.049916206369744e-16
    vertex 35.672751002266615 28.302729144111094 -4.93494134445882e-15
  endloop
endfacet
facet normal 3.363263533606301e-17 1.0443747195182402e-17 -1.0
  outer loop
    vertex 37.612329989525264 41.92202789707335 7.049916206369744e-16
    vertex 42.36428511608467 48.34221500815015 3.995211302169975e-23
    vertex 39.96569437293136 44.00059869354527 7.049916206369744e-16
  endloop
endfacet
facet normal 3.363263533606301e-17 1.0443747195182402e-17 -1.0
  outer loop
    vertex 42.36428511608467 48.34221500815015 3.995211302169975e-23
    vertex 64.02998062044259 49.72402509687481 0.0
    vertex 56.32159111608467 48.34221500815015 3.995211302169975e-23
  endloop
endfacet
facet normal 3.363263533606301e-17 1.0443747195182402e-17 -1.0
  outer loop
    vertex 56.32159111608467 48.34221500815015 3.995211302169975e-23
    vertex 64.02998062044259 49.72402509687481 0.0
    vertex 58.179589171736154 45.386290867059245 -1.6919798895287383e-14
  endloop
endfacet
facet normal 3.363263533606301e-17 1.0443747195182402e-17 -1.0
  outer loop
    vertex 58.179589171736154 45.386290867059245 -1.6919798895287383e-14
    vertex 64.02998062044259 49.72402509687481 0.0
    vertex 63.29709185322333 45.386290867059245 -1.6919798895287383e-14
  endloop
endfacet
facet normal 3.363263533606301e-17 1.0443747195182402e-17 -1.0
  outer loop
    vertex 63.29709185322333 45.386290867059245 -1.6919798895287383e-14
    vertex 64.02998062044259 49.72402509687481 0.0
    vertex 68.99883151177228 38.18305834255116 -1.6919798895287383e-14
  endloop
endfacet
facet normal 3.363263533606301e-17 1.0443747195182402e-17 -1.0
  outer loop
    vertex 68.99883151177228 38.18305834255116 -1.6919798895287383e-14
    vertex 64.02998062044259 49.72402509687481 0.0
    vertex 80.8045037101871 34.43539479583256 0.0
  endloop
endfacet
facet normal 3.363263533606301e-17 1.0443747195182402e-17 -1.0
  outer loop
    vertex 68.99883151177228 38.18305834255116 -1.6919798895287383e-14
    vertex 80.8045037101871 34.43539479583256 0.0
    vertex 70.12047701518473 34.67940068520336 -7.049916206369744e-16
  endloop
endfacet
facet normal 3.363263533606301e-17 1.0443747195182402e-17 -1.0
  outer loop
    vertex 70.12047701518473 34.67940068520336 -7.049916206369744e-16
    vertex 80.8045037101871 34.43539479583256 0.0
    vertex 79.41359164773574 24.80867398796561 -7.049916206369744e-16
  endloop
endfacet
facet normal 3.363263533606301e-17 1.0443747195182402e-17 -1.0
  outer loop
    vertex 79.41359164773574 24.80867398796561 -7.049916206369744e-16
    vertex 80.8045037101871 34.43539479583256 0.0
    vertex 79.51635703359719 17.828774418937098 1.0574874309554616e-14
  endloop
endfacet
facet normal 3.363263533606301e-17 1.0443747195182402e-17 -1.0
  outer loop
    vertex 79.51635703359719 17.828774418937098 1.0574874309554616e-14
    vertex 80.8045037101871 34.43539479583256 0.0
    vertex 93.02405086431112 22.1235627145405 0.0
  endloop
endfacet
facet normal 3.363263533606301e-17 1.0443747195182402e-17 -1.0
  outer loop
    vertex 79.51635703359719 17.828774418937098 1.0574874309554616e-14
    vertex 93.02405086431112 22.1235627145405 0.0
    vertex 101.4683681352569 20.38673409687481 0.0
  endloop
endfacet
facet normal 3.363263533606301e-17 1.0443747195182402e-17 -1.0
  outer loop
    vertex 93.02405086431112 22.1235627145405 0.0
    vertex 80.8045037101871 34.43539479583256 0.0
    vertex 87.7037687062476 29.146913430757934 0.0
  endloop
endfacet
facet normal 3.363263533606301e-17 1.0443747195182402e-17 -1.0
  outer loop
    vertex 87.7037687062476 29.146913430757934 0.0
    vertex 80.8045037101871 34.43539479583256 0.0
    vertex 85.84685144603472 33.38946797412706 3.948758807019678e-17
  endloop
endfacet
facet normal 3.363263533606301e-17 1.0443747195182402e-17 -1.0
  outer loop
    vertex 101.4683681352569 20.38673409687481 0.0
    vertex 93.02405086431112 22.1235627145405 0.0
    vertex 102.32048440417738 24.92967575702804 0.0
  endloop
endfacet
facet normal 3.363263533606301e-17 1.0443747195182402e-17 -1.0
  outer loop
    vertex 101.4683681352569 20.38673409687481 0.0
    vertex 102.32048440417738 24.92967575702804 0.0
    vertex 119.9966178005674 14.097826096874812 0.0
  endloop
endfacet
facet normal 3.363263533606301e-17 1.0443747195182402e-17 -1.0
  outer loop
    vertex 119.9966178005674 14.097826096874812 0.0
    vertex 102.32048440417738 24.92967575702804 0.0
    vertex 104.63143356619068 26.697987458878583 2.8199664825478975e-15
  endloop
endfacet
facet normal 3.363263533606301e-17 1.0443747195182402e-17 -1.0
  outer loop
    vertex 104.63143356619068 26.697987458878583 2.8199664825478975e-15
    vertex 102.32048440417738 24.92967575702804 0.0
    vertex 102.74957629700796 46.12211477860702 7.049916206369744e-16
  endloop
endfacet
facet normal 3.363263533606301e-17 1.0443747195182402e-17 -1.0
  outer loop
    vertex 119.9966178005674 14.097826096874812 0.0
    vertex 104.63143356619068 26.697987458878583 2.8199664825478975e-15
    vertex 116.57341950426276 18.180123243600598 2.8199664825478975e-15
  endloop
endfacet
facet normal 3.363263533606301e-17 1.0443747195182402e-17 -1.0
  outer loop
    vertex 62.49884286717815 28.10020865522727 -7.049916206369744e-16
    vertex 63.65221124405182 23.593699274410923 0.0
    vertex 57.965656493661044 23.638645439910984 -2.1254816538853124e-15
  endloop
endfacet
facet normal 3.363263533606301e-17 1.0443747195182402e-17 -1.0
  outer loop
    vertex 63.65221124405182 23.593699274410923 0.0
    vertex 62.49884286717815 28.10020865522727 -7.049916206369744e-16
    vertex 79.41359164773574 24.80867398796561 -7.049916206369744e-16
  endloop
endfacet
facet normal 3.363263533606301e-17 1.0443747195182402e-17 -1.0
  outer loop
    vertex 63.65221124405182 23.593699274410923 0.0
    vertex 79.41359164773574 24.80867398796561 -7.049916206369744e-16
    vertex 79.51635703359719 17.828774418937098 1.0574874309554616e-14
  endloop
endfacet
facet normal 3.363263533606301e-17 1.0443747195182402e-17 -1.0
  outer loop
    vertex 57.965656493661044 29.449716562115935 -1.6919798895287383e-14
    vertex 56.847522851899264 27.59077179998689 -1.0574874309554616e-14
    vertex 56.32159111608467 29.449716562115935 -1.6919798895287383e-14
  endloop
endfacet
facet normal 3.363263533606301e-17 1.0443747195182402e-17 -1.0
  outer loop
    vertex 56.847522851899264 27.59077179998689 -1.0574874309554616e-14
    vertex 57.965656493661044 29.449716562115935 -1.6919798895287383e-14
    vertex 57.37345458771386 25.73182703785784 -5.639932965095795e-15
  endloop
endfacet
facet normal 3.363263533606301e-17 1.0443747195182402e-17 -1.0
  outer loop
    vertex 57.37345458771386 25.73182703785784 -5.639932965095795e-15
    vertex 57.965656493661044 29.449716562115935 -1.6919798895287383e-14
    vertex 57.965656493661044 23.638645439910984 -2.1254816538853124e-15
  endloop
endfacet
facet normal 3.363263533606301e-17 1.0443747195182402e-17 -1.0
  outer loop
    vertex 57.965656493661044 23.638645439910984 -2.1254816538853124e-15
    vertex 57.965656493661044 29.449716562115935 -1.6919798895287383e-14
    vertex 68.99883151177228 38.18305834255116 -1.6919798895287383e-14
  endloop
endfacet
facet normal 3.363263533606301e-17 1.0443747195182402e-17 -1.0
  outer loop
    vertex 57.965656493661044 23.638645439910984 -2.1254816538853124e-15
    vertex 68.99883151177228 38.18305834255116 -1.6919798895287383e-14
    vertex 62.49884286717815 28.10020865522727 -7.049916206369744e-16
  endloop
endfacet
facet normal 3.363263533606301e-17 1.0443747195182402e-17 -1.0
  outer loop
    vertex 62.49884286717815 28.10020865522727 -7.049916206369744e-16
    vertex 68.99883151177228 38.18305834255116 -1.6919798895287383e-14
    vertex 70.12047701518473 34.67940068520336 -7.049916206369744e-16
  endloop
endfacet
facet normal 2.046676383622317e-16 -5.754790026564555e-16 -1.0
  outer loop
    vertex 35.217121965197315 26.243836919696868 2.528943999999991
    vertex 57.965656493661044 23.638645439910984 2.528943999999998
    vertex 34.681325153756994 23.822683307459815 2.528943999999989
  endloop
endfacet
facet normal 2.046676383622317e-16 -5.754790026564555e-16 -1.0
  outer loop
    vertex 57.965656493661044 23.638645439910984 2.528943999999998
    vertex 35.217121965197315 26.243836919696868 2.528943999999991
    vertex 57.37345458771386 25.73182703785784 2.5289439999999925
  endloop
endfacet
facet normal -0.9622310939692998 -0.27223394681531643 2.7319217996588628e-18
  outer loop
    vertex 56.32159111608467 29.449716562115935 2.5289439999999828
    vertex 56.847522851899264 27.59077179998689 -1.0574874309554616e-14
    vertex 56.847522851899264 27.59077179998689 2.5289439999999876
  endloop
endfacet
facet normal -0.9622310939692998 -0.27223394681531643 2.7319217996588628e-18
  outer loop
    vertex 56.847522851899264 27.59077179998689 -1.0574874309554616e-14
    vertex 56.32159111608467 29.449716562115935 2.5289439999999828
    vertex 56.32159111608467 29.449716562115935 -1.6919798895287383e-14
  endloop
endfacet
facet normal 0.9763777452173625 -0.21607058717988234 7.160958032513552e-18
  outer loop
    vertex 35.217121965197315 26.243836919696868 -6.3449245857327695e-15
    vertex 34.681325153756994 23.822683307459815 2.528943999999989
    vertex 34.681325153756994 23.822683307459815 -1.0828540229475728e-14
  endloop
endfacet
facet normal 0.9763777452173625 -0.21607058717988234 7.160958032513552e-18
  outer loop
    vertex 34.681325153756994 23.822683307459815 2.528943999999989
    vertex 35.217121965197315 26.243836919696868 -6.3449245857327695e-15
    vertex 35.217121965197315 26.243836919696868 2.528943999999991
  endloop
endfacet
facet normal 0.8753032814082374 -0.48357436403925713 -5.547969730108101e-16
  outer loop
    vertex 42.36428511608467 48.34221500815015 3.995211302169975e-23
    vertex 39.96569437293136 44.00059869354527 2.5289440000000005
    vertex 39.96569437293136 44.00059869354527 7.049916206369744e-16
  endloop
endfacet
facet normal 0.8753032814082374 -0.48357436403925713 -5.547969730108101e-16
  outer loop
    vertex 39.96569437293136 44.00059869354527 2.5289440000000005
    vertex 42.36428511608467 48.34221500815015 3.995211302169975e-23
    vertex 42.36428511608467 48.34221500815015 2.5289439999999996
  endloop
endfacet
facet normal 0.0 -1.0 -2.238358776406261e-16
  outer loop
    vertex 56.32159111608467 48.34221500815015 2.5289439999999996
    vertex 42.36428511608467 48.34221500815015 3.995211302169975e-23
    vertex 56.32159111608467 48.34221500815015 3.995211302169975e-23
  endloop
endfacet
facet normal 0.0 -1.0 -2.238358776406261e-16
  outer loop
    vertex 42.36428511608467 48.34221500815015 3.995211302169975e-23
    vertex 56.32159111608467 48.34221500815015 2.5289439999999996
    vertex 42.36428511608467 48.34221500815015 2.5289439999999996
  endloop
endfacet
facet normal -0.8466380209372122 -0.5321692038285574 3.128128918686237e-16
  outer loop
    vertex 56.32159111608467 48.34221500815015 2.5289439999999996
    vertex 58.179589171736154 45.386290867059245 -1.6919798895287383e-14
    vertex 58.179589171736154 45.386290867059245 2.5289439999999828
  endloop
endfacet
facet normal -0.8466380209372122 -0.5321692038285574 3.128128918686237e-16
  outer loop
    vertex 58.179589171736154 45.386290867059245 -1.6919798895287383e-14
    vertex 56.32159111608467 48.34221500815015 2.5289439999999996
    vertex 56.32159111608467 48.34221500815015 3.995211302169975e-23
  endloop
endfacet
facet normal -7.245472738405224e-16 3.480232746512843e-16 -1.0
  outer loop
    vertex 42.36428511608467 48.34221500815015 2.5289439999999996
    vertex 42.31905875633745 46.079169490017186 2.5289440000000005
    vertex 39.96569437293136 44.00059869354527 2.5289440000000005
  endloop
endfacet
facet normal -7.245472738405224e-16 3.480232746512843e-16 -1.0
  outer loop
    vertex 42.31905875633745 46.079169490017186 2.5289440000000005
    vertex 42.36428511608467 48.34221500815015 2.5289439999999996
    vertex 48.409042756337456 46.079169490017186 2.5289440000000005
  endloop
endfacet
facet normal -7.245472738405224e-16 3.480232746512843e-16 -1.0
  outer loop
    vertex 48.409042756337456 46.079169490017186 2.5289440000000005
    vertex 42.36428511608467 48.34221500815015 2.5289439999999996
    vertex 56.32159111608467 48.34221500815015 2.5289439999999996
  endloop
endfacet
facet normal -7.245472738405224e-16 3.480232746512843e-16 -1.0
  outer loop
    vertex 48.409042756337456 46.079169490017186 2.5289440000000005
    vertex 56.32159111608467 48.34221500815015 2.5289439999999996
    vertex 55.10867685322333 45.386290867059245 2.5289439999999828
  endloop
endfacet
facet normal -7.245472738405224e-16 3.480232746512843e-16 -1.0
  outer loop
    vertex 48.409042756337456 46.079169490017186 2.5289440000000005
    vertex 55.10867685322333 45.386290867059245 2.5289439999999828
    vertex 51.514386823200624 29.449716562115935 2.5289439999999828
  endloop
endfacet
facet normal -7.245472738405224e-16 3.480232746512843e-16 -1.0
  outer loop
    vertex 55.10867685322333 45.386290867059245 2.5289439999999828
    vertex 56.32159111608467 48.34221500815015 2.5289439999999996
    vertex 58.179589171736154 45.386290867059245 2.5289439999999828
  endloop
endfacet
facet normal -7.245472738405224e-16 3.480232746512843e-16 -1.0
  outer loop
    vertex 35.672751002266615 28.302729144111094 2.528943999999993
    vertex 37.612329989525264 29.70422389707335 2.5289440000000005
    vertex 56.847522851899264 27.59077179998689 2.5289439999999876
  endloop
endfacet
facet normal -7.245472738405224e-16 3.480232746512843e-16 -1.0
  outer loop
    vertex 37.612329989525264 29.70422389707335 2.5289440000000005
    vertex 35.672751002266615 28.302729144111094 2.528943999999993
    vertex 37.612329989525264 37.067280501922596 2.5289440000000005
  endloop
endfacet
facet normal -7.245472738405224e-16 3.480232746512843e-16 -1.0
  outer loop
    vertex 56.847522851899264 27.59077179998689 2.5289439999999876
    vertex 37.612329989525264 29.70422389707335 2.5289440000000005
    vertex 44.38183376825212 29.768676797719085 2.5289440000000005
  endloop
endfacet
facet normal -7.245472738405224e-16 3.480232746512843e-16 -1.0
  outer loop
    vertex 56.847522851899264 27.59077179998689 2.5289439999999876
    vertex 44.38183376825212 29.768676797719085 2.5289440000000005
    vertex 51.514386823200624 29.449716562115935 2.5289439999999828
  endloop
endfacet
facet normal -7.245472738405224e-16 3.480232746512843e-16 -1.0
  outer loop
    vertex 51.514386823200624 29.449716562115935 2.5289439999999828
    vertex 44.38183376825212 29.768676797719085 2.5289440000000005
    vertex 48.409042756337456 46.079169490017186 2.5289440000000005
  endloop
endfacet
facet normal -7.245472738405224e-16 3.480232746512843e-16 -1.0
  outer loop
    vertex 56.847522851899264 27.59077179998689 2.5289439999999876
    vertex 51.514386823200624 29.449716562115935 2.5289439999999828
    vertex 56.32159111608467 29.449716562115935 2.5289439999999828
  endloop
endfacet
facet normal 0.03360391584244598 0.99943522893685 1.0972386048415498e-18
  outer loop
    vertex 35.672751002266615 28.302729144111094 -4.93494134445882e-15
    vertex 56.847522851899264 27.59077179998689 2.5289439999999876
    vertex 56.847522851899264 27.59077179998689 -1.0574874309554616e-14
  endloop
endfacet
facet normal 0.03360391584244598 0.99943522893685 1.0972386048415498e-18
  outer loop
    vertex 56.847522851899264 27.59077179998689 2.5289439999999876
    vertex 35.672751002266615 28.302729144111094 -4.93494134445882e-15
    vertex 35.672751002266615 28.302729144111094 2.528943999999993
  endloop
endfacet
facet normal -0.02310279559615451 -0.999733094798628 4.3175327630404456e-18
  outer loop
    vertex 57.37345458771386 25.73182703785784 -5.639932965095795e-15
    vertex 35.217121965197315 26.243836919696868 2.528943999999991
    vertex 35.217121965197315 26.243836919696868 -6.3449245857327695e-15
  endloop
endfacet
facet normal -0.02310279559615451 -0.999733094798628 4.3175327630404456e-18
  outer loop
    vertex 35.217121965197315 26.243836919696868 2.528943999999991
    vertex 57.37345458771386 25.73182703785784 -5.639932965095795e-15
    vertex 57.37345458771386 25.73182703785784 2.5289439999999925
  endloop
endfacet
facet normal 0.9763777452173623 -0.21607058717988362 4.399675438000205e-17
  outer loop
    vertex 37.612329989525264 37.067280501922596 7.049916206369744e-16
    vertex 35.672751002266615 28.302729144111094 2.528943999999993
    vertex 35.672751002266615 28.302729144111094 -4.93494134445882e-15
  endloop
endfacet
facet normal 0.9763777452173623 -0.21607058717988362 4.399675438000205e-17
  outer loop
    vertex 35.672751002266615 28.302729144111094 2.528943999999993
    vertex 37.612329989525264 37.067280501922596 7.049916206369744e-16
    vertex 37.612329989525264 37.067280501922596 2.5289440000000005
  endloop
endfacet
facet normal -0.9622310939692996 -0.27223394681531704 8.275012367237103e-18
  outer loop
    vertex 57.37345458771386 25.73182703785784 2.5289439999999925
    vertex 57.965656493661044 23.638645439910984 -2.1254816538853124e-15
    vertex 57.965656493661044 23.638645439910984 2.528943999999998
  endloop
endfacet
facet normal -0.9622310939692996 -0.27223394681531704 8.275012367237103e-18
  outer loop
    vertex 57.965656493661044 23.638645439910984 -2.1254816538853124e-15
    vertex 57.37345458771386 25.73182703785784 2.5289439999999925
    vertex 57.37345458771386 25.73182703785784 -5.639932965095795e-15
  endloop
endfacet
endsolid TiltStick
